<svg width="623" height="216" viewBox="0 0 623 216" fill="none" xmlns="http://www.w3.org/2000/svg">
<g filter="url(#filter0_d_37_2)">
<path d="M116.556 97.08C116.897 96.6533 117.324 96.056 117.836 95.288C118.433 94.4347 118.903 93.8373 119.244 93.496C119.671 93.0693 120.055 92.856 120.396 92.856C120.908 92.856 122.06 93.5813 123.852 95.032C125.644 96.4827 127.308 98.0187 128.844 99.64C130.465 101.261 131.276 102.371 131.276 102.968C131.02 104.333 129.996 105.016 128.204 105.016H109.388V174.648C109.388 177.549 109.004 179.939 108.236 181.816C107.553 183.779 106.145 185.4 104.012 186.68C101.879 187.96 98.7214 188.813 94.54 189.24C94.3694 185.741 93.516 183.224 91.98 181.688C90.1027 179.811 86.4333 178.488 80.972 177.72V175.928C89.676 176.525 94.8814 176.824 96.588 176.824C97.6973 176.824 98.4653 176.653 98.892 176.312C99.3187 175.885 99.532 175.203 99.532 174.264V105.016H84.94C78.7107 115.939 71.6707 124.728 63.82 131.384L62.284 129.976C68.428 121.613 73.804 110.989 78.412 98.104C79.8627 94.008 81.1854 89.1867 82.38 83.64C83.66 78.0933 84.3427 73.5707 84.428 70.072L101.196 75.832C100.599 77.624 99.02 78.4773 96.46 78.392C93.9 86.1573 90.7854 93.7947 87.116 101.304H113.74L116.556 97.08ZM60.876 97.208C61.2173 96.7813 61.644 96.184 62.156 95.416C62.7534 94.648 63.2227 94.0933 63.564 93.752C63.9053 93.3253 64.2467 93.112 64.588 93.112C65.1 93.112 66.2093 93.8373 67.916 95.288C69.708 96.6533 71.3293 98.1467 72.78 99.768C74.316 101.304 75.084 102.371 75.084 102.968C74.828 104.333 73.7614 105.016 71.884 105.016H52.94V155.32C53.1107 165.901 53.452 175.928 53.964 185.4C53.2813 186.339 52.0867 187.192 50.38 187.96C48.7587 188.728 46.7533 189.112 44.364 189.112C43.6813 189.112 43.0413 188.856 42.444 188.344C41.8467 187.832 41.548 187.235 41.548 186.552C41.8893 181.517 42.188 176.653 42.444 171.96C42.7 167.181 42.8707 160.952 42.956 153.272V105.016H37.196C31.564 116.109 24.9933 125.155 17.484 132.152L15.82 131C21.6227 121.955 26.6573 111.032 30.924 98.232C32.2893 94.2213 33.484 89.4427 34.508 83.896C35.532 78.3493 36.0867 73.8267 36.172 70.328C46.0707 72.9733 51.02 74.8507 51.02 75.96C51.02 76.3013 50.636 76.6427 49.868 76.984L47.564 78.008C45.004 86.8827 42.1027 94.648 38.86 101.304H58.188L60.876 97.208ZM195.532 178.232C195.617 179.171 195.66 180.024 195.66 180.792C195.745 181.56 195.831 182.115 195.916 182.456C195.745 183.565 194.807 184.589 193.1 185.528C191.479 186.467 189.644 186.936 187.596 186.936C186.743 186.936 186.017 186.68 185.42 186.168C184.823 185.656 184.524 185.059 184.524 184.376C184.865 179.341 185.164 174.477 185.42 169.784C185.676 165.005 185.847 158.776 185.932 151.096V106.04C185.932 95.288 185.377 86.5413 184.268 79.8L196.556 85.304H268.108L270.54 82.232C270.796 81.976 271.137 81.5493 271.564 80.952C272.076 80.3547 272.503 79.928 272.844 79.672C273.185 79.3307 273.527 79.16 273.868 79.16C274.38 79.16 275.489 79.8 277.196 81.08C278.988 82.36 280.652 83.7253 282.188 85.176C283.724 86.6267 284.492 87.6507 284.492 88.248C283.468 89.4427 281.761 90.3387 279.372 90.936V151.864C279.543 162.445 279.884 172.472 280.396 181.944C279.628 182.797 278.263 183.693 276.3 184.632C274.337 185.571 272.503 186.04 270.796 186.04C270.113 186.04 269.601 185.784 269.26 185.272C269.004 184.76 268.876 184.163 268.876 183.48C268.876 183.309 269.047 181.901 269.388 179.256V175.8H195.532V178.232ZM227.02 127.8V89.016H195.532V127.8H227.02ZM269.388 127.8V89.016H236.748V127.8H269.388ZM227.02 131.512H195.532V172.088H227.02V131.512ZM236.748 131.512V172.088H269.388V131.512H236.748ZM364.62 99.64C368.46 103.48 371.489 106.637 373.708 109.112C373.708 101.688 373.367 95.8853 372.684 91.704L384.588 96.952H410.316C409.975 90.04 409.804 81.976 409.804 72.76L423.884 74.424C423.884 74.936 423.628 75.6187 423.116 76.472C428.748 76.8987 432.887 78.136 435.532 80.184C438.263 82.232 439.628 84.4507 439.628 86.84C439.628 88.2053 439.244 89.3573 438.476 90.296C442.487 93.5387 445.687 96.312 448.076 98.616C447.735 99.9813 446.668 100.664 444.876 100.664H419.916C420.343 116.195 421.964 129.933 424.78 141.88C425.207 140.856 425.591 139.917 425.932 139.064C426.273 138.211 426.615 137.4 426.956 136.632C428.407 132.621 429.687 128.184 430.796 123.32C431.905 118.371 432.545 114.104 432.716 110.52C441.676 113.507 446.156 115.512 446.156 116.536C446.156 116.792 445.772 117.091 445.004 117.432L442.572 118.2C438.647 132.195 433.868 143.843 428.236 153.144C430.711 160.227 433.996 166.243 438.092 171.192C438.86 172.216 439.457 172.728 439.884 172.728C440.311 172.728 440.823 172.088 441.42 170.808C443.212 166.883 444.876 162.147 446.412 156.6L447.948 156.856L445.644 177.208C447.607 181.048 448.588 183.821 448.588 185.528C448.588 186.552 448.289 187.32 447.692 187.832C446.839 188.6 445.729 188.984 444.364 188.984C442.401 188.984 440.268 188.131 437.964 186.424C435.66 184.803 433.74 182.925 432.204 180.792C428.449 175.928 424.993 169.827 421.836 162.488C413.388 173.325 402.252 182.029 388.428 188.6L387.148 186.424C393.975 182.072 399.948 177.293 405.068 172.088C410.273 166.797 414.839 160.781 418.764 154.04C414.241 139.704 411.511 121.912 410.572 100.664H383.052V120.888H395.468L397.516 118.2C397.772 117.859 398.199 117.347 398.796 116.664C399.393 115.896 399.948 115.512 400.46 115.512C400.972 115.512 401.996 116.067 403.532 117.176C405.068 118.285 406.476 119.48 407.756 120.76C409.036 122.04 409.676 122.979 409.676 123.576C408.993 124.685 407.457 125.368 405.068 125.624C404.897 138.595 404.428 147.939 403.66 153.656C402.977 159.373 401.655 163.213 399.692 165.176C397.388 167.224 394.401 168.248 390.732 168.248C390.732 167.224 390.561 166.2 390.22 165.176C389.964 164.067 389.537 163.213 388.94 162.616C388.343 162.019 387.319 161.464 385.868 160.952C384.417 160.355 382.881 159.885 381.26 159.544V157.752C385.527 158.093 388.94 158.264 391.5 158.264C392.439 158.264 393.121 158.008 393.548 157.496C394.487 156.387 395.127 153.4 395.468 148.536C395.895 143.587 396.236 135.565 396.492 124.472H383.052V126.264C383.052 134.712 382.369 142.563 381.004 149.816C379.724 156.984 377.036 164.067 372.94 171.064C368.844 177.976 362.913 183.992 355.148 189.112L353.612 187.576C359.585 181.773 364.023 175.288 366.924 168.12C369.911 160.867 371.873 152.931 372.812 144.312L368.46 147.384C357.111 155.235 348.279 161.123 341.964 165.048C341.537 166.755 340.684 167.907 339.404 168.504L333.132 156.088C336.204 155.235 341.239 153.571 348.236 151.096V111.544H343.756C341.367 111.629 338.977 112.227 336.588 113.336L333.26 106.808C336.076 107.32 339.489 107.661 343.5 107.832H348.236V99.512C348.236 88.76 347.681 80.0133 346.572 73.272C351.863 74.6373 355.532 75.7893 357.58 76.728C359.713 77.5813 360.78 78.3067 360.78 78.904C360.78 79.3307 360.439 79.7573 359.756 80.184L357.58 81.592V107.832H359.244L364.62 99.64ZM435.404 91.704C434.039 91.704 432.844 91.3627 431.82 90.68C431.052 88.376 429.687 85.9867 427.724 83.512C425.847 81.0373 423.841 79.032 421.708 77.496L421.836 77.368C421.409 77.624 420.684 77.8373 419.66 78.008L419.532 85.816C419.532 88.2907 419.617 92.0027 419.788 96.952H431.18L435.404 91.704ZM373.068 142.776C373.495 138.253 373.708 132.792 373.708 126.392V110.392C373.196 111.16 372.257 111.544 370.892 111.544H357.58V147.896L372.812 142.264L373.068 142.776ZM592.844 91.32C593.271 90.808 593.74 90.168 594.252 89.4C594.764 88.632 595.191 88.0773 595.532 87.736C595.873 87.3093 596.215 87.096 596.556 87.096C597.068 87.096 598.22 87.8213 600.012 89.272C601.804 90.6373 603.468 92.1307 605.004 93.752C606.54 95.3733 607.308 96.4827 607.308 97.08C607.052 98.4453 605.985 99.128 604.108 99.128H584.524V175.288C584.524 179.555 583.671 182.84 581.964 185.144C580.257 187.448 576.716 188.856 571.34 189.368C571.169 186.04 570.444 183.608 569.164 182.072C567.457 180.365 564.215 179.171 559.436 178.488V176.568C566.945 177.08 571.425 177.336 572.876 177.336C573.9 177.336 574.583 177.165 574.924 176.824C575.351 176.483 575.564 175.843 575.564 174.904V99.128H565.964C565.708 117.048 564.94 130.915 563.66 140.728C562.38 150.541 559.009 159.629 553.548 167.992C548.172 176.355 539.596 183.523 527.82 189.496L526.156 187.32C535.799 180.92 542.796 173.581 547.148 165.304C551.5 156.941 554.103 148.152 554.956 138.936C555.895 129.635 556.407 116.365 556.492 99.128H549.708C545.868 99.2133 541.772 99.8107 537.42 100.92L534.22 94.52C538.913 95.032 544.588 95.3733 551.244 95.544H564.684C564.684 85.9013 564.172 77.8373 563.148 71.352C572.705 73.7413 577.484 75.576 577.484 76.856C577.484 77.2827 577.1 77.7093 576.332 78.136L574.028 79.544V95.544H590.156L592.844 91.32ZM529.1 130.36C532.513 133.688 535.287 136.547 537.42 138.936C538.615 135.181 539.553 131 540.236 126.392C540.919 121.699 541.175 117.645 541.004 114.232C546.039 115.427 549.537 116.408 551.5 117.176C553.463 117.859 554.444 118.456 554.444 118.968C554.444 119.224 554.06 119.565 553.292 119.992L551.116 121.144C549.153 128.483 546.593 135.139 543.436 141.112C540.364 147 536.737 151.907 532.556 155.832L530.764 154.68C533.153 150.413 535.073 146.019 536.524 141.496C535.841 141.667 535.329 141.752 534.988 141.752H521.804V167.992L538.316 163.64L538.828 165.432C524.151 172.685 510.711 178.957 498.508 184.248C497.996 185.784 497.057 186.851 495.692 187.448L491.34 175.16C492.961 174.904 495.223 174.435 498.124 173.752V150.968C498.124 141.069 497.655 133.261 496.716 127.544C504.567 129.933 508.492 131.683 508.492 132.792C508.492 133.133 508.193 133.475 507.596 133.816L505.932 134.84V171.96L513.1 170.168V115.256H507.084V118.968C507.084 119.48 506.359 120.077 504.908 120.76C503.543 121.443 501.836 121.784 499.788 121.784C499.191 121.784 498.679 121.528 498.252 121.016C497.911 120.504 497.74 119.907 497.74 119.224C498.081 115.811 498.337 111.587 498.508 106.552V98.872C498.508 88.888 498.039 81.0373 497.1 75.32L508.492 80.312H524.108L526.284 77.624C526.54 77.368 526.967 76.856 527.564 76.088C528.247 75.32 528.844 74.936 529.356 74.936C529.868 74.936 530.935 75.5333 532.556 76.728C534.177 77.8373 535.671 79.0747 537.036 80.44C538.401 81.72 539.084 82.6587 539.084 83.256C538.743 83.6827 538.103 84.1093 537.164 84.536C536.311 84.9627 535.287 85.304 534.092 85.56V96.184C534.263 104.803 534.519 111.587 534.86 116.536C534.433 117.304 533.324 118.072 531.532 118.84C529.74 119.608 528.119 119.992 526.668 119.992H525.388V115.256H521.804V138.04H523.852L529.1 130.36ZM507.084 84.024V111.544H525.388V84.024H507.084ZM589.772 114.872C595.916 119.992 600.396 125.197 603.212 130.488C606.028 135.693 607.436 140.429 607.436 144.696C607.436 147.256 606.967 149.347 606.028 150.968C605.089 152.504 603.852 153.272 602.316 153.272C601.036 153.272 599.671 152.547 598.22 151.096C598.305 145.891 597.324 140.088 595.276 133.688C593.228 127.288 590.796 121.272 587.98 115.64L589.772 114.872Z" fill="white"/>
</g>
<g filter="url(#filter1_d_37_2)">
<path d="M149.764 43.632C149.764 43.8027 149.593 43.984 149.252 44.176C148.932 44.368 148.58 44.464 148.196 44.464C148.004 44.464 147.833 44.4 147.684 44.272C147.535 44.144 147.46 43.9947 147.46 43.824C147.545 42.5653 147.62 41.3493 147.684 40.176C147.748 38.9813 147.791 37.424 147.812 35.504V22.416C147.812 19.728 147.673 17.5413 147.396 15.856L149.988 17.104H170.084L170.596 16.432C170.66 16.3467 170.735 16.24 170.82 16.112C170.927 15.984 171.012 15.888 171.076 15.824C171.161 15.76 171.247 15.728 171.332 15.728C171.46 15.728 171.716 15.8773 172.1 16.176C172.505 16.4533 172.879 16.7627 173.22 17.104C173.561 17.424 173.732 17.6587 173.732 17.808C173.647 17.936 173.476 18.064 173.22 18.192C172.964 18.2987 172.687 18.384 172.388 18.448V35.792C172.431 38.4373 172.516 40.944 172.644 43.312C172.473 43.5253 172.185 43.7387 171.78 43.952C171.396 44.1867 171.033 44.304 170.692 44.304C170.564 44.304 170.457 44.24 170.372 44.112C170.308 43.984 170.276 43.8347 170.276 43.664C170.276 43.664 170.319 43.408 170.404 42.896V42.192H149.764V43.632ZM149.764 18.032V41.264H170.404V18.032H149.764ZM164.804 27.76C164.868 27.6747 164.953 27.5573 165.06 27.408C165.188 27.2373 165.284 27.12 165.348 27.056C165.433 26.9707 165.519 26.928 165.604 26.928C165.817 26.928 166.233 27.2267 166.852 27.824C167.492 28.4 167.812 28.8053 167.812 29.04C167.748 29.3813 167.481 29.552 167.012 29.552H160.9V36.656H165.7L166.276 35.792C166.361 35.6853 166.447 35.568 166.532 35.44C166.617 35.312 166.703 35.1947 166.788 35.088C166.895 34.9813 166.991 34.928 167.076 34.928C167.204 34.928 167.46 35.0773 167.844 35.376C168.228 35.6747 168.58 35.9947 168.9 36.336C169.241 36.6773 169.412 36.9227 169.412 37.072C169.327 37.4133 169.071 37.584 168.644 37.584H156.58C155.065 37.6053 153.465 37.7547 151.78 38.032L151.012 36.4C152.185 36.528 153.604 36.6133 155.268 36.656H158.948V29.552H157.06C155.972 29.5733 154.841 29.7227 153.668 30L152.836 28.336C153.988 28.464 155.375 28.5493 156.996 28.592H158.948V22.832H156.644C155.321 22.8533 153.913 23.0027 152.42 23.28L151.62 21.68C152.793 21.808 154.212 21.8933 155.876 21.936H164.9L165.508 21.072C165.572 20.9867 165.657 20.8587 165.764 20.688C165.892 20.5173 165.999 20.3893 166.084 20.304C166.169 20.2187 166.255 20.176 166.34 20.176C166.468 20.176 166.724 20.3253 167.108 20.624C167.492 20.9227 167.844 21.2427 168.164 21.584C168.505 21.9253 168.676 22.1707 168.676 22.32C168.591 22.6613 168.324 22.832 167.876 22.832H160.9V28.592H164.228L164.804 27.76ZM162.916 30.352C164.175 30.8427 165.092 31.4187 165.668 32.08C166.265 32.7413 166.564 33.36 166.564 33.936C166.564 34.256 166.479 34.5227 166.308 34.736C166.159 34.928 165.956 35.024 165.7 35.024C165.487 35.024 165.252 34.928 164.996 34.736C164.868 34.096 164.559 33.392 164.068 32.624C163.599 31.8347 163.097 31.152 162.564 30.576L162.916 30.352ZM229.732 21.584C229.817 21.4773 229.913 21.3387 230.02 21.168C230.127 20.9973 230.212 20.8693 230.276 20.784C230.361 20.6987 230.447 20.656 230.532 20.656C230.724 20.656 231.14 20.976 231.78 21.616C232.441 22.256 232.772 22.6933 232.772 22.928C232.708 23.2693 232.452 23.44 232.004 23.44H227.908V29.712L232.58 28.048L232.74 28.528L231.428 29.232C230.297 29.872 229.124 30.5013 227.908 31.12V41.392C227.908 42.032 227.833 42.544 227.684 42.928C227.556 43.3333 227.279 43.6533 226.852 43.888C226.425 44.144 225.785 44.3253 224.932 44.432C224.825 43.664 224.612 43.1627 224.292 42.928C223.929 42.5653 223.151 42.3093 221.956 42.16V41.648C223.812 41.776 224.921 41.84 225.284 41.84C225.54 41.84 225.711 41.7973 225.796 41.712C225.903 41.6053 225.956 41.4347 225.956 41.2V32.112L223.236 33.52C223.151 33.5413 222.905 33.6587 222.5 33.872C222.351 34.2987 222.137 34.576 221.86 34.704L220.772 31.984C221.839 31.728 223.567 31.1947 225.956 30.384V23.44H224.42C223.567 23.4613 222.692 23.6107 221.796 23.888L220.996 22.224C221.935 22.352 223.065 22.4373 224.388 22.48H225.956V21.584C225.956 18.896 225.817 16.7093 225.54 15.024C227.652 15.6213 228.708 16.0693 228.708 16.368C228.708 16.4747 228.623 16.5813 228.452 16.688L227.908 17.04V22.48H229.156L229.732 21.584ZM235.684 21.68C237.113 21.1893 238.671 20.5387 240.356 19.728C242.575 18.64 244.239 17.4773 245.348 16.24C246.905 17.5627 247.684 18.352 247.684 18.608C247.684 18.7147 247.545 18.768 247.268 18.768L246.532 18.736C245.145 19.44 243.471 20.1333 241.508 20.816C239.567 21.4773 237.625 22.0107 235.684 22.416V24.976C235.684 25.2747 235.791 25.4773 236.004 25.584C236.217 25.6693 236.708 25.712 237.476 25.712H242.02C244.452 25.712 245.86 25.6907 246.244 25.648C246.479 25.6267 246.639 25.5947 246.724 25.552C246.831 25.5093 246.927 25.424 247.012 25.296C247.311 24.6987 247.62 23.6533 247.94 22.16H248.324L248.42 25.36C248.783 25.4667 249.028 25.584 249.156 25.712C249.305 25.84 249.38 26.0107 249.38 26.224C249.38 26.5867 249.199 26.864 248.836 27.056C248.473 27.2267 247.769 27.3547 246.724 27.44C245.7 27.504 244.1 27.536 241.924 27.536H237.284C236.303 27.536 235.567 27.4827 235.076 27.376C234.585 27.248 234.244 27.0347 234.052 26.736C233.881 26.4373 233.796 25.9787 233.796 25.36V20.304C233.796 18.192 233.689 16.464 233.476 15.12C235.396 15.7173 236.356 16.1653 236.356 16.464C236.356 16.5493 236.281 16.6453 236.132 16.752L235.684 17.072V21.68ZM235.908 42.736C235.929 42.9493 235.94 43.1413 235.94 43.312C235.961 43.4827 235.983 43.6 236.004 43.664C235.961 43.8773 235.759 44.0693 235.396 44.24C235.033 44.432 234.649 44.528 234.244 44.528C234.116 44.528 233.999 44.464 233.892 44.336C233.785 44.208 233.732 44.0587 233.732 43.888C233.86 42.224 233.945 40.56 233.988 38.896V36.048C233.988 33.36 233.849 31.1733 233.572 29.488L236.068 30.64H245.092L245.604 30.032C245.668 29.968 245.775 29.8507 245.924 29.68C246.073 29.488 246.212 29.392 246.34 29.392C246.468 29.392 246.724 29.5307 247.108 29.808C247.513 30.064 247.876 30.352 248.196 30.672C248.537 30.9707 248.708 31.1947 248.708 31.344C248.452 31.6427 248.004 31.856 247.364 31.984V35.92C247.407 38.5653 247.492 41.072 247.62 43.44C247.471 43.632 247.193 43.824 246.788 44.016C246.383 44.208 246.02 44.304 245.7 44.304C245.572 44.304 245.465 44.24 245.38 44.112C245.316 43.984 245.284 43.8347 245.284 43.664C245.284 43.664 245.327 43.408 245.412 42.896V42.16H235.908V42.736ZM245.412 35.856V31.568H235.908V35.856H245.412ZM235.908 36.816V41.2H245.412V36.816H235.908ZM316.964 41.744C320.868 41.744 323.471 41.7227 324.772 41.68V42.128C324.409 42.2133 324.121 42.4053 323.908 42.704C323.716 43.0027 323.599 43.376 323.556 43.824H316.836C314.297 43.824 312.196 43.6107 310.532 43.184C308.889 42.7787 307.471 42.0213 306.276 40.912C305.103 39.7813 304.111 38.1813 303.3 36.112C301.785 39.8453 299.513 42.64 296.484 44.496L296.196 44.112C298.457 42.2133 300.175 39.5467 301.348 36.112C301.689 35.1093 301.956 34 302.148 32.784C302.34 31.568 302.415 30.5013 302.372 29.584C304.548 30.032 305.636 30.3947 305.636 30.672C305.636 30.736 305.54 30.8213 305.348 30.928L304.772 31.216C304.516 32.5173 304.143 33.8827 303.652 35.312C304.313 36.8267 305.113 38.032 306.052 38.928C306.991 39.8027 308.121 40.464 309.444 40.912V26.352H305.22C303.705 26.3733 302.105 26.5227 300.42 26.8L299.588 25.168C300.761 25.296 302.18 25.3813 303.844 25.424H316.996L317.668 24.56C317.732 24.4747 317.828 24.3467 317.956 24.176C318.084 24.0053 318.191 23.8773 318.276 23.792C318.383 23.7067 318.479 23.664 318.564 23.664C318.692 23.664 319.001 23.8347 319.492 24.176C320.068 23.0453 320.537 21.872 320.9 20.656H300.9C300.9 21.7013 300.719 22.5973 300.356 23.344C300.015 24.0907 299.588 24.6453 299.076 25.008C298.649 25.328 298.212 25.488 297.764 25.488C297.465 25.488 297.209 25.4027 296.996 25.232C296.804 25.0613 296.708 24.8267 296.708 24.528C296.708 24.272 296.783 24.0267 296.932 23.792C297.081 23.5573 297.284 23.3547 297.54 23.184C298.265 22.7787 298.863 22.096 299.332 21.136C299.823 20.1547 300.025 19.1093 299.94 18L300.484 17.968C300.633 18.5013 300.751 19.088 300.836 19.728H309.444C309.444 17.808 309.348 16.1973 309.156 14.896C311.268 15.472 312.324 15.92 312.324 16.24C312.324 16.3467 312.239 16.4533 312.068 16.56L311.524 16.912V19.728H320.868L321.476 18.96C321.54 18.8747 321.625 18.7573 321.732 18.608C321.86 18.4587 321.967 18.352 322.052 18.288C322.137 18.2027 322.223 18.16 322.308 18.16C322.5 18.16 322.927 18.5333 323.588 19.28C324.249 20.0053 324.58 20.4853 324.58 20.72C324.473 20.8267 324.324 20.9013 324.132 20.944C323.961 20.9867 323.716 21.0293 323.396 21.072C322.969 21.6053 322.415 22.2027 321.732 22.864C321.071 23.5253 320.463 24.0693 319.908 24.496C320.74 25.1573 321.156 25.6053 321.156 25.84C321.071 26.1813 320.793 26.352 320.324 26.352H311.492V32.56H317.028L317.668 31.632C317.732 31.5467 317.828 31.4187 317.956 31.248C318.084 31.056 318.191 30.9173 318.276 30.832C318.383 30.7253 318.479 30.672 318.564 30.672C318.692 30.672 318.969 30.832 319.396 31.152C319.823 31.472 320.217 31.824 320.58 32.208C320.964 32.5707 321.156 32.8267 321.156 32.976C321.071 33.3173 320.783 33.488 320.292 33.488H311.492V41.392C312.921 41.6267 314.745 41.744 316.964 41.744ZM394.852 19.952C394.916 19.8667 395.023 19.728 395.172 19.536C395.321 19.3227 395.46 19.216 395.588 19.216C395.716 19.216 395.972 19.3653 396.356 19.664C396.761 19.9627 397.135 20.2933 397.476 20.656C397.817 20.9973 397.988 21.2427 397.988 21.392C397.732 21.6907 397.305 21.904 396.708 22.032V25.04C396.772 27.536 396.847 29.4667 396.932 30.832C396.804 31.024 396.527 31.2267 396.1 31.44C395.673 31.632 395.289 31.728 394.948 31.728C394.799 31.728 394.681 31.664 394.596 31.536C394.532 31.408 394.5 31.2587 394.5 31.088C394.521 31.0453 394.564 30.8213 394.628 30.416V29.744H386.788C386.66 33.1573 385.828 35.9093 384.292 38C386.127 39.2373 388.324 40.1973 390.884 40.88C393.465 41.5413 396.42 41.9787 399.748 42.192L399.716 42.576C398.735 42.768 398.137 43.408 397.924 44.496C394.66 44.0693 391.833 43.4293 389.444 42.576C387.076 41.7227 385.06 40.56 383.396 39.088C381.007 41.648 377.145 43.472 371.812 44.56L371.684 43.952C374.265 43.248 376.409 42.4053 378.116 41.424C379.844 40.4213 381.22 39.248 382.244 37.904C381.071 36.6453 380.1 35.1307 379.332 33.36C378.692 34.4693 378.031 35.4827 377.348 36.4C377.412 36.528 377.444 36.6453 377.444 36.752C377.444 36.9227 377.38 37.072 377.252 37.2L375.748 35.28C376.601 34.7253 377.743 33.808 379.172 32.528L379.396 31.504L380.356 32.016L379.684 32.784C380.473 34.384 381.54 35.76 382.884 36.912C384.015 35.0347 384.633 32.6453 384.74 29.744H376.996V31.184C376.996 31.312 376.804 31.4613 376.42 31.632C376.057 31.8027 375.695 31.888 375.332 31.888C375.183 31.888 375.055 31.824 374.948 31.696C374.863 31.568 374.82 31.4187 374.82 31.248C374.905 30.3307 374.969 29.1787 375.012 27.792V25.744C375.012 23.2267 374.884 21.136 374.628 19.472L377.188 20.688H384.772C384.772 18.3413 384.655 16.4747 384.42 15.088C386.532 15.728 387.588 16.1867 387.588 16.464C387.588 16.5707 387.503 16.6773 387.332 16.784L386.82 17.136V20.688H394.372L394.852 19.952ZM376.996 21.616V28.784H384.772V21.616H376.996ZM394.628 28.784V21.616H386.82V28.784H394.628ZM471.876 20.24C471.961 20.1333 472.057 19.9947 472.164 19.824C472.292 19.632 472.399 19.4933 472.484 19.408C472.569 19.3227 472.655 19.28 472.74 19.28C472.868 19.28 473.135 19.44 473.54 19.76C473.967 20.08 474.351 20.432 474.692 20.816C475.055 21.1787 475.236 21.4347 475.236 21.584C475.172 21.904 474.916 22.064 474.468 22.064H469.412V41.36C469.412 42.2987 469.22 43.024 468.836 43.536C468.452 44.048 467.663 44.3787 466.468 44.528C466.425 43.7813 466.233 43.2693 465.892 42.992C465.487 42.608 464.687 42.3413 463.492 42.192V41.68C465.369 41.8293 466.489 41.904 466.852 41.904C467.108 41.904 467.279 41.8613 467.364 41.776C467.449 41.6693 467.492 41.4987 467.492 41.264V22.064H464.804C464.74 26.5013 464.537 29.9467 464.196 32.4C463.876 34.8533 463.044 37.1147 461.7 39.184C460.377 41.2533 458.255 43.0347 455.332 44.528L454.916 43.952C457.412 42.416 459.215 40.6133 460.324 38.544C461.455 36.4747 462.148 34.288 462.404 31.984C462.66 29.6587 462.799 26.352 462.82 22.064H460.964C459.94 22.0853 458.852 22.2347 457.7 22.512L456.868 20.912C458.041 21.04 459.46 21.1253 461.124 21.168H464.772C464.772 18.7787 464.644 16.784 464.388 15.184C465.583 15.5253 466.404 15.8027 466.852 16.016C467.321 16.208 467.556 16.3787 467.556 16.528C467.556 16.6347 467.46 16.7413 467.268 16.848L466.724 17.2V21.168H471.268L471.876 20.24ZM455.588 29.968C456.527 30.864 457.252 31.6107 457.764 32.208C458.105 31.2267 458.372 30.1493 458.564 28.976C458.756 27.8027 458.841 26.768 458.82 25.872C460.847 26.3627 461.86 26.736 461.86 26.992C461.86 27.0987 461.775 27.184 461.604 27.248L461.06 27.504C460.591 29.3173 459.983 30.9707 459.236 32.464C458.489 33.936 457.625 35.1627 456.644 36.144L456.164 35.824C456.804 34.6933 457.305 33.584 457.668 32.496C457.54 32.6453 457.337 32.72 457.06 32.72H453.668V39.408L454.564 39.152C455.503 38.896 456.601 38.5867 457.86 38.224L457.988 38.704L456.964 39.184C453.679 40.7413 450.724 42.0747 448.1 43.184C448.015 43.568 447.791 43.8347 447.428 43.984L446.436 41.296L448.164 40.912V35.216C448.164 32.7413 448.047 30.7893 447.812 29.36C449.647 29.936 450.564 30.3733 450.564 30.672C450.564 30.736 450.489 30.8213 450.34 30.928L449.86 31.184V40.464L451.876 39.92V26.16H450.052V27.12C450.052 27.248 449.903 27.3973 449.604 27.568C449.305 27.7173 448.943 27.792 448.516 27.792C448.367 27.792 448.249 27.728 448.164 27.6C448.079 27.472 448.036 27.3227 448.036 27.152C448.121 26.3413 448.185 25.296 448.228 24.016V22.096C448.228 19.6213 448.111 17.6693 447.876 16.24L450.436 17.392H454.66L455.14 16.784C455.204 16.72 455.3 16.6027 455.428 16.432C455.577 16.2613 455.716 16.176 455.844 16.176C455.972 16.176 456.217 16.304 456.58 16.56C456.964 16.816 457.316 17.0933 457.636 17.392C457.956 17.6907 458.116 17.9147 458.116 18.064C457.86 18.3627 457.433 18.576 456.836 18.704V21.36C456.879 23.536 456.943 25.2533 457.028 26.512C456.921 26.704 456.665 26.896 456.26 27.088C455.876 27.2587 455.535 27.344 455.236 27.344H454.98V26.16H453.668V31.792H454.372L455.588 29.968ZM450.052 18.32V25.2H454.98V18.32H450.052ZM470.916 26.032C472.431 27.3547 473.54 28.688 474.244 30.032C474.948 31.3547 475.3 32.5387 475.3 33.584C475.3 34.1813 475.193 34.6613 474.98 35.024C474.788 35.3867 474.532 35.568 474.212 35.568C473.935 35.568 473.636 35.408 473.316 35.088C473.295 33.7867 473.007 32.3253 472.452 30.704C471.897 29.0613 471.247 27.568 470.5 26.224L470.916 26.032Z" fill="white"/>
</g>
<defs>
<filter id="filter0_d_37_2" x="0.920008" y="55.172" width="621.416" height="149.224" filterUnits="userSpaceOnUse" color-interpolation-filters="sRGB">
<feFlood flood-opacity="0" result="BackgroundImageFix"/>
<feColorMatrix in="SourceAlpha" type="matrix" values="0 0 0 0 0 0 0 0 0 0 0 0 0 0 0 0 0 0 127 0" result="hardAlpha"/>
<feOffset/>
<feGaussianBlur stdDeviation="7.45"/>
<feComposite in2="hardAlpha" operator="out"/>
<feColorMatrix type="matrix" values="0 0 0 0 0 0 0 0 0 0 0 0 0 0 0 0 0 0 0.25 0"/>
<feBlend mode="normal" in2="BackgroundImageFix" result="effect1_dropShadow_37_2"/>
<feBlend mode="normal" in="SourceGraphic" in2="effect1_dropShadow_37_2" result="shape"/>
</filter>
<filter id="filter1_d_37_2" x="132.496" y="-0.00400352" width="357.704" height="59.464" filterUnits="userSpaceOnUse" color-interpolation-filters="sRGB">
<feFlood flood-opacity="0" result="BackgroundImageFix"/>
<feColorMatrix in="SourceAlpha" type="matrix" values="0 0 0 0 0 0 0 0 0 0 0 0 0 0 0 0 0 0 127 0" result="hardAlpha"/>
<feOffset/>
<feGaussianBlur stdDeviation="7.45"/>
<feComposite in2="hardAlpha" operator="out"/>
<feColorMatrix type="matrix" values="0 0 0 0 0 0 0 0 0 0 0 0 0 0 0 0 0 0 0.25 0"/>
<feBlend mode="normal" in2="BackgroundImageFix" result="effect1_dropShadow_37_2"/>
<feBlend mode="normal" in="SourceGraphic" in2="effect1_dropShadow_37_2" result="shape"/>
</filter>
</defs>
</svg>
