<svg width="979" height="290" viewBox="0 0 979 290" fill="none" xmlns="http://www.w3.org/2000/svg">
<mask id="mask0_50_46" style="mask-type:alpha" maskUnits="userSpaceOnUse" x="720" y="60" width="170" height="170">
<rect x="720" y="60" width="170" height="170" fill="#D9D9D9"/>
</mask>
<g mask="url(#mask0_50_46)">
<path d="M805.001 212.293C789.3 212.293 775.93 206.862 764.892 196.001C753.854 185.14 748.334 171.918 748.334 156.334C748.334 148.897 749.781 141.784 752.673 134.996C755.565 128.208 759.668 122.216 764.98 117.022L805.001 77.7095L845.022 117.022C850.334 122.216 854.437 128.208 857.329 134.996C860.222 141.784 861.668 148.897 861.668 156.334C861.668 171.918 856.149 185.14 845.111 196.001C834.072 206.862 820.703 212.293 805.001 212.293Z" fill="#686868"/>
</g>
<path d="M269.512 98.816C270.877 98.816 271.944 98.2613 272.712 97.152L275.016 94.08C275.443 93.568 275.997 92.8427 276.68 91.904C277.363 90.9653 277.917 90.2827 278.344 89.856C278.771 89.4293 279.155 89.216 279.496 89.216C280.179 89.216 282.141 90.4533 285.384 92.928C288.627 95.4027 290.888 97.4507 292.168 99.072C292.595 99.4133 292.808 99.8827 292.808 100.48C292.808 101.077 292.595 101.547 292.168 101.888C291.315 102.315 290.461 102.528 289.608 102.528H203.08C197.704 102.613 192.072 103.083 186.184 103.936H185.544C184.349 103.936 183.453 103.381 182.856 102.272L182.344 101.248C182.003 100.395 181.832 99.8827 181.832 99.712C181.832 99.2 182.045 98.816 182.472 98.56C182.899 98.2187 183.496 98.0907 184.264 98.176C187.165 98.432 191.56 98.6453 197.448 98.816H228.04C229.832 98.816 230.728 97.92 230.728 96.128C230.557 91.6907 230.387 88.5333 230.216 86.656V86.4C230.216 85.7173 230.387 85.1627 230.728 84.736C231.069 84.3093 231.539 84.096 232.136 84.096C232.392 84.096 232.776 84.1813 233.288 84.352C241.48 86.3147 245.576 87.8933 245.576 89.088C245.576 89.4293 245.235 89.8133 244.552 90.24L244.168 90.496C242.973 91.264 242.376 92.3307 242.376 93.696V96.128C242.376 96.9813 242.589 97.664 243.016 98.176C243.528 98.6027 244.211 98.816 245.064 98.816H269.512ZM252.744 112.384C254.109 112.384 255.176 111.829 255.944 110.72L257.352 108.8C257.608 108.459 257.992 107.947 258.504 107.264C259.016 106.581 259.443 106.069 259.784 105.728C260.211 105.387 260.595 105.216 260.936 105.216C261.533 105.216 263.155 106.283 265.8 108.416C268.445 110.464 270.451 112.256 271.816 113.792C272.157 114.219 272.328 114.688 272.328 115.2C272.328 115.797 271.987 116.352 271.304 116.864L270.024 117.632C268.573 118.315 267.848 119.296 267.848 120.576V124.928L268.104 129.92C268.104 131.456 268.189 133.333 268.36 135.552C268.36 136.32 268.275 136.96 268.104 137.472C267.933 137.984 267.592 138.411 267.08 138.752C265.885 139.435 264.392 140.032 262.6 140.544C260.893 140.971 259.357 141.184 257.992 141.184C257.395 141.184 256.925 140.971 256.584 140.544C256.243 140.032 256.072 139.349 256.072 138.496V137.984C256.072 137.131 255.816 136.491 255.304 136.064C254.877 135.552 254.237 135.296 253.384 135.296H220.232C219.379 135.296 218.696 135.552 218.184 136.064C217.757 136.491 217.544 137.131 217.544 137.984V138.496C217.544 138.837 217.032 139.349 216.008 140.032C214.984 140.629 213.704 141.184 212.168 141.696C210.632 142.123 209.139 142.336 207.688 142.336C206.92 142.336 206.323 142.08 205.896 141.568C205.555 141.056 205.384 140.459 205.384 139.776C205.64 137.728 205.811 135.68 205.896 133.632L206.024 130.688V124.8C206.024 120.192 205.811 115.413 205.384 110.464V109.952C205.384 108.587 205.939 107.904 207.048 107.904C207.56 107.904 207.987 107.989 208.328 108.16L216.648 111.744C217.587 112.171 218.653 112.384 219.848 112.384H252.744ZM220.232 116.096C219.379 116.096 218.696 116.352 218.184 116.864C217.757 117.291 217.544 117.931 217.544 118.784V128.896C217.544 129.749 217.757 130.432 218.184 130.944C218.696 131.371 219.379 131.584 220.232 131.584H253.384C254.237 131.584 254.877 131.371 255.304 130.944C255.816 130.432 256.072 129.749 256.072 128.896V118.784C256.072 117.931 255.816 117.291 255.304 116.864C254.877 116.352 254.237 116.096 253.384 116.096H220.232ZM201.672 150.144C200.819 150.144 200.136 150.4 199.624 150.912C199.197 151.339 198.984 151.979 198.984 152.832V168.064C199.155 177.365 199.453 186.752 199.88 196.224V196.864C199.88 197.973 199.496 198.869 198.728 199.552C197.704 200.405 196.296 201.131 194.504 201.728C192.712 202.411 190.963 202.752 189.256 202.752C188.403 202.752 187.72 202.496 187.208 201.984C186.696 201.472 186.44 200.875 186.44 200.192C186.952 193.195 187.293 186.069 187.464 178.816V166.784C187.464 158.421 187.08 150.912 186.312 144.256V143.744C186.312 142.379 186.867 141.696 187.976 141.696C188.488 141.696 188.915 141.781 189.256 141.952L198.6 145.792C199.539 146.219 200.605 146.432 201.8 146.432H271.688C273.053 146.432 274.163 145.877 275.016 144.768L276.168 143.232C276.509 142.805 277.021 142.165 277.704 141.312C278.472 140.459 279.112 140.032 279.624 140.032C280.307 140.032 281.971 141.013 284.616 142.976C287.347 144.853 289.395 146.56 290.76 148.096C291.101 148.437 291.272 148.864 291.272 149.376C291.272 149.973 290.931 150.528 290.248 151.04C289.736 151.381 289.352 151.595 289.096 151.68C287.56 152.277 286.792 153.301 286.792 154.752V188.544C286.792 191.36 286.451 193.664 285.768 195.456C285.171 197.248 283.933 198.741 282.056 199.936C280.179 201.131 277.448 201.984 273.864 202.496L273.096 202.624C271.731 202.624 270.92 201.813 270.664 200.192C270.237 197.717 269.512 195.968 268.488 194.944C266.867 193.323 264.349 192.128 260.936 191.36C259.315 190.933 258.504 190.464 258.504 189.952C258.504 189.44 259.443 189.184 261.32 189.184C267.123 189.611 270.792 189.824 272.328 189.824C273.352 189.824 274.035 189.653 274.376 189.312C274.803 188.885 275.016 188.245 275.016 187.392V152.832C275.016 151.979 274.76 151.339 274.248 150.912C273.821 150.4 273.181 150.144 272.328 150.144H201.672ZM246.6 160.64C247.965 160.64 249.032 160.085 249.8 158.976L250.952 157.312C251.208 157.056 251.549 156.587 251.976 155.904C252.488 155.221 252.915 154.752 253.256 154.496C253.597 154.155 253.939 153.984 254.28 153.984C254.877 153.984 256.328 154.923 258.632 156.8C261.021 158.677 262.813 160.341 264.008 161.792C264.435 162.389 264.648 162.859 264.648 163.2C264.648 163.797 264.221 164.395 263.368 164.992L262.856 165.248C262.088 165.589 261.491 165.973 261.064 166.4C260.723 166.827 260.552 167.424 260.552 168.192V172.928L260.808 178.176C260.808 179.797 260.893 181.803 261.064 184.192V184.832C261.064 186.027 260.637 186.88 259.784 187.392C258.76 188.16 257.437 188.843 255.816 189.44C254.28 189.952 252.872 190.208 251.592 190.208C250.397 190.208 249.8 189.312 249.8 187.52V186.624C249.8 185.771 249.544 185.131 249.032 184.704C248.605 184.192 247.965 183.936 247.112 183.936H226.376C225.523 183.936 224.84 184.192 224.328 184.704C223.901 185.131 223.688 185.771 223.688 186.624V188.672C223.688 189.269 222.664 190.037 220.616 190.976C218.568 191.829 216.52 192.256 214.472 192.256C213.789 192.256 213.277 192 212.936 191.488C212.595 190.976 212.424 190.379 212.424 189.696C212.68 187.563 212.851 185.429 212.936 183.296C212.936 182.016 212.979 180.992 213.064 180.224V174.08C213.064 169.131 212.851 164.096 212.424 158.976V158.464C212.424 157.184 212.979 156.544 214.088 156.544C214.6 156.544 215.027 156.629 215.368 156.8L222.664 160C223.603 160.427 224.669 160.64 225.864 160.64H246.6ZM226.376 164.352C225.523 164.352 224.84 164.608 224.328 165.12C223.901 165.547 223.688 166.187 223.688 167.04V177.664C223.688 178.517 223.901 179.2 224.328 179.712C224.84 180.139 225.523 180.352 226.376 180.352H247.112C247.965 180.352 248.605 180.139 249.032 179.712C249.544 179.2 249.8 178.517 249.8 177.664V167.04C249.8 166.187 249.544 165.547 249.032 165.12C248.605 164.608 247.965 164.352 247.112 164.352H226.376ZM390.984 189.44C388.851 189.44 386.291 188.715 383.304 187.264C380.317 185.813 377.16 183.637 373.832 180.736C365.384 173.312 361.16 161.365 361.16 144.896C361.16 141.909 361.416 138.197 361.928 133.76C362.355 130.517 362.568 127.829 362.568 125.696C362.568 119.04 360.776 114.475 357.192 112C357.021 111.915 356.765 111.744 356.424 111.488C356.083 111.147 355.912 110.848 355.912 110.592C355.912 110.336 356.253 110.123 356.936 109.952C357.704 109.781 358.515 109.696 359.368 109.696C362.013 109.696 364.616 110.251 367.176 111.36C369.821 112.469 371.955 114.048 373.576 116.096C375.197 118.059 376.008 120.277 376.008 122.752C376.008 123.861 375.795 125.227 375.368 126.848C375.027 128.469 374.6 130.091 374.088 131.712C373.149 134.869 372.381 137.728 371.784 140.288C371.272 142.848 371.016 145.579 371.016 148.48C371.016 152.405 371.699 156.16 373.064 159.744C374.429 163.243 376.093 166.101 378.056 168.32C380.104 170.453 382.024 171.52 383.816 171.52C384.925 171.52 385.693 170.709 386.12 169.088C388.509 160.384 390.301 154.795 391.496 152.32C392.264 150.613 392.947 149.76 393.544 149.76C393.8 149.76 393.928 150.016 393.928 150.528C393.928 151.04 393.843 151.509 393.672 151.936C393.587 152.363 393.501 152.747 393.416 153.088C392.392 157.269 391.88 161.408 391.88 165.504C391.88 168.405 392.264 171.008 393.032 173.312C393.459 174.763 394.056 176.341 394.824 178.048C396.019 180.608 396.616 182.613 396.616 184.064C396.616 185.685 396.104 187.008 395.08 188.032C394.056 188.971 392.691 189.44 390.984 189.44ZM445.384 157.824C441.715 157.824 439.325 155.563 438.216 151.04C438.045 150.528 437.576 148.651 436.808 145.408C436.125 142.08 435.016 139.093 433.48 136.448C431.944 133.803 430.109 131.925 427.976 130.816C426.013 129.707 423.197 129.152 419.528 129.152H416.584C415.901 129.152 415.56 128.981 415.56 128.64C415.56 128.469 415.603 128.341 415.688 128.256C416.029 127.744 416.541 127.403 417.224 127.232C417.907 127.061 418.333 126.976 418.504 126.976C421.149 126.208 423.837 125.824 426.568 125.824C432.627 125.824 438.131 127.744 443.08 131.584C446.408 134.229 448.797 137.216 450.248 140.544C451.784 143.872 452.552 146.645 452.552 148.864C452.552 151.339 451.784 153.472 450.248 155.264C448.797 156.971 447.176 157.824 445.384 157.824ZM525.128 88.192C523.848 86.7413 523.379 85.888 523.72 85.632C524.061 85.4613 524.445 85.376 524.872 85.376C525.469 85.376 525.939 85.4187 526.28 85.504C532.851 86.528 537.715 88.3627 540.872 91.008C544.029 93.568 545.608 96.2987 545.608 99.2C545.608 100.992 545.053 102.485 543.944 103.68C542.835 104.875 541.469 105.472 539.848 105.472C539.165 105.472 538.355 105.344 537.416 105.088C536.477 104.747 535.709 103.893 535.112 102.528C533.491 98.176 530.163 93.3973 525.128 88.192ZM604.104 92.672C605.469 92.672 606.536 92.0747 607.304 90.88L608.584 88.96C608.84 88.6187 609.181 88.1067 609.608 87.424C610.12 86.656 610.547 86.1013 610.888 85.76C611.229 85.4187 611.571 85.248 611.912 85.248C612.509 85.248 613.96 86.1867 616.264 88.064C618.653 89.9413 620.445 91.6053 621.64 93.056C622.067 93.6533 622.28 94.1653 622.28 94.592C622.28 95.1893 621.896 95.7013 621.128 96.128L620.104 96.512C618.568 97.1093 617.8 98.1333 617.8 99.584V111.36C618.056 122.709 618.312 131.243 618.568 136.96V137.6C618.568 138.795 618.141 139.648 617.288 140.16C614.899 141.696 611.955 142.464 608.456 142.464C607.261 142.464 606.664 141.568 606.664 139.776V139.136C606.664 138.283 606.408 137.643 605.896 137.216C605.469 136.704 604.829 136.448 603.976 136.448H569.672C568.819 136.448 568.136 136.704 567.624 137.216C567.197 137.643 566.984 138.283 566.984 139.136V141.312C566.984 141.824 566.088 142.464 564.296 143.232C562.589 143.915 560.499 144.256 558.024 144.256C557.085 144.256 556.36 144 555.848 143.488C555.336 142.976 555.08 142.379 555.08 141.696C555.507 137.173 555.805 131.157 555.976 123.648V113.28C555.976 104.917 555.592 97.3653 554.824 90.624V90.112C554.824 88.832 555.379 88.192 556.488 88.192C556.659 88.192 557.085 88.2773 557.768 88.448L566.728 92.032C567.667 92.4587 568.733 92.672 569.928 92.672H604.104ZM603.976 112.512C604.829 112.512 605.469 112.299 605.896 111.872C606.408 111.36 606.664 110.677 606.664 109.824V99.072C606.664 98.2187 606.408 97.5787 605.896 97.152C605.469 96.64 604.829 96.384 603.976 96.384H569.672C568.819 96.384 568.136 96.64 567.624 97.152C567.197 97.5787 566.984 98.2187 566.984 99.072V109.824C566.984 110.677 567.197 111.36 567.624 111.872C568.136 112.299 568.819 112.512 569.672 112.512H603.976ZM517.576 166.4C517.576 165.973 517.789 165.675 518.216 165.504C518.728 165.248 519.411 165.12 520.264 165.12H522.952C523.891 165.12 524.531 164.992 524.872 164.736C525.213 164.48 525.683 163.755 526.28 162.56C527.389 160.341 529.181 156.331 531.656 150.528C534.131 144.725 538.397 134.357 544.456 119.424L549.32 107.392C550.003 105.856 550.685 105.088 551.368 105.088C551.795 105.088 552.008 105.429 552.008 106.112C552.008 106.88 551.923 107.52 551.752 108.032C550.899 111.019 550.003 113.92 549.064 116.736C541.896 140.544 537.885 154.453 537.032 158.464C535.752 163.157 535.112 167.083 535.112 170.24C535.197 171.349 535.368 172.587 535.624 173.952C535.965 175.317 536.349 176.64 536.776 177.92C537.544 180.48 538.141 182.741 538.568 184.704C538.995 186.667 539.208 188.971 539.208 191.616C539.208 195.2 538.44 197.973 536.904 199.936C535.453 201.899 533.363 202.88 530.632 202.88C528.157 202.88 526.408 201.259 525.384 198.016C525.213 197.333 525.128 196.779 525.128 196.352L525.256 194.688C525.939 190.507 526.28 186.155 526.28 181.632C526.28 178.56 526.067 175.957 525.64 173.824C525.213 171.691 524.573 170.325 523.72 169.728C522.525 168.96 521.288 168.448 520.008 168.192C518.387 167.765 517.576 167.168 517.576 166.4ZM516.424 116.608C515.229 115.243 514.76 114.432 515.016 114.176C515.187 114.005 515.528 113.92 516.04 113.92C516.723 113.92 517.277 113.963 517.704 114.048C523.592 115.072 527.944 116.821 530.76 119.296C533.576 121.771 534.984 124.373 534.984 127.104C534.984 128.811 534.429 130.261 533.32 131.456C532.296 132.565 530.973 133.12 529.352 133.12C528.413 133.12 527.475 132.949 526.536 132.608C525.427 132.096 524.744 131.2 524.488 129.92C523.805 127.616 522.739 125.312 521.288 123.008C519.837 120.619 518.216 118.485 516.424 116.608ZM569.672 116.224C568.819 116.224 568.136 116.48 567.624 116.992C567.197 117.419 566.984 118.059 566.984 118.912V130.048C566.984 130.901 567.197 131.584 567.624 132.096C568.136 132.523 568.819 132.736 569.672 132.736H603.976C604.829 132.736 605.469 132.523 605.896 132.096C606.408 131.584 606.664 130.901 606.664 130.048V118.912C606.664 118.059 606.408 117.419 605.896 116.992C605.469 116.48 604.829 116.224 603.976 116.224H569.672ZM610.376 194.304C611.741 194.304 612.808 193.707 613.576 192.512L615.368 189.696C615.709 189.184 616.136 188.501 616.648 187.648C617.245 186.709 617.715 186.027 618.056 185.6C618.483 185.173 618.867 184.96 619.208 184.96C619.805 184.96 621.384 186.155 623.944 188.544C626.504 190.848 628.381 192.811 629.576 194.432C630.003 195.029 630.216 195.541 630.216 195.968C630.216 196.565 629.96 197.035 629.448 197.376C628.765 197.803 627.955 198.016 627.016 198.016H564.296C559.091 198.101 553.459 198.571 547.4 199.424H546.632C545.437 199.424 544.584 198.869 544.072 197.76L543.56 196.736C543.304 196.224 543.176 195.755 543.176 195.328C543.176 194.731 543.389 194.261 543.816 193.92C544.243 193.664 544.84 193.579 545.608 193.664C548.68 193.92 553.117 194.133 558.92 194.304H567.624C568.477 194.304 569.117 194.048 569.544 193.536C570.056 193.109 570.312 192.469 570.312 191.616V169.472C570.312 160.939 569.928 153.301 569.16 146.56V146.048C569.16 144.683 569.843 144 571.208 144C571.635 144 571.976 144.043 572.232 144.128C579.741 146.176 583.496 147.712 583.496 148.736C583.496 149.077 583.197 149.419 582.6 149.76H582.472C581.277 150.443 580.68 151.552 580.68 153.088V191.616C580.68 192.469 580.893 193.109 581.32 193.536C581.832 194.048 582.515 194.304 583.368 194.304H588.36C589.213 194.304 589.853 194.048 590.28 193.536C590.792 193.109 591.048 192.469 591.048 191.616V169.472C591.048 160.939 590.664 153.301 589.896 146.56V146.048C589.896 144.683 590.579 144 591.944 144C592.371 144 592.712 144.043 592.968 144.128C600.563 146.176 604.36 147.712 604.36 148.736C604.36 149.077 604.061 149.419 603.464 149.76H603.336C602.141 150.443 601.544 151.552 601.544 153.088V191.616C601.544 192.469 601.757 193.109 602.184 193.536C602.696 194.048 603.379 194.304 604.232 194.304H610.376ZM611.784 152.576C611.955 151.04 612.595 150.272 613.704 150.272C613.96 150.272 614.344 150.357 614.856 150.528L621 152.96C625.437 154.155 627.656 155.136 627.656 155.904C627.656 156.331 627.187 156.757 626.248 157.184L625.736 157.44C624.456 157.952 623.603 158.763 623.176 159.872C618.483 169.941 613.576 178.091 608.456 184.32C607.773 185.259 607.133 185.728 606.536 185.728C605.853 185.728 605.512 185.259 605.512 184.32C605.512 183.723 605.597 183.211 605.768 182.784L607.56 176.512C608.499 172.928 609.352 168.917 610.12 164.48C610.973 160.043 611.528 156.075 611.784 152.576ZM548.808 154.368C548.125 152.661 548.04 151.723 548.552 151.552L548.936 151.424C549.363 151.424 550.045 151.808 550.984 152.576C556.019 156.416 559.731 160.469 562.12 164.736C564.509 169.003 565.704 172.928 565.704 176.512C565.704 179.072 565.149 181.205 564.04 182.912C562.931 184.533 561.565 185.344 559.944 185.344C558.835 185.344 557.683 184.917 556.488 184.064C555.549 183.381 555.08 182.315 555.08 180.864C555.08 176.768 554.483 172.416 553.288 167.808C552.179 163.115 550.685 158.635 548.808 154.368ZM776.52 122.112C777.885 122.112 778.952 121.557 779.72 120.448L781.512 117.76C781.853 117.333 782.28 116.693 782.792 115.84C783.389 114.987 783.859 114.347 784.2 113.92C784.627 113.493 785.011 113.28 785.352 113.28C785.949 113.28 787.528 114.389 790.088 116.608C792.648 118.827 794.525 120.704 795.72 122.24C796.147 122.837 796.36 123.349 796.36 123.776C796.36 124.288 796.104 124.757 795.592 125.184C794.909 125.611 794.099 125.824 793.16 125.824H770.888C770.035 125.824 769.352 126.08 768.84 126.592C768.413 127.019 768.2 127.659 768.2 128.512V133.376L768.456 139.264C768.456 140.8 768.541 143.019 768.712 145.92V146.688C768.712 147.712 768.328 148.48 767.56 148.992C766.536 149.76 765.171 150.443 763.464 151.04C761.843 151.552 760.221 151.808 758.6 151.808C757.747 151.808 757.149 151.509 756.808 150.912C756.552 150.4 756.424 149.973 756.424 149.632C756.424 149.291 756.509 148.864 756.68 148.352C756.68 148.011 756.723 147.712 756.808 147.456C756.808 146.005 755.912 145.28 754.12 145.28H739.272C738.419 145.28 737.736 145.536 737.224 146.048C736.797 146.475 736.584 147.115 736.584 147.968V149.248C736.584 149.845 735.517 150.571 733.384 151.424C731.336 152.277 729.331 152.704 727.368 152.704C726.515 152.704 725.832 152.448 725.32 151.936C724.893 151.424 724.68 150.827 724.68 150.144C725.107 146.304 725.405 141.184 725.576 134.784V128.512C725.576 127.659 725.32 127.019 724.808 126.592C724.381 126.08 723.741 125.824 722.888 125.824H708.552C707.699 125.824 707.016 126.08 706.504 126.592C706.077 127.019 705.864 127.659 705.864 128.512V133.248C705.864 142.379 705.437 150.656 704.584 158.08C703.816 165.419 701.981 172.885 699.08 180.48C696.264 188.075 691.955 194.816 686.152 200.704C685.043 201.984 684.189 202.411 683.592 201.984C683.421 201.813 683.336 201.557 683.336 201.216C683.336 200.619 683.549 199.936 683.976 199.168C688.328 190.464 691.187 180.821 692.552 170.24C693.917 159.573 694.6 147.243 694.6 133.248V113.92C694.6 108.117 694.344 102.741 693.832 97.792V97.28C693.832 96 694.387 95.36 695.496 95.36C696.008 95.36 696.435 95.4453 696.776 95.616L706.248 99.968C707.443 100.48 708.552 100.736 709.576 100.736H734.92C736.712 100.736 737.608 99.84 737.608 98.048C737.608 94.3787 737.395 90.5387 736.968 86.528V86.272C736.968 84.8213 737.651 84.096 739.016 84.096C739.443 84.096 739.784 84.1387 740.04 84.224C748.147 86.1867 752.2 87.7653 752.2 88.96C752.2 89.3013 751.859 89.6853 751.176 90.112L750.664 90.368C749.469 91.136 748.872 92.2453 748.872 93.696V98.048C748.872 98.9013 749.085 99.584 749.512 100.096C750.024 100.523 750.707 100.736 751.56 100.736H774.984C776.349 100.736 777.416 100.181 778.184 99.072L780.232 96C780.659 95.4027 781.128 94.7627 781.64 94.08C782.152 93.312 782.664 92.672 783.176 92.16C783.688 91.5627 784.115 91.264 784.456 91.264C785.139 91.264 786.888 92.4587 789.704 94.848C792.52 97.2373 794.525 99.2427 795.72 100.864C796.147 101.291 796.36 101.76 796.36 102.272C796.36 102.784 796.104 103.253 795.592 103.68C794.995 104.107 794.184 104.32 793.16 104.32H708.552C707.699 104.32 707.016 104.576 706.504 105.088C706.077 105.515 705.864 106.155 705.864 107.008V119.424C705.864 120.277 706.077 120.96 706.504 121.472C707.016 121.899 707.699 122.112 708.552 122.112H722.888C724.68 122.112 725.576 121.216 725.576 119.424C725.405 115.499 725.235 112.683 725.064 110.976V110.72C725.064 109.184 725.747 108.416 727.112 108.416C727.539 108.416 727.88 108.459 728.136 108.544C732.403 109.739 735.347 110.72 736.968 111.488C738.675 112.171 739.528 112.768 739.528 113.28C739.528 113.536 739.229 113.877 738.632 114.304L738.376 114.432C737.181 115.2 736.584 116.267 736.584 117.632V119.424C736.584 120.277 736.797 120.96 737.224 121.472C737.736 121.899 738.419 122.112 739.272 122.112H754.12C755.912 122.112 756.808 121.216 756.808 119.424C756.637 115.328 756.467 112.512 756.296 110.976V110.72C756.296 109.184 756.979 108.416 758.344 108.416C758.771 108.416 759.112 108.459 759.368 108.544C763.805 109.653 766.877 110.592 768.584 111.36C770.291 112.128 771.144 112.768 771.144 113.28C771.144 113.536 770.845 113.877 770.248 114.304L770.12 114.432C768.84 115.2 768.2 116.267 768.2 117.632V119.424C768.2 120.277 768.413 120.96 768.84 121.472C769.352 121.899 770.035 122.112 770.888 122.112H776.52ZM754.12 141.568C754.973 141.568 755.613 141.355 756.04 140.928C756.552 140.416 756.808 139.733 756.808 138.88V128.512C756.808 127.659 756.552 127.019 756.04 126.592C755.613 126.08 754.973 125.824 754.12 125.824H739.272C738.419 125.824 737.736 126.08 737.224 126.592C736.797 127.019 736.584 127.659 736.584 128.512V138.88C736.584 139.733 736.797 140.416 737.224 140.928C737.736 141.355 738.419 141.568 739.272 141.568H754.12ZM760.008 180.48C759.155 181.163 758.728 181.76 758.728 182.272C758.728 182.955 759.325 183.509 760.52 183.936C770.077 187.008 781.725 189.013 795.464 189.952C797.171 190.123 798.024 190.421 798.024 190.848C798.024 191.189 797.299 191.701 795.848 192.384C792.861 193.835 790.728 196.48 789.448 200.32C788.936 202.027 787.869 202.752 786.248 202.496C778.568 201.045 771.656 199.296 765.512 197.248C759.368 195.285 753.864 192.811 749 189.824C748.147 189.397 747.464 189.184 746.952 189.184C746.525 189.184 745.971 189.312 745.288 189.568C732.573 195.883 717.341 200.192 699.592 202.496H698.568C697.629 202.496 697.032 202.283 696.776 201.856V201.6C696.776 201.088 697.587 200.619 699.208 200.192C714.141 196.523 726.941 191.488 737.608 185.088C738.547 184.576 739.016 183.936 739.016 183.168C739.016 182.571 738.675 181.931 737.992 181.248C732.957 176.299 728.733 170.325 725.32 163.328C724.723 161.963 723.699 161.28 722.248 161.28H719.688C717.384 161.451 715.507 161.792 714.056 162.304C713.8 162.389 713.416 162.432 712.904 162.432C711.795 162.432 711.027 161.92 710.6 160.896L710.088 160C709.832 159.488 709.704 158.976 709.704 158.464C709.704 157.952 709.917 157.568 710.344 157.312C710.771 156.971 711.368 156.843 712.136 156.928C715.037 157.184 719.432 157.397 725.32 157.568H761.416C762.696 157.568 763.805 157.141 764.744 156.288L766.792 154.624C767.219 154.283 767.901 153.728 768.84 152.96C769.864 152.107 770.632 151.68 771.144 151.68C771.741 151.68 773.149 152.661 775.368 154.624C777.587 156.501 779.336 158.251 780.616 159.872C780.957 160.555 781.128 161.024 781.128 161.28C781.128 162.048 780.701 162.56 779.848 162.816C779.165 162.987 778.611 163.072 778.184 163.072C776.819 163.328 775.752 163.968 774.984 164.992C771.144 170.539 766.152 175.701 760.008 180.48ZM760.776 164.608C761.203 163.925 761.416 163.371 761.416 162.944C761.416 161.835 760.605 161.28 758.984 161.28H731.464C730.696 161.28 730.099 161.451 729.672 161.792C729.245 162.133 729.032 162.56 729.032 163.072C729.032 163.499 729.245 164.011 729.672 164.608C733.768 169.728 738.973 174.08 745.288 177.664C745.971 178.005 746.483 178.176 746.824 178.176C747.592 178.176 748.317 177.835 749 177.152C753.523 173.312 757.448 169.131 760.776 164.608Z" fill="white"/>
</svg>
