<svg width="979" height="290" viewBox="0 0 979 290" fill="none" xmlns="http://www.w3.org/2000/svg">
<mask id="mask0_50_51" style="mask-type:alpha" maskUnits="userSpaceOnUse" x="636" y="60" width="170" height="170">
<rect x="636" y="60" width="170" height="170" fill="#D9D9D9"/>
</mask>
<g mask="url(#mask0_50_51)">
<path d="M744.374 178.291L754.291 168.374L728.082 142.166V109.582H713.916V147.832L744.374 178.291ZM720.999 215.832C711.2 215.832 701.992 213.973 693.374 210.254C684.756 206.535 677.259 201.488 670.884 195.113C664.509 188.738 659.462 181.242 655.744 172.624C652.025 164.006 650.166 154.797 650.166 144.999C650.166 135.2 652.025 125.992 655.744 117.374C659.462 108.756 664.509 101.259 670.884 94.8843C677.259 88.5093 684.756 83.4624 693.374 79.7437C701.992 76.0249 711.2 74.1655 720.999 74.1655C730.797 74.1655 740.006 76.0249 748.624 79.7437C757.242 83.4624 764.738 88.5093 771.113 94.8843C777.488 101.259 782.535 108.756 786.254 117.374C789.973 125.992 791.832 135.2 791.832 144.999C791.832 154.797 789.973 164.006 786.254 172.624C782.535 181.242 777.488 188.738 771.113 195.113C764.738 201.488 757.242 206.535 748.624 210.254C740.006 213.973 730.797 215.832 720.999 215.832ZM720.999 201.666C736.7 201.666 750.07 196.146 761.108 185.108C772.146 174.07 777.666 160.7 777.666 144.999C777.666 129.297 772.146 115.928 761.108 104.889C750.07 93.8513 736.7 88.3322 720.999 88.3322C705.297 88.3322 691.928 93.8513 680.889 104.889C669.851 115.928 664.332 129.297 664.332 144.999C664.332 160.7 669.851 174.07 680.889 185.108C691.928 196.146 705.297 201.666 720.999 201.666Z" fill="#686868"/>
</g>
<path d="M306.408 171.136C307.859 171.136 308.968 170.581 309.736 169.472L312.936 165.12C313.448 164.352 314.088 163.968 314.856 163.968C315.539 163.968 316.179 164.224 316.776 164.736C317.203 165.163 318.184 165.973 319.72 167.168C319.72 167.168 320.744 168.064 322.792 169.856C323.56 170.453 324.157 170.752 324.584 170.752C325.523 170.752 326.12 170.112 326.376 168.832C328.253 160.384 329.192 149.376 329.192 135.808V112.512C329.192 105.6 328.851 98.8587 328.168 92.288V91.776C328.168 90.4107 328.765 89.728 329.96 89.728C330.216 89.728 330.6 89.8133 331.112 89.984L340.584 93.696C341.864 94.1227 342.931 94.336 343.784 94.336H357.608C358.973 94.336 360.083 93.7813 360.936 92.672L362.216 91.008C362.557 90.5813 362.899 90.112 363.24 89.6C363.667 89.088 364.093 88.6187 364.52 88.192C364.947 87.7653 365.331 87.552 365.672 87.552C366.269 87.552 367.891 88.5333 370.536 90.496C373.267 92.4587 375.357 94.208 376.808 95.744C377.149 96.1707 377.32 96.64 377.32 97.152C377.32 97.7493 376.979 98.304 376.296 98.816C376.125 98.9013 375.869 99.0293 375.528 99.2C375.272 99.3707 374.973 99.5413 374.632 99.712C373.181 100.224 372.456 101.205 372.456 102.656V187.648C372.456 190.635 372.115 193.067 371.432 194.944C370.835 196.821 369.555 198.357 367.592 199.552C365.715 200.832 362.899 201.771 359.144 202.368H358.504C357.139 202.368 356.328 201.6 356.072 200.064C355.645 197.504 354.792 195.627 353.512 194.432C351.72 192.64 348.989 191.403 345.32 190.72C343.613 190.293 342.76 189.781 342.76 189.184C342.76 188.757 343.4 188.544 344.68 188.544C346.472 188.544 349.331 188.715 353.256 189.056L358.12 189.312C359.144 189.312 359.869 189.099 360.296 188.672C360.723 188.16 360.936 187.392 360.936 186.368V156.032C360.936 155.179 360.68 154.539 360.168 154.112C359.741 153.6 359.101 153.344 358.248 153.344H341.864C340.157 153.344 339.219 154.197 339.048 155.904C337.853 165.547 335.165 174.208 330.984 181.888C326.888 189.568 320.531 196.224 311.912 201.856C311.059 202.453 310.376 202.752 309.864 202.752C309.267 202.752 308.968 202.581 308.968 202.24C308.968 201.899 309.437 201.088 310.376 199.808C316.093 193.579 320.531 186.325 323.688 178.048C324.029 177.024 324.2 176.213 324.2 175.616C324.285 174.933 324.2 174.592 323.944 174.592L322.536 174.72H302.184C301.331 174.72 300.648 174.976 300.136 175.488C299.709 175.915 299.496 176.555 299.496 177.408V183.04L299.752 189.568C299.752 191.36 299.837 193.792 300.008 196.864V197.504C300.008 198.613 299.624 199.509 298.856 200.192C296.552 201.984 293.608 202.88 290.024 202.88C289.085 202.88 288.36 202.624 287.848 202.112C287.421 201.6 287.208 201.003 287.208 200.32C287.635 196.309 287.933 190.933 288.104 184.192V177.408C288.104 176.555 287.848 175.915 287.336 175.488C286.909 174.976 286.269 174.72 285.416 174.72H280.168C275.901 174.891 271.976 175.317 268.392 176C268.221 176.085 267.923 176.128 267.496 176.128C266.387 176.128 265.576 175.531 265.064 174.336L264.68 173.568C264.424 173.056 264.296 172.544 264.296 172.032C264.296 171.52 264.509 171.136 264.936 170.88C265.363 170.539 265.96 170.411 266.728 170.496C269.629 170.752 274.024 170.965 279.912 171.136H285.416C286.269 171.136 286.909 170.923 287.336 170.496C287.848 169.984 288.104 169.301 288.104 168.448V159.616C288.104 158.763 287.848 158.123 287.336 157.696C286.909 157.184 286.269 156.928 285.416 156.928H283.88C282.088 156.928 281.192 157.781 281.192 159.488C281.192 160.171 280.168 160.981 278.12 161.92C276.157 162.773 274.152 163.2 272.104 163.2C271.251 163.2 270.611 162.944 270.184 162.432C269.757 161.92 269.544 161.323 269.544 160.64C269.885 156.885 270.141 152.107 270.312 146.304V137.856C270.312 129.664 269.928 122.24 269.16 115.584V115.072C269.16 113.792 269.715 113.152 270.824 113.152C271.336 113.152 271.763 113.237 272.104 113.408L280.296 116.864C281.235 117.291 282.301 117.504 283.496 117.504H285.416C286.269 117.504 286.909 117.291 287.336 116.864C287.848 116.352 288.104 115.669 288.104 114.816V107.52C288.104 106.667 287.848 106.027 287.336 105.6C286.909 105.088 286.269 104.832 285.416 104.832H280.296C276.029 105.003 272.104 105.429 268.52 106.112C268.349 106.197 268.051 106.24 267.624 106.24C266.515 106.24 265.704 105.643 265.192 104.448L264.68 103.552C264.424 103.04 264.296 102.571 264.296 102.144C264.296 100.864 265.149 100.309 266.856 100.48C269.757 100.736 274.109 100.949 279.912 101.12H285.416C287.208 101.12 288.104 100.224 288.104 98.432C288.104 94.592 287.891 90.624 287.464 86.528V86.272C287.464 84.8213 288.147 84.096 289.512 84.096C289.939 84.096 290.28 84.1387 290.536 84.224C298.557 86.1867 302.568 87.7227 302.568 88.832C302.568 89.2587 302.227 89.6853 301.544 90.112L301.16 90.368C300.051 91.136 299.496 92.2027 299.496 93.568V98.432C299.496 99.2853 299.709 99.968 300.136 100.48C300.648 100.907 301.331 101.12 302.184 101.12H305.128C306.493 101.12 307.56 100.523 308.328 99.328L310.12 96.64C310.461 96.2133 310.888 95.5733 311.4 94.72C311.997 93.8667 312.467 93.2267 312.808 92.8C313.235 92.3733 313.619 92.16 313.96 92.16C314.557 92.16 316.179 93.312 318.824 95.616C321.555 97.8347 323.517 99.712 324.712 101.248C325.139 101.845 325.352 102.357 325.352 102.784C325.352 103.296 325.096 103.765 324.584 104.192C323.901 104.619 323.091 104.832 322.152 104.832H302.184C301.331 104.832 300.648 105.088 300.136 105.6C299.709 106.027 299.496 106.667 299.496 107.52V114.816C299.496 115.669 299.709 116.352 300.136 116.864C300.648 117.291 301.331 117.504 302.184 117.504H303.208C304.659 117.504 305.768 116.992 306.536 115.968L307.816 114.432C308.157 114.005 308.669 113.365 309.352 112.512C310.12 111.659 310.76 111.232 311.272 111.232C311.955 111.232 313.533 112.171 316.008 114.048C318.483 115.925 320.317 117.547 321.512 118.912C321.939 119.339 322.152 119.808 322.152 120.32C322.152 120.917 321.811 121.429 321.128 121.856L320.232 122.368C319.464 122.709 318.867 123.093 318.44 123.52C318.099 123.947 317.928 124.544 317.928 125.312V134.656C318.184 143.957 318.44 150.784 318.696 155.136V155.776C318.696 156.971 318.269 157.824 317.416 158.336C316.221 159.189 314.771 159.915 313.064 160.512C311.357 161.109 309.779 161.408 308.328 161.408C307.133 161.408 306.536 160.64 306.536 159.104C306.536 157.653 305.64 156.928 303.848 156.928H302.184C301.331 156.928 300.648 157.184 300.136 157.696C299.709 158.123 299.496 158.763 299.496 159.616V168.448C299.496 169.301 299.709 169.984 300.136 170.496C300.648 170.923 301.331 171.136 302.184 171.136H306.408ZM358.248 121.6C359.101 121.6 359.741 121.387 360.168 120.96C360.68 120.448 360.936 119.765 360.936 118.912V100.736C360.936 99.8827 360.68 99.2427 360.168 98.816C359.741 98.304 359.101 98.048 358.248 98.048H342.76C341.907 98.048 341.224 98.304 340.712 98.816C340.285 99.2427 340.072 99.8827 340.072 100.736V118.912C340.072 119.765 340.285 120.448 340.712 120.96C341.224 121.387 341.907 121.6 342.76 121.6H358.248ZM303.848 135.168C304.701 135.168 305.341 134.955 305.768 134.528C306.28 134.016 306.536 133.333 306.536 132.48V123.904C306.536 123.051 306.28 122.411 305.768 121.984C305.341 121.472 304.701 121.216 303.848 121.216H283.88C283.027 121.216 282.344 121.472 281.832 121.984C281.405 122.411 281.192 123.051 281.192 123.904V132.48C281.192 133.333 281.405 134.016 281.832 134.528C282.344 134.955 283.027 135.168 283.88 135.168H303.848ZM342.76 125.312C341.907 125.312 341.224 125.568 340.712 126.08C340.285 126.507 340.072 127.147 340.072 128V135.68C340.072 138.155 339.987 141.867 339.816 146.816V147.072C339.816 147.84 340.072 148.48 340.584 148.992C341.096 149.419 341.736 149.632 342.504 149.632H358.248C359.101 149.632 359.741 149.419 360.168 148.992C360.68 148.48 360.936 147.797 360.936 146.944V128C360.936 127.147 360.68 126.507 360.168 126.08C359.741 125.568 359.101 125.312 358.248 125.312H342.76ZM306.536 141.568C306.536 140.715 306.28 140.075 305.768 139.648C305.341 139.136 304.701 138.88 303.848 138.88H283.88C283.027 138.88 282.344 139.136 281.832 139.648C281.405 140.075 281.192 140.715 281.192 141.568V150.528C281.192 151.381 281.405 152.064 281.832 152.576C282.344 153.003 283.027 153.216 283.88 153.216H303.848C304.701 153.216 305.341 153.003 305.768 152.576C306.28 152.064 306.536 151.381 306.536 150.528V141.568ZM505.32 101.76C503.443 102.016 502.632 102.997 502.888 104.704C508.861 143.701 522.899 170.368 545 184.704C546.195 185.472 546.792 186.069 546.792 186.496C546.792 186.923 546.579 187.264 546.152 187.52C545.725 187.776 545.213 187.989 544.616 188.16C542.824 189.013 541.16 190.165 539.624 191.616C538.088 192.981 536.808 194.517 535.784 196.224C535.272 197.248 534.632 197.76 533.864 197.76C533.352 197.76 532.84 197.504 532.328 196.992C522.259 187.264 514.707 174.763 509.672 159.488C504.723 144.213 501.224 125.141 499.176 102.272C499.005 100.565 498.067 99.712 496.36 99.712H483.048C477.843 99.7973 472.211 100.267 466.152 101.12H465.384C464.189 101.12 463.336 100.565 462.824 99.456L462.312 98.432C462.056 97.92 461.928 97.408 461.928 96.896C461.928 96.384 462.141 96 462.568 95.744C462.995 95.4027 463.592 95.2747 464.36 95.36C467.261 95.616 471.656 95.8293 477.544 96H493.288C494.653 96 495.72 95.4027 496.488 94.208L498.792 90.624C499.304 89.7707 499.987 89.344 500.84 89.344C501.352 89.344 501.907 89.5573 502.504 89.984L510.952 96.512C511.72 97.1947 512.189 97.792 512.36 98.304C512.531 98.816 512.403 99.2427 511.976 99.584C510.355 100.608 508.136 101.333 505.32 101.76ZM463.336 117.76C463.336 116.907 463.933 116.48 465.128 116.48C465.64 116.48 466.024 116.523 466.28 116.608L473.832 118.4C479.123 118.997 481.768 119.765 481.768 120.704C481.768 121.131 481.299 121.557 480.36 121.984L479.848 122.24C478.653 123.008 477.928 124.032 477.672 125.312C471.357 160.981 457.021 185.557 434.664 199.04C433.896 199.467 433.299 199.723 432.872 199.808C432.531 199.893 432.232 199.808 431.976 199.552C431.891 199.467 431.848 199.339 431.848 199.168C431.848 198.741 432.36 198.016 433.384 196.992C446.013 185.472 455.016 168.363 460.392 145.664C461.245 142.251 461.928 138.027 462.44 132.992C463.037 127.957 463.336 123.52 463.336 119.68V117.76ZM693.096 126.848C694.461 126.848 695.528 126.251 696.296 125.056L698.216 122.24C698.557 121.728 699.027 121.045 699.624 120.192C700.307 119.253 700.819 118.571 701.16 118.144C701.587 117.717 701.971 117.504 702.312 117.504C702.909 117.504 704.616 118.699 707.432 121.088C710.333 123.392 712.381 125.312 713.576 126.848C714.003 127.445 714.216 127.957 714.216 128.384C714.216 128.896 713.96 129.365 713.448 129.792C712.765 130.219 711.955 130.432 711.016 130.432H661.608C656.403 130.517 650.771 130.987 644.712 131.84H643.944C642.749 131.84 641.896 131.285 641.384 130.176L640.872 129.28C640.616 128.768 640.488 128.256 640.488 127.744C640.488 127.232 640.701 126.848 641.128 126.592C641.555 126.251 642.152 126.123 642.92 126.208C645.821 126.464 650.216 126.677 656.104 126.848H665.576C666.429 126.848 667.069 126.635 667.496 126.208C668.008 125.696 668.264 125.013 668.264 124.16V110.848C668.264 109.995 668.008 109.355 667.496 108.928C667.069 108.416 666.429 108.16 665.576 108.16H660.2C655.933 108.331 651.923 108.757 648.168 109.44C647.912 109.525 647.613 109.568 647.272 109.568C646.163 109.568 645.352 109.013 644.84 107.904L644.328 106.88C644.072 106.368 643.944 105.856 643.944 105.344C643.944 104.832 644.157 104.448 644.584 104.192C645.011 103.851 645.608 103.723 646.376 103.808C649.277 104.064 653.672 104.277 659.56 104.448H665.576C667.368 104.448 668.264 103.552 668.264 101.76C668.093 95.872 667.795 91.0507 667.368 87.296V87.04C667.368 86.3573 667.539 85.8027 667.88 85.376C668.221 84.9493 668.691 84.736 669.288 84.736C669.544 84.736 669.928 84.8213 670.44 84.992C678.717 86.9547 682.856 88.5333 682.856 89.728C682.856 90.1547 682.515 90.5813 681.832 91.008L681.32 91.264C680.125 92.032 679.528 93.1413 679.528 94.592V101.76C679.528 102.613 679.741 103.296 680.168 103.808C680.68 104.235 681.363 104.448 682.216 104.448H689.64C691.005 104.448 692.072 103.851 692.84 102.656L694.632 99.968C695.059 99.3707 695.528 98.688 696.04 97.92C696.637 97.0667 697.107 96.4693 697.448 96.128C697.875 95.7013 698.259 95.488 698.6 95.488C699.283 95.488 700.947 96.64 703.592 98.944C706.323 101.248 708.243 103.168 709.352 104.704C709.779 105.301 709.992 105.771 709.992 106.112C709.992 106.624 709.779 107.093 709.352 107.52C708.669 107.947 707.901 108.16 707.048 108.16H682.216C681.363 108.16 680.68 108.416 680.168 108.928C679.741 109.355 679.528 109.995 679.528 110.848V124.16C679.528 125.013 679.741 125.696 680.168 126.208C680.68 126.635 681.363 126.848 682.216 126.848H693.096ZM616.936 176.256C616.083 176.256 615.4 176.512 614.888 177.024C614.461 177.451 614.248 178.091 614.248 178.944V179.968L614.504 184.96V185.984C614.504 186.923 614.248 187.648 613.736 188.16C612.883 188.928 611.688 189.611 610.152 190.208C608.616 190.805 606.909 191.104 605.032 191.104C604.179 191.104 603.411 190.848 602.728 190.336C602.131 189.824 601.832 189.227 601.832 188.544C602.173 183.509 602.472 178.645 602.728 173.952C602.984 169.173 603.155 162.944 603.24 155.264V116.864C603.24 108.501 602.856 100.949 602.088 94.208V93.696C602.088 92.416 602.643 91.776 603.752 91.776C603.923 91.776 604.349 91.8613 605.032 92.032L614.248 95.744C615.187 96.1707 616.253 96.384 617.448 96.384H624.616C625.981 96.384 627.091 95.872 627.944 94.848L629.224 93.184C629.565 92.8427 629.949 92.3733 630.376 91.776C630.888 91.0933 631.315 90.624 631.656 90.368C631.997 90.0267 632.339 89.856 632.68 89.856C633.363 89.856 634.941 90.7947 637.416 92.672C639.891 94.5493 641.768 96.2133 643.048 97.664C643.389 98.0907 643.56 98.56 643.56 99.072C643.56 99.6693 643.219 100.224 642.536 100.736L641.256 101.504C640.488 101.845 639.891 102.229 639.464 102.656C639.123 103.083 638.952 103.68 638.952 104.448V150.784C639.123 160.085 639.421 169.472 639.848 178.944V179.584C639.848 180.779 639.421 181.632 638.568 182.144C637.373 182.912 635.923 183.595 634.216 184.192C632.509 184.789 630.973 185.088 629.608 185.088C629.267 185.088 629.011 185.045 628.84 184.96C627.816 184.704 627.304 183.893 627.304 182.528C627.475 181.845 627.56 181.291 627.56 180.864V180.736C627.731 180.565 627.816 179.541 627.816 177.664C627.816 176.725 626.92 176.256 625.128 176.256H616.936ZM625.128 134.016C625.981 134.016 626.621 133.803 627.048 133.376C627.56 132.864 627.816 132.181 627.816 131.328V102.784C627.816 101.931 627.56 101.291 627.048 100.864C626.621 100.352 625.981 100.096 625.128 100.096H616.936C616.083 100.096 615.4 100.352 614.888 100.864C614.461 101.291 614.248 101.931 614.248 102.784V131.328C614.248 132.181 614.461 132.864 614.888 133.376C615.4 133.803 616.083 134.016 616.936 134.016H625.128ZM696.424 147.456C697.533 147.456 698.472 146.859 699.24 145.664L700.776 143.36C701.203 142.848 701.672 142.208 702.184 141.44C702.696 140.672 703.123 140.117 703.464 139.776C703.805 139.349 704.147 139.136 704.488 139.136C705.171 139.136 706.707 140.203 709.096 142.336C711.485 144.384 713.235 146.176 714.344 147.712C714.771 148.139 714.984 148.608 714.984 149.12C714.984 149.632 714.728 150.101 714.216 150.528C713.619 150.955 712.808 151.168 711.784 151.168H697.448C696.595 151.168 695.912 151.424 695.4 151.936C694.973 152.363 694.76 153.003 694.76 153.856V187.776C694.76 190.848 694.419 193.323 693.736 195.2C693.139 197.077 691.859 198.613 689.896 199.808C687.933 201.088 685.032 201.984 681.192 202.496H680.552C679.272 202.496 678.419 201.728 677.992 200.192C677.565 197.717 676.712 195.883 675.432 194.688C673.64 192.981 670.739 191.744 666.728 190.976C665.021 190.549 664.168 190.08 664.168 189.568C664.168 189.056 665.107 188.8 666.984 188.8L669.544 188.928C676.371 189.355 680.04 189.568 680.552 189.568C681.661 189.568 682.387 189.397 682.728 189.056C683.155 188.715 683.368 188.075 683.368 187.136V153.856C683.368 153.003 683.112 152.363 682.6 151.936C682.173 151.424 681.533 151.168 680.68 151.168H661.992C656.787 151.253 651.155 151.723 645.096 152.576H644.328C643.133 152.576 642.28 152.021 641.768 150.912L641.256 149.888C641 149.376 640.872 148.864 640.872 148.352C640.872 147.84 641.085 147.456 641.512 147.2C641.939 146.859 642.536 146.731 643.304 146.816C646.205 147.072 650.6 147.285 656.488 147.456H680.68C682.472 147.456 683.368 146.56 683.368 144.768C683.197 140.331 683.027 137.216 682.856 135.424V135.168C682.856 133.632 683.539 132.864 684.904 132.864C685.331 132.864 685.672 132.907 685.928 132.992C690.28 134.101 693.309 135.04 695.016 135.808C696.723 136.576 697.576 137.216 697.576 137.728C697.576 137.984 697.277 138.325 696.68 138.752L696.552 138.88C695.357 139.733 694.76 140.8 694.76 142.08V144.768C694.76 145.621 694.888 146.304 695.144 146.816C695.485 147.243 695.912 147.456 696.424 147.456ZM616.936 137.728C616.083 137.728 615.4 137.984 614.888 138.496C614.461 138.923 614.248 139.563 614.248 140.416V169.856C614.248 170.709 614.461 171.392 614.888 171.904C615.4 172.331 616.083 172.544 616.936 172.544H625.128C625.981 172.544 626.621 172.331 627.048 171.904C627.56 171.392 627.816 170.709 627.816 169.856V140.416C627.816 139.563 627.56 138.923 627.048 138.496C626.621 137.984 625.981 137.728 625.128 137.728H616.936ZM650.344 158.464C649.32 157.013 648.979 156.16 649.32 155.904C649.405 155.819 649.619 155.776 649.96 155.776C650.472 155.776 651.112 155.904 651.88 156.16C658.195 158.293 662.803 160.939 665.704 164.096C668.691 167.253 670.184 170.368 670.184 173.44C670.184 175.488 669.587 177.195 668.392 178.56C667.197 179.84 665.747 180.48 664.04 180.48C662.76 180.48 661.608 180.139 660.584 179.456C659.987 179.115 659.56 178.731 659.304 178.304C659.048 177.877 658.835 177.28 658.664 176.512C658.067 173.611 657 170.581 655.464 167.424C653.928 164.181 652.221 161.195 650.344 158.464Z" fill="white"/>
<path d="M376.76 64.36C376.493 64.36 376.28 64.4267 376.12 64.56C375.987 64.6933 375.92 64.88 375.92 65.12C375.947 65.3333 375.96 65.5867 375.96 65.88L376 66.32C376 66.56 375.933 66.76 375.8 66.92C375.507 67.24 375.093 67.52 374.56 67.76C374.027 68 373.453 68.12 372.84 68.12C372.52 68.12 372.253 68.04 372.04 67.88C371.827 67.72 371.72 67.5333 371.72 67.32C371.827 65.7467 371.92 64.2267 372 62.76C372.08 61.2667 372.133 59.32 372.16 56.92V41.6C372.16 38.9867 372.04 36.64 371.8 34.56V34.4C371.8 33.9733 371.973 33.76 372.32 33.76C372.48 33.76 372.613 33.7867 372.72 33.84L375.76 35.16C376.053 35.2933 376.387 35.36 376.76 35.36H391.28C391.707 35.36 392.053 35.2 392.32 34.88L392.8 34.28C392.88 34.1733 393.013 34.0133 393.2 33.8C393.387 33.5867 393.533 33.4267 393.64 33.32C393.773 33.2133 393.893 33.16 394 33.16C394.213 33.16 394.733 33.4933 395.56 34.16C396.413 34.8 397.04 35.36 397.44 35.84C397.573 36.0267 397.64 36.1733 397.64 36.28C397.64 36.4933 397.52 36.6667 397.28 36.8L396.88 37C396.427 37.2133 396.2 37.5333 396.2 37.96V56.96C396.253 59.8667 396.347 62.8 396.48 65.76V65.92C396.48 66.2933 396.333 66.5733 396.04 66.76C395.64 67.0533 395.147 67.3067 394.56 67.52C393.973 67.7333 393.427 67.84 392.92 67.84C392.6 67.84 392.373 67.7333 392.24 67.52C392.16 67.4133 392.12 67.28 392.12 67.12C392.12 67.0133 392.147 66.8267 392.2 66.56C392.2 66.5067 392.227 66.16 392.28 65.52V65.2C392.28 64.9333 392.2 64.7333 392.04 64.6C391.907 64.44 391.707 64.36 391.44 64.36H376.76ZM391.44 49.04C391.707 49.04 391.907 48.9733 392.04 48.84C392.2 48.68 392.28 48.4667 392.28 48.2V37.36C392.28 37.0933 392.2 36.8933 392.04 36.76C391.907 36.6 391.707 36.52 391.44 36.52H376.76C376.493 36.52 376.28 36.6 376.12 36.76C375.987 36.8933 375.92 37.0933 375.92 37.36V48.2C375.92 48.4667 375.987 48.68 376.12 48.84C376.28 48.9733 376.493 49.04 376.76 49.04H391.44ZM376.76 50.2C376.493 50.2 376.28 50.28 376.12 50.44C375.987 50.5733 375.92 50.7733 375.92 51.04V62.36C375.92 62.6267 375.987 62.84 376.12 63C376.28 63.1333 376.493 63.2 376.76 63.2H391.44C391.707 63.2 391.907 63.1333 392.04 63C392.2 62.84 392.28 62.6267 392.28 62.36V51.04C392.28 50.7733 392.2 50.5733 392.04 50.44C391.907 50.28 391.707 50.2 391.44 50.2H376.76ZM437.08 37C439.427 37 441.747 37.4667 444.04 38.4C446.333 39.3333 448.24 40.84 449.76 42.92C451.28 44.9733 452.04 47.5867 452.04 50.76C452.04 54.36 450.987 57.2667 448.88 59.48C446.8 61.6667 444.267 63.2133 441.28 64.12C438.32 65.0267 435.387 65.48 432.48 65.48C431.813 65.48 431.48 65.4133 431.48 65.28C431.48 65.1733 431.72 65.08 432.2 65C432.68 64.8933 432.96 64.8267 433.04 64.8C437.44 64.08 441.053 62.52 443.88 60.12C446.707 57.72 448.12 54.52 448.12 50.52C448.12 47.4 447.467 44.9333 446.16 43.12C444.88 41.28 443.36 40.0133 441.6 39.32C439.84 38.6267 438.173 38.28 436.6 38.28C436.147 38.5733 435.987 38.8933 436.12 39.24C436.36 39.9333 436.56 40.6933 436.72 41.52C436.88 42.3467 436.96 43.12 436.96 43.84C436.96 44.8267 436.84 45.9733 436.6 47.28C436.387 48.5867 436.013 49.8933 435.48 51.2C434.653 53.36 433.68 55.28 432.56 56.96C431.44 58.64 430.333 59.9333 429.24 60.84C428.173 61.7467 427.28 62.2 426.56 62.2C425.573 62.2 424.627 61.6933 423.72 60.68C422.84 59.64 422.12 58.3333 421.56 56.76C421.027 55.16 420.76 53.56 420.76 51.96C420.76 48.9733 421.547 46.3467 423.12 44.08C424.72 41.8133 426.773 40.0667 429.28 38.84C431.813 37.6133 434.413 37 437.08 37ZM435.48 41.32C435.48 40.5733 435.413 39.84 435.28 39.12C435.147 38.6133 434.813 38.4 434.28 38.48C432.307 38.8267 430.507 39.6 428.88 40.8C427.28 41.9733 426.013 43.44 425.08 45.2C424.147 46.96 423.68 48.8533 423.68 50.88C423.68 52.3467 423.867 53.6 424.24 54.64C424.613 55.6533 425.053 56.4133 425.56 56.92C426.067 57.4267 426.48 57.68 426.8 57.68C427.413 57.68 428.16 57.2133 429.04 56.28C429.92 55.3467 430.773 54.2267 431.6 52.92C432.987 50.8133 433.973 48.8533 434.56 47.04C435.173 45.2267 435.48 43.32 435.48 41.32ZM499.36 63.6C499.627 63.6 499.827 63.5333 499.96 63.4C500.12 63.24 500.2 63.0267 500.2 62.76V59.4C500.2 56.7333 500.08 54.3467 499.84 52.24V52.08C499.84 51.6533 500.04 51.44 500.44 51.44C500.573 51.44 500.68 51.4533 500.76 51.48C503.427 52.12 504.76 52.6267 504.76 53C504.76 53.08 504.653 53.2 504.44 53.36L504.36 53.4C503.987 53.64 503.8 53.9733 503.8 54.4V57.68C503.853 60.5067 503.947 63.36 504.08 66.24V66.44C504.08 66.8133 503.947 67.08 503.68 67.24C503.333 67.4533 502.893 67.6267 502.36 67.76C501.853 67.92 501.347 68 500.84 68C500.52 68 500.293 67.8933 500.16 67.68C500.08 67.5733 500.04 67.44 500.04 67.28C500.04 67.1733 500.067 66.9867 500.12 66.72C500.12 66.6667 500.147 66.3733 500.2 65.84V65.6C500.2 65.3333 500.12 65.1333 499.96 65C499.827 64.84 499.627 64.76 499.36 64.76H478.12C477.853 64.76 477.64 64.84 477.48 65C477.347 65.1333 477.28 65.3333 477.28 65.6V65.64C477.36 66.4133 477.387 66.7467 477.36 66.64V66.84C477.36 67.2133 477.253 67.48 477.04 67.64C476.747 67.8533 476.347 68.0267 475.84 68.16C475.36 68.2933 474.88 68.36 474.4 68.36C474.107 68.36 473.88 68.28 473.72 68.12C473.56 67.96 473.48 67.7733 473.48 67.56C473.613 66.2533 473.707 64.5333 473.76 62.4V59.4C473.76 56.7333 473.64 54.3467 473.4 52.24V52.08C473.4 51.6533 473.6 51.44 474 51.44C474.133 51.44 474.24 51.4533 474.32 51.48C476.933 52.12 478.24 52.6267 478.24 53C478.24 53.08 478.133 53.2 477.92 53.36L477.84 53.4C477.467 53.64 477.28 53.9733 477.28 54.4V62.76C477.28 63.0267 477.347 63.24 477.48 63.4C477.64 63.5333 477.853 63.6 478.12 63.6H485.92C486.187 63.6 486.387 63.5333 486.52 63.4C486.68 63.24 486.76 63.0267 486.76 62.76V48.72C486.76 48.4533 486.68 48.2533 486.52 48.12C486.387 47.96 486.187 47.88 485.92 47.88H479.96C479.693 47.88 479.48 47.96 479.32 48.12C479.187 48.2533 479.12 48.4533 479.12 48.72V49.28C479.12 49.4667 478.8 49.6933 478.16 49.96C477.52 50.2 476.88 50.32 476.24 50.32C475.973 50.32 475.76 50.24 475.6 50.08C475.467 49.92 475.4 49.7333 475.4 49.52C475.507 48.4 475.587 46.9867 475.64 45.28V42.72C475.64 40.2133 475.52 37.96 475.28 35.96V35.88C475.28 35.4 475.493 35.16 475.92 35.16C476.053 35.16 476.16 35.1733 476.24 35.2C478.827 35.84 480.12 36.3467 480.12 36.72C480.12 36.8 480.013 36.92 479.8 37.08L479.68 37.16C479.307 37.3733 479.12 37.7067 479.12 38.16V45.88C479.12 46.1467 479.187 46.36 479.32 46.52C479.48 46.6533 479.693 46.72 479.96 46.72H485.92C486.187 46.72 486.387 46.6533 486.52 46.52C486.68 46.36 486.76 46.1467 486.76 45.88V39.48C486.76 36.8133 486.64 34.4267 486.4 32.32V32.16C486.4 31.7333 486.6 31.52 487 31.52C487.133 31.52 487.24 31.5333 487.32 31.56C490.067 32.2267 491.44 32.7467 491.44 33.12C491.44 33.2533 491.333 33.3867 491.12 33.52L491 33.6C490.627 33.84 490.44 34.1733 490.44 34.6V45.88C490.44 46.1467 490.507 46.36 490.64 46.52C490.8 46.6533 491.013 46.72 491.28 46.72H497.52C497.787 46.72 497.987 46.6533 498.12 46.52C498.28 46.36 498.36 46.1467 498.36 45.88V43.12C498.36 40.4533 498.24 38.0667 498 35.96V35.8C498 35.3733 498.2 35.16 498.6 35.16C498.733 35.16 498.84 35.1733 498.92 35.2C501.56 35.84 502.88 36.3467 502.88 36.72C502.88 36.8 502.773 36.92 502.56 37.08L502.44 37.16C502.067 37.3733 501.88 37.7067 501.88 38.16V40.84C501.96 44.1733 502.04 46.6667 502.12 48.32V48.52C502.12 48.8933 501.987 49.16 501.72 49.32C501.4 49.5333 500.987 49.72 500.48 49.88C499.973 50.04 499.48 50.12 499 50.12C498.68 50.12 498.453 50.0267 498.32 49.84C498.24 49.68 498.2 49.5467 498.2 49.44C498.2 49.3067 498.227 49.16 498.28 49C498.333 48.68 498.36 48.4267 498.36 48.24C498.36 48.1333 498.28 48.0533 498.12 48C497.987 47.92 497.787 47.88 497.52 47.88H491.28C491.013 47.88 490.8 47.96 490.64 48.12C490.507 48.2533 490.44 48.4533 490.44 48.72V62.76C490.44 63.0267 490.507 63.24 490.64 63.4C490.8 63.5333 491.013 63.6 491.28 63.6H499.36ZM541.72 42.72C543.453 42.72 544.707 43.28 545.48 44.4C546.253 45.52 546.64 47.16 546.64 49.32C546.64 50.4933 546.48 51.9867 546.16 53.8C545.84 55.6133 545.347 57.3867 544.68 59.12C544.04 60.8533 543.253 62.2 542.32 63.16C541.813 63.6933 541.307 64.1067 540.8 64.4C540.32 64.6667 539.893 64.8 539.52 64.8C539.093 64.8 538.693 64.6267 538.32 64.28C537.973 63.9333 537.707 63.48 537.52 62.92C537.12 61.64 536.467 60.3867 535.56 59.16C535.507 59.0533 535.427 58.9333 535.32 58.8C535.213 58.64 535.16 58.52 535.16 58.44C535.16 58.3867 535.213 58.36 535.32 58.36C535.453 58.36 535.747 58.5067 536.2 58.8C536.253 58.8267 536.56 59 537.12 59.32C537.627 59.6133 538.04 59.84 538.36 60C538.68 60.1333 538.96 60.2 539.2 60.2C540.08 60.2 540.853 59.4667 541.52 58C542.213 56.5067 542.747 54.7867 543.12 52.84C543.493 50.8667 543.68 49.28 543.68 48.08C543.68 46.8533 543.507 45.9467 543.16 45.36C542.84 44.7733 542.293 44.48 541.52 44.48C540.587 44.48 539.267 44.8667 537.56 45.64C537.16 45.7733 536.92 46.0533 536.84 46.48C535.56 51.9467 533.613 56.8533 531 61.2C530.6 61.92 530.147 62.48 529.64 62.88C529.133 63.28 528.653 63.48 528.2 63.48C527.773 63.48 527.427 63.3333 527.16 63.04C526.893 62.72 526.76 62.3067 526.76 61.8C526.76 60.8667 527.213 59.8133 528.12 58.64C530.6 55.3333 532.387 52.0933 533.48 48.92C533.533 48.76 533.56 48.64 533.56 48.56C533.56 48.24 533.387 48.08 533.04 48.08C532.88 48.08 532.707 48.12 532.52 48.2C531.027 48.9733 529.92 49.36 529.2 49.36C528.667 49.36 528.093 49.16 527.48 48.76C526.867 48.3333 526.347 47.7867 525.92 47.12C525.52 46.4533 525.32 45.7733 525.32 45.08C525.32 44.76 525.4 44.6 525.56 44.6C525.64 44.6 525.773 44.6667 525.96 44.8C526.147 44.9067 526.307 45 526.44 45.08C527.16 45.4533 528.027 45.64 529.04 45.64C530.64 45.6133 532.293 45.32 534 44.76C534.427 44.6533 534.68 44.36 534.76 43.88C534.973 42.4933 535.08 41.36 535.08 40.48C535.08 39.04 534.813 37.9867 534.28 37.32C533.96 36.92 533.6 36.56 533.2 36.24C532.8 35.92 532.6 35.7067 532.6 35.6C532.6 35.44 532.747 35.3067 533.04 35.2C533.333 35.0667 533.733 35 534.24 35C534.72 35 535.227 35.0667 535.76 35.2C536.32 35.3333 536.773 35.4933 537.12 35.68C538.08 36.16 538.56 36.9067 538.56 37.92C538.56 38.4267 538.4 39.2667 538.08 40.44C537.893 41.16 537.787 41.6133 537.76 41.8L537.64 42.44L537.6 42.68C537.6 42.92 537.667 43.0933 537.8 43.2C537.96 43.28 538.16 43.2933 538.4 43.24C539.627 42.8933 540.733 42.72 541.72 42.72ZM549.68 42.84C552 42.8667 553.907 43.2667 555.4 44.04C556.893 44.8133 557.973 45.7333 558.64 46.8C559.333 47.84 559.68 48.8267 559.68 49.76C559.68 50.4533 559.52 51.0667 559.2 51.6C558.88 52.1333 558.48 52.5467 558 52.84C557.547 53.1333 557.093 53.28 556.64 53.28C556.187 53.28 555.653 53.0267 555.04 52.52C554.507 52.0667 553.853 51.7467 553.08 51.56C552.333 51.3467 551.48 51.1867 550.52 51.08C550.147 51.0267 549.96 50.9467 549.96 50.84C549.96 50.7333 550.2 50.6533 550.68 50.6C551.24 50.4933 552.12 50.3733 553.32 50.24C554.2 50.08 554.773 49.92 555.04 49.76C555.307 49.6 555.44 49.32 555.44 48.92C555.44 47.6667 554.84 46.5333 553.64 45.52C552.44 44.48 551.08 43.72 549.56 43.24C549.32 43.16 549.2 43.08 549.2 43C549.2 42.8933 549.36 42.84 549.68 42.84ZM587.44 66.6C587.12 66.6 586.96 66.5067 586.96 66.32C586.96 66.1867 587.027 66.0933 587.16 66.04C587.32 65.9867 587.547 65.9467 587.84 65.92C592 65.2533 595.133 64.0667 597.24 62.36C599.347 60.6533 600.4 58.52 600.4 55.96C600.4 54.5733 600.107 53.4533 599.52 52.6C598.933 51.72 598.067 51.28 596.92 51.28C595.64 51.28 594.547 51.7733 593.64 52.76C592.76 53.7467 591.787 55.24 590.72 57.24C590.48 57.7733 590.107 58.2133 589.6 58.56C589.12 58.9067 588.667 59.08 588.24 59.08C586.96 59.08 585.933 58.6933 585.16 57.92C584.387 57.1467 584 56.0267 584 54.56C584 53.4133 584.16 50.92 584.48 47.08C584.64 45.16 584.72 44.16 584.72 44.08C584.72 43.7067 584.68 43.3333 584.6 42.96C584.547 42.56 584.52 42.2667 584.52 42.08C584.52 41.4933 584.72 40.9733 585.12 40.52C585.52 40.0667 586.16 39.5467 587.04 38.96C587.627 38.5333 588.52 38.0667 589.72 37.56C590.413 37.24 590.907 37 591.2 36.84C591.493 36.6533 591.64 36.4533 591.64 36.24C591.64 35.9467 591.387 35.5733 590.88 35.12C590.373 34.6667 589.76 34.24 589.04 33.84C588.987 33.8133 588.88 33.76 588.72 33.68C588.56 33.5733 588.48 33.48 588.48 33.4C588.48 33.24 588.907 33.16 589.76 33.16C591.04 33.16 592.16 33.4 593.12 33.88C594.08 34.36 594.933 35.1867 595.68 36.36C596 36.8133 596.16 37.3067 596.16 37.84C596.16 38.4 595.96 38.9067 595.56 39.36C595.187 39.7867 594.76 40 594.28 40C593.853 40 593.373 39.7867 592.84 39.36C592.413 39.0933 592.04 38.8933 591.72 38.76C591.4 38.6 591 38.52 590.52 38.52C589.64 38.52 588.733 38.8133 587.8 39.4C587.533 39.56 587.32 39.7733 587.16 40.04C587 40.28 586.92 40.5333 586.92 40.8C586.92 41.0133 587.053 41.3867 587.32 41.92C587.667 42.6133 587.84 43.2 587.84 43.68C587.84 43.92 587.733 44.76 587.52 46.2C587.173 48.52 587 50.2267 587 51.32C587 52.04 587.08 52.7467 587.24 53.44C587.427 54.1333 587.68 54.48 588 54.48C588.187 54.48 588.44 54.3867 588.76 54.2C589.107 53.9867 589.573 53.68 590.16 53.28C591.493 52.32 592.733 51.56 593.88 51C595.027 50.4133 596.253 50.12 597.56 50.12C598.733 50.12 599.853 50.4267 600.92 51.04C602.013 51.6533 602.88 52.48 603.52 53.52C604.187 54.56 604.52 55.72 604.52 57C604.52 58.3333 604.16 59.6 603.44 60.8C602.747 62 601.213 63.1333 598.84 64.2C596.467 65.2667 593.013 66.04 588.48 66.52L587.44 66.6Z" fill="white"/>
</svg>
