<svg width="979" height="290" viewBox="0 0 979 290" fill="none" xmlns="http://www.w3.org/2000/svg">
<mask id="mask0_50_56" style="mask-type:alpha" maskUnits="userSpaceOnUse" x="673" y="60" width="170" height="170">
<rect x="673" y="60" width="170" height="170" fill="#D9D9D9"/>
</mask>
<g mask="url(#mask0_50_56)">
<path d="M708.417 215.832C704.521 215.832 701.186 214.445 698.411 211.671C695.637 208.896 694.25 205.561 694.25 201.666V102.499C694.25 98.603 695.637 95.268 698.411 92.4937C701.186 89.7194 704.521 88.3322 708.417 88.3322H715.5V74.1655H729.667V88.3322H786.333V74.1655H800.5V88.3322H807.583C811.479 88.3322 814.814 89.7194 817.589 92.4937C820.363 95.268 821.75 98.603 821.75 102.499V201.666C821.75 205.561 820.363 208.896 817.589 211.671C814.814 214.445 811.479 215.832 807.583 215.832H708.417ZM708.417 201.666H807.583V130.832H708.417V201.666ZM708.417 116.666H807.583V102.499H708.417V116.666ZM758 159.166C755.993 159.166 754.311 158.487 752.953 157.129C751.595 155.771 750.917 154.089 750.917 152.082C750.917 150.075 751.595 148.393 752.953 147.035C754.311 145.678 755.993 144.999 758 144.999C760.007 144.999 761.689 145.678 763.047 147.035C764.405 148.393 765.083 150.075 765.083 152.082C765.083 154.089 764.405 155.771 763.047 157.129C761.689 158.487 760.007 159.166 758 159.166ZM729.667 159.166C727.66 159.166 725.977 158.487 724.62 157.129C723.262 155.771 722.583 154.089 722.583 152.082C722.583 150.075 723.262 148.393 724.62 147.035C725.977 145.678 727.66 144.999 729.667 144.999C731.674 144.999 733.356 145.678 734.714 147.035C736.071 148.393 736.75 150.075 736.75 152.082C736.75 154.089 736.071 155.771 734.714 157.129C733.356 158.487 731.674 159.166 729.667 159.166ZM786.333 159.166C784.326 159.166 782.644 158.487 781.286 157.129C779.929 155.771 779.25 154.089 779.25 152.082C779.25 150.075 779.929 148.393 781.286 147.035C782.644 145.678 784.326 144.999 786.333 144.999C788.34 144.999 790.023 145.678 791.38 147.035C792.738 148.393 793.417 150.075 793.417 152.082C793.417 154.089 792.738 155.771 791.38 157.129C790.023 158.487 788.34 159.166 786.333 159.166ZM758 187.499C755.993 187.499 754.311 186.82 752.953 185.462C751.595 184.105 750.917 182.422 750.917 180.416C750.917 178.409 751.595 176.726 752.953 175.369C754.311 174.011 755.993 173.332 758 173.332C760.007 173.332 761.689 174.011 763.047 175.369C764.405 176.726 765.083 178.409 765.083 180.416C765.083 182.422 764.405 184.105 763.047 185.462C761.689 186.82 760.007 187.499 758 187.499ZM729.667 187.499C727.66 187.499 725.977 186.82 724.62 185.462C723.262 184.105 722.583 182.422 722.583 180.416C722.583 178.409 723.262 176.726 724.62 175.369C725.977 174.011 727.66 173.332 729.667 173.332C731.674 173.332 733.356 174.011 734.714 175.369C736.071 176.726 736.75 178.409 736.75 180.416C736.75 182.422 736.071 184.105 734.714 185.462C733.356 186.82 731.674 187.499 729.667 187.499ZM786.333 187.499C784.326 187.499 782.644 186.82 781.286 185.462C779.929 184.105 779.25 182.422 779.25 180.416C779.25 178.409 779.929 176.726 781.286 175.369C782.644 174.011 784.326 173.332 786.333 173.332C788.34 173.332 790.023 174.011 791.38 175.369C792.738 176.726 793.417 178.409 793.417 180.416C793.417 182.422 792.738 184.105 791.38 185.462C790.023 186.82 788.34 187.499 786.333 187.499Z" fill="#686868"/>
</g>
<path d="M252.8 222.4L252.2 221C261.667 218.333 269.733 214.067 276.4 208.2C283.067 202.333 288.467 195.333 292.6 187.2C296.867 179.067 300 170.267 302 160.8C304 151.2 305 141.4 305 131.4C305 120.6 303.867 111.267 301.6 103.4C299.333 95.4 295.933 89.2667 291.4 85C286.867 80.7333 281.133 78.6 274.2 78.6C267.933 78.6 262.733 80.3333 258.6 83.8C254.6 87.2667 251.667 91.8667 249.8 97.6C247.933 103.2 247.067 109.333 247.2 116C247.333 122.4 248.4 128.133 250.4 133.2C252.533 138.267 255.6 142.2 259.6 145C263.6 147.8 268.467 149.133 274.2 149C278.333 148.867 282.333 148 286.2 146.4C290.2 144.667 293.533 142.067 296.2 138.6L297.2 140.4C293.867 144.667 290 148.067 285.6 150.6C281.2 153.133 276.6 154.8 271.8 155.6C267 156.4 262.267 156.267 257.6 155.2C253.067 154 248.867 151.933 245 149C241.267 145.933 238.267 141.933 236 137C233.733 131.933 232.467 125.867 232.2 118.8C231.933 109.333 233.6 101.2 237.2 94.4C240.8 87.6 245.8 82.3333 252.2 78.6C258.733 74.7333 266.067 72.7333 274.2 72.6C288.067 72.3333 299.133 77.2667 307.4 87.4C315.8 97.4 320 111.667 320 130.2C320 140.2 318.667 150.4 316 160.8C313.333 171.067 309.2 180.733 303.6 189.8C298.133 198.733 291.2 206.133 282.8 212C274.4 217.867 264.4 221.333 252.8 222.4ZM357.122 197.144C356.354 202.179 354.605 206.701 351.874 210.712C349.186 214.68 345.047 218.029 339.458 220.76L338.882 220.248C342.082 217.304 344.535 214.061 346.242 210.52C347.949 206.979 349.079 203.309 349.634 199.512C350.231 195.672 350.53 191.32 350.53 186.456V174.872C350.53 170.136 350.274 166.168 349.762 162.968L358.978 166.36H376.962L378.498 164.312C378.626 164.141 378.839 163.864 379.138 163.48C379.479 163.053 379.757 162.755 379.97 162.584C380.183 162.371 380.375 162.264 380.546 162.264C380.802 162.264 381.506 162.691 382.658 163.544C383.853 164.397 384.962 165.293 385.986 166.232C387.053 167.171 387.586 167.789 387.586 168.088C387.117 168.728 386.285 169.176 385.09 169.432V211.544C385.09 213.507 384.855 215.085 384.386 216.28C383.917 217.475 382.935 218.435 381.442 219.16C379.991 219.928 377.837 220.461 374.978 220.76C374.85 219.352 374.658 218.2 374.402 217.304C374.146 216.451 373.762 215.747 373.25 215.192C372.653 214.552 371.863 214.019 370.882 213.592C369.943 213.165 368.621 212.781 366.914 212.44V211.608C372.077 211.949 375.149 212.12 376.13 212.12C376.685 212.12 377.069 212.013 377.282 211.8C377.495 211.544 377.602 211.16 377.602 210.648V197.144H357.122ZM377.602 180.632V168.216H357.826V180.632H377.602ZM357.826 186.392C357.826 190.019 357.677 193.005 357.378 195.352H377.602V182.424H357.826V186.392Z" fill="white"/>
<path d="M481.824 153.74C479.52 153.74 477.131 153.399 474.656 152.716C472.181 151.948 469.195 150.839 465.696 149.388C461.088 147.681 457.419 146.444 454.688 145.676C452.043 144.908 449.227 144.524 446.24 144.524C443.595 144.524 441.035 144.908 438.56 145.676C436.171 146.444 433.184 147.724 429.6 149.516C429.259 149.687 428.96 149.772 428.704 149.772C428.448 149.772 428.149 149.687 427.808 149.516C427.552 149.26 427.424 148.961 427.424 148.62C427.424 148.364 427.509 148.151 427.68 147.98C430.667 144.652 434.251 141.964 438.432 139.916C442.699 137.783 446.709 136.716 450.464 136.716C452.597 136.716 455.072 137.143 457.888 137.996C460.704 138.764 464.501 140.001 469.28 141.708C473.717 143.244 477.173 144.396 479.648 145.164C482.208 145.932 484.384 146.316 486.176 146.316C488.651 146.316 491.04 145.975 493.344 145.292C495.648 144.609 498.08 143.415 500.64 141.708C500.981 141.452 501.28 141.324 501.536 141.324C501.792 141.324 502.048 141.452 502.304 141.708C502.645 141.879 502.816 142.092 502.816 142.348C502.816 142.519 502.731 142.732 502.56 142.988C500.341 145.975 497.355 148.535 493.6 150.668C489.931 152.716 486.005 153.74 481.824 153.74Z" fill="white"/>
<path d="M587.8 215H544.4L544.6 213H548.8C551.867 213 554.467 211.933 556.6 209.8C558.733 207.667 559.8 205.133 559.8 202.2V96.8C559.8 93.6 559 91.2 557.4 89.6C555.933 87.8667 553.667 87 550.6 87H543V85C545.667 84.6 548.2 84.1333 550.6 83.6C553.133 83.0667 555.533 82.4 557.8 81.6C560.067 80.6667 562.267 79.4667 564.4 78C566.533 76.4 568.6 74.4667 570.6 72.2H572.6V202.4C572.6 205.333 573.667 207.867 575.8 210C578.067 212 580.667 213 583.6 213H587.8V215ZM677.581 215H634.181L634.381 213H638.581C641.648 213 644.248 211.933 646.381 209.8C648.515 207.667 649.581 205.133 649.581 202.2V96.8C649.581 93.6 648.781 91.2 647.181 89.6C645.715 87.8667 643.448 87 640.381 87H632.781V85C635.448 84.6 637.981 84.1333 640.381 83.6C642.915 83.0667 645.315 82.4 647.581 81.6C649.848 80.6667 652.048 79.4667 654.181 78C656.315 76.4 658.381 74.4667 660.381 72.2H662.381V202.4C662.381 205.333 663.448 207.867 665.581 210C667.848 212 670.448 213 673.381 213H677.581V215ZM715.739 197.144C714.971 202.179 713.222 206.701 710.491 210.712C707.803 214.68 703.665 218.029 698.075 220.76L697.499 220.248C700.699 217.304 703.153 214.061 704.859 210.52C706.566 206.979 707.697 203.309 708.251 199.512C708.849 195.672 709.147 191.32 709.147 186.456V174.872C709.147 170.136 708.891 166.168 708.379 162.968L717.595 166.36H735.579L737.115 164.312C737.243 164.141 737.457 163.864 737.755 163.48C738.097 163.053 738.374 162.755 738.587 162.584C738.801 162.371 738.993 162.264 739.163 162.264C739.419 162.264 740.123 162.691 741.275 163.544C742.47 164.397 743.579 165.293 744.603 166.232C745.67 167.171 746.203 167.789 746.203 168.088C745.734 168.728 744.902 169.176 743.707 169.432V211.544C743.707 213.507 743.473 215.085 743.003 216.28C742.534 217.475 741.553 218.435 740.059 219.16C738.609 219.928 736.454 220.461 733.595 220.76C733.467 219.352 733.275 218.2 733.019 217.304C732.763 216.451 732.379 215.747 731.867 215.192C731.27 214.552 730.481 214.019 729.499 213.592C728.561 213.165 727.238 212.781 725.531 212.44V211.608C730.694 211.949 733.766 212.12 734.747 212.12C735.302 212.12 735.686 212.013 735.899 211.8C736.113 211.544 736.219 211.16 736.219 210.648V197.144H715.739ZM736.219 180.632V168.216H716.443V180.632H736.219ZM716.443 186.392C716.443 190.019 716.294 193.005 715.995 195.352H736.219V182.424H716.443V186.392Z" fill="white"/>
</svg>
