<svg width="979" height="290" viewBox="0 0 979 290" fill="none" xmlns="http://www.w3.org/2000/svg">
<mask id="mask0_50_61" style="mask-type:alpha" maskUnits="userSpaceOnUse" x="574" y="60" width="170" height="170">
<rect x="574" y="60" width="170" height="170" fill="#D9D9D9"/>
</mask>
<g mask="url(#mask0_50_61)">
<path d="M655.457 201.667C649.554 201.667 644.537 199.601 640.405 195.469C636.273 191.337 634.207 186.319 634.207 180.417H648.374C648.374 182.424 649.053 184.106 650.41 185.464C651.768 186.821 653.45 187.5 655.457 187.5C657.464 187.5 659.146 186.821 660.504 185.464C661.862 184.106 662.541 182.424 662.541 180.417C662.541 178.41 661.862 176.727 660.504 175.37C659.146 174.012 657.464 173.333 655.457 173.333H588.166V159.167H655.457C661.36 159.167 666.377 161.233 670.509 165.365C674.641 169.497 676.707 174.514 676.707 180.417C676.707 186.319 674.641 191.337 670.509 195.469C666.377 199.601 661.36 201.667 655.457 201.667ZM588.166 130.833V116.667H683.791C686.86 116.667 689.398 115.663 691.405 113.656C693.412 111.649 694.416 109.111 694.416 106.042C694.416 102.972 693.412 100.434 691.405 98.4271C689.398 96.4201 686.86 95.4167 683.791 95.4167C680.721 95.4167 678.183 96.4201 676.176 98.4271C674.169 100.434 673.166 102.972 673.166 106.042H658.999C658.999 99.0764 661.39 93.2031 666.171 88.4219C670.952 83.6406 676.825 81.25 683.791 81.25C690.756 81.25 696.629 83.6406 701.41 88.4219C706.192 93.2031 708.582 99.0764 708.582 106.042C708.582 113.007 706.192 118.88 701.41 123.661C696.629 128.443 690.756 130.833 683.791 130.833H588.166ZM705.041 187.5V173.333C708.11 173.333 710.648 172.33 712.655 170.323C714.662 168.316 715.666 165.778 715.666 162.708C715.666 159.639 714.662 157.101 712.655 155.094C710.648 153.087 708.11 152.083 705.041 152.083H588.166V137.917H705.041C712.006 137.917 717.879 140.307 722.66 145.089C727.442 149.87 729.832 155.743 729.832 162.708C729.832 169.674 727.442 175.547 722.66 180.328C717.879 185.109 712.006 187.5 705.041 187.5Z" fill="#686868"/>
</g>
<path d="M443.016 133.632C444.211 133.632 445.192 133.035 445.96 131.84L447.752 129.152C448.093 128.725 448.52 128.085 449.032 127.232C449.629 126.379 450.099 125.739 450.44 125.312C450.867 124.885 451.251 124.672 451.592 124.672C452.275 124.672 453.896 125.824 456.456 128.128C459.101 130.432 460.936 132.352 461.96 133.888C462.387 134.485 462.6 134.997 462.6 135.424C462.6 135.851 462.387 136.277 461.96 136.704C461.277 137.131 460.467 137.344 459.528 137.344H443.912C443.059 137.344 442.376 137.6 441.864 138.112C441.437 138.539 441.224 139.179 441.224 140.032V161.28C441.224 162.133 441.395 162.816 441.736 163.328C442.077 163.755 442.504 163.968 443.016 163.968C444.125 163.968 445.021 163.371 445.704 162.176L447.496 159.232C447.837 158.635 448.264 157.909 448.776 157.056C449.373 156.203 449.843 155.563 450.184 155.136C450.525 154.709 450.867 154.496 451.208 154.496C451.805 154.496 453.341 155.691 455.816 158.08C458.376 160.384 460.211 162.347 461.32 163.968C461.661 164.395 461.832 164.907 461.832 165.504C461.832 166.016 461.619 166.485 461.192 166.912C460.509 167.339 459.699 167.552 458.76 167.552H370.056C364.851 167.637 359.219 168.107 353.16 168.96H352.392C351.197 168.96 350.344 168.405 349.832 167.296L349.32 166.4C349.064 165.888 348.936 165.376 348.936 164.864C348.936 163.755 349.789 163.285 351.496 163.456C353.459 163.627 356.488 163.797 360.584 163.968H364.04C364.893 163.968 365.533 163.755 365.96 163.328C366.472 162.816 366.728 162.133 366.728 161.28V140.032C366.728 139.179 366.472 138.539 365.96 138.112C365.533 137.6 364.893 137.344 364.04 137.344H360.584C357.768 137.429 354.952 137.813 352.136 138.496C351.88 138.581 351.539 138.624 351.112 138.624C350.088 138.624 349.277 138.069 348.68 136.96L348.296 136.064C348.04 135.552 347.912 135.083 347.912 134.656C347.912 133.461 348.723 132.949 350.344 133.12C352.563 133.291 355.891 133.461 360.328 133.632H364.04C364.893 133.632 365.533 133.419 365.96 132.992C366.472 132.48 366.728 131.797 366.728 130.944V118.144C366.728 117.461 366.557 116.907 366.216 116.48C365.96 116.053 365.619 115.84 365.192 115.84C364.765 115.84 364.168 116.139 363.4 116.736C359.304 120.149 355.379 123.008 351.624 125.312C350.259 125.995 349.363 126.123 348.936 125.696C348.765 125.525 348.68 125.355 348.68 125.184C348.68 124.843 349.107 124.117 349.96 123.008C353.459 119.083 356.957 114.261 360.456 108.544C362.419 105.387 364.339 101.632 366.216 97.28C368.179 92.928 369.672 89.0027 370.696 85.504C370.952 84.224 371.635 83.584 372.744 83.584C373.171 83.584 373.683 83.712 374.28 83.968C383.069 87.8933 387.464 90.368 387.464 91.392C387.464 91.7333 387.08 91.9893 386.312 92.16L385.8 92.288C384.52 92.6293 383.539 93.3547 382.856 94.464C381.405 96.768 379.955 98.8587 378.504 100.736C377.992 101.504 377.608 102.144 377.352 102.656C377.096 103.083 377.053 103.339 377.224 103.424C377.48 103.595 378.248 103.68 379.528 103.68H437.768C439.133 103.68 440.2 103.083 440.968 101.888L442.888 98.944C443.315 98.3467 443.784 97.6213 444.296 96.768C444.893 95.9147 445.363 95.2747 445.704 94.848C446.131 94.4213 446.515 94.208 446.856 94.208C447.539 94.208 449.245 95.4027 451.976 97.792C454.792 100.181 456.797 102.187 457.992 103.808C458.419 104.405 458.632 104.917 458.632 105.344C458.632 105.856 458.376 106.325 457.864 106.752C457.267 107.179 456.499 107.392 455.56 107.392H443.912C443.059 107.392 442.376 107.648 441.864 108.16C441.437 108.587 441.224 109.227 441.224 110.08V130.944C441.224 132.736 441.821 133.632 443.016 133.632ZM387.464 110.08C387.464 109.227 387.208 108.587 386.696 108.16C386.269 107.648 385.629 107.392 384.776 107.392H379.656C378.803 107.392 378.12 107.648 377.608 108.16C377.181 108.587 376.968 109.227 376.968 110.08V130.944C376.968 131.797 377.181 132.48 377.608 132.992C378.12 133.419 378.803 133.632 379.656 133.632H384.776C385.629 133.632 386.269 133.419 386.696 132.992C387.208 132.48 387.464 131.797 387.464 130.944V110.08ZM406.408 133.632C407.261 133.632 407.901 133.419 408.328 132.992C408.84 132.48 409.096 131.797 409.096 130.944V110.08C409.096 109.227 408.84 108.587 408.328 108.16C407.901 107.648 407.261 107.392 406.408 107.392H400.392C399.539 107.392 398.856 107.648 398.344 108.16C397.917 108.587 397.704 109.227 397.704 110.08V130.944C397.704 131.797 397.917 132.48 398.344 132.992C398.856 133.419 399.539 133.632 400.392 133.632H406.408ZM428.04 133.632C428.893 133.632 429.533 133.419 429.96 132.992C430.472 132.48 430.728 131.797 430.728 130.944V110.08C430.728 109.227 430.472 108.587 429.96 108.16C429.533 107.648 428.893 107.392 428.04 107.392H422.152C421.299 107.392 420.616 107.648 420.104 108.16C419.677 108.587 419.464 109.227 419.464 110.08V130.944C419.464 131.797 419.677 132.48 420.104 132.992C420.616 133.419 421.299 133.632 422.152 133.632H428.04ZM387.464 140.032C387.464 139.179 387.208 138.539 386.696 138.112C386.269 137.6 385.629 137.344 384.776 137.344H379.656C378.803 137.344 378.12 137.6 377.608 138.112C377.181 138.539 376.968 139.179 376.968 140.032V161.28C376.968 162.133 377.181 162.816 377.608 163.328C378.12 163.755 378.803 163.968 379.656 163.968H384.776C385.629 163.968 386.269 163.755 386.696 163.328C387.208 162.816 387.464 162.133 387.464 161.28V140.032ZM406.408 163.968C407.261 163.968 407.901 163.755 408.328 163.328C408.84 162.816 409.096 162.133 409.096 161.28V140.032C409.096 139.179 408.84 138.539 408.328 138.112C407.901 137.6 407.261 137.344 406.408 137.344H400.392C399.539 137.344 398.856 137.6 398.344 138.112C397.917 138.539 397.704 139.179 397.704 140.032V161.28C397.704 162.133 397.917 162.816 398.344 163.328C398.856 163.755 399.539 163.968 400.392 163.968H406.408ZM419.464 161.28C419.464 162.133 419.677 162.816 420.104 163.328C420.616 163.755 421.299 163.968 422.152 163.968H428.04C428.893 163.968 429.533 163.755 429.96 163.328C430.472 162.816 430.728 162.133 430.728 161.28V140.032C430.728 139.179 430.472 138.539 429.96 138.112C429.533 137.6 428.893 137.344 428.04 137.344H422.152C421.299 137.344 420.616 137.6 420.104 138.112C419.677 138.539 419.464 139.179 419.464 140.032V161.28ZM432.008 174.208C430.643 172.843 430.173 172.032 430.6 171.776C430.771 171.605 431.069 171.52 431.496 171.52C431.923 171.52 432.52 171.648 433.288 171.904C439.603 173.781 444.765 176.128 448.776 178.944C452.872 181.675 455.816 184.533 457.608 187.52C459.4 190.421 460.296 193.195 460.296 195.84C460.296 197.888 459.741 199.552 458.632 200.832C457.608 202.197 456.285 202.88 454.664 202.88C453.981 202.88 453.085 202.667 451.976 202.24C450.952 201.813 450.227 200.96 449.8 199.68C448.349 195.584 445.96 191.232 442.632 186.624C439.389 182.016 435.848 177.877 432.008 174.208ZM368.136 174.08C368.563 172.373 368.989 171.52 369.416 171.52C370.013 171.691 370.44 172.459 370.696 173.824C371.037 175.957 371.208 178.219 371.208 180.608C371.208 185.728 370.184 190.08 368.136 193.664C366.088 197.333 363.571 199.893 360.584 201.344C358.877 202.283 357.171 202.752 355.464 202.752C353.757 202.752 352.307 202.283 351.112 201.344C349.917 200.405 349.32 199.083 349.32 197.376C349.32 196.011 349.747 194.731 350.6 193.536C351.539 192.427 352.691 191.488 354.056 190.72C357.213 189.525 360.115 187.435 362.76 184.448C365.491 181.461 367.283 178.005 368.136 174.08ZM407.688 175.872C406.664 174.336 406.365 173.44 406.792 173.184C406.877 173.099 407.048 173.056 407.304 173.056C407.645 173.056 408.328 173.269 409.352 173.696C415.411 176.597 419.848 179.925 422.664 183.68C425.48 187.349 426.888 190.848 426.888 194.176C426.888 196.309 426.333 198.059 425.224 199.424C424.2 200.789 422.877 201.472 421.256 201.472C420.232 201.472 419.251 201.173 418.312 200.576C417.715 200.235 417.288 199.808 417.032 199.296C416.776 198.869 416.563 198.272 416.392 197.504C415.965 194.091 414.941 190.507 413.32 186.752C411.699 182.997 409.821 179.371 407.688 175.872ZM384.776 176C384.264 174.293 384.264 173.355 384.776 173.184L385.16 173.056C385.672 173.056 386.355 173.44 387.208 174.208C390.963 177.28 393.693 180.48 395.4 183.808C397.192 187.051 398.088 190.123 398.088 193.024C398.088 195.584 397.491 197.675 396.296 199.296C395.101 201.003 393.693 201.856 392.072 201.856C390.877 201.856 389.683 201.387 388.488 200.448C387.976 200.021 387.635 199.552 387.464 199.04C387.293 198.528 387.251 197.888 387.336 197.12V193.92C387.336 188.459 386.483 182.485 384.776 176ZM600.712 92.928C602.077 92.928 603.187 92.416 604.04 91.392L605.576 89.344C605.917 88.9173 606.344 88.4053 606.856 87.808C607.453 87.1253 607.923 86.6133 608.264 86.272C608.605 85.9307 608.947 85.76 609.288 85.76C609.885 85.76 611.507 86.8693 614.152 89.088C616.797 91.2213 618.845 93.1413 620.296 94.848C620.637 95.2747 620.808 95.744 620.808 96.256C620.808 96.8533 620.424 97.408 619.656 97.92C619.4 98.0907 619.144 98.2187 618.888 98.304C618.632 98.3893 618.419 98.4747 618.248 98.56C616.712 99.072 615.901 100.011 615.816 101.376C615.389 109.056 615.176 116.736 615.176 124.416C615.176 137.728 615.816 149.632 617.096 160.128C618.376 170.624 620.381 177.707 623.112 181.376C623.539 181.973 623.88 182.272 624.136 182.272C624.563 182.272 624.904 181.76 625.16 180.736C626.696 175.445 627.805 171.435 628.488 168.704C628.915 166.912 629.341 166.101 629.768 166.272C630.195 166.443 630.365 167.339 630.28 168.96L628.872 187.136V187.904C628.872 188.587 629 189.44 629.256 190.464C630.28 193.451 630.792 195.84 630.792 197.632C630.792 199.424 630.323 200.661 629.384 201.344C628.275 202.112 627.08 202.496 625.8 202.496C624.008 202.496 622.259 201.813 620.552 200.448C618.845 199.083 617.267 197.291 615.816 195.072C611.293 188.928 608.179 178.987 606.472 165.248C604.851 151.424 604.04 134.699 604.04 115.072C604.04 108.075 604.083 102.827 604.168 99.328C604.168 97.536 603.272 96.64 601.48 96.64H543.112C542.259 96.64 541.576 96.896 541.064 97.408C540.637 97.8347 540.424 98.4747 540.424 99.328V124.928C540.424 134.912 539.955 144.085 539.016 152.448C538.163 160.811 536.072 169.344 532.744 178.048C529.501 186.667 524.637 194.347 518.152 201.088C517.469 202.027 516.787 202.496 516.104 202.496C515.677 202.496 515.464 202.24 515.464 201.728C515.464 201.387 515.677 200.661 516.104 199.552C521.395 189.397 524.851 178.304 526.472 166.272C528.179 154.24 529.032 140.459 529.032 124.928V105.984C529.032 100.267 528.776 94.976 528.264 90.112V89.856C528.264 88.32 528.819 87.552 529.928 87.552C530.355 87.552 530.824 87.68 531.336 87.936L540.808 92.16C542.003 92.672 543.112 92.928 544.136 92.928H600.712ZM584.84 129.28C586.205 129.28 587.272 128.725 588.04 127.616L588.936 126.464C589.107 126.208 589.405 125.824 589.832 125.312C590.259 124.715 590.643 124.288 590.984 124.032C591.325 123.776 591.667 123.648 592.008 123.648C592.605 123.648 593.843 124.416 595.72 125.952C597.683 127.488 599.219 128.896 600.328 130.176C600.669 130.517 600.84 130.944 600.84 131.456C600.84 132.139 600.413 132.693 599.56 133.12H599.432C597.981 134.059 597.256 135.083 597.256 136.192V143.36C597.512 150.613 597.725 156.075 597.896 159.744V160.384C597.896 161.579 597.469 162.432 596.616 162.944C595.677 163.541 594.525 164.053 593.16 164.48C591.795 164.907 590.557 165.12 589.448 165.12C589.021 165.12 588.637 164.907 588.296 164.48C588.04 163.968 587.912 163.285 587.912 162.432V162.048C587.912 161.195 587.656 160.555 587.144 160.128C586.717 159.616 586.077 159.36 585.224 159.36H579.72C578.867 159.36 578.184 159.616 577.672 160.128C577.245 160.555 577.032 161.195 577.032 162.048V178.56C577.032 179.413 577.288 180.096 577.8 180.608C578.312 181.12 578.995 181.333 579.848 181.248L587.528 180.864C589.064 180.693 589.832 180.053 589.832 178.944C589.832 178.517 589.704 178.048 589.448 177.536C588.168 175.232 586.888 173.056 585.608 171.008C585.096 170.325 584.755 169.771 584.584 169.344C584.499 168.832 584.541 168.491 584.712 168.32C584.797 168.235 584.968 168.192 585.224 168.192C585.565 168.192 586.248 168.405 587.272 168.832C593.672 171.989 598.365 175.531 601.352 179.456C604.339 183.296 605.832 186.923 605.832 190.336C605.832 192.384 605.32 194.048 604.296 195.328C603.272 196.608 601.992 197.248 600.456 197.248C599.347 197.248 598.323 196.949 597.384 196.352C596.787 196.011 596.36 195.584 596.104 195.072C595.848 194.645 595.635 194.048 595.464 193.28C595.037 190.805 594.355 188.373 593.416 185.984C592.904 184.448 591.795 183.893 590.088 184.32C578.483 187.221 564.275 190.507 547.464 194.176C546.269 194.432 545.459 194.816 545.032 195.328C545.032 195.499 544.819 195.755 544.392 196.096C543.965 196.523 543.581 196.736 543.24 196.736C542.813 196.736 542.387 196.523 541.96 196.096C541.533 195.755 541.235 195.328 541.064 194.816L537.48 186.24C537.309 185.899 537.224 185.472 537.224 184.96C537.224 183.765 537.992 183.125 539.528 183.04C544.733 182.955 552.883 182.613 563.976 182.016C565.768 181.845 566.664 180.949 566.664 179.328V162.048C566.664 161.195 566.408 160.555 565.896 160.128C565.469 159.616 564.829 159.36 563.976 159.36H558.728C557.875 159.36 557.192 159.616 556.68 160.128C556.253 160.555 556.04 161.195 556.04 162.048V164.864C556.04 165.376 555.187 166.016 553.48 166.784C551.773 167.552 550.024 167.936 548.232 167.936C547.549 167.936 546.995 167.68 546.568 167.168C546.227 166.656 546.056 166.059 546.056 165.376C546.397 162.389 546.653 158.464 546.824 153.6V146.432C546.824 139.435 546.525 133.291 545.928 128V127.488C545.928 126.208 546.483 125.568 547.592 125.568C548.104 125.568 548.531 125.653 548.872 125.824L555.144 128.64C556.083 129.067 557.192 129.28 558.472 129.28H563.976C564.829 129.28 565.469 129.067 565.896 128.64C566.408 128.128 566.664 127.445 566.664 126.592V118.4C566.664 116.523 565.725 115.669 563.848 115.84C555.571 116.352 549.213 116.651 544.776 116.736C543.24 116.736 542.387 116.352 542.216 115.584V115.456C542.216 114.944 543.069 114.475 544.776 114.048C552.456 112.683 560.349 110.848 568.456 108.544C576.563 106.155 583.261 103.808 588.552 101.504C589.064 101.248 589.533 101.12 589.96 101.12C590.813 101.12 591.624 101.504 592.392 102.272C595.379 105.259 597.469 107.435 598.664 108.8C599.859 110.165 600.456 111.104 600.456 111.616C600.456 112.213 599.731 112.427 598.28 112.256L596.488 112C595.464 111.915 594.355 111.915 593.16 112C588.467 112.853 583.944 113.579 579.592 114.176C577.885 114.347 577.032 115.285 577.032 116.992V126.592C577.032 127.445 577.245 128.128 577.672 128.64C578.184 129.067 578.867 129.28 579.72 129.28H584.84ZM558.728 132.992C557.875 132.992 557.192 133.248 556.68 133.76C556.253 134.187 556.04 134.827 556.04 135.68V152.96C556.04 153.813 556.253 154.496 556.68 155.008C557.192 155.435 557.875 155.648 558.728 155.648H563.976C564.829 155.648 565.469 155.435 565.896 155.008C566.408 154.496 566.664 153.813 566.664 152.96V135.68C566.664 134.827 566.408 134.187 565.896 133.76C565.469 133.248 564.829 132.992 563.976 132.992H558.728ZM585.224 155.648C586.077 155.648 586.717 155.435 587.144 155.008C587.656 154.496 587.912 153.813 587.912 152.96V135.68C587.912 134.827 587.656 134.187 587.144 133.76C586.717 133.248 586.077 132.992 585.224 132.992H579.72C578.867 132.992 578.184 133.248 577.672 133.76C577.245 134.187 577.032 134.827 577.032 135.68V152.96C577.032 153.813 577.245 154.496 577.672 155.008C578.184 155.435 578.867 155.648 579.72 155.648H585.224Z" fill="white"/>
</svg>
