<svg width="24" height="24" viewBox="0 0 24 24" fill="none" xmlns="http://www.w3.org/2000/svg">
<path d="M12 22.0246C11.7333 22.0246 11.4791 21.9746 11.2375 21.8746C10.9958 21.7746 10.775 21.6329 10.575 21.4496L2.54998 13.4246C2.36664 13.2246 2.22498 13.0038 2.12498 12.7621C2.02498 12.5204 1.97498 12.2663 1.97498 11.9996C1.97498 11.7329 2.02498 11.4746 2.12498 11.2246C2.22498 10.9746 2.36664 10.7579 2.54998 10.5746L10.575 2.54961C10.775 2.34961 10.9958 2.20378 11.2375 2.11211C11.4791 2.02044 11.7333 1.97461 12 1.97461C12.2666 1.97461 12.525 2.02044 12.775 2.11211C13.025 2.20378 13.2416 2.34961 13.425 2.54961L21.45 10.5746C21.65 10.7579 21.7958 10.9746 21.8875 11.2246C21.9791 11.4746 22.025 11.7329 22.025 11.9996C22.025 12.2663 21.9791 12.5204 21.8875 12.7621C21.7958 13.0038 21.65 13.2246 21.45 13.4246L13.425 21.4496C13.2416 21.6329 13.025 21.7746 12.775 21.8746C12.525 21.9746 12.2666 22.0246 12 22.0246ZM12 20.0246L20.025 11.9996L12 3.97461L3.97498 11.9996L12 20.0246ZM11 12.9996H13V6.99961H11V12.9996ZM12 15.9996C12.2833 15.9996 12.5208 15.9038 12.7125 15.7121C12.9041 15.5204 13 15.2829 13 14.9996C13 14.7163 12.9041 14.4788 12.7125 14.2871C12.5208 14.0954 12.2833 13.9996 12 13.9996C11.7166 13.9996 11.4791 14.0954 11.2875 14.2871C11.0958 14.4788 11 14.7163 11 14.9996C11 15.2829 11.0958 15.5204 11.2875 15.7121C11.4791 15.9038 11.7166 15.9996 12 15.9996Z" fill="#212529"/>
</svg>
