<svg width="24" height="24" viewBox="0 0 24 24" fill="none" xmlns="http://www.w3.org/2000/svg">
<mask id="mask0_228_28" style="mask-type:alpha" maskUnits="userSpaceOnUse" x="0" y="0" width="24" height="24">
<path d="M11.9996 22.0246C11.7329 22.0246 11.4787 21.9746 11.2371 21.8746C10.9954 21.7746 10.7746 21.6329 10.5746 21.4496L2.54961 13.4246C2.36627 13.2246 2.22461 13.0038 2.12461 12.7621C2.02461 12.5204 1.97461 12.2663 1.97461 11.9996C1.97461 11.7329 2.02461 11.4746 2.12461 11.2246C2.22461 10.9746 2.36627 10.7579 2.54961 10.5746L10.5746 2.54961C10.7746 2.34961 10.9954 2.20378 11.2371 2.11211C11.4787 2.02044 11.7329 1.97461 11.9996 1.97461C12.2662 1.97461 12.5246 2.02044 12.7746 2.11211C13.0246 2.20378 13.2412 2.34961 13.4246 2.54961L21.4496 10.5746C21.6496 10.7579 21.7954 10.9746 21.8871 11.2246C21.9787 11.4746 22.0246 11.7329 22.0246 11.9996C22.0246 12.2663 21.9787 12.5204 21.8871 12.7621C21.7954 13.0038 21.6496 13.2246 21.4496 13.4246L13.4246 21.4496C13.2412 21.6329 13.0246 21.7746 12.7746 21.8746C12.5246 21.9746 12.2662 22.0246 11.9996 22.0246ZM11.9996 20.0246L20.0246 11.9996L11.9996 3.97461L3.97461 11.9996L11.9996 20.0246ZM10.9996 12.9996H12.9996V6.99961H10.9996V12.9996ZM11.9996 15.9996C12.2829 15.9996 12.5204 15.9038 12.7121 15.7121C12.9037 15.5204 12.9996 15.2829 12.9996 14.9996C12.9996 14.7163 12.9037 14.4788 12.7121 14.2871C12.5204 14.0954 12.2829 13.9996 11.9996 13.9996C11.7162 13.9996 11.4787 14.0954 11.2871 14.2871C11.0954 14.4788 10.9996 14.7163 10.9996 14.9996C10.9996 15.2829 11.0954 15.5204 11.2871 15.7121C11.4787 15.9038 11.7162 15.9996 11.9996 15.9996Z" fill="#212529"/>
</mask>
<g mask="url(#mask0_228_28)">
<rect width="24" height="24" fill="white"/>
</g>
</svg>
