<svg width="384" height="160" viewBox="0 0 384 160" fill="none" xmlns="http://www.w3.org/2000/svg">
<g filter="url(#filter0_d_74_4)">
<path d="M78.604 57.644C79.628 57.644 80.428 57.228 81.004 56.396L82.54 54.188C82.86 53.74 83.212 53.26 83.596 52.748C83.98 52.172 84.364 51.692 84.748 51.308C85.132 50.86 85.452 50.636 85.708 50.636C86.22 50.636 87.564 51.532 89.74 53.324C91.98 55.116 93.58 56.62 94.54 57.836C94.86 58.284 95.02 58.668 95.02 58.988C95.02 59.308 94.86 59.628 94.54 59.948C94.028 60.268 93.388 60.428 92.62 60.428H57.676C56.972 60.428 56.46 60.62 56.14 61.004C55.82 61.388 55.724 61.932 55.852 62.636C57.836 72.172 61.804 81.068 67.756 89.324C73.772 97.58 82.412 104.652 93.676 110.54C94.7 110.988 95.212 111.404 95.212 111.788C95.212 112.044 95.052 112.236 94.732 112.364C94.412 112.492 93.964 112.62 93.388 112.748C91.02 113.452 89.388 114.892 88.492 117.068C88.044 117.964 87.564 118.412 87.052 118.412C86.796 118.412 86.412 118.252 85.9 117.932C68.172 106.092 57.516 87.532 53.932 62.252C53.74 61.036 53.612 60.428 53.548 60.428H53.356C52.396 68.492 50.572 75.916 47.884 82.7C45.26 89.42 41.1 95.852 35.404 101.996C29.772 108.076 22.22 113.58 12.748 118.508C12.108 118.828 11.596 118.988 11.212 118.988C10.956 118.988 10.7 118.86 10.444 118.604C10.38 118.54 10.348 118.38 10.348 118.124C10.348 117.676 10.764 117.164 11.596 116.588C22.476 109.356 30.444 101.292 35.5 92.396C40.556 83.5 43.756 73.548 45.1 62.54V62.156C45.1 61.004 44.492 60.428 43.276 60.428H26.188C22.156 60.492 17.932 60.844 13.516 61.484H13.036C12.14 61.484 11.468 61.068 11.02 60.236L10.636 59.468C10.38 58.828 10.252 58.444 10.252 58.316C10.252 57.932 10.412 57.644 10.732 57.452C11.052 57.196 11.5 57.1 12.076 57.164C14.252 57.356 17.548 57.516 21.964 57.644H43.756C45.036 57.644 45.74 57.004 45.868 55.724L46.156 50.252C46.22 49.292 46.252 47.82 46.252 45.836C46.252 41.228 45.996 36.876 45.484 32.78V32.492C45.484 31.148 46.156 30.572 47.5 30.764L55.468 31.916C55.98 31.98 56.396 32.172 56.716 32.492C57.1 32.748 57.292 33.036 57.292 33.356C57.292 33.612 57.132 33.868 56.812 34.124L56.332 34.412C55.692 34.732 55.244 35.052 54.988 35.372C54.732 35.692 54.604 36.14 54.604 36.716C54.348 45.036 54.06 51.308 53.74 55.532V55.82C53.74 57.036 54.38 57.644 55.66 57.644H78.604ZM43.948 94.796C43.244 93.9 42.892 93.292 42.892 92.972C42.892 92.78 43.084 92.684 43.468 92.684C43.916 92.684 44.396 92.812 44.908 93.068C50.412 95.18 54.444 97.676 57.004 100.556C59.628 103.436 60.94 106.22 60.94 108.908C60.94 110.38 60.524 111.596 59.692 112.556C58.924 113.58 57.932 114.092 56.716 114.092C55.884 114.092 55.052 113.868 54.22 113.42C53.58 112.972 53.1 112.236 52.78 111.212C52.268 108.588 51.18 105.836 49.516 102.956C47.852 100.012 45.996 97.292 43.948 94.796ZM166.06 109.1C165.42 109.1 164.908 109.26 164.524 109.58C164.204 109.9 164.044 110.348 164.044 110.924C164.108 111.436 164.14 112.044 164.14 112.748L164.236 113.708C164.236 114.348 164.044 114.86 163.66 115.244C163.148 115.884 162.38 116.396 161.356 116.78C160.396 117.228 159.308 117.452 158.092 117.452C157.452 117.452 156.908 117.26 156.46 116.876C156.012 116.492 155.788 116.044 155.788 115.532C156.044 111.756 156.268 108.108 156.46 104.588C156.652 101.004 156.78 96.332 156.844 90.572V56.78C156.844 50.572 156.556 44.94 155.98 39.884V39.5C155.98 38.54 156.396 38.06 157.228 38.06C157.612 38.06 157.932 38.124 158.188 38.252L163.66 40.652C164.556 41.036 165.388 41.228 166.156 41.228H216.94C217.964 41.228 218.796 40.844 219.436 40.076L220.3 38.924C220.492 38.732 220.748 38.412 221.068 37.964C221.452 37.516 221.772 37.196 222.028 37.004C222.284 36.748 222.54 36.62 222.796 36.62C223.244 36.62 224.332 37.292 226.06 38.636C227.788 39.916 229.1 41.068 229.996 42.092C230.252 42.412 230.38 42.764 230.38 43.148C230.38 43.596 230.092 44.012 229.516 44.396L228.556 44.876C227.468 45.388 226.924 46.156 226.924 47.18V91.148C227.052 98.124 227.276 105.164 227.596 112.268V112.652C227.596 113.548 227.244 114.22 226.54 114.668C225.772 115.244 224.812 115.724 223.66 116.108C222.572 116.556 221.516 116.78 220.492 116.78H220.204C219.82 116.716 219.532 116.492 219.34 116.108C219.148 115.724 219.052 115.308 219.052 114.86C219.18 114.348 219.244 113.964 219.244 113.708C219.244 113.644 219.308 112.972 219.436 111.692V111.116C219.436 110.476 219.244 109.996 218.86 109.676C218.54 109.292 218.06 109.1 217.42 109.1H166.06ZM185.644 73.1C186.284 73.1 186.764 72.94 187.084 72.62C187.468 72.236 187.66 71.724 187.66 71.084V46.028C187.66 45.388 187.468 44.908 187.084 44.588C186.764 44.204 186.284 44.012 185.644 44.012H166.06C165.42 44.012 164.908 44.204 164.524 44.588C164.204 44.908 164.044 45.388 164.044 46.028V71.084C164.044 71.724 164.204 72.236 164.524 72.62C164.908 72.94 165.42 73.1 166.06 73.1H185.644ZM217.42 73.1C218.06 73.1 218.54 72.94 218.86 72.62C219.244 72.236 219.436 71.724 219.436 71.084V46.028C219.436 45.388 219.244 44.908 218.86 44.588C218.54 44.204 218.06 44.012 217.42 44.012H196.972C196.332 44.012 195.82 44.204 195.436 44.588C195.116 44.908 194.956 45.388 194.956 46.028V71.084C194.956 71.724 195.116 72.236 195.436 72.62C195.82 72.94 196.332 73.1 196.972 73.1H217.42ZM187.66 77.9C187.66 77.26 187.468 76.78 187.084 76.46C186.764 76.076 186.284 75.884 185.644 75.884H166.06C165.42 75.884 164.908 76.076 164.524 76.46C164.204 76.78 164.044 77.26 164.044 77.9V104.3C164.044 104.94 164.204 105.452 164.524 105.836C164.908 106.156 165.42 106.316 166.06 106.316H185.644C186.284 106.316 186.764 106.156 187.084 105.836C187.468 105.452 187.66 104.94 187.66 104.3V77.9ZM196.972 75.884C196.332 75.884 195.82 76.076 195.436 76.46C195.116 76.78 194.956 77.26 194.956 77.9V104.3C194.956 104.94 195.116 105.452 195.436 105.836C195.82 106.156 196.332 106.316 196.972 106.316H217.42C218.06 106.316 218.54 106.156 218.86 105.836C219.244 105.452 219.436 104.94 219.436 104.3V77.9C219.436 77.26 219.244 76.78 218.86 76.46C218.54 76.076 218.06 75.884 217.42 75.884H196.972ZM358.156 42.476C359.18 42.476 359.98 42.06 360.556 41.228L361.9 39.308C362.156 38.988 362.476 38.54 362.86 37.964C363.308 37.324 363.66 36.876 363.916 36.62C364.236 36.3 364.524 36.14 364.78 36.14C365.292 36.14 366.476 36.972 368.332 38.636C370.252 40.236 371.628 41.612 372.46 42.764C372.78 43.212 372.94 43.564 372.94 43.82C372.94 44.204 372.78 44.556 372.46 44.876C371.948 45.196 371.372 45.356 370.732 45.356H348.652C348.012 45.356 347.5 45.548 347.116 45.932C346.796 46.252 346.636 46.732 346.636 47.372V48.044L346.828 51.5V52.172C346.828 52.94 346.604 53.516 346.156 53.9C345.644 54.348 344.876 54.732 343.852 55.052C342.828 55.308 341.74 55.468 340.588 55.532C339.948 55.532 339.468 55.276 339.148 54.764C338.956 54.444 338.86 54.124 338.86 53.804C338.86 53.548 338.924 53.1 339.052 52.46L339.34 48.812V47.372C339.34 46.732 339.148 46.252 338.764 45.932C338.444 45.548 337.964 45.356 337.324 45.356H323.596C322.956 45.356 322.444 45.548 322.06 45.932C321.74 46.252 321.58 46.732 321.58 47.372V48.236L321.772 51.98V52.748C321.772 53.516 321.548 54.06 321.1 54.38C320.46 54.828 319.628 55.18 318.604 55.436C317.58 55.692 316.556 55.82 315.532 55.82C314.892 55.82 314.412 55.564 314.092 55.052C313.9 54.732 313.804 54.412 313.804 54.092C313.804 53.836 313.868 53.388 313.996 52.748L314.284 48.908V47.372C314.284 46.732 314.092 46.252 313.708 45.932C313.388 45.548 312.908 45.356 312.268 45.356H304.3C300.396 45.42 296.172 45.772 291.628 46.412H291.052C290.156 46.412 289.516 45.964 289.132 45.068L288.748 44.204C288.556 43.82 288.46 43.468 288.46 43.148C288.46 42.252 289.1 41.868 290.38 41.996C292.556 42.188 295.884 42.348 300.364 42.476H312.268C313.612 42.476 314.284 41.804 314.284 40.46C314.156 36.812 313.996 34.22 313.804 32.684V32.492C313.804 31.34 314.316 30.764 315.34 30.764C315.66 30.764 315.916 30.796 316.108 30.86C321.356 32.332 323.98 33.484 323.98 34.316C323.98 34.572 323.724 34.86 323.212 35.18L322.924 35.372C322.028 35.948 321.58 36.748 321.58 37.772V40.46C321.58 41.1 321.74 41.612 322.06 41.996C322.444 42.316 322.956 42.476 323.596 42.476H337.324C338.668 42.476 339.34 41.804 339.34 40.46C339.212 36.812 339.052 34.22 338.86 32.684V32.492C338.86 31.34 339.372 30.764 340.396 30.764C340.716 30.764 340.972 30.796 341.164 30.86C346.476 32.332 349.132 33.484 349.132 34.316C349.132 34.572 348.844 34.86 348.268 35.18L347.98 35.372C347.084 35.948 346.636 36.748 346.636 37.772V40.46C346.636 41.1 346.796 41.612 347.116 41.996C347.5 42.316 348.012 42.476 348.652 42.476H358.156ZM358.732 77.612C359.756 77.612 360.556 77.164 361.132 76.268L362.38 74.444C362.636 74.06 362.956 73.58 363.34 73.004C363.788 72.364 364.14 71.916 364.396 71.66C364.652 71.34 364.908 71.18 365.164 71.18C365.548 71.18 366.412 71.724 367.756 72.812C369.1 73.9 370.348 75.052 371.5 76.268C372.716 77.484 373.324 78.316 373.324 78.764C373.26 79.788 372.492 80.3 371.02 80.3H350.668C350.028 80.3 349.516 80.492 349.132 80.876C348.812 81.196 348.652 81.676 348.652 82.316V110.06C348.652 110.7 348.812 111.18 349.132 111.5C349.516 111.884 350.028 112.076 350.668 112.076H357.388C358.412 112.076 359.212 111.66 359.788 110.828L361.132 108.908C361.324 108.652 361.644 108.204 362.092 107.564C362.54 106.924 362.892 106.444 363.148 106.124C363.468 105.804 363.756 105.644 364.012 105.644C364.524 105.644 365.74 106.476 367.66 108.14C369.644 109.74 371.052 111.116 371.884 112.268C372.204 112.716 372.364 113.1 372.364 113.42C372.364 113.74 372.204 114.06 371.884 114.38C371.372 114.7 370.764 114.86 370.06 114.86H335.884C331.98 114.924 327.756 115.276 323.212 115.916H322.636C321.74 115.916 321.1 115.5 320.716 114.668L320.332 113.9C320.14 113.516 320.044 113.164 320.044 112.844C320.044 112.396 320.204 112.044 320.524 111.788C320.844 111.596 321.292 111.532 321.868 111.596C324.172 111.788 327.5 111.948 331.852 112.076H339.244C339.884 112.076 340.364 111.884 340.684 111.5C341.068 111.18 341.26 110.7 341.26 110.06V82.316C341.26 81.676 341.068 81.196 340.684 80.876C340.364 80.492 339.884 80.3 339.244 80.3H333.868C330.156 80.364 326.124 80.716 321.772 81.356H321.196C320.3 81.356 319.66 80.94 319.276 80.108L318.892 79.436C318.7 79.052 318.604 78.668 318.604 78.284C318.604 77.9 318.764 77.612 319.084 77.42C319.404 77.164 319.852 77.068 320.428 77.132C322.604 77.324 325.9 77.484 330.316 77.612H339.244C340.588 77.612 341.26 77.228 341.26 76.46C341.26 70.06 340.972 64.332 340.396 59.276V58.892C340.396 57.868 340.908 57.356 341.932 57.356C342.252 57.356 342.508 57.388 342.7 57.452C348.076 58.924 350.764 60.076 350.764 60.908C350.764 61.1 350.54 61.356 350.092 61.676H349.996C349.1 62.188 348.652 63.02 348.652 64.172V75.596C348.652 76.236 348.812 76.748 349.132 77.132C349.516 77.452 350.028 77.612 350.668 77.612H358.732ZM307.084 97.004C307.084 95.852 306.7 95.276 305.932 95.276C305.548 95.276 305.1 95.468 304.588 95.852C302.22 98.092 298.7 101.1 294.028 104.876C293.324 105.516 292.94 105.964 292.876 106.22L292.684 106.604C292.492 107.116 292.14 107.372 291.628 107.372C291.308 107.372 290.988 107.276 290.668 107.084C290.412 106.892 290.22 106.604 290.092 106.22L287.692 101.228C287.5 100.844 287.404 100.492 287.404 100.172C287.404 99.404 287.852 98.86 288.748 98.54C293.1 96.876 298.7 94.572 305.548 91.628C306.572 91.18 307.084 90.412 307.084 89.324V74.156C307.084 68.396 306.86 63.468 306.412 59.372V58.988C306.412 57.964 306.86 57.452 307.756 57.452C307.884 57.452 308.204 57.516 308.716 57.644C313.964 59.116 316.588 60.268 316.588 61.1C316.588 61.356 316.364 61.644 315.916 61.964L315.724 62.06C314.828 62.636 314.38 63.436 314.38 64.46V93.548C314.508 100.46 314.732 107.532 315.052 114.764V115.34C315.052 116.044 314.764 116.652 314.188 117.164C313.548 117.74 312.684 118.22 311.596 118.604C310.508 118.988 309.452 119.18 308.428 119.18C307.788 119.18 307.276 118.988 306.892 118.604C306.508 118.22 306.316 117.772 306.316 117.26C306.7 112.268 306.956 107.244 307.084 102.188V97.004ZM292.012 66.188C291.308 64.972 291.116 64.268 291.436 64.076C291.5 64.012 291.628 63.98 291.82 63.98C292.14 63.98 292.684 64.172 293.452 64.556C297.1 66.604 299.788 68.844 301.516 71.276C303.244 73.708 304.108 76.012 304.108 78.188C304.108 79.596 303.756 80.78 303.052 81.74C302.348 82.636 301.484 83.084 300.46 83.084C299.884 83.084 299.244 82.892 298.54 82.508C297.836 82.124 297.42 81.388 297.292 80.3C297.036 78.06 296.428 75.692 295.468 73.196C294.508 70.7 293.356 68.364 292.012 66.188Z" fill="white"/>
<path d="M18.0812 138.076C19.2225 138.076 20.2252 138.321 21.0892 138.812C21.9532 139.292 22.6252 139.969 23.1052 140.844C23.5959 141.719 23.8412 142.737 23.8412 143.9C23.8412 145.063 23.5959 146.081 23.1052 146.956C22.6252 147.831 21.9532 148.513 21.0892 149.004C20.2252 149.484 19.2225 149.724 18.0812 149.724C16.9505 149.724 15.9532 149.484 15.0892 149.004C14.2252 148.513 13.5479 147.831 13.0572 146.956C12.5772 146.081 12.3372 145.063 12.3372 143.9C12.3372 142.737 12.5772 141.719 13.0572 140.844C13.5479 139.969 14.2252 139.292 15.0892 138.812C15.9532 138.321 16.9505 138.076 18.0812 138.076ZM18.0812 149.244C18.9879 149.244 19.7772 149.02 20.4492 148.572C21.1319 148.124 21.6599 147.5 22.0332 146.7C22.4172 145.9 22.6092 144.967 22.6092 143.9C22.6092 142.833 22.4172 141.9 22.0332 141.1C21.6599 140.3 21.1319 139.676 20.4492 139.228C19.7772 138.78 18.9879 138.556 18.0812 138.556C17.1852 138.556 16.3959 138.78 15.7132 139.228C15.0412 139.676 14.5132 140.3 14.1292 141.1C13.7559 141.9 13.5692 142.833 13.5692 143.9C13.5692 144.967 13.7559 145.9 14.1292 146.7C14.5132 147.5 15.0412 148.124 15.7132 148.572C16.3959 149.02 17.1852 149.244 18.0812 149.244ZM44.7354 139.676C45.4821 139.676 46.1808 139.799 46.8314 140.044C47.4928 140.279 48.0688 140.62 48.5594 141.068C49.0608 141.516 49.4501 142.049 49.7274 142.668C50.0048 143.276 50.1434 143.953 50.1434 144.7C50.1434 145.447 50.0048 146.129 49.7274 146.748C49.4501 147.356 49.0608 147.884 48.5594 148.332C48.0688 148.78 47.4928 149.127 46.8314 149.372C46.1808 149.607 45.4821 149.724 44.7354 149.724C43.9888 149.724 43.2901 149.607 42.6394 149.372C41.9888 149.127 41.4128 148.78 40.9114 148.332C40.4208 147.884 40.0368 147.356 39.7594 146.748C39.4821 146.129 39.3434 145.447 39.3434 144.7C39.3434 143.953 39.4821 143.276 39.7594 142.668C40.0368 142.049 40.4208 141.516 40.9114 141.068C41.4128 140.62 41.9888 140.279 42.6394 140.044C43.2901 139.799 43.9888 139.676 44.7354 139.676ZM44.7354 149.244C45.5248 149.244 46.2394 149.052 46.8794 148.668C47.5194 148.284 48.0261 147.751 48.3994 147.068C48.7728 146.385 48.9594 145.596 48.9594 144.7C48.9594 143.793 48.7728 143.004 48.3994 142.332C48.0261 141.649 47.5194 141.116 46.8794 140.732C46.2394 140.348 45.5248 140.156 44.7354 140.156C43.9568 140.156 43.2474 140.348 42.6074 140.732C41.9674 141.116 41.4608 141.649 41.0874 142.332C40.7141 143.004 40.5274 143.793 40.5274 144.7C40.5274 145.596 40.7141 146.385 41.0874 147.068C41.4608 147.751 41.9674 148.284 42.6074 148.668C43.2474 149.052 43.9568 149.244 44.7354 149.244ZM69.5217 139.948V149.5H68.4817V139.948H69.5217ZM73.3937 139.884V140.364H64.6097V139.884H73.3937ZM73.3937 140.332V141.436H73.2177V141.18C73.2177 140.956 73.143 140.769 72.9937 140.62C72.855 140.46 72.663 140.375 72.4177 140.364V140.332H73.3937ZM73.3937 139.628V140.044L71.6017 139.884C71.815 139.884 72.039 139.873 72.2737 139.852C72.519 139.82 72.743 139.783 72.9457 139.74C73.1484 139.697 73.2977 139.66 73.3937 139.628ZM68.5137 148.476V149.5H67.3457V149.34C67.3564 149.34 67.3884 149.34 67.4417 149.34C67.5057 149.34 67.5377 149.34 67.5377 149.34C67.7937 149.34 68.0124 149.255 68.1937 149.084C68.375 148.913 68.471 148.711 68.4817 148.476H68.5137ZM69.4737 148.476H69.5217C69.5324 148.711 69.6284 148.913 69.8097 149.084C69.991 149.255 70.2097 149.34 70.4657 149.34C70.4657 149.34 70.4924 149.34 70.5457 149.34C70.6097 149.34 70.6417 149.34 70.6417 149.34V149.5H69.4737V148.476ZM65.5857 140.332V140.364C65.3404 140.375 65.143 140.46 64.9937 140.62C64.855 140.769 64.7857 140.956 64.7857 141.18V141.436H64.6097V140.332H65.5857ZM64.6097 139.628C64.7057 139.66 64.8497 139.697 65.0417 139.74C65.2444 139.783 65.4684 139.82 65.7137 139.852C65.959 139.873 66.1884 139.884 66.4017 139.884L64.6097 140.044V139.628ZM91.7907 139.676L96.1907 149.404H94.9267L91.5187 141.1L91.7907 139.676ZM88.7027 148.332C88.5854 148.652 88.6014 148.903 88.7507 149.084C88.9 149.255 89.0707 149.34 89.2627 149.34H89.3907V149.5H86.3347V149.34C86.3347 149.34 86.356 149.34 86.3987 149.34C86.4414 149.34 86.4627 149.34 86.4627 149.34C86.6867 149.34 86.916 149.265 87.1507 149.116C87.3854 148.956 87.588 148.695 87.7587 148.332H88.7027ZM91.7907 139.676L91.9027 140.78L88.2387 149.452H87.2307L91.0227 141.324C91.0227 141.324 91.0494 141.26 91.1027 141.132C91.1667 141.004 91.236 140.849 91.3107 140.668C91.396 140.476 91.4707 140.289 91.5347 140.108C91.5987 139.927 91.636 139.783 91.6467 139.676H91.7907ZM93.6787 145.772V146.252H89.4387V145.772H93.6787ZM94.4947 148.332H95.7107C95.8707 148.695 96.068 148.956 96.3027 149.116C96.5374 149.265 96.7614 149.34 96.9747 149.34C96.9747 149.34 96.996 149.34 97.0387 149.34C97.0814 149.34 97.1027 149.34 97.1027 149.34V149.5H93.8227V149.34H93.9507C94.132 149.34 94.2974 149.255 94.4467 149.084C94.596 148.903 94.612 148.652 94.4947 148.332ZM134.912 139.676C135.403 139.676 135.861 139.713 136.288 139.788C136.725 139.852 137.136 139.959 137.52 140.108C137.915 140.247 138.288 140.428 138.64 140.652L138.992 142.908H138.848C138.699 142.279 138.453 141.761 138.112 141.356C137.781 140.951 137.349 140.652 136.816 140.46C136.283 140.257 135.643 140.156 134.896 140.156C134.085 140.156 133.371 140.343 132.752 140.716C132.144 141.079 131.669 141.601 131.328 142.284C130.987 142.956 130.816 143.761 130.816 144.7C130.816 145.628 130.987 146.433 131.328 147.116C131.669 147.799 132.149 148.327 132.768 148.7C133.387 149.063 134.101 149.244 134.912 149.244C135.36 149.244 135.787 149.196 136.192 149.1C136.597 149.004 136.987 148.855 137.36 148.652C137.744 148.439 138.101 148.172 138.432 147.852L138.448 145.724C138.459 145.521 138.395 145.367 138.256 145.26C138.128 145.153 137.947 145.1 137.712 145.1H137.488V144.94H140.416V145.1H140.192C139.712 145.1 139.472 145.313 139.472 145.74V147.66C139.227 147.969 138.891 148.284 138.464 148.604C138.037 148.924 137.525 149.191 136.928 149.404C136.341 149.617 135.669 149.724 134.912 149.724C133.856 149.713 132.933 149.505 132.144 149.1C131.365 148.695 130.757 148.119 130.32 147.372C129.883 146.625 129.664 145.735 129.664 144.7C129.664 143.655 129.883 142.759 130.32 142.012C130.757 141.265 131.371 140.689 132.16 140.284C132.949 139.879 133.867 139.676 134.912 139.676ZM157.331 139.9V145.948C157.331 146.983 157.592 147.799 158.115 148.396C158.648 148.993 159.374 149.292 160.291 149.292C161.304 149.292 162.099 149.009 162.675 148.444C163.262 147.879 163.555 147.105 163.555 146.124V139.9H164.291V146.124C164.291 147.233 163.934 148.113 163.219 148.764C162.515 149.404 161.544 149.724 160.307 149.724C159.08 149.724 158.104 149.404 157.379 148.764C156.664 148.124 156.307 147.249 156.307 146.14V139.9H157.331ZM156.339 139.9V140.748H156.307C156.296 140.556 156.216 140.396 156.067 140.268C155.928 140.129 155.752 140.06 155.539 140.06C155.539 140.06 155.496 140.06 155.411 140.06C155.336 140.06 155.299 140.06 155.299 140.06V139.9H156.339ZM158.339 139.9V140.06C158.339 140.06 158.296 140.06 158.211 140.06C158.136 140.06 158.099 140.06 158.099 140.06C157.896 140.06 157.715 140.129 157.555 140.268C157.406 140.396 157.331 140.556 157.331 140.748H157.299V139.9H158.339ZM163.587 139.9V140.748H163.555C163.555 140.556 163.48 140.396 163.331 140.268C163.182 140.129 163 140.06 162.787 140.06C162.787 140.06 162.744 140.06 162.659 140.06C162.584 140.06 162.547 140.06 162.547 140.06V139.9H163.587ZM165.299 139.9V140.06C165.299 140.06 165.256 140.06 165.171 140.06C165.096 140.06 165.059 140.06 165.059 140.06C164.856 140.06 164.68 140.129 164.531 140.268C164.382 140.396 164.302 140.556 164.291 140.748H164.259V139.9H165.299ZM182.838 139.9V149.5H181.814V139.9H182.838ZM187.142 149.004L187.11 149.5H182.806V149.004H187.142ZM186.39 144.46V144.94H182.806V144.46H186.39ZM187.126 139.9V140.396H182.806V139.9H187.126ZM188.038 147.212L187.158 149.5H184.726L185.27 149.004C185.804 149.004 186.23 148.929 186.55 148.78C186.881 148.62 187.148 148.407 187.35 148.14C187.553 147.863 187.729 147.553 187.878 147.212H188.038ZM186.39 144.908V145.82H186.214V145.612C186.214 145.431 186.161 145.276 186.054 145.148C185.948 145.009 185.782 144.94 185.558 144.94V144.908H186.39ZM186.39 143.58V144.492H185.558V144.46C185.782 144.46 185.948 144.396 186.054 144.268C186.161 144.129 186.214 143.969 186.214 143.788V143.58H186.39ZM187.126 140.348V141.452H186.95V141.212C186.95 140.988 186.876 140.796 186.726 140.636C186.588 140.476 186.396 140.396 186.15 140.396V140.348H187.126ZM187.126 139.644V140.06L185.302 139.9C185.633 139.9 185.985 139.873 186.358 139.82C186.732 139.756 186.988 139.697 187.126 139.644ZM181.846 148.476L182.054 149.5H180.662V149.34C180.662 149.34 180.7 149.34 180.774 149.34C180.849 149.34 180.886 149.34 180.886 149.34C181.153 149.34 181.372 149.255 181.542 149.084C181.713 148.913 181.804 148.711 181.814 148.476H181.846ZM181.846 140.908H181.814C181.804 140.663 181.713 140.46 181.542 140.3C181.372 140.14 181.153 140.06 180.886 140.06C180.886 140.06 180.849 140.06 180.774 140.06C180.7 140.06 180.662 140.06 180.662 140.06V139.9H182.054L181.846 140.908ZM206.181 139.676C206.479 139.676 206.741 139.687 206.965 139.708C207.189 139.729 207.381 139.756 207.541 139.788C207.711 139.809 207.855 139.841 207.973 139.884C208.101 139.916 208.213 139.948 208.309 139.98L208.325 141.564H208.133C208.133 141.127 207.983 140.785 207.685 140.54C207.386 140.284 206.922 140.156 206.293 140.156C205.759 140.156 205.301 140.305 204.917 140.604C204.543 140.892 204.362 141.249 204.373 141.676C204.373 141.815 204.389 141.959 204.421 142.108C204.463 142.247 204.527 142.385 204.613 142.524C204.709 142.663 204.837 142.801 204.997 142.94L208.229 145.436C208.474 145.639 208.655 145.9 208.773 146.22C208.89 146.529 208.954 146.839 208.965 147.148C208.975 147.617 208.853 148.049 208.597 148.444C208.341 148.839 207.994 149.153 207.557 149.388C207.13 149.612 206.655 149.724 206.133 149.724C205.823 149.724 205.487 149.697 205.125 149.644C204.773 149.591 204.442 149.511 204.133 149.404C203.823 149.287 203.567 149.143 203.365 148.972C203.333 148.823 203.317 148.636 203.317 148.412C203.317 148.177 203.333 147.932 203.365 147.676C203.407 147.42 203.461 147.191 203.525 146.988H203.717C203.674 147.468 203.743 147.879 203.925 148.22C204.106 148.561 204.373 148.823 204.725 149.004C205.077 149.175 205.487 149.255 205.957 149.244C206.618 149.223 207.135 149.057 207.509 148.748C207.893 148.428 208.085 148.007 208.085 147.484C208.085 147.228 208.037 146.999 207.941 146.796C207.855 146.583 207.711 146.385 207.509 146.204L204.309 143.74C204.01 143.484 203.807 143.201 203.701 142.892C203.594 142.583 203.541 142.289 203.541 142.012C203.541 141.575 203.658 141.18 203.893 140.828C204.127 140.476 204.442 140.199 204.837 139.996C205.242 139.783 205.69 139.676 206.181 139.676ZM208.293 139.82L208.309 140.108H207.173V139.82H208.293ZM228.899 139.948V149.5H227.859V139.948H228.899ZM232.771 139.884V140.364H223.987V139.884H232.771ZM232.771 140.332V141.436H232.595V141.18C232.595 140.956 232.521 140.769 232.371 140.62C232.233 140.46 232.041 140.375 231.795 140.364V140.332H232.771ZM232.771 139.628V140.044L230.979 139.884C231.193 139.884 231.417 139.873 231.651 139.852C231.897 139.82 232.121 139.783 232.323 139.74C232.526 139.697 232.675 139.66 232.771 139.628ZM227.891 148.476V149.5H226.723V149.34C226.734 149.34 226.766 149.34 226.819 149.34C226.883 149.34 226.915 149.34 226.915 149.34C227.171 149.34 227.39 149.255 227.571 149.084C227.753 148.913 227.849 148.711 227.859 148.476H227.891ZM228.851 148.476H228.899C228.91 148.711 229.006 148.913 229.187 149.084C229.369 149.255 229.587 149.34 229.843 149.34C229.843 149.34 229.87 149.34 229.923 149.34C229.987 149.34 230.019 149.34 230.019 149.34V149.5H228.851V148.476ZM224.963 140.332V140.364C224.718 140.375 224.521 140.46 224.371 140.62C224.233 140.769 224.163 140.956 224.163 141.18V141.436H223.987V140.332H224.963ZM223.987 139.628C224.083 139.66 224.227 139.697 224.419 139.74C224.622 139.783 224.846 139.82 225.091 139.852C225.337 139.873 225.566 139.884 225.779 139.884L223.987 140.044V139.628ZM274.789 139.9V149.5H273.765V139.9H274.789ZM267.861 139.9V149.5H266.837V139.9H267.861ZM273.925 144.524V145.004H267.685V144.524H273.925ZM266.885 148.476V149.5H265.717V149.34C265.717 149.34 265.749 149.34 265.813 149.34C265.877 149.34 265.909 149.34 265.909 149.34C266.165 149.34 266.379 149.255 266.549 149.084C266.731 148.913 266.827 148.711 266.837 148.476H266.885ZM267.813 148.476H267.861C267.861 148.711 267.952 148.913 268.133 149.084C268.315 149.255 268.533 149.34 268.789 149.34C268.789 149.34 268.821 149.34 268.885 149.34C268.949 149.34 268.981 149.34 268.981 149.34V149.5H267.813V148.476ZM267.813 140.924V139.9H268.981V140.06C268.981 140.06 268.949 140.06 268.885 140.06C268.821 140.06 268.789 140.06 268.789 140.06C268.533 140.06 268.315 140.145 268.133 140.316C267.952 140.476 267.861 140.679 267.861 140.924H267.813ZM266.885 140.924H266.837C266.827 140.679 266.731 140.476 266.549 140.316C266.379 140.145 266.165 140.06 265.909 140.06C265.909 140.06 265.877 140.06 265.813 140.06C265.749 140.06 265.717 140.06 265.717 140.06V139.9H266.885V140.924ZM273.813 148.476V149.5H272.645V149.34C272.645 149.34 272.677 149.34 272.741 149.34C272.805 149.34 272.837 149.34 272.837 149.34C273.093 149.34 273.307 149.255 273.477 149.084C273.659 148.913 273.755 148.711 273.765 148.476H273.813ZM274.741 148.476H274.789C274.8 148.711 274.891 148.913 275.061 149.084C275.243 149.255 275.461 149.34 275.717 149.34C275.717 149.34 275.749 149.34 275.813 149.34C275.877 149.34 275.909 149.34 275.909 149.34V149.5H274.741V148.476ZM274.741 140.924V139.9H275.909V140.06C275.909 140.06 275.877 140.06 275.813 140.06C275.749 140.06 275.717 140.06 275.717 140.06C275.461 140.06 275.243 140.145 275.061 140.316C274.891 140.476 274.8 140.679 274.789 140.924H274.741ZM273.813 140.924H273.765C273.755 140.679 273.659 140.476 273.477 140.316C273.307 140.145 273.093 140.06 272.837 140.06C272.837 140.06 272.805 140.06 272.741 140.06C272.677 140.06 272.645 140.06 272.645 140.06V139.9H273.813V140.924ZM296.652 139.676C297.399 139.676 298.098 139.799 298.748 140.044C299.41 140.279 299.986 140.62 300.476 141.068C300.978 141.516 301.367 142.049 301.644 142.668C301.922 143.276 302.06 143.953 302.06 144.7C302.06 145.447 301.922 146.129 301.644 146.748C301.367 147.356 300.978 147.884 300.476 148.332C299.986 148.78 299.41 149.127 298.748 149.372C298.098 149.607 297.399 149.724 296.652 149.724C295.906 149.724 295.207 149.607 294.556 149.372C293.906 149.127 293.33 148.78 292.828 148.332C292.338 147.884 291.954 147.356 291.676 146.748C291.399 146.129 291.26 145.447 291.26 144.7C291.26 143.953 291.399 143.276 291.676 142.668C291.954 142.049 292.338 141.516 292.828 141.068C293.33 140.62 293.906 140.279 294.556 140.044C295.207 139.799 295.906 139.676 296.652 139.676ZM296.652 149.244C297.442 149.244 298.156 149.052 298.796 148.668C299.436 148.284 299.943 147.751 300.316 147.068C300.69 146.385 300.876 145.596 300.876 144.7C300.876 143.793 300.69 143.004 300.316 142.332C299.943 141.649 299.436 141.116 298.796 140.732C298.156 140.348 297.442 140.156 296.652 140.156C295.874 140.156 295.164 140.348 294.524 140.732C293.884 141.116 293.378 141.649 293.004 142.332C292.631 143.004 292.444 143.793 292.444 144.7C292.444 145.596 292.631 146.385 293.004 147.068C293.378 147.751 293.884 148.284 294.524 148.668C295.164 149.052 295.874 149.244 296.652 149.244ZM319.287 139.9V145.948C319.287 146.983 319.548 147.799 320.071 148.396C320.604 148.993 321.329 149.292 322.247 149.292C323.26 149.292 324.055 149.009 324.631 148.444C325.217 147.879 325.511 147.105 325.511 146.124V139.9H326.247V146.124C326.247 147.233 325.889 148.113 325.175 148.764C324.471 149.404 323.5 149.724 322.263 149.724C321.036 149.724 320.06 149.404 319.335 148.764C318.62 148.124 318.263 147.249 318.263 146.14V139.9H319.287ZM318.295 139.9V140.748H318.263C318.252 140.556 318.172 140.396 318.023 140.268C317.884 140.129 317.708 140.06 317.495 140.06C317.495 140.06 317.452 140.06 317.367 140.06C317.292 140.06 317.255 140.06 317.255 140.06V139.9H318.295ZM320.295 139.9V140.06C320.295 140.06 320.252 140.06 320.167 140.06C320.092 140.06 320.055 140.06 320.055 140.06C319.852 140.06 319.671 140.129 319.511 140.268C319.361 140.396 319.287 140.556 319.287 140.748H319.255V139.9H320.295ZM325.543 139.9V140.748H325.511C325.511 140.556 325.436 140.396 325.287 140.268C325.137 140.129 324.956 140.06 324.743 140.06C324.743 140.06 324.7 140.06 324.615 140.06C324.54 140.06 324.503 140.06 324.503 140.06V139.9H325.543ZM327.255 139.9V140.06C327.255 140.06 327.212 140.06 327.127 140.06C327.052 140.06 327.015 140.06 327.015 140.06C326.812 140.06 326.636 140.129 326.487 140.268C326.337 140.396 326.257 140.556 326.247 140.748H326.215V139.9H327.255ZM345.482 139.676C345.78 139.676 346.042 139.687 346.266 139.708C346.49 139.729 346.682 139.756 346.842 139.788C347.012 139.809 347.156 139.841 347.274 139.884C347.402 139.916 347.514 139.948 347.61 139.98L347.626 141.564H347.434C347.434 141.127 347.284 140.785 346.986 140.54C346.687 140.284 346.223 140.156 345.594 140.156C345.06 140.156 344.602 140.305 344.218 140.604C343.844 140.892 343.663 141.249 343.674 141.676C343.674 141.815 343.69 141.959 343.722 142.108C343.764 142.247 343.828 142.385 343.914 142.524C344.01 142.663 344.138 142.801 344.298 142.94L347.53 145.436C347.775 145.639 347.956 145.9 348.074 146.22C348.191 146.529 348.255 146.839 348.266 147.148C348.276 147.617 348.154 148.049 347.898 148.444C347.642 148.839 347.295 149.153 346.858 149.388C346.431 149.612 345.956 149.724 345.434 149.724C345.124 149.724 344.788 149.697 344.426 149.644C344.074 149.591 343.743 149.511 343.434 149.404C343.124 149.287 342.868 149.143 342.666 148.972C342.634 148.823 342.618 148.636 342.618 148.412C342.618 148.177 342.634 147.932 342.666 147.676C342.708 147.42 342.762 147.191 342.826 146.988H343.018C342.975 147.468 343.044 147.879 343.226 148.22C343.407 148.561 343.674 148.823 344.026 149.004C344.378 149.175 344.788 149.255 345.258 149.244C345.919 149.223 346.436 149.057 346.81 148.748C347.194 148.428 347.386 148.007 347.386 147.484C347.386 147.228 347.338 146.999 347.242 146.796C347.156 146.583 347.012 146.385 346.81 146.204L343.61 143.74C343.311 143.484 343.108 143.201 343.002 142.892C342.895 142.583 342.842 142.289 342.842 142.012C342.842 141.575 342.959 141.18 343.194 140.828C343.428 140.476 343.743 140.199 344.138 139.996C344.543 139.783 344.991 139.676 345.482 139.676ZM347.594 139.82L347.61 140.108H346.474V139.82H347.594ZM366.104 139.9V149.5H365.08V139.9H366.104ZM370.408 149.004L370.376 149.5H366.072V149.004H370.408ZM369.656 144.46V144.94H366.072V144.46H369.656ZM370.392 139.9V140.396H366.072V139.9H370.392ZM371.304 147.212L370.424 149.5H367.992L368.536 149.004C369.07 149.004 369.496 148.929 369.816 148.78C370.147 148.62 370.414 148.407 370.616 148.14C370.819 147.863 370.995 147.553 371.144 147.212H371.304ZM369.656 144.908V145.82H369.48V145.612C369.48 145.431 369.427 145.276 369.32 145.148C369.214 145.009 369.048 144.94 368.824 144.94V144.908H369.656ZM369.656 143.58V144.492H368.824V144.46C369.048 144.46 369.214 144.396 369.32 144.268C369.427 144.129 369.48 143.969 369.48 143.788V143.58H369.656ZM370.392 140.348V141.452H370.216V141.212C370.216 140.988 370.142 140.796 369.992 140.636C369.854 140.476 369.662 140.396 369.416 140.396V140.348H370.392ZM370.392 139.644V140.06L368.568 139.9C368.899 139.9 369.251 139.873 369.624 139.82C369.998 139.756 370.254 139.697 370.392 139.644ZM365.112 148.476L365.32 149.5H363.928V149.34C363.928 149.34 363.966 149.34 364.04 149.34C364.115 149.34 364.152 149.34 364.152 149.34C364.419 149.34 364.638 149.255 364.808 149.084C364.979 148.913 365.07 148.711 365.08 148.476H365.112ZM365.112 140.908H365.08C365.07 140.663 364.979 140.46 364.808 140.3C364.638 140.14 364.419 140.06 364.152 140.06C364.152 140.06 364.115 140.06 364.04 140.06C363.966 140.06 363.928 140.06 363.928 140.06V139.9H365.32L365.112 140.908Z" fill="white"/>
</g>
<defs>
<filter id="filter0_d_74_4" x="-6" y="-9.5" width="395" height="175" filterUnits="userSpaceOnUse" color-interpolation-filters="sRGB">
<feFlood flood-opacity="0" result="BackgroundImageFix"/>
<feColorMatrix in="SourceAlpha" type="matrix" values="0 0 0 0 0 0 0 0 0 0 0 0 0 0 0 0 0 0 127 0" result="hardAlpha"/>
<feOffset/>
<feGaussianBlur stdDeviation="5"/>
<feComposite in2="hardAlpha" operator="out"/>
<feColorMatrix type="matrix" values="0 0 0 0 0 0 0 0 0 0 0 0 0 0 0 0 0 0 0.4 0"/>
<feBlend mode="normal" in2="BackgroundImageFix" result="effect1_dropShadow_74_4"/>
<feBlend mode="normal" in="SourceGraphic" in2="effect1_dropShadow_74_4" result="shape"/>
</filter>
</defs>
</svg>
