<svg width="235" height="185" viewBox="0 0 235 185" fill="none" xmlns="http://www.w3.org/2000/svg">
<path d="M208.746 182V13.04L219.754 25.072H168.298V2.79999H234.09V182H208.746Z" fill="white"/>
<path d="M73.3244 184.048C59.3297 184.048 46.7857 180.464 35.6924 173.296C24.7697 166.128 16.0657 155.717 9.5804 142.064C3.26573 128.411 0.108398 111.856 0.108398 92.4C0.108398 72.944 3.26573 56.3893 9.5804 42.736C16.0657 29.0827 24.7697 18.672 35.6924 11.504C46.7857 4.33601 59.3297 0.752014 73.3244 0.752014C87.1484 0.752014 99.6071 4.33601 110.7 11.504C121.794 18.672 130.498 29.0827 136.812 42.736C143.127 56.3893 146.284 72.944 146.284 92.4C146.284 111.856 143.127 128.411 136.812 142.064C130.498 155.717 121.794 166.128 110.7 173.296C99.6071 180.464 87.1484 184.048 73.3244 184.048ZM73.3244 161.264C82.7111 161.264 90.9031 158.704 97.9004 153.584C105.068 148.464 110.615 140.784 114.54 130.544C118.636 120.304 120.684 107.589 120.684 92.4C120.684 77.2107 118.636 64.496 114.54 54.256C110.615 44.016 105.068 36.336 97.9004 31.216C90.9031 26.096 82.7111 23.536 73.3244 23.536C63.9377 23.536 55.6604 26.096 48.4924 31.216C41.3244 36.336 35.6924 44.016 31.5964 54.256C27.6711 64.496 25.7084 77.2107 25.7084 92.4C25.7084 107.589 27.6711 120.304 31.5964 130.544C35.6924 140.784 41.3244 148.464 48.4924 153.584C55.6604 158.704 63.9377 161.264 73.3244 161.264Z" fill="white"/>
</svg>
