<svg width="306" height="185" viewBox="0 0 306 185" fill="none" xmlns="http://www.w3.org/2000/svg">
<path d="M176.472 182V164.592L249.432 94.192C255.917 88.048 260.696 82.672 263.768 78.064C267.011 73.2853 269.144 68.9333 270.168 65.008C271.363 60.912 271.96 56.9867 271.96 53.232C271.96 44.016 268.717 36.7627 262.232 31.472C255.747 26.1813 246.275 23.536 233.816 23.536C224.259 23.536 215.64 25.1573 207.96 28.4C200.28 31.472 193.624 36.336 187.992 42.992L170.584 27.888C177.411 19.184 186.541 12.528 197.976 7.92001C209.581 3.14135 222.296 0.752014 236.12 0.752014C248.579 0.752014 259.416 2.80001 268.632 6.89601C277.848 10.8213 284.931 16.5387 289.88 24.048C295 31.5573 297.56 40.432 297.56 50.672C297.56 56.4747 296.792 62.192 295.256 67.824C293.72 73.456 290.819 79.4293 286.552 85.744C282.285 92.0587 276.141 99.1414 268.12 106.992L203.096 169.712L196.952 159.728H305.24V182H176.472Z" fill="white"/>
<path d="M74.0744 184.048C60.0797 184.048 47.5357 180.464 36.4424 173.296C25.5197 166.128 16.8157 155.717 10.3304 142.064C4.01573 128.411 0.858398 111.856 0.858398 92.4C0.858398 72.944 4.01573 56.3893 10.3304 42.736C16.8157 29.0827 25.5197 18.672 36.4424 11.504C47.5357 4.33601 60.0797 0.752014 74.0744 0.752014C87.8984 0.752014 100.357 4.33601 111.45 11.504C122.544 18.672 131.248 29.0827 137.562 42.736C143.877 56.3893 147.034 72.944 147.034 92.4C147.034 111.856 143.877 128.411 137.562 142.064C131.248 155.717 122.544 166.128 111.45 173.296C100.357 180.464 87.8984 184.048 74.0744 184.048ZM74.0744 161.264C83.4611 161.264 91.6531 158.704 98.6504 153.584C105.818 148.464 111.365 140.784 115.29 130.544C119.386 120.304 121.434 107.589 121.434 92.4C121.434 77.2107 119.386 64.496 115.29 54.256C111.365 44.016 105.818 36.336 98.6504 31.216C91.6531 26.096 83.4611 23.536 74.0744 23.536C64.6877 23.536 56.4104 26.096 49.2424 31.216C42.0744 36.336 36.4424 44.016 32.3464 54.256C28.4211 64.496 26.4584 77.2107 26.4584 92.4C26.4584 107.589 28.4211 120.304 32.3464 130.544C36.4424 140.784 42.0744 148.464 49.2424 153.584C56.4104 158.704 64.6877 161.264 74.0744 161.264Z" fill="white"/>
</svg>
