<svg width="300" height="185" viewBox="0 0 300 185" fill="none" xmlns="http://www.w3.org/2000/svg">
<path d="M231.572 184.048C218.943 184.048 206.655 182.085 194.708 178.16C182.932 174.235 173.29 168.944 165.78 162.288L177.556 142.064C183.53 147.696 191.295 152.304 200.852 155.888C210.41 159.472 220.65 161.264 231.572 161.264C244.884 161.264 255.21 158.448 262.548 152.816C270.058 147.013 273.812 139.248 273.812 129.52C273.812 120.133 270.228 112.624 263.06 106.992C256.063 101.189 244.884 98.288 229.524 98.288H215.188V80.368L268.436 14.832L272.02 25.072H173.972V2.79999H292.244V20.208L239.252 85.488L225.94 77.552H234.388C256.063 77.552 272.276 82.416 283.028 92.144C293.951 101.872 299.412 114.245 299.412 129.264C299.412 139.333 296.938 148.549 291.988 156.912C287.039 165.275 279.53 171.931 269.46 176.88C259.562 181.659 246.932 184.048 231.572 184.048Z" fill="white"/>
<path d="M74.0744 184.048C60.0797 184.048 47.5357 180.464 36.4424 173.296C25.5197 166.128 16.8157 155.717 10.3304 142.064C4.01573 128.411 0.858398 111.856 0.858398 92.4C0.858398 72.944 4.01573 56.3893 10.3304 42.736C16.8157 29.0827 25.5197 18.672 36.4424 11.504C47.5357 4.33601 60.0797 0.752014 74.0744 0.752014C87.8984 0.752014 100.357 4.33601 111.45 11.504C122.544 18.672 131.248 29.0827 137.562 42.736C143.877 56.3893 147.034 72.944 147.034 92.4C147.034 111.856 143.877 128.411 137.562 142.064C131.248 155.717 122.544 166.128 111.45 173.296C100.357 180.464 87.8984 184.048 74.0744 184.048ZM74.0744 161.264C83.4611 161.264 91.6531 158.704 98.6504 153.584C105.818 148.464 111.365 140.784 115.29 130.544C119.386 120.304 121.434 107.589 121.434 92.4C121.434 77.2107 119.386 64.496 115.29 54.256C111.365 44.016 105.818 36.336 98.6504 31.216C91.6531 26.096 83.4611 23.536 74.0744 23.536C64.6877 23.536 56.4104 26.096 49.2424 31.216C42.0744 36.336 36.4424 44.016 32.3464 54.256C28.4211 64.496 26.4584 77.2107 26.4584 92.4C26.4584 107.589 28.4211 120.304 32.3464 130.544C36.4424 140.784 42.0744 148.464 49.2424 153.584C56.4104 158.704 64.6877 161.264 74.0744 161.264Z" fill="white"/>
</svg>
