<svg width="335" height="185" viewBox="0 0 335 185" fill="none" xmlns="http://www.w3.org/2000/svg">
<path d="M176.478 137.968V120.048L268.126 2.79999H295.774L204.894 120.048L191.838 115.952H334.942V137.968H176.478ZM276.062 182V137.968L276.83 115.952V77.04H300.894V182H276.062Z" fill="white"/>
<path d="M73.8244 184.048C59.8297 184.048 47.2857 180.464 36.1924 173.296C25.2697 166.128 16.5657 155.717 10.0804 142.064C3.76573 128.411 0.608398 111.856 0.608398 92.4C0.608398 72.944 3.76573 56.3893 10.0804 42.736C16.5657 29.0827 25.2697 18.672 36.1924 11.504C47.2857 4.33601 59.8297 0.752014 73.8244 0.752014C87.6484 0.752014 100.107 4.33601 111.2 11.504C122.294 18.672 130.998 29.0827 137.312 42.736C143.627 56.3893 146.784 72.944 146.784 92.4C146.784 111.856 143.627 128.411 137.312 142.064C130.998 155.717 122.294 166.128 111.2 173.296C100.107 180.464 87.6484 184.048 73.8244 184.048ZM73.8244 161.264C83.2111 161.264 91.4031 158.704 98.4004 153.584C105.568 148.464 111.115 140.784 115.04 130.544C119.136 120.304 121.184 107.589 121.184 92.4C121.184 77.2107 119.136 64.496 115.04 54.256C111.115 44.016 105.568 36.336 98.4004 31.216C91.4031 26.096 83.2111 23.536 73.8244 23.536C64.4377 23.536 56.1604 26.096 48.9924 31.216C41.8244 36.336 36.1924 44.016 32.0964 54.256C28.1711 64.496 26.2084 77.2107 26.2084 92.4C26.2084 107.589 28.1711 120.304 32.0964 130.544C36.1924 140.784 41.8244 148.464 48.9924 153.584C56.1604 158.704 64.4377 161.264 73.8244 161.264Z" fill="white"/>
</svg>
