<svg width="190" height="1566" viewBox="0 0 190 1566" fill="none" xmlns="http://www.w3.org/2000/svg">
<path d="M4 0.580001L186 0.580001V83.26C186 103.02 182.187 120.44 174.56 135.52C167.107 150.6 156.62 162.387 143.1 170.88C129.58 179.373 113.547 183.62 95 183.62C76.6267 183.62 60.5933 179.373 46.9 170.88C33.38 162.387 22.8067 150.6 15.18 135.52C7.72667 120.44 4 103.02 4 83.26V0.580001ZM38.58 42.7V81.18C38.58 93.3133 40.8333 103.8 45.34 112.64C50.02 121.653 56.6067 128.587 65.1 133.44C73.5933 138.467 83.56 140.98 95 140.98C106.613 140.98 116.58 138.467 124.9 133.44C133.393 128.587 139.893 121.653 144.4 112.64C149.08 103.8 151.42 93.3133 151.42 81.18V42.7L38.58 42.7ZM112.68 311.325V398.945H79.92V311.325H112.68ZM37.8 314.445V413.505H4V272.585H186L186 410.125H152.2L152.2 314.445H37.8ZM0.88 564.018C0.88 549.458 2.78667 535.505 6.6 522.158C10.5867 508.812 15.7 498.065 21.94 489.918L53.66 504.218C48.1133 512.018 43.52 521.205 39.88 531.778C36.4133 542.525 34.68 553.358 34.68 564.278C34.68 572.598 35.46 579.272 37.02 584.298C38.7533 589.498 41.0933 593.312 44.04 595.738C46.9867 598.165 50.3667 599.378 54.18 599.378C59.0333 599.378 62.8467 597.472 65.62 593.658C68.5667 589.845 70.9067 584.818 72.64 578.578C74.5467 572.338 76.28 565.405 77.84 557.778C79.5733 550.325 81.6533 542.785 84.08 535.158C86.5067 527.705 89.6267 520.858 93.44 514.618C97.2533 508.378 102.28 503.265 108.52 499.278C114.76 495.465 122.733 493.558 132.44 493.558C142.84 493.558 152.287 496.332 160.78 501.878C169.447 507.598 176.293 516.092 181.32 527.358C186.52 538.798 189.12 553.098 189.12 570.258C189.12 581.698 187.733 592.965 184.96 604.058C182.36 615.152 178.373 624.945 173 633.438L141.02 620.438C145.873 611.945 149.427 603.452 151.68 594.958C154.107 586.465 155.32 578.145 155.32 569.998C155.32 561.852 154.367 555.178 152.46 549.978C150.553 544.778 148.04 541.052 144.92 538.798C141.973 536.545 138.507 535.418 134.52 535.418C129.84 535.418 126.027 537.325 123.08 541.138C120.307 544.952 118.053 549.978 116.32 556.218C114.587 562.458 112.853 569.305 111.12 576.758C109.387 584.385 107.393 591.925 105.14 599.378C102.887 607.005 99.8533 613.938 96.04 620.178C92.2267 626.418 87.2 631.445 80.96 635.258C74.72 639.245 66.8333 641.238 57.3 641.238C47.0733 641.238 37.7133 638.378 29.22 632.658C20.7267 626.938 13.88 618.358 8.68 606.918C3.48 595.652 0.88 581.352 0.88 564.018ZM0.88 787.019C0.88 772.459 2.78667 758.506 6.6 745.159C10.5867 731.812 15.7 721.066 21.94 712.919L53.66 727.219C48.1133 735.019 43.52 744.206 39.88 754.779C36.4133 765.526 34.68 776.359 34.68 787.279C34.68 795.599 35.46 802.272 37.02 807.299C38.7533 812.499 41.0933 816.312 44.04 818.739C46.9867 821.166 50.3667 822.379 54.18 822.379C59.0333 822.379 62.8467 820.472 65.62 816.659C68.5667 812.846 70.9067 807.819 72.64 801.579C74.5467 795.339 76.28 788.406 77.84 780.779C79.5733 773.326 81.6533 765.786 84.08 758.159C86.5067 750.706 89.6267 743.859 93.44 737.619C97.2533 731.379 102.28 726.266 108.52 722.279C114.76 718.466 122.733 716.559 132.44 716.559C142.84 716.559 152.287 719.332 160.78 724.879C169.447 730.599 176.293 739.092 181.32 750.359C186.52 761.799 189.12 776.099 189.12 793.259C189.12 804.699 187.733 815.966 184.96 827.059C182.36 838.152 178.373 847.946 173 856.439L141.02 843.439C145.873 834.946 149.427 826.452 151.68 817.959C154.107 809.466 155.32 801.146 155.32 792.999C155.32 784.852 154.367 778.179 152.46 772.979C150.553 767.779 148.04 764.052 144.92 761.799C141.973 759.546 138.507 758.419 134.52 758.419C129.84 758.419 126.027 760.326 123.08 764.139C120.307 767.952 118.053 772.979 116.32 779.219C114.587 785.459 112.853 792.306 111.12 799.759C109.387 807.386 107.393 814.926 105.14 822.379C102.887 830.006 99.8533 836.939 96.04 843.179C92.2267 849.419 87.2 854.446 80.96 858.259C74.72 862.246 66.8333 864.239 57.3 864.239C47.0733 864.239 37.7133 861.379 29.22 855.659C20.7267 849.939 13.88 841.359 8.68 829.919C3.48 818.652 0.88 804.352 0.88 787.019ZM112.68 988.96V1076.58H79.92V988.96H112.68ZM37.8 992.08V1091.14H4V950.22H186V1087.76H152.2V992.08H37.8ZM4 1181.85H186L186 1260.63C186 1276.93 183.313 1290.97 177.94 1302.75C172.74 1314.54 165.2 1323.64 155.32 1330.05C145.44 1336.47 133.653 1339.67 119.96 1339.67C106.44 1339.67 94.74 1336.47 84.86 1330.05C75.1533 1323.64 67.7 1314.54 62.5 1302.75C57.3 1290.97 54.7 1276.93 54.7 1260.63V1205.25L73.16 1223.97H4V1181.85ZM4 1297.55L70.04 1252.05V1297.03L4 1343.05V1297.55ZM68.48 1223.97L88.24 1205.25V1258.29C88.24 1271.29 91.0133 1281 96.56 1287.41C102.28 1293.83 110.08 1297.03 119.96 1297.03C130.013 1297.03 137.813 1293.83 143.36 1287.41C148.907 1281 151.68 1271.29 151.68 1258.29L151.68 1205.25L171.7 1223.97H68.48ZM4 1465.41H151.68V1407.17H186L186 1565.77H151.68V1507.53H4V1465.41Z" fill="white"/>
</svg>
