<svg width="1566" height="190" viewBox="0 0 1566 190" fill="none" xmlns="http://www.w3.org/2000/svg">
<path d="M1465.41 186V38.32H1407.17V4H1565.77V38.32H1507.53V186H1465.41Z" fill="white"/>
<path d="M1181.85 186V4H1260.63C1276.93 4 1290.97 6.68667 1302.75 12.06C1314.54 17.26 1323.64 24.8 1330.05 34.68C1336.47 44.56 1339.67 56.3467 1339.67 70.04C1339.67 83.56 1336.47 95.26 1330.05 105.14C1323.64 114.847 1314.54 122.3 1302.75 127.5C1290.97 132.7 1276.93 135.3 1260.63 135.3H1205.25L1223.97 116.84V186H1181.85ZM1297.55 186L1252.05 119.96H1297.03L1343.05 186H1297.55ZM1223.97 121.52L1205.25 101.76H1258.29C1271.29 101.76 1281 98.9867 1287.41 93.44C1293.83 87.72 1297.03 79.92 1297.03 70.04C1297.03 59.9867 1293.83 52.1867 1287.41 46.64C1281 41.0933 1271.29 38.32 1258.29 38.32H1205.25L1223.97 18.3V121.52Z" fill="white"/>
<path d="M988.96 77.32H1076.58V110.08H988.96V77.32ZM992.08 152.2H1091.14V186H950.22V4H1087.76V37.8H992.08V152.2Z" fill="white"/>
<path d="M787.019 189.12C772.459 189.12 758.506 187.213 745.159 183.4C731.812 179.413 721.066 174.3 712.919 168.06L727.219 136.34C735.019 141.887 744.206 146.48 754.779 150.12C765.526 153.587 776.359 155.32 787.279 155.32C795.599 155.32 802.272 154.54 807.299 152.98C812.499 151.247 816.312 148.907 818.739 145.96C821.166 143.013 822.379 139.633 822.379 135.82C822.379 130.967 820.472 127.153 816.659 124.38C812.846 121.433 807.819 119.093 801.579 117.36C795.339 115.453 788.406 113.72 780.779 112.16C773.326 110.427 765.786 108.347 758.159 105.92C750.706 103.493 743.859 100.373 737.619 96.56C731.379 92.7467 726.266 87.72 722.279 81.48C718.466 75.24 716.559 67.2667 716.559 57.56C716.559 47.16 719.332 37.7133 724.879 29.22C730.599 20.5533 739.092 13.7067 750.359 8.68C761.799 3.48001 776.099 0.880005 793.259 0.880005C804.699 0.880005 815.966 2.26667 827.059 5.04C838.152 7.64 847.946 11.6267 856.439 17L843.439 48.98C834.946 44.1267 826.452 40.5733 817.959 38.32C809.466 35.8933 801.146 34.68 792.999 34.68C784.852 34.68 778.179 35.6333 772.979 37.54C767.779 39.4467 764.052 41.96 761.799 45.08C759.546 48.0267 758.419 51.4933 758.419 55.48C758.419 60.16 760.326 63.9733 764.139 66.92C767.952 69.6933 772.979 71.9467 779.219 73.68C785.459 75.4133 792.306 77.1467 799.759 78.88C807.386 80.6133 814.926 82.6067 822.379 84.86C830.006 87.1133 836.939 90.1467 843.179 93.96C849.419 97.7733 854.446 102.8 858.259 109.04C862.246 115.28 864.239 123.167 864.239 132.7C864.239 142.927 861.379 152.287 855.659 160.78C849.939 169.273 841.359 176.12 829.919 181.32C818.652 186.52 804.352 189.12 787.019 189.12Z" fill="white"/>
<path d="M564.018 189.12C549.458 189.12 535.505 187.213 522.158 183.4C508.811 179.413 498.065 174.3 489.918 168.06L504.218 136.34C512.018 141.887 521.205 146.48 531.778 150.12C542.525 153.587 553.358 155.32 564.278 155.32C572.598 155.32 579.271 154.54 584.298 152.98C589.498 151.247 593.311 148.907 595.738 145.96C598.165 143.013 599.378 139.633 599.378 135.82C599.378 130.967 597.471 127.153 593.658 124.38C589.845 121.433 584.818 119.093 578.578 117.36C572.338 115.453 565.405 113.72 557.778 112.16C550.325 110.427 542.785 108.347 535.158 105.92C527.705 103.493 520.858 100.373 514.618 96.56C508.378 92.7467 503.265 87.72 499.278 81.48C495.465 75.24 493.558 67.2667 493.558 57.56C493.558 47.16 496.331 37.7133 501.878 29.22C507.598 20.5533 516.091 13.7067 527.358 8.68C538.798 3.48001 553.098 0.880005 570.258 0.880005C581.698 0.880005 592.965 2.26667 604.058 5.04C615.151 7.64 624.945 11.6267 633.438 17L620.438 48.98C611.945 44.1267 603.451 40.5733 594.958 38.32C586.465 35.8933 578.145 34.68 569.998 34.68C561.851 34.68 555.178 35.6333 549.978 37.54C544.778 39.4467 541.051 41.96 538.798 45.08C536.545 48.0267 535.418 51.4933 535.418 55.48C535.418 60.16 537.325 63.9733 541.138 66.92C544.951 69.6933 549.978 71.9467 556.218 73.68C562.458 75.4133 569.305 77.1467 576.758 78.88C584.385 80.6133 591.925 82.6067 599.378 84.86C607.005 87.1133 613.938 90.1467 620.178 93.96C626.418 97.7733 631.445 102.8 635.258 109.04C639.245 115.28 641.238 123.167 641.238 132.7C641.238 142.927 638.378 152.287 632.658 160.78C626.938 169.273 618.358 176.12 606.918 181.32C595.651 186.52 581.351 189.12 564.018 189.12Z" fill="white"/>
<path d="M311.325 77.32H398.945V110.08H311.325V77.32ZM314.445 152.2H413.505V186H272.585V4H410.125V37.8H314.445V152.2Z" fill="white"/>
<path d="M0.580078 186V4H83.2601C103.02 4 120.44 7.81334 135.52 15.44C150.6 22.8933 162.387 33.38 170.88 46.9C179.373 60.42 183.62 76.4534 183.62 95C183.62 113.373 179.373 129.407 170.88 143.1C162.387 156.62 150.6 167.193 135.52 174.82C120.44 182.273 103.02 186 83.2601 186H0.580078ZM42.7001 151.42H81.1801C93.3134 151.42 103.8 149.167 112.64 144.66C121.653 139.98 128.587 133.393 133.44 124.9C138.467 116.407 140.98 106.44 140.98 95C140.98 83.3867 138.467 73.42 133.44 65.1C128.587 56.6067 121.653 50.1067 112.64 45.6C103.8 40.92 93.3134 38.58 81.1801 38.58H42.7001V151.42Z" fill="white"/>
</svg>
