<svg width="449" height="92" viewBox="0 0 449 92" fill="none" xmlns="http://www.w3.org/2000/svg">
<path d="M11.528 11.52C14.6 12 18.536 12.288 21.8 12.288H53.192C56.456 12.288 60.296 12 63.56 11.52V23.904C60.296 23.712 56.552 23.616 53.192 23.616H21.8C18.536 23.616 14.408 23.712 11.528 23.904V11.52ZM0.392011 36.096C3.27201 36.48 6.63201 36.672 9.60801 36.672H72.488C74.504 36.672 78.728 36.48 81.224 36.096V48.576C78.824 48.384 75.176 48.288 72.488 48.288H49.352C48.776 58.176 46.664 66.24 43.208 72.96C39.848 79.68 32.456 87.072 23.912 91.392L12.68 83.232C19.496 80.64 26.216 75.168 30.056 69.504C33.992 63.552 35.624 56.352 36.008 48.288H9.60801C6.82401 48.288 3.08001 48.48 0.392011 48.672V36.096ZM69.32 4.89599C71.72 8.44799 75.08 14.496 76.904 18.048L69.224 21.408C67.208 17.472 64.232 11.712 61.64 8.064L69.32 4.89599ZM80.648 0.575998C83.144 4.224 86.696 10.272 88.424 13.632L80.744 16.992C78.728 12.96 75.656 7.392 73.064 3.744L80.648 0.575998ZM195.752 9.31199C197.576 13.152 199.784 18.72 200.84 22.464L194.216 24.576C192.872 20.544 191.144 15.264 189.32 11.424L195.752 9.31199ZM205.64 6.23999C207.464 10.08 209.672 15.648 210.92 19.296L204.296 21.408C202.952 17.28 201.128 12.096 199.112 8.352L205.64 6.23999ZM187.496 43.008C187.496 66.816 181.832 81.312 158.6 91.584L148.328 81.888C166.856 75.36 175.016 67.104 175.016 43.488V39.84H152.264V52.896C152.264 57.216 152.552 61.056 152.648 62.976H139.208C139.496 61.056 139.784 57.216 139.784 52.896V39.84H131.624C126.824 39.84 123.368 40.128 121.256 40.224V27.168C122.984 27.456 126.824 28.032 131.624 28.032H139.784V18.528C139.784 15.744 139.496 12.864 139.208 9.888H152.84C152.648 11.712 152.264 14.784 152.264 18.624V28.032H175.016V17.952C175.016 14.112 174.728 10.944 174.44 9.024H188.168C187.88 11.04 187.496 14.112 187.496 17.952V28.032H194.6C199.688 28.032 202.568 27.84 205.16 27.36V40.128C203.048 39.936 199.688 39.84 194.696 39.84H187.496V43.008ZM249.992 39.552C253.448 39.84 260.456 40.128 265.448 40.128H317C321.512 40.128 325.736 39.744 328.232 39.552V54.624C325.928 54.528 321.032 54.144 317 54.144H265.448C259.976 54.144 253.544 54.336 249.992 54.624V39.552ZM395.144 74.784V19.584C395.144 16.224 394.856 11.424 394.184 8.064H409.16C408.776 11.424 408.296 15.648 408.296 19.584V33.792C421.16 37.536 439.592 44.352 448.424 48.672L442.952 61.92C433.064 56.736 418.664 51.168 408.296 47.616V74.784C408.296 77.568 408.776 84.288 409.16 88.224H394.184C394.76 84.384 395.144 78.624 395.144 74.784Z" fill="white"/>
</svg>
