<svg width="1105" height="182" viewBox="0 0 1105 182" fill="none" xmlns="http://www.w3.org/2000/svg">
<path d="M968.369 140.4L966.029 91.78L1053.13 0L1099.93 0L1021.41 84.5L998.009 109.46L968.369 140.4ZM930.669 182V0L972.529 0V182H930.669ZM1055.21 182L990.469 102.7L1018.03 72.8L1104.35 182H1055.21Z" fill="white"/>
<path d="M663.488 182V0L698.328 0L805.708 131.04H788.808V0L830.408 0V182H795.828L688.188 50.96H705.088V182H663.488Z" fill="white"/>
<path d="M520.977 182V0L563.097 0V182H520.977Z" fill="white"/>
<path d="M272.585 182V0L351.365 0C367.658 0 381.698 2.68667 393.485 8.06001C405.272 13.26 414.372 20.8 420.785 30.68C427.198 40.56 430.405 52.3467 430.405 66.04C430.405 79.56 427.198 91.26 420.785 101.14C414.372 110.847 405.272 118.3 393.485 123.5C381.698 128.7 367.658 131.3 351.365 131.3H295.985L314.705 112.84V182H272.585ZM388.285 182L342.785 115.96H387.765L433.785 182H388.285ZM314.705 117.52L295.985 97.76H349.025C362.025 97.76 371.732 94.9867 378.145 89.44C384.558 83.72 387.765 75.92 387.765 66.04C387.765 55.9867 384.558 48.1867 378.145 42.64C371.732 37.0933 362.025 34.32 349.025 34.32H295.985L314.705 14.3V117.52Z" fill="white"/>
<path d="M0.580078 182V0L83.2601 0C103.02 0 120.44 3.81334 135.52 11.44C150.6 18.8933 162.387 29.38 170.88 42.9C179.373 56.42 183.62 72.4534 183.62 91C183.62 109.373 179.373 125.407 170.88 139.1C162.387 152.62 150.6 163.193 135.52 170.82C120.44 178.273 103.02 182 83.2601 182H0.580078ZM42.7001 147.42H81.1801C93.3134 147.42 103.8 145.167 112.64 140.66C121.653 135.98 128.587 129.393 133.44 120.9C138.467 112.407 140.98 102.44 140.98 91C140.98 79.3867 138.467 69.42 133.44 61.1C128.587 52.6067 121.653 46.1067 112.64 41.6C103.8 36.92 93.3134 34.58 81.1801 34.58H42.7001V147.42Z" fill="white"/>
</svg>
