<svg width="182" height="1105" viewBox="0 0 182 1105" fill="none" xmlns="http://www.w3.org/2000/svg">
<path d="M0 0.580001L182 0.580001V83.26C182 103.02 178.187 120.44 170.56 135.52C163.107 150.6 152.62 162.387 139.1 170.88C125.58 179.373 109.547 183.62 91 183.62C72.6267 183.62 56.5933 179.373 42.9 170.88C29.38 162.387 18.8067 150.6 11.18 135.52C3.72667 120.44 0 103.02 0 83.26V0.580001ZM34.58 42.7V81.18C34.58 93.3133 36.8333 103.8 41.34 112.64C46.02 121.653 52.6067 128.587 61.1 133.44C69.5933 138.467 79.56 140.98 91 140.98C102.613 140.98 112.58 138.467 120.9 133.44C129.393 128.587 135.893 121.653 140.4 112.64C145.08 103.8 147.42 93.3133 147.42 81.18V42.7L34.58 42.7ZM0 272.585H182L182 351.365C182 367.658 179.313 381.698 173.94 393.485C168.74 405.271 161.2 414.371 151.32 420.785C141.44 427.198 129.653 430.405 115.96 430.405C102.44 430.405 90.74 427.198 80.86 420.785C71.1533 414.371 63.7 405.271 58.5 393.485C53.3 381.698 50.7 367.658 50.7 351.365V295.985L69.16 314.705H0V272.585ZM0 388.285L66.04 342.785V387.765L0 433.785V388.285ZM64.48 314.705L84.24 295.985V349.025C84.24 362.025 87.0133 371.731 92.56 378.145C98.28 384.558 106.08 387.765 115.96 387.765C126.013 387.765 133.813 384.558 139.36 378.145C144.907 371.731 147.68 362.025 147.68 349.025L147.68 295.985L167.7 314.705H64.48ZM0 520.976H182L182 563.096H0V520.976ZM0 663.489H182V698.329L50.96 805.709V788.809H182V830.409H0V795.829L131.04 688.189V705.089H0L0 663.489ZM41.6 968.369L90.22 966.029L182 1053.13V1099.93L97.5 1021.41L72.54 998.009L41.6 968.369ZM0 930.669H182V972.529H0V930.669ZM0 1055.21L79.3 990.469L109.2 1018.03L0 1104.35V1055.21Z" fill="white"/>
</svg>
