<svg width="433" height="87" viewBox="0 0 433 87" fill="none" xmlns="http://www.w3.org/2000/svg">
<path d="M39.952 8.576C42.64 12.608 46.48 18.752 48.688 23.072L40.336 26.816C37.552 20.768 35.44 16.928 31.888 11.936L39.952 8.576ZM52.528 3.296C55.312 7.13599 59.344 13.184 61.552 17.504L53.488 21.44C50.416 15.392 48.112 11.84 44.56 7.04L52.528 3.296ZM1.64801 72.224V17.024C1.64801 13.568 1.36001 8.86399 0.688011 5.408H15.664C15.28 8.768 14.8 12.992 14.8 17.024V31.04C27.568 34.88 46.096 41.696 54.928 46.016L49.552 59.36C39.568 54.08 25.168 48.512 14.8 45.056V72.224C14.8 74.912 15.28 81.632 15.76 85.568H0.688011C1.26401 81.824 1.64801 75.968 1.64801 72.224ZM175.408 5.504C175.216 8.192 175.024 11.264 175.024 15.104V34.112C175.024 54.752 170.992 63.68 163.888 71.552C157.552 78.464 147.568 83.168 140.56 85.376L130.576 74.816C140.08 72.608 147.856 68.96 153.616 62.72C160.24 55.52 161.488 48.32 161.488 33.344V15.104C161.488 11.264 161.296 8.192 160.912 5.504H175.408ZM130.864 6.272C130.672 8.47999 130.576 10.592 130.576 13.664V46.112C130.576 48.512 130.672 52.256 130.864 54.464H116.944C117.04 52.64 117.424 48.896 117.424 46.016V13.664C117.424 11.84 117.328 8.47999 117.04 6.272H130.864ZM245.296 7.04C252.016 11.552 264.496 21.536 270.064 27.392L260.272 37.376C255.28 32 243.28 21.536 236.272 16.64L245.296 7.04ZM233.296 70.976C248.272 68.864 260.752 63.968 270.064 58.4C286.48 48.704 298.96 34.016 305.008 21.056L312.496 34.592C305.2 47.552 292.432 60.8 276.976 70.112C267.28 75.968 254.896 81.344 241.36 83.648L233.296 70.976ZM401.008 5.12C398.8 8.47999 396.304 12.8 395.152 14.912C395.056 15.104 394.96 15.2 394.864 15.392H414.16C417.136 15.392 420.304 14.912 422.512 14.24L432.304 20.288C431.248 22.112 429.904 24.8 429.136 27.2C426.544 35.744 421.072 48.512 412.432 59.264C403.312 70.4 391.696 79.232 373.648 86.336L362.32 76.16C382 70.304 392.656 61.952 401.008 52.448C407.536 44.96 413.104 33.44 414.64 26.24H387.664C381.232 34.592 372.88 43.04 363.472 49.472L352.72 41.504C369.52 31.232 377.872 18.848 382.672 10.592C384.112 8.192 386.128 3.776 386.992 0.511993L401.008 5.12Z" fill="white"/>
</svg>
