<svg width="166" height="1335" viewBox="0 0 166 1335" fill="none" xmlns="http://www.w3.org/2000/svg">
<path d="M0 0H166V1335H0V0Z" fill="#4FBABC"/>
<path d="M51.896 70.8C50.9573 70.9707 50.1893 70.8 49.592 70.288C48.9947 69.776 48.6533 69.008 48.568 67.984C48.3973 64.912 48.312 62.9493 48.312 62.096L48.184 59.536C48.184 57.3173 49.2507 56.2933 51.384 56.464C56.504 56.8053 61.6667 56.976 66.872 56.976C80.184 56.976 89.656 56.9333 95.288 56.848L101.816 56.592C102.84 56.5067 104.163 56.464 105.784 56.464C107.405 56.464 109.368 56.3787 111.672 56.208C113.72 56.0373 114.829 57.0187 115 59.152C115.085 60.0907 115.128 61.4133 115.128 63.12C115.128 64.8267 115.085 66.192 115 67.216C115 69.3493 113.933 70.3307 111.8 70.16C105.485 69.9893 101.304 69.904 99.256 69.904H95.288L64.568 70.16C59.448 70.2453 55.224 70.4587 51.896 70.8ZM37.176 123.408C35.0427 123.579 33.9333 122.64 33.848 120.592L33.464 111.76C33.3787 110.736 33.592 109.968 34.104 109.456C34.7013 108.859 35.5547 108.603 36.664 108.688C44.088 109.029 51.8533 109.2 59.96 109.2C73.1013 109.2 83.4693 109.157 91.064 109.072L105.272 108.944C108.856 108.944 117.005 108.603 129.72 107.92C130.744 107.835 131.512 108.091 132.024 108.688C132.621 109.2 132.92 109.925 132.92 110.864C133.005 112.912 133.048 116.027 133.048 120.208C132.877 122.256 131.768 123.195 129.72 123.024C120.163 122.512 111.971 122.256 105.144 122.256L59.704 122.512C52.9627 122.512 45.4533 122.811 37.176 123.408Z" fill="#212529"/>
<path d="M127.544 229.52C128.568 229.435 129.336 229.691 129.848 230.288C130.445 230.8 130.744 231.525 130.744 232.464V239.248C130.573 241.381 129.464 242.363 127.416 242.192C119.309 241.851 111.544 241.68 104.12 241.68L85.688 241.808C82.2747 241.893 77.5813 241.936 71.608 241.936C66.232 241.936 58.3387 242.192 47.928 242.704C45.7947 242.875 44.6853 241.936 44.6 239.888C44.4293 236.987 44.344 234.597 44.344 232.72C44.344 231.781 44.6 231.056 45.112 230.544C45.7093 230.032 46.4773 229.819 47.416 229.904C58.5093 230.331 66.6587 230.544 71.864 230.544C76.8133 230.544 83.8107 230.459 92.856 230.288C94.7333 230.288 95.8 229.349 96.056 227.472C96.6533 223.632 97.464 216.848 98.488 207.12C98.6587 204.987 97.6773 203.92 95.544 203.92C84.7067 203.92 77.7947 204.048 74.808 204.304L72.12 204.432C69.9867 204.432 67.2987 204.56 64.056 204.816C63.032 204.987 62.2213 204.816 61.624 204.304C61.0267 203.792 60.728 203.067 60.728 202.128L60.344 195.216C60.1733 192.997 61.24 192.016 63.544 192.272C65.9333 192.443 69.2187 192.528 73.4 192.528L108.856 192.272C110.989 192.272 111.971 193.339 111.8 195.472L111.032 202.512C110.093 212.155 109.197 220.304 108.344 226.96C108.259 227.216 108.216 227.6 108.216 228.112C108.216 229.563 108.771 230.288 109.88 230.288L117.432 229.904C120.333 229.904 123.704 229.776 127.544 229.52Z" fill="#212529"/>
<path d="M89.912 296.464C90.0827 296.464 90.4667 296.507 91.064 296.592C91.6613 296.592 92.088 296.763 92.344 297.104C92.5147 297.275 92.6 297.488 92.6 297.744C92.6 298.085 92.4293 298.725 92.088 299.664C91.832 300.517 91.6187 301.413 91.448 302.352C90.936 304.741 90.68 308.539 90.68 313.744C90.2533 346.512 90.04 367.376 90.04 376.336C90.04 379.408 90.1253 384.357 90.296 391.184C90.296 393.147 89.3147 394.213 87.352 394.384C82.232 394.64 79.5013 394.768 79.16 394.768H78.52C77.5813 394.768 76.856 394.512 76.344 394C75.832 393.403 75.6187 392.592 75.704 391.568L76.216 375.568C76.6427 357.477 76.856 336.955 76.856 314C76.856 307.685 76.728 302.651 76.472 298.896C76.3867 297.872 76.6 297.104 77.112 296.592C77.7093 295.995 78.5627 295.696 79.672 295.696C83.0853 295.696 86.4987 295.952 89.912 296.464Z" fill="#212529"/>
<path d="M126.264 432.272C125.667 432.869 125.027 433.168 124.344 433.168C123.576 433.168 122.808 432.741 122.04 431.888C118.456 427.792 115.512 424.635 113.208 422.416C112.355 421.563 111.928 420.795 111.928 420.112C111.928 419.429 112.312 418.789 113.08 418.192L114.36 417.04C115.043 416.528 115.683 416.272 116.28 416.272C116.963 416.272 117.731 416.613 118.584 417.296C121.485 419.771 124.685 422.757 128.184 426.256C128.781 426.853 129.08 427.579 129.08 428.432C129.08 429.2 128.739 429.925 128.056 430.608L126.264 432.272ZM115.64 442.128C115.043 442.725 114.36 443.024 113.592 443.024C112.824 443.024 112.056 442.597 111.288 441.744C108.899 438.843 105.869 435.557 102.2 431.888C101.517 431.205 101.176 430.48 101.176 429.712C101.176 428.944 101.56 428.261 102.328 427.664L103.608 426.512C104.291 426 104.973 425.744 105.656 425.744C106.424 425.744 107.149 426.043 107.832 426.64C111.757 429.968 115.043 433.253 117.688 436.496C118.2 437.093 118.456 437.776 118.456 438.544C118.456 439.227 118.072 439.952 117.304 440.72L115.64 442.128ZM71.992 453.264C71.3093 454.203 70.584 454.672 69.816 454.672C69.2187 454.672 68.536 454.373 67.768 453.776C62.5627 449.68 55.864 444.987 47.672 439.696C46.7333 438.928 46.264 438.117 46.264 437.264C46.264 436.667 46.4347 436.069 46.776 435.472C47.544 434.277 48.7813 432.571 50.488 430.352C51.256 429.413 52.0667 428.944 52.92 428.944C53.5173 428.944 54.1147 429.115 54.712 429.456C57.8693 431.163 61.368 433.253 65.208 435.728C69.048 438.117 72.4613 440.549 75.448 443.024C76.3867 443.792 76.856 444.56 76.856 445.328C76.856 445.84 76.6427 446.437 76.216 447.12C74.168 450.192 72.76 452.24 71.992 453.264ZM53.176 523.536C52.4933 523.365 51.896 523.024 51.384 522.512C48.4827 519.44 46.0507 516.069 44.088 512.4C43.7467 511.547 43.576 510.992 43.576 510.736C43.576 509.797 44.344 509.029 45.88 508.432C46.8187 508.091 47.8 507.707 48.824 507.28C49.848 506.768 50.5307 506.427 50.872 506.256C65.72 499.088 79.6293 490.811 92.6 481.424C105.656 472.037 117.133 462.352 127.032 452.368C127.715 451.685 128.397 451.344 129.08 451.344C130.104 451.344 130.744 452.112 131 453.648L132.664 460.304C133.261 462.523 133.56 463.76 133.56 464.016C133.475 464.528 133.304 464.955 133.048 465.296C132.877 465.552 132.408 465.936 131.64 466.448C120.12 477.2 108.387 486.843 96.44 495.376C84.4933 503.909 71.608 512.016 57.784 519.696C57.016 520.123 56.1627 520.891 55.224 522C54.2853 523.109 53.6027 523.621 53.176 523.536ZM58.936 479.76C58.3387 480.784 57.6133 481.296 56.76 481.296C56.1627 481.296 55.48 481.04 54.712 480.528C51.64 478.139 48.0987 475.621 44.088 472.976C40.1627 470.331 36.664 468.155 33.592 466.448C32.4827 465.851 31.928 464.997 31.928 463.888C31.928 463.376 32.056 462.864 32.312 462.352C34.36 459.109 35.5547 457.275 35.896 456.848C36.5787 455.824 37.432 455.312 38.456 455.312C38.968 455.312 39.48 455.44 39.992 455.696C43.4053 457.403 47.2027 459.451 51.384 461.84C55.6507 464.229 59.2347 466.405 62.136 468.368C63.16 469.136 63.672 469.989 63.672 470.928C63.672 471.184 63.5013 471.739 63.16 472.592L58.936 479.76Z" fill="#212529"/>
<path d="M89.912 552.464C90.0827 552.464 90.4667 552.507 91.064 552.592C91.6613 552.592 92.088 552.763 92.344 553.104C92.5147 553.275 92.6 553.488 92.6 553.744C92.6 554.085 92.4293 554.725 92.088 555.664C91.832 556.517 91.6187 557.413 91.448 558.352C90.936 560.741 90.68 564.539 90.68 569.744C90.2533 602.512 90.04 623.376 90.04 632.336C90.04 635.408 90.1253 640.357 90.296 647.184C90.296 649.147 89.3147 650.213 87.352 650.384C82.232 650.64 79.5013 650.768 79.16 650.768H78.52C77.5813 650.768 76.856 650.512 76.344 650C75.832 649.403 75.6187 648.592 75.704 647.568L76.216 631.568C76.6427 613.477 76.856 592.955 76.856 570C76.856 563.685 76.728 558.651 76.472 554.896C76.3867 553.872 76.6 553.104 77.112 552.592C77.7093 551.995 78.5627 551.696 79.672 551.696C83.0853 551.696 86.4987 551.952 89.912 552.464Z" fill="#212529"/>
<path d="M61.752 694.288C59.6187 694.373 57.6987 694.544 55.992 694.8C53.8587 695.056 52.7067 694.16 52.536 692.112L52.152 683.152C52.152 681.019 53.2613 680.08 55.48 680.336C56.248 680.421 58.5093 680.549 62.264 680.72L73.016 680.848C81.3787 681.019 87.0107 681.104 89.912 681.104C96.4827 681.104 101.091 681.061 103.736 680.976L106.68 680.848C107.448 680.848 109.453 680.763 112.696 680.592C113.72 680.421 114.531 680.592 115.128 681.104C115.725 681.616 116.024 682.341 116.024 683.28C116.109 683.963 116.152 685.072 116.152 686.608C116.152 688.912 116.109 690.619 116.024 691.728C115.939 692.667 115.597 693.392 115 693.904C114.403 694.416 113.635 694.587 112.696 694.416C110.136 694.245 108.173 694.16 106.808 694.16L103.864 694.032C97.72 693.861 91.6187 693.776 85.56 693.776C74.3813 693.776 66.4453 693.947 61.752 694.288ZM123.832 710.416C125.112 710.416 125.923 710.672 126.264 711.184C126.691 711.696 126.904 712.379 126.904 713.232C126.904 713.915 126.861 714.469 126.776 714.896C125.752 719.589 123.107 725.989 118.84 734.096C114.573 742.117 107.875 750.608 98.744 759.568C89.6133 768.528 78.0933 776.037 64.184 782.096C63.5867 782.352 63.032 782.309 62.52 781.968C62.008 781.712 61.24 781.029 60.216 779.92C58.7653 778.299 56.9733 776.635 54.84 774.928C53.9013 774.245 53.432 773.52 53.432 772.752C53.432 771.899 54.0293 771.301 55.224 770.96C62.392 768.485 69.5173 764.987 76.6 760.464C83.6827 755.941 90.04 750.779 95.672 744.976C101.304 739.088 105.571 732.944 108.472 726.544C108.728 726.032 108.856 725.52 108.856 725.008C108.856 724.411 108.643 723.941 108.216 723.6C107.789 723.173 107.192 722.96 106.424 722.96H101.432C85.3893 722.96 70.1147 723.216 55.608 723.728L51 723.984C49.8053 723.984 47.928 724.069 45.368 724.24C44.4293 724.411 43.6613 724.24 43.064 723.728C42.4667 723.216 42.1253 722.491 42.04 721.552C41.8693 717.797 41.784 715.024 41.784 713.232C41.784 711.44 42.7227 710.544 44.6 710.544C46.392 710.544 47.8427 710.587 48.952 710.672C50.1467 710.757 51.128 710.8 51.896 710.8C59.4907 710.715 70.1147 710.629 83.768 710.544C97.4213 710.459 110.776 710.416 123.832 710.416Z" fill="#212529"/>
<path d="M62.136 841.36C61.5387 842.128 60.8133 842.512 59.96 842.512C59.2773 842.512 58.552 842.128 57.784 841.36C52.5787 836.411 46.264 831.035 38.84 825.232C37.9013 824.549 37.432 823.781 37.432 822.928C37.432 822.416 37.7733 821.733 38.456 820.88L43.96 815.376C44.6427 814.693 45.4533 814.352 46.392 814.352C47.16 814.352 47.8 814.565 48.312 814.992C51.384 816.955 54.7547 819.387 58.424 822.288C62.0933 825.189 65.2507 827.877 67.896 830.352C68.664 831.12 69.048 831.845 69.048 832.528C69.048 833.04 68.8347 833.595 68.408 834.192L64.696 838.416L62.136 841.36ZM55.224 900.24C54.7973 900.667 54.3707 900.923 53.944 901.008C53.5173 901.093 53.176 901.051 52.92 900.88L52.28 900.496C51.3413 899.557 50.1467 898.064 48.696 896.016C47.2453 893.968 46.0507 891.877 45.112 889.744C44.856 889.232 44.728 888.805 44.728 888.464C44.728 887.184 45.624 886.331 47.416 885.904C48.184 885.733 49.592 885.264 51.64 884.496C63.416 878.864 76.1307 871.141 89.784 861.328C103.523 851.515 115.896 841.019 126.904 829.84C127.587 829.157 128.269 828.816 128.952 828.816C129.891 828.816 130.488 829.627 130.744 831.248L132.024 837.008C132.621 839.227 132.92 840.677 132.92 841.36C132.92 842.043 132.835 842.469 132.664 842.64C132.493 842.811 132.408 842.939 132.408 843.024C121.997 853.179 110.307 863.12 97.336 872.848C84.4507 882.491 71.352 890.853 58.04 897.936C56.9307 898.448 55.992 899.216 55.224 900.24Z" fill="#212529"/>
<path d="M67.768 1037.58C65.72 1037.5 64.7813 1036.35 64.952 1034.13C65.208 1031.23 65.3787 1028.62 65.464 1026.32C65.5493 1023.93 65.592 1022.35 65.592 1021.58C65.7627 1007.25 65.848 994.747 65.848 984.08L65.72 957.968C65.72 952.677 65.6347 948.624 65.464 945.808C65.2933 942.395 65.1227 940.219 64.952 939.28C64.696 936.976 65.6347 935.867 67.768 935.952C68.28 935.952 69.688 936.08 71.992 936.336C74.3813 936.507 76.344 936.763 77.88 937.104C79.928 937.531 80.952 938.256 80.952 939.28C80.952 939.621 80.6533 940.304 80.056 941.328C79.544 942.352 79.288 943.376 79.288 944.4C78.8613 952.677 78.648 967.184 78.648 987.92C78.648 1004.82 78.6907 1015.99 78.776 1021.46C78.776 1023.85 78.904 1028.07 79.16 1034.13C79.2453 1035.15 79.032 1035.96 78.52 1036.56C78.0933 1037.16 77.4533 1037.46 76.6 1037.46C72.6747 1037.63 69.7307 1037.67 67.768 1037.58ZM118.712 953.232C118.115 953.829 117.432 954.128 116.664 954.128C115.896 954.128 115.128 953.744 114.36 952.976C110.349 948.368 107.405 945.211 105.528 943.504C104.675 942.651 104.248 941.883 104.248 941.2C104.248 940.432 104.632 939.749 105.4 939.152C105.656 938.896 105.912 938.725 106.168 938.64C106.424 938.469 106.637 938.299 106.808 938.128C107.491 937.616 108.173 937.36 108.856 937.36C109.624 937.36 110.349 937.659 111.032 938.256C114.36 941.243 117.517 944.272 120.504 947.344C121.187 948.027 121.528 948.709 121.528 949.392C121.528 950.16 121.144 950.928 120.376 951.696L118.712 953.232ZM107.96 963.216C107.363 963.728 106.723 963.984 106.04 963.984C105.187 963.984 104.376 963.557 103.608 962.704C101.133 959.803 98.104 956.56 94.52 952.976C93.8373 952.293 93.496 951.568 93.496 950.8C93.496 950.032 93.88 949.349 94.648 948.752L95.928 947.728C96.5253 947.131 97.2507 946.832 98.104 946.832C98.872 946.832 99.5973 947.131 100.28 947.728C104.12 950.971 107.363 954.213 110.008 957.456C110.52 958.053 110.776 958.736 110.776 959.504C110.776 960.272 110.392 961.04 109.624 961.808L107.96 963.216ZM119.608 1003.79C119.011 1004.82 118.243 1005.33 117.304 1005.33C116.707 1005.33 116.067 1005.11 115.384 1004.69C104.717 997.947 93.8373 991.888 82.744 986.512C81.5493 986 80.952 985.189 80.952 984.08C80.952 983.483 81.1227 982.885 81.464 982.288L84.92 976.528C85.688 975.504 86.584 974.992 87.608 974.992C88.2053 974.992 88.6747 975.077 89.016 975.248C94.2213 977.467 100.024 980.197 106.424 983.44C112.909 986.597 118.285 989.499 122.552 992.144C123.747 992.912 124.344 993.765 124.344 994.704C124.344 994.96 124.259 995.344 124.088 995.856C123.32 997.307 121.827 999.952 119.608 1003.79Z" fill="#212529"/>
<path d="M123.32 1060.75C125.368 1060.75 126.392 1061.78 126.392 1063.82C126.307 1068.94 126.264 1076.62 126.264 1086.86C126.264 1109.22 126.733 1126.89 127.672 1139.86C128.611 1152.83 130.36 1159.31 132.92 1159.31C133.517 1159.31 133.987 1158.12 134.328 1155.73C134.669 1153.34 134.925 1150.14 135.096 1146.13C135.267 1144.42 135.693 1143.57 136.376 1143.57C136.973 1143.57 137.571 1144.04 138.168 1144.98C139.192 1146.34 139.96 1147.28 140.472 1147.79C141.496 1149.07 141.965 1150.39 141.88 1151.76C141.283 1159.1 140.216 1164.3 138.68 1167.38C137.229 1170.53 134.883 1172.11 131.64 1172.11C126.605 1172.11 122.893 1168.02 120.504 1159.82C118.115 1151.55 116.579 1141.05 115.896 1128.34C115.299 1115.54 114.957 1097.74 114.872 1074.96C114.872 1073.94 114.573 1073.17 113.976 1072.66C113.464 1072.06 112.739 1071.76 111.8 1071.76H53.176C52.2373 1071.76 51.4693 1072.06 50.872 1072.66C50.36 1073.17 50.104 1073.89 50.104 1074.83V1102.99C50.104 1115.88 49.1227 1128.08 47.16 1139.6C45.1973 1151.12 41.4853 1161.15 36.024 1169.68C35.4267 1170.7 34.7013 1171.22 33.848 1171.22C33.336 1171.22 32.6533 1170.92 31.8 1170.32C31.1173 1169.72 29.6667 1168.74 27.448 1167.38C26.3387 1166.78 25.784 1166.01 25.784 1165.07C25.784 1164.47 25.9973 1163.83 26.424 1163.15C31.544 1155.39 34.9147 1146.47 36.536 1136.4C38.1573 1126.33 38.968 1115.19 38.968 1102.99V1081.87C38.968 1073.94 38.6693 1066.9 38.072 1060.75C38.072 1060.15 38.3707 1059.86 38.968 1059.86C45.2827 1060.45 52.536 1060.75 60.728 1060.75H123.32ZM105.144 1099.28C106.083 1099.28 106.808 1099.58 107.32 1100.18C107.917 1100.69 108.216 1101.41 108.216 1102.35V1131.92C108.216 1132.86 107.917 1133.63 107.32 1134.22C106.808 1134.74 106.083 1134.99 105.144 1134.99H89.912C88.9733 1134.99 88.2053 1135.29 87.608 1135.89C87.096 1136.4 86.84 1137.13 86.84 1138.06V1146.9C86.84 1147.92 87.1387 1148.73 87.736 1149.33C88.3333 1149.84 89.1013 1150.05 90.04 1149.97L95.928 1149.58C96.7813 1149.5 97.4213 1149.29 97.848 1148.94C98.36 1148.6 98.616 1148.13 98.616 1147.54C98.616 1146.94 98.4453 1146.43 98.104 1146C97.9333 1145.66 97.336 1144.55 96.312 1142.67C95.8853 1141.99 95.672 1141.39 95.672 1140.88C95.672 1139.86 96.3547 1139.13 97.72 1138.7L100.92 1137.68C101.603 1137.51 102.072 1137.42 102.328 1137.42C103.352 1137.42 104.248 1137.98 105.016 1139.09C107.235 1142.59 109.325 1146.43 111.288 1150.61C113.336 1154.7 114.957 1158.5 116.152 1162C116.237 1162.26 116.28 1162.6 116.28 1163.02C116.28 1164.39 115.555 1165.33 114.104 1165.84L110.392 1167.25C109.709 1167.42 109.283 1167.5 109.112 1167.5C107.832 1167.5 106.979 1166.74 106.552 1165.2L105.272 1161.49C104.675 1159.87 103.48 1159.1 101.688 1159.18L53.176 1162.9C52.2373 1162.98 51.4693 1162.77 50.872 1162.26C50.2747 1161.74 49.9333 1161.02 49.848 1160.08L49.464 1155.47C49.2933 1153.51 50.232 1152.44 52.28 1152.27L73.784 1150.99C75.7467 1150.82 76.728 1149.75 76.728 1147.79V1138.06C76.728 1137.13 76.4293 1136.4 75.832 1135.89C75.32 1135.29 74.5947 1134.99 73.656 1134.99H59.064C58.1253 1134.99 57.3573 1134.74 56.76 1134.22C56.248 1133.63 55.992 1132.86 55.992 1131.92V1117.07C55.992 1109.56 55.736 1103.63 55.224 1099.28C55.224 1098.94 55.48 1098.77 55.992 1098.77C59.4053 1099.11 62.8613 1099.28 66.36 1099.28H73.656C74.5947 1099.28 75.32 1099.02 75.832 1098.51C76.4293 1097.91 76.728 1097.15 76.728 1096.21V1092.75C76.728 1090.62 75.6613 1089.64 73.528 1089.81C68.3227 1090.32 63.288 1090.7 58.424 1090.96C56.632 1091.05 55.48 1090.15 54.968 1088.27L54.2 1085.58C54.0293 1084.9 53.944 1084.43 53.944 1084.18C53.944 1082.81 54.7547 1082.09 56.376 1082C64.6533 1081.4 72.76 1080.59 80.696 1079.57C88.632 1078.46 95.288 1077.26 100.664 1075.98C101.005 1075.9 101.432 1075.86 101.944 1075.86C102.968 1075.86 103.907 1076.33 104.76 1077.26C105.955 1078.89 106.936 1080.55 107.704 1082.26C108.557 1083.96 108.984 1085.24 108.984 1086.1C108.984 1086.61 108.813 1086.91 108.472 1086.99C107.789 1087.16 107.064 1087.03 106.296 1086.61C105.528 1086.1 104.76 1085.84 103.992 1085.84C103.139 1085.84 102.413 1085.93 101.816 1086.1C98.0613 1086.86 94.008 1087.5 89.656 1088.02C87.7787 1088.27 86.84 1089.38 86.84 1091.34V1096.21C86.84 1097.15 87.096 1097.91 87.608 1098.51C88.2053 1099.02 88.9733 1099.28 89.912 1099.28H105.144ZM68.28 1108.62C67.3413 1108.62 66.5733 1108.92 65.976 1109.52C65.464 1110.03 65.208 1110.76 65.208 1111.7V1122.7C65.208 1123.64 65.464 1124.41 65.976 1125.01C66.5733 1125.52 67.3413 1125.78 68.28 1125.78H73.656C74.5947 1125.78 75.32 1125.52 75.832 1125.01C76.4293 1124.41 76.728 1123.64 76.728 1122.7V1111.7C76.728 1110.76 76.4293 1110.03 75.832 1109.52C75.32 1108.92 74.5947 1108.62 73.656 1108.62H68.28ZM95.544 1125.78C96.4827 1125.78 97.208 1125.52 97.72 1125.01C98.3173 1124.41 98.616 1123.64 98.616 1122.7V1111.7C98.616 1110.76 98.3173 1110.03 97.72 1109.52C97.208 1108.92 96.4827 1108.62 95.544 1108.62H89.912C88.9733 1108.62 88.2053 1108.92 87.608 1109.52C87.096 1110.03 86.84 1110.76 86.84 1111.7V1122.7C86.84 1123.64 87.096 1124.41 87.608 1125.01C88.2053 1125.52 88.9733 1125.78 89.912 1125.78H95.544Z" fill="#212529"/>
<path d="M85.176 1200.53C93.88 1200.53 102.029 1202.19 109.624 1205.52C117.304 1208.76 123.448 1213.54 128.056 1219.86C132.664 1226.17 134.968 1233.64 134.968 1242.26C134.968 1252.5 132.621 1260.99 127.928 1267.73C123.235 1274.47 118.072 1279.5 112.44 1282.83C106.808 1286.07 102.115 1288.12 98.36 1288.98C97.9333 1289.06 97.5067 1288.93 97.08 1288.59C96.6533 1288.25 96.184 1287.78 95.672 1287.18C93.7947 1285.14 92.0453 1283.43 90.424 1282.06C89.4853 1281.3 89.016 1280.53 89.016 1279.76C89.016 1278.91 89.656 1278.31 90.936 1277.97C100.067 1275.15 107.491 1270.8 113.208 1264.91C118.925 1259.02 121.784 1251.64 121.784 1242.77C121.784 1234.92 119.352 1228.43 114.488 1223.31C109.709 1218.11 103.437 1214.61 95.672 1212.82C95.5013 1212.73 95.2027 1212.69 94.776 1212.69C93.4107 1212.69 92.472 1213.46 91.96 1214.99C88.632 1224.89 84.536 1235.34 79.672 1246.35C74.808 1257.27 70.456 1265.51 66.616 1271.06C61.496 1278.99 57.1013 1282.96 53.432 1282.96C50.7867 1282.96 48.2267 1282.02 45.752 1280.14C43.3627 1278.27 41.272 1276.18 39.48 1273.87C36.5787 1270.37 34.3173 1266.58 32.696 1262.48C31.0747 1258.3 30.264 1254.12 30.264 1249.94C30.264 1240.81 32.8667 1232.49 38.072 1224.98C43.3627 1217.38 50.232 1211.41 58.68 1207.06C67.128 1202.7 75.96 1200.53 85.176 1200.53ZM57.4 1262.22C60.3867 1257.45 63.928 1250.58 68.024 1241.62C72.12 1232.66 75.6187 1224.08 78.52 1215.89C78.6907 1215.55 78.776 1215.08 78.776 1214.48C78.776 1213.88 78.5627 1213.41 78.136 1213.07C77.7947 1212.73 77.3253 1212.56 76.728 1212.56C76.3013 1212.56 75.96 1212.6 75.704 1212.69C69.816 1213.97 64.312 1216.44 59.192 1220.11C54.072 1223.7 49.976 1228.01 46.904 1233.04C43.9173 1238.07 42.424 1243.19 42.424 1248.4C42.424 1252.15 43.448 1255.99 45.496 1259.92C46.6053 1262.22 47.7147 1264.06 48.824 1265.42C50.0187 1266.79 51.0853 1267.47 52.024 1267.47C52.7067 1267.47 53.432 1267.09 54.2 1266.32C54.968 1265.55 56.0347 1264.19 57.4 1262.22Z" fill="#212529"/>
</svg>
