<svg width="166" height="1218" viewBox="0 0 166 1218" fill="none" xmlns="http://www.w3.org/2000/svg">
<path d="M0 0H166V1218H0V0Z" fill="#4FBABC"/>
<path d="M61.752 54.288C59.6187 54.3733 57.6987 54.544 55.992 54.8C53.8587 55.056 52.7067 54.16 52.536 52.112L52.152 43.152C52.152 41.0187 53.2613 40.08 55.48 40.336C56.248 40.4213 58.5093 40.5493 62.264 40.72L73.016 40.848C81.3787 41.0187 87.0107 41.104 89.912 41.104C96.4827 41.104 101.091 41.0613 103.736 40.976L106.68 40.848C107.448 40.848 109.453 40.7627 112.696 40.592C113.72 40.4213 114.531 40.592 115.128 41.104C115.725 41.616 116.024 42.3413 116.024 43.28C116.109 43.9627 116.152 45.072 116.152 46.608C116.152 48.912 116.109 50.6187 116.024 51.728C115.939 52.6667 115.597 53.392 115 53.904C114.403 54.416 113.635 54.5867 112.696 54.416C110.136 54.2453 108.173 54.16 106.808 54.16L103.864 54.032C97.72 53.8613 91.6187 53.776 85.56 53.776C74.3813 53.776 66.4453 53.9467 61.752 54.288ZM123.832 70.416C125.112 70.416 125.923 70.672 126.264 71.184C126.691 71.696 126.904 72.3787 126.904 73.232C126.904 73.9147 126.861 74.4693 126.776 74.896C125.752 79.5893 123.107 85.9893 118.84 94.096C114.573 102.117 107.875 110.608 98.744 119.568C89.6133 128.528 78.0933 136.037 64.184 142.096C63.5867 142.352 63.032 142.309 62.52 141.968C62.008 141.712 61.24 141.029 60.216 139.92C58.7653 138.299 56.9733 136.635 54.84 134.928C53.9013 134.245 53.432 133.52 53.432 132.752C53.432 131.899 54.0293 131.301 55.224 130.96C62.392 128.485 69.5173 124.987 76.6 120.464C83.6827 115.941 90.04 110.779 95.672 104.976C101.304 99.088 105.571 92.944 108.472 86.544C108.728 86.032 108.856 85.52 108.856 85.008C108.856 84.4107 108.643 83.9413 108.216 83.6C107.789 83.1733 107.192 82.96 106.424 82.96H101.432C85.3893 82.96 70.1147 83.216 55.608 83.728L51 83.984C49.8053 83.984 47.928 84.0693 45.368 84.24C44.4293 84.4107 43.6613 84.24 43.064 83.728C42.4667 83.216 42.1253 82.4907 42.04 81.552C41.8693 77.7973 41.784 75.024 41.784 73.232C41.784 71.44 42.7227 70.544 44.6 70.544C46.392 70.544 47.8427 70.5867 48.952 70.672C50.1467 70.7573 51.128 70.8 51.896 70.8C59.4907 70.7147 70.1147 70.6293 83.768 70.544C97.4213 70.4587 110.776 70.416 123.832 70.416Z" fill="#212529"/>
<path d="M62.136 201.36C61.5387 202.128 60.8133 202.512 59.96 202.512C59.2773 202.512 58.552 202.128 57.784 201.36C52.5787 196.411 46.264 191.035 38.84 185.232C37.9013 184.549 37.432 183.781 37.432 182.928C37.432 182.416 37.7733 181.733 38.456 180.88L43.96 175.376C44.6427 174.693 45.4533 174.352 46.392 174.352C47.16 174.352 47.8 174.565 48.312 174.992C51.384 176.955 54.7547 179.387 58.424 182.288C62.0933 185.189 65.2507 187.877 67.896 190.352C68.664 191.12 69.048 191.845 69.048 192.528C69.048 193.04 68.8347 193.595 68.408 194.192L64.696 198.416L62.136 201.36ZM55.224 260.24C54.7973 260.667 54.3707 260.923 53.944 261.008C53.5173 261.093 53.176 261.051 52.92 260.88L52.28 260.496C51.3413 259.557 50.1467 258.064 48.696 256.016C47.2453 253.968 46.0507 251.877 45.112 249.744C44.856 249.232 44.728 248.805 44.728 248.464C44.728 247.184 45.624 246.331 47.416 245.904C48.184 245.733 49.592 245.264 51.64 244.496C63.416 238.864 76.1307 231.141 89.784 221.328C103.523 211.515 115.896 201.019 126.904 189.84C127.587 189.157 128.269 188.816 128.952 188.816C129.891 188.816 130.488 189.627 130.744 191.248L132.024 197.008C132.621 199.227 132.92 200.677 132.92 201.36C132.92 202.043 132.835 202.469 132.664 202.64C132.493 202.811 132.408 202.939 132.408 203.024C121.997 213.179 110.307 223.12 97.336 232.848C84.4507 242.491 71.352 250.853 58.04 257.936C56.9307 258.448 55.992 259.216 55.224 260.24Z" fill="#212529"/>
<path d="M130.36 336.272C132.323 336.101 133.389 337.04 133.56 339.088C133.56 341.136 133.475 344.037 133.304 347.792C133.304 349.755 132.237 350.736 130.104 350.736C118.84 349.968 107.277 349.584 95.416 349.584C93.5387 349.584 92.4293 350.523 92.088 352.4C90.04 362.469 86.4133 371.045 81.208 378.128C76.0027 385.211 68.28 391.739 58.04 397.712C57.3573 398.053 56.888 398.224 56.632 398.224C56.4613 398.224 56.0773 398.011 55.48 397.584C54.8827 397.157 54.456 396.859 54.2 396.688C52.3227 394.981 50.4027 393.531 48.44 392.336C47.3307 391.483 46.776 390.757 46.776 390.16C46.776 389.392 47.3307 388.752 48.44 388.24C56.4613 384.315 62.904 379.451 67.768 373.648C72.7173 367.76 76.344 360.891 78.648 353.04C78.7333 352.784 78.776 352.443 78.776 352.016C78.776 351.333 78.5627 350.779 78.136 350.352C77.7093 349.925 77.112 349.712 76.344 349.712C64.824 349.712 51.9813 350.096 37.816 350.864C35.768 351.035 34.6587 350.053 34.488 347.92C34.4027 346.299 34.36 343.781 34.36 340.368C34.36 338.235 35.384 337.253 37.432 337.424C45.368 337.68 54.968 337.808 66.232 337.808C71.608 337.808 75.6613 337.765 78.392 337.68C80.3547 337.68 81.4213 336.699 81.592 334.736C81.6773 333.627 81.72 331.963 81.72 329.744C81.72 327.952 81.6347 325.093 81.464 321.168C80.44 320.144 79.288 319.845 78.008 320.272C71.2667 321.979 64.2267 323.301 56.888 324.24C54.84 324.496 53.3893 324.624 52.536 324.624C52.1947 324.624 51.8107 324.368 51.384 323.856C51.0427 323.259 50.616 322.491 50.104 321.552C49.2507 320.101 48.3547 318.608 47.416 317.072C46.904 316.304 46.648 315.621 46.648 315.024C46.648 313.829 47.416 313.189 48.952 313.104C57.7413 312.507 67 310.757 76.728 307.856C86.456 304.869 95.16 300.816 102.84 295.696L104.504 294.544C105.357 293.861 106.125 293.52 106.808 293.52C107.576 293.52 108.259 293.947 108.856 294.8C110.989 297.616 112.653 300.005 113.848 301.968C114.104 302.395 114.36 302.821 114.616 303.248C114.957 303.589 115.256 303.973 115.512 304.4C115.683 304.912 115.768 305.211 115.768 305.296C115.768 305.637 115.555 305.893 115.128 306.064C114.701 306.149 114.104 306.235 113.336 306.32C112.568 306.32 111.971 306.405 111.544 306.576C111.288 306.576 110.733 306.747 109.88 307.088C104.504 310.075 99.128 312.635 93.752 314.768C92.3867 315.365 91.448 316.005 90.936 316.688C90.5093 317.285 90.7227 317.627 91.576 317.712L95.032 318.608C95.544 318.779 95.928 318.992 96.184 319.248C96.44 319.504 96.568 319.888 96.568 320.4C96.568 320.741 96.312 321.424 95.8 322.448C95.288 323.472 94.9893 324.453 94.904 325.392C94.7333 329.317 94.5627 332.304 94.392 334.352C94.3067 335.291 94.5627 336.059 95.16 336.656C95.7573 337.168 96.6107 337.424 97.72 337.424C105.059 337.424 115.939 337.04 130.36 336.272Z" fill="#212529"/>
<path d="M84.408 513.808C88.3333 513.808 92.6427 513.552 97.336 513.04C102.115 512.528 106.04 511.803 109.112 510.864C109.795 510.693 110.221 510.608 110.392 510.608C111.672 510.608 112.397 511.547 112.568 513.424C112.653 515.899 112.909 518.544 113.336 521.36V521.872C113.336 523.323 112.44 524.176 110.648 524.432C102.456 525.456 94.008 525.968 85.304 525.968C75.9173 525.968 68.5787 524.517 63.288 521.616C58.0827 518.715 55.48 514.363 55.48 508.56C55.48 503.781 57.4 499.429 61.24 495.504C65.08 491.493 70.2427 487.568 76.728 483.728L80.696 481.424C81.976 480.741 82.616 479.803 82.616 478.608C82.616 478.096 82.5733 477.712 82.488 477.456C80.8667 472.165 77.8373 469.52 73.4 469.52C71.1813 469.52 68.792 470.544 66.232 472.592C63.672 474.555 61.24 476.859 58.936 479.504C56.7173 482.064 53.4747 485.989 49.208 491.28C48.8667 491.707 48.568 492.091 48.312 492.432C48.1413 492.688 47.9707 492.859 47.8 492.944L47.544 493.328C46.8613 494.267 46.0933 494.736 45.24 494.736C44.6427 494.736 44.0027 494.48 43.32 493.968C41.1867 492.176 39.096 490.341 37.048 488.464C36.28 487.696 35.896 486.971 35.896 486.288C35.896 485.605 36.2373 485.008 36.92 484.496C37.7733 483.984 38.5413 483.472 39.224 482.96C46.7333 476.219 53.3467 467.515 59.064 456.848C59.4053 455.995 59.576 455.44 59.576 455.184C59.576 454.587 59.32 454.16 58.808 453.904C58.3813 453.563 57.784 453.392 57.016 453.392L53.688 453.52C53.0053 453.605 51.9813 453.648 50.616 453.648C48.9093 453.648 47.6293 453.605 46.776 453.52C45.0693 453.349 44.0453 452.411 43.704 450.704L42.296 444.304C42.2107 444.048 42.168 443.707 42.168 443.28C42.168 442.512 42.424 441.957 42.936 441.616C43.5333 441.189 44.2587 441.019 45.112 441.104C48.44 441.36 51.5973 441.488 54.584 441.488C58.0827 441.488 61.1973 441.317 63.928 440.976C65.464 440.891 66.5733 439.995 67.256 438.288C69.56 431.632 70.9253 425.915 71.352 421.136C72.2053 419.173 73.272 418.277 74.552 418.448C78.4773 419.045 81.72 419.813 84.28 420.752C85.9867 421.691 86.84 422.459 86.84 423.056C86.84 423.397 86.6267 423.867 86.2 424.464C86.0293 424.635 85.688 424.976 85.176 425.488C84.7493 426 84.408 426.725 84.152 427.664C83.8107 429.2 83.3413 431.077 82.744 433.296C82.5733 433.979 82.488 434.405 82.488 434.576C82.488 435.771 83.0853 436.368 84.28 436.368C84.792 436.368 85.2187 436.283 85.56 436.112C88.4613 435.173 91.7467 433.851 95.416 432.144C96.0987 431.888 96.6533 431.76 97.08 431.76C98.2747 431.76 99 432.528 99.256 434.064L100.28 440.464V441.104C100.28 442.64 99.5547 443.664 98.104 444.176C92.5573 446.053 85.8587 447.931 78.008 449.808C76.5573 450.149 75.4907 451.003 74.808 452.368C73.528 454.672 72.3333 456.592 71.224 458.128C70.5413 459.152 70.2 459.963 70.2 460.56C70.2 460.901 70.4133 461.072 70.84 461.072C71.096 461.072 71.5227 460.944 72.12 460.688C74.3387 459.579 76.216 459.024 77.752 459.024C81.592 459.024 84.7493 460.176 87.224 462.48C89.784 464.784 91.7467 467.856 93.112 471.696C93.624 473.061 94.4347 473.744 95.544 473.744C96.056 473.744 96.568 473.616 97.08 473.36L105.144 469.904C113.165 466.491 118.371 464.101 120.76 462.736C121.528 462.224 122.168 461.968 122.68 461.968C123.448 461.968 124.131 462.48 124.728 463.504C125.069 464.187 125.709 465.339 126.648 466.96C127.587 468.581 128.397 470.16 129.08 471.696C129.336 472.208 129.464 472.677 129.464 473.104C129.464 474.469 128.611 475.28 126.904 475.536C123.405 476.133 119.096 477.243 113.976 478.864C108.941 480.485 103.693 482.448 98.232 484.752C96.696 485.349 95.928 485.989 95.928 486.672V502.288C95.928 504.336 94.9467 505.36 92.984 505.36C91.5333 505.445 89.3573 505.488 86.456 505.488C85.6027 505.488 84.92 505.232 84.408 504.72C83.9813 504.208 83.768 503.525 83.768 502.672C83.768 501.051 83.8533 498.789 84.024 495.888C84.024 495.035 83.8107 494.395 83.384 493.968C83.0427 493.456 82.5733 493.2 81.976 493.2C81.464 493.2 80.8667 493.413 80.184 493.84C71.992 499.045 67.896 503.525 67.896 507.28C67.896 510.096 69.3893 511.888 72.376 512.656C75.3627 513.424 79.3733 513.808 84.408 513.808Z" fill="#212529"/>
<path d="M88.632 611.472C88.632 612.411 88.888 613.179 89.4 613.776C89.9973 614.288 90.7653 614.544 91.704 614.544H125.88C129.123 614.544 132.28 614.416 135.352 614.16C137.485 614.16 138.595 615.056 138.68 616.848V622.992C138.509 624.955 137.4 625.851 135.352 625.68C129.976 625.253 124.344 625.04 118.456 625.04H104.504C103.651 625.04 102.968 625.211 102.456 625.552C102.029 625.893 101.816 626.32 101.816 626.832C101.816 627.6 102.243 628.283 103.096 628.88C107.789 632.464 113.08 635.749 118.968 638.736C124.941 641.723 131.043 644.24 137.272 646.288C138.637 646.8 139.32 647.483 139.32 648.336C139.32 648.933 139.021 649.573 138.424 650.256C137.315 651.536 136.077 653.157 134.712 655.12C133.944 656.229 133.048 656.784 132.024 656.784C131.768 656.784 131.299 656.699 130.616 656.528C123.704 653.968 116.92 650.725 110.264 646.8C103.608 642.789 97.6347 638.352 92.344 633.488C91.4907 632.805 90.808 632.464 90.296 632.464C89.784 632.464 89.3573 632.72 89.016 633.232C88.76 633.659 88.632 634.299 88.632 635.152V644.88C88.632 649.403 88.76 653.456 89.016 657.04V657.424C89.016 659.301 88.2053 660.283 86.584 660.368C85.816 660.453 84.536 660.496 82.744 660.496C80.952 660.496 79.672 660.453 78.904 660.368C77.112 660.283 76.3013 659.216 76.472 657.168C76.728 653.584 76.856 649.445 76.856 644.752V634.896C76.856 633.189 76.3013 632.336 75.192 632.336C74.5093 632.336 73.8267 632.677 73.144 633.36C67.9387 638.395 62.0507 642.96 55.48 647.056C48.9093 651.152 42.2107 654.565 35.384 657.296C34.872 657.552 34.4027 657.68 33.976 657.68C33.0373 657.68 32.1413 657.125 31.288 656.016C30.6907 655.077 29.4533 653.499 27.576 651.28C26.9787 650.341 26.68 649.701 26.68 649.36C26.68 648.507 27.3627 647.824 28.728 647.312C34.7867 645.179 40.76 642.533 46.648 639.376C52.536 636.133 57.8267 632.635 62.52 628.88C63.288 628.197 63.672 627.515 63.672 626.832C63.672 626.32 63.416 625.893 62.904 625.552C62.4773 625.211 61.8373 625.04 60.984 625.04H47.416C42.552 625.04 37.048 625.253 30.904 625.68C28.856 625.851 27.7467 624.955 27.576 622.992V616.464C27.7467 614.501 28.856 613.605 30.904 613.776C36.9627 614.288 44.1307 614.544 52.408 614.544H73.784C74.7227 614.544 75.448 614.288 75.96 613.776C76.5573 613.179 76.856 612.411 76.856 611.472V607.888C76.856 606.949 76.5573 606.224 75.96 605.712C75.448 605.115 74.7227 604.816 73.784 604.816H62.648C61.7093 604.816 60.9413 604.56 60.344 604.048C59.832 603.451 59.576 602.683 59.576 601.744V558.352C59.576 557.413 59.832 556.688 60.344 556.176C60.9413 555.579 61.7093 555.28 62.648 555.28H71.992C73.784 555.28 74.936 554.427 75.448 552.72C75.6187 552.037 76.1733 549.605 77.112 545.424C77.624 543.461 78.8613 542.651 80.824 542.992C83.64 543.504 86.1147 544.144 88.248 544.912C90.3813 545.68 91.3627 546.277 91.192 546.704C91.0213 547.131 90.5947 547.515 89.912 547.856C89.3147 548.197 88.8027 548.88 88.376 549.904C88.2907 550.16 88.2053 550.459 88.12 550.8C88.0347 551.056 87.9067 551.355 87.736 551.696C87.5653 552.379 87.48 552.848 87.48 553.104C87.48 554.555 88.376 555.28 90.168 555.28H96.568C100.067 555.28 103.437 555.109 106.68 554.768C107.107 554.768 107.32 554.939 107.32 555.28C106.893 559.547 106.68 564.709 106.68 570.768V580.624C106.68 581.477 106.851 582.16 107.192 582.672C107.533 583.099 107.96 583.312 108.472 583.312C109.069 583.312 109.752 582.885 110.52 582.032V581.904C111.117 581.051 111.928 580.624 112.952 580.624C113.549 580.624 114.147 580.795 114.744 581.136C118.84 583.269 123.064 585.701 127.416 588.432C131.853 591.077 135.565 593.552 138.552 595.856C139.405 596.453 139.832 597.221 139.832 598.16C139.832 598.928 139.533 599.611 138.936 600.208L135.48 604.304C134.883 605.157 134.157 605.584 133.304 605.584C132.536 605.584 131.853 605.285 131.256 604.688C125.539 599.909 118.584 595.173 110.392 590.48C109.795 590.139 109.24 589.968 108.728 589.968C108.131 589.968 107.619 590.224 107.192 590.736C106.851 591.163 106.68 591.803 106.68 592.656V601.744C106.68 602.683 106.381 603.451 105.784 604.048C105.272 604.56 104.547 604.816 103.608 604.816H91.704C90.7653 604.816 89.9973 605.115 89.4 605.712C88.888 606.224 88.632 606.949 88.632 607.888V611.472ZM126.264 566.032C123.192 569.104 120.333 571.664 117.688 573.712C117.005 574.309 116.237 574.608 115.384 574.608C114.616 574.608 113.976 574.395 113.464 573.968L109.88 571.536C108.941 570.853 108.472 570.128 108.472 569.36C108.472 568.592 108.856 567.909 109.624 567.312C115.683 562.021 120.845 556.645 125.112 551.184C125.795 550.245 126.563 549.776 127.416 549.776C128.184 549.776 128.867 550.032 129.464 550.544C131.597 552.165 133.389 553.744 134.84 555.28C136.291 556.816 136.845 557.797 136.504 558.224C136.163 558.651 135.523 558.907 134.584 558.992C133.731 559.077 132.792 559.632 131.768 560.656L126.264 566.032ZM47.928 559.504C50.744 562.064 53.1333 564.581 55.096 567.056C55.608 567.653 55.864 568.293 55.864 568.976C55.864 569.659 55.4373 570.427 54.584 571.28L50.744 574.736C50.1467 575.333 49.464 575.632 48.696 575.632C47.928 575.632 47.16 575.205 46.392 574.352C42.8933 569.573 37.816 564.539 31.16 559.248C30.3067 558.651 29.88 557.925 29.88 557.072C29.88 556.219 30.264 555.493 31.032 554.896L34.36 552.08C35.2133 551.397 35.9813 551.056 36.664 551.056C37.2613 551.056 37.9013 551.312 38.584 551.824C41.4853 553.957 44.6 556.517 47.928 559.504ZM95.416 567.568C95.416 566.629 95.1173 565.904 94.52 565.392C94.008 564.795 93.2827 564.496 92.344 564.496H73.4C72.4613 564.496 71.6933 564.795 71.096 565.392C70.584 565.904 70.328 566.629 70.328 567.568V572.56C70.328 573.499 70.584 574.267 71.096 574.864C71.6933 575.376 72.4613 575.632 73.4 575.632H92.344C93.2827 575.632 94.008 575.376 94.52 574.864C95.1173 574.267 95.416 573.499 95.416 572.56V567.568ZM52.024 582.544C52.4507 582.203 53.0053 582.032 53.688 582.032C54.7973 582.032 55.5653 582.715 55.992 584.08L57.272 587.92C57.4427 588.603 57.528 589.029 57.528 589.2C57.528 590.395 56.9733 591.291 55.864 591.888C49.0373 596.155 43.4907 599.568 39.224 602.128C38.2 602.811 37.176 603.451 36.152 604.048C35.2133 604.56 34.36 605.072 33.592 605.584C32.9947 605.925 32.3973 606.096 31.8 606.096C30.8613 606.096 30.0507 605.541 29.368 604.432L26.808 599.952C26.3813 599.099 26.168 598.416 26.168 597.904C26.168 597.051 26.552 596.453 27.32 596.112C30.9893 594.32 34.7867 592.272 38.712 589.968L52.024 582.544ZM95.416 587.408C95.416 586.469 95.1173 585.744 94.52 585.232C94.008 584.635 93.2827 584.336 92.344 584.336H73.4C72.4613 584.336 71.6933 584.635 71.096 585.232C70.584 585.744 70.328 586.469 70.328 587.408V592.528C70.328 593.467 70.584 594.235 71.096 594.832C71.6933 595.344 72.4613 595.6 73.4 595.6H92.344C93.2827 595.6 94.008 595.344 94.52 594.832C95.1173 594.235 95.416 593.467 95.416 592.528V587.408Z" fill="#212529"/>
<path d="M81.336 780.944C74.2533 780.944 68.152 779.493 63.032 776.592C57.912 773.691 54.6693 768.741 53.304 761.744C52.28 756.709 51.768 749.669 51.768 740.624C51.768 737.04 51.8533 732.347 52.024 726.544L52.152 722.448C52.408 714.341 52.536 708.027 52.536 703.504C52.536 698.469 52.4507 694.373 52.28 691.216C52.28 689.083 52.024 686.48 51.512 683.408L51.384 682.512C51.384 680.891 52.28 680.08 54.072 680.08C59.6187 680.251 63.5013 680.677 65.72 681.36C67.256 681.957 68.024 682.597 68.024 683.28C68.024 683.536 67.6827 684.432 67 685.968C66.4027 687.419 66.0613 689.253 65.976 691.472L65.592 699.92C65.5067 701.883 65.3787 705.168 65.208 709.776C65.0373 714.299 64.9093 718.608 64.824 722.704L64.696 729.232C64.5253 734.352 64.44 738.064 64.44 740.368C64.44 746.427 64.7387 751.504 65.336 755.6C65.848 759.696 67.5973 762.768 70.584 764.816C73.5707 766.779 77.112 767.76 81.208 767.76C88.4613 767.76 95.3733 765.712 101.944 761.616C108.6 757.435 114.317 752.315 119.096 746.256C119.693 745.403 120.333 744.976 121.016 744.976C121.955 744.976 122.595 745.744 122.936 747.28C123.448 749.072 123.875 750.523 124.216 751.632C124.643 752.741 124.941 753.595 125.112 754.192C125.88 756.325 126.264 757.648 126.264 758.16C125.411 759.525 124.557 760.635 123.704 761.488C116.451 768.4 109.411 773.392 102.584 776.464C95.7573 779.451 88.6747 780.944 81.336 780.944Z" fill="#212529"/>
<path d="M100.792 824.976C100.707 825.232 100.664 825.573 100.664 826C100.664 827.365 101.432 828.261 102.968 828.688C108.515 830.053 113.549 832.4 118.072 835.728C122.595 838.971 126.179 843.024 128.824 847.888C131.469 852.752 132.792 858.213 132.792 864.272C132.792 869.904 131.64 875.451 129.336 880.912C127.117 886.373 123.448 891.365 118.328 895.888C113.293 900.325 106.723 903.653 98.616 905.872C97.2507 906.213 96.2267 906.384 95.544 906.384C95.1173 906.384 94.648 906.171 94.136 905.744C93.7093 905.317 93.24 904.763 92.728 904.08C91.5333 902.544 90.3387 901.179 89.144 899.984C88.2907 899.131 87.864 898.363 87.864 897.68C87.864 896.827 88.5467 896.272 89.912 896.016C97.9333 894.139 105.059 890.597 111.288 885.392C117.517 880.187 120.632 873.189 120.632 864.4C120.632 860.816 119.779 857.317 118.072 853.904C116.451 850.491 114.019 847.504 110.776 844.944C107.619 842.299 103.864 840.421 99.512 839.312C99.256 839.227 98.9147 839.184 98.488 839.184C97.208 839.184 96.312 839.909 95.8 841.36C91.7893 853.051 87.608 862.821 83.256 870.672C82.9147 871.269 82.744 871.909 82.744 872.592C82.744 873.445 83.128 874.256 83.896 875.024C85.8587 876.731 86.7973 877.541 86.712 877.456C87.5653 878.224 87.992 878.992 87.992 879.76C87.992 880.528 87.6933 881.211 87.096 881.808C83.768 885.392 82.104 887.184 82.104 887.184C81.336 887.952 80.568 888.336 79.8 888.336C79.1173 888.336 78.4347 887.995 77.752 887.312L76.6 886.288C76.0027 885.52 75.32 885.136 74.552 885.136C73.784 885.136 73.0587 885.563 72.376 886.416C64.8667 894.523 57.1013 898.576 49.08 898.576C45.752 898.576 42.8507 897.68 40.376 895.888C37.9867 894.011 36.152 891.621 34.872 888.72C33.6773 885.733 33.08 882.661 33.08 879.504C33.08 873.701 34.2747 868.069 36.664 862.608C39.0533 857.147 42.424 852.112 46.776 847.504C47.544 846.565 47.928 845.712 47.928 844.944C47.928 844.347 47.8 843.749 47.544 843.152C46.264 840.677 44.4293 836.795 42.04 831.504C41.4427 829.968 40.7173 828.645 39.864 827.536C39.4373 826.683 39.224 826.043 39.224 825.616C39.224 824.507 39.864 823.781 41.144 823.44C44.728 822.075 48.0133 821.349 51 821.264H51.384C52.408 821.264 53.0053 821.52 53.176 822.032C53.2613 822.459 53.2613 822.885 53.176 823.312C53.176 823.739 53.176 824.123 53.176 824.464C53.176 825.147 53.304 825.957 53.56 826.896C55.0107 830.992 55.992 833.68 56.504 834.96C57.016 836.24 57.784 836.88 58.808 836.88C59.4053 836.88 60.0027 836.709 60.6 836.368C67.9387 831.931 75.9173 829.115 84.536 827.92C86.328 827.664 87.3947 826.725 87.736 825.104L89.656 816.4C90.0827 814.437 90.296 812.731 90.296 811.28C90.296 808.891 91.3627 807.952 93.496 808.464C97.4213 809.317 100.451 810.299 102.584 811.408C104.461 812.261 105.4 813.072 105.4 813.84C105.4 814.267 105.059 814.736 104.376 815.248C103.523 815.845 102.968 816.827 102.712 818.192L100.792 824.976ZM82.744 843.024C82.9147 842.341 83 841.915 83 841.744C83 841.147 82.7867 840.677 82.36 840.336C82.0187 839.909 81.5067 839.696 80.824 839.696C80.3973 839.696 80.056 839.739 79.8 839.824C74.936 840.933 69.9013 843.024 64.696 846.096C63.672 846.693 63.16 847.504 63.16 848.528C63.16 849.125 63.3307 849.723 63.672 850.32C65.8053 854.16 68.28 857.872 71.096 861.456C71.7787 862.395 72.504 862.864 73.272 862.864C74.04 862.864 74.68 862.352 75.192 861.328C77.6667 856.379 80.184 850.277 82.744 843.024ZM64.952 877.328C65.6347 876.475 65.976 875.749 65.976 875.152C65.976 874.555 65.6773 873.829 65.08 872.976C61.6667 868.453 58.552 863.675 55.736 858.64C55.1387 857.616 54.4133 857.104 53.56 857.104C52.7067 857.104 51.9813 857.531 51.384 858.384C47.8 863.419 45.5813 869.008 44.728 875.152C44.6427 875.664 44.6 876.432 44.6 877.456C44.6 879.931 45.112 882.021 46.136 883.728C47.16 885.349 48.44 886.16 49.976 886.16C54.4987 886.331 58.5947 884.368 62.264 880.272L64.952 877.328Z" fill="#212529"/>
<path d="M94.136 979.088C99.8533 979.088 104.973 980.155 109.496 982.288C114.104 984.421 117.688 987.493 120.248 991.504C122.893 995.429 124.216 999.995 124.216 1005.2C124.216 1012.37 122.339 1018.47 118.584 1023.5C114.915 1028.45 110.093 1032.17 104.12 1034.64C98.232 1037.11 92.0027 1038.35 85.432 1038.35C80.824 1038.35 76.4293 1037.71 72.248 1036.43C68.0667 1035.15 64.6533 1033.19 62.008 1030.54C59.448 1027.9 58.168 1024.7 58.168 1020.94C58.168 1016.68 59.704 1013.31 62.776 1010.83C65.9333 1008.27 69.688 1006.99 74.04 1006.99C78.7333 1006.99 83.0853 1008.31 87.096 1010.96C91.1067 1013.52 94.3067 1017.06 96.696 1021.58C97.3787 1022.86 98.1893 1023.5 99.128 1023.5C99.64 1023.5 100.195 1023.33 100.792 1022.99C104.205 1020.94 106.893 1018.43 108.856 1015.44C110.819 1012.45 111.8 1009.21 111.8 1005.71C111.8 1000.68 109.795 996.795 105.784 994.064C101.773 991.333 97.08 989.968 91.704 989.968C84.1947 989.968 76.856 991.675 69.688 995.088C62.6053 998.416 56.632 1002.21 51.768 1006.48C51.1707 1007.08 50.1893 1008.23 48.824 1009.94C48.1413 1010.87 47.3733 1011.34 46.52 1011.34C45.9227 1011.34 45.24 1011.09 44.472 1010.58C41.0587 1007.67 38.9253 1005.8 38.072 1004.94C37.3893 1004.26 37.048 1003.62 37.048 1003.02C37.048 1002.34 37.56 1001.57 38.584 1000.72C40.2907 999.44 42.04 997.904 43.832 996.112C53.048 986.981 60.1733 979.728 65.208 974.352C70.328 968.891 76.0027 962.277 82.232 954.512C82.8293 953.829 83.128 953.147 83.128 952.464C83.128 951.867 82.872 951.44 82.36 951.184C81.848 950.928 81.1227 950.885 80.184 951.056C74.296 952.336 67.3413 954.213 59.32 956.688L57.144 957.456C56.4613 957.712 55.9493 957.84 55.608 957.84C54.4133 957.84 53.56 957.2 53.048 955.92C51.8533 952.763 50.8293 949.904 49.976 947.344C49.72 946.661 49.592 946.064 49.592 945.552C49.592 944.443 50.0187 943.888 50.872 943.888L53.304 944.016C54.6693 944.016 56.12 943.931 57.656 943.76C60.728 943.333 66.1893 942.437 74.04 941.072C81.8907 939.707 88.248 938.469 93.112 937.36C94.5627 937.019 95.8853 936.507 97.08 935.824C97.6773 935.483 98.1893 935.312 98.616 935.312C99.7253 935.312 100.835 936.123 101.944 937.744C103.565 940.219 104.76 942.267 105.528 943.888C106.296 945.253 106.68 946.277 106.68 946.96V947.344C106.509 947.856 106.211 948.283 105.784 948.624C105.443 948.88 105.101 949.093 104.76 949.264C104.419 949.349 104.12 949.477 103.864 949.648C102.84 950.245 101.944 950.928 101.176 951.696C98.7867 954.085 96.5253 956.432 94.392 958.736C92.344 960.955 90.552 962.875 89.016 964.496C83.7253 970.299 78.9893 975.376 74.808 979.728C74.04 980.496 73.656 981.136 73.656 981.648C73.656 982.16 74.04 982.416 74.808 982.416C75.2347 982.416 75.9173 982.288 76.856 982.032C82.4027 980.069 88.1627 979.088 94.136 979.088ZM82.104 1027.6C82.5307 1027.6 83.0427 1027.34 83.64 1026.83C84.2373 1026.32 84.536 1025.72 84.536 1025.04C84.536 1024.53 84.408 1024.1 84.152 1023.76C81.336 1019.75 77.7093 1017.74 73.272 1017.74C70.5413 1017.74 69.176 1018.81 69.176 1020.94C69.176 1022.99 70.4987 1024.61 73.144 1025.81C75.8747 1027 78.8187 1027.6 81.976 1027.6H82.104Z" fill="#212529"/>
<path d="M62.648 1133.46C61.7947 1132.6 61.368 1131.79 61.368 1131.02C61.368 1130.34 61.624 1129.7 62.136 1129.1L112.44 1063.57C113.037 1062.71 113.763 1062.29 114.616 1062.29C115.469 1062.29 116.195 1062.59 116.792 1063.18L126.008 1070.74C126.776 1071.33 127.16 1072.06 127.16 1072.91C127.16 1073.77 126.861 1074.49 126.264 1075.09L70.456 1136.14C69.8587 1136.91 69.0907 1137.3 68.152 1137.3C67.384 1137.3 66.7013 1137 66.104 1136.4L62.648 1133.46ZM51.384 1163.28C50.7867 1164.13 50.0613 1164.56 49.208 1164.56C48.44 1164.56 47.7573 1164.26 47.16 1163.66L39.096 1156.88C38.2427 1156.28 37.816 1155.56 37.816 1154.7C37.816 1153.94 38.1147 1153.25 38.712 1152.66L45.496 1144.59C46.0933 1143.74 46.8187 1143.31 47.672 1143.31C48.44 1143.31 49.1227 1143.61 49.72 1144.21L57.784 1150.99C58.6373 1151.59 59.064 1152.31 59.064 1153.17C59.064 1153.94 58.7653 1154.62 58.168 1155.22L51.384 1163.28Z" fill="#212529"/>
</svg>
