<svg width="763" height="90" viewBox="0 0 763 90" fill="none" xmlns="http://www.w3.org/2000/svg">
<path d="M36.6828 25.2C41.8028 25.2 46.3628 26.2 50.3628 28.2C54.4428 30.2 57.6428 33.28 59.9628 37.44C62.2828 41.52 63.4428 46.8 63.4428 53.28V90H48.4428V55.2C48.4428 49.52 47.0828 45.28 44.3628 42.48C41.7228 39.68 38.0028 38.28 33.2028 38.28C29.6828 38.28 26.5628 39 23.8428 40.44C21.1228 41.88 19.0028 44.04 17.4828 46.92C16.0428 49.72 15.3228 53.28 15.3228 57.6V90H0.322788V25.92H14.6028V43.2L12.0828 37.92C14.3228 33.84 17.5628 30.72 21.8028 28.56C26.1228 26.32 31.0828 25.2 36.6828 25.2ZM106.588 90.84C100.028 90.84 94.1884 89.44 89.0684 86.64C83.9484 83.76 79.9084 79.84 76.9484 74.88C73.9884 69.92 72.5084 64.28 72.5084 57.96C72.5084 51.56 73.9884 45.92 76.9484 41.04C79.9084 36.08 83.9484 32.2 89.0684 29.4C94.1884 26.6 100.028 25.2 106.588 25.2C113.228 25.2 119.108 26.6 124.228 29.4C129.428 32.2 133.468 36.04 136.348 40.92C139.308 45.8 140.788 51.48 140.788 57.96C140.788 64.28 139.308 69.92 136.348 74.88C133.468 79.84 129.428 83.76 124.228 86.64C119.108 89.44 113.228 90.84 106.588 90.84ZM106.588 78C110.268 78 113.548 77.2 116.428 75.6C119.308 74 121.548 71.68 123.148 68.64C124.828 65.6 125.668 62.04 125.668 57.96C125.668 53.8 124.828 50.24 123.148 47.28C121.548 44.24 119.308 41.92 116.428 40.32C113.548 38.72 110.308 37.92 106.708 37.92C103.028 37.92 99.7484 38.72 96.8684 40.32C94.0684 41.92 91.8284 44.24 90.1484 47.28C88.4684 50.24 87.6284 53.8 87.6284 57.96C87.6284 62.04 88.4684 65.6 90.1484 68.64C91.8284 71.68 94.0684 74 96.8684 75.6C99.7484 77.2 102.988 78 106.588 78ZM183.932 90.84C177.372 90.84 171.532 89.44 166.412 86.64C161.292 83.76 157.252 79.84 154.292 74.88C151.332 69.92 149.852 64.28 149.852 57.96C149.852 51.56 151.332 45.92 154.292 41.04C157.252 36.08 161.292 32.2 166.412 29.4C171.532 26.6 177.372 25.2 183.932 25.2C190.572 25.2 196.452 26.6 201.572 29.4C206.772 32.2 210.812 36.04 213.692 40.92C216.652 45.8 218.132 51.48 218.132 57.96C218.132 64.28 216.652 69.92 213.692 74.88C210.812 79.84 206.772 83.76 201.572 86.64C196.452 89.44 190.572 90.84 183.932 90.84ZM183.932 78C187.612 78 190.892 77.2 193.772 75.6C196.652 74 198.892 71.68 200.492 68.64C202.172 65.6 203.012 62.04 203.012 57.96C203.012 53.8 202.172 50.24 200.492 47.28C198.892 44.24 196.652 41.92 193.772 40.32C190.892 38.72 187.652 37.92 184.052 37.92C180.372 37.92 177.092 38.72 174.212 40.32C171.412 41.92 169.172 44.24 167.492 47.28C165.812 50.24 164.972 53.8 164.972 57.96C164.972 62.04 165.812 65.6 167.492 68.64C169.172 71.68 171.412 74 174.212 75.6C177.092 77.2 180.332 78 183.932 78ZM239.916 75.72L240.276 56.88L273.756 25.92H291.756L263.316 54.48L255.396 61.08L239.916 75.72ZM227.676 90V0.959995H242.676V90H227.676ZM276.036 90L252.636 61.08L262.116 49.08L294.276 90H276.036ZM329.556 91.2C323.716 91.2 318.476 90.24 313.836 88.32C309.196 86.4 305.556 83.76 302.916 80.4C300.276 77.04 298.956 73.16 298.956 68.76C298.956 64.76 299.836 61.16 301.596 57.96C303.356 54.76 306.156 51.72 309.996 48.84C313.836 45.88 318.756 42.92 324.756 39.96C329.476 37.64 333.156 35.6 335.796 33.84C338.516 32.08 340.396 30.4 341.436 28.8C342.556 27.2 343.116 25.52 343.116 23.76C343.116 21.36 342.276 19.44 340.596 18C338.916 16.48 336.516 15.72 333.396 15.72C330.036 15.72 327.396 16.56 325.476 18.24C323.636 19.84 322.716 21.96 322.716 24.6C322.716 25.96 322.956 27.28 323.436 28.56C323.996 29.84 324.956 31.28 326.316 32.88C327.676 34.48 329.636 36.52 332.196 39L376.596 81.6L368.316 91.32L320.316 45.24C317.596 42.6 315.396 40.16 313.716 37.92C312.036 35.68 310.836 33.52 310.116 31.44C309.396 29.28 309.036 27.08 309.036 24.84C309.036 20.92 310.036 17.48 312.036 14.52C314.036 11.48 316.876 9.15999 320.556 7.56C324.236 5.88 328.516 5.04 333.396 5.04C337.956 5.04 341.876 5.8 345.156 7.32C348.516 8.76 351.116 10.88 352.956 13.68C354.876 16.4 355.836 19.68 355.836 23.52C355.836 26.88 354.996 30 353.316 32.88C351.636 35.68 348.996 38.36 345.396 40.92C341.876 43.48 337.156 46.16 331.236 48.96C326.836 51.12 323.356 53.16 320.796 55.08C318.236 57 316.396 58.92 315.276 60.84C314.156 62.76 313.596 64.88 313.596 67.2C313.596 69.52 314.276 71.56 315.636 73.32C317.076 75.08 319.076 76.48 321.636 77.52C324.196 78.48 327.196 78.96 330.636 78.96C335.756 78.96 340.396 77.84 344.556 75.6C348.796 73.28 352.356 69.84 355.236 65.28C358.116 60.72 360.196 55.08 361.476 48.36L373.596 52.32C371.916 60.4 368.996 67.36 364.836 73.2C360.756 78.96 355.716 83.4 349.716 86.52C343.716 89.64 336.996 91.2 329.556 91.2ZM419.202 90.84C412.482 90.84 406.482 89.44 401.202 86.64C396.002 83.76 391.922 79.84 388.962 74.88C386.002 69.92 384.522 64.28 384.522 57.96C384.522 51.56 386.002 45.92 388.962 41.04C391.922 36.08 396.002 32.2 401.202 29.4C406.482 26.6 412.482 25.2 419.202 25.2C425.442 25.2 430.922 26.48 435.642 29.04C440.442 31.52 444.082 35.2 446.562 40.08L435.042 46.8C433.122 43.76 430.762 41.52 427.962 40.08C425.242 38.64 422.282 37.92 419.082 37.92C415.402 37.92 412.082 38.72 409.122 40.32C406.162 41.92 403.842 44.24 402.162 47.28C400.482 50.24 399.642 53.8 399.642 57.96C399.642 62.12 400.482 65.72 402.162 68.76C403.842 71.72 406.162 74 409.122 75.6C412.082 77.2 415.402 78 419.082 78C422.282 78 425.242 77.28 427.962 75.84C430.762 74.4 433.122 72.16 435.042 69.12L446.562 75.84C444.082 80.64 440.442 84.36 435.642 87C430.922 89.56 425.442 90.84 419.202 90.84ZM488.592 90.84C482.032 90.84 476.192 89.44 471.072 86.64C465.952 83.76 461.912 79.84 458.952 74.88C455.992 69.92 454.512 64.28 454.512 57.96C454.512 51.56 455.992 45.92 458.952 41.04C461.912 36.08 465.952 32.2 471.072 29.4C476.192 26.6 482.032 25.2 488.592 25.2C495.232 25.2 501.112 26.6 506.232 29.4C511.432 32.2 515.472 36.04 518.352 40.92C521.312 45.8 522.792 51.48 522.792 57.96C522.792 64.28 521.312 69.92 518.352 74.88C515.472 79.84 511.432 83.76 506.232 86.64C501.112 89.44 495.232 90.84 488.592 90.84ZM488.592 78C492.272 78 495.552 77.2 498.432 75.6C501.312 74 503.552 71.68 505.152 68.64C506.832 65.6 507.672 62.04 507.672 57.96C507.672 53.8 506.832 50.24 505.152 47.28C503.552 44.24 501.312 41.92 498.432 40.32C495.552 38.72 492.312 37.92 488.712 37.92C485.032 37.92 481.752 38.72 478.872 40.32C476.072 41.92 473.832 44.24 472.152 47.28C470.472 50.24 469.632 53.8 469.632 57.96C469.632 62.04 470.472 65.6 472.152 68.64C473.832 71.68 476.072 74 478.872 75.6C481.752 77.2 484.992 78 488.592 78ZM539.175 90V22.32C539.175 15.6 541.135 10.24 545.055 6.24C549.055 2.16 554.735 0.119998 562.095 0.119998C564.735 0.119998 567.215 0.399997 569.535 0.959995C571.935 1.52 573.935 2.4 575.535 3.6L571.455 14.88C570.335 14 569.055 13.36 567.615 12.96C566.175 12.48 564.695 12.24 563.175 12.24C560.055 12.24 557.695 13.12 556.095 14.88C554.495 16.56 553.695 19.12 553.695 22.56V29.76L554.175 36.48V90H539.175ZM528.615 38.4V26.4H571.335V38.4H528.615ZM587.424 90V22.32C587.424 15.6 589.384 10.24 593.304 6.24C597.304 2.16 602.984 0.119998 610.344 0.119998C612.984 0.119998 615.464 0.399997 617.784 0.959995C620.184 1.52 622.184 2.4 623.784 3.6L619.704 14.88C618.584 14 617.304 13.36 615.864 12.96C614.424 12.48 612.944 12.24 611.424 12.24C608.304 12.24 605.944 13.12 604.344 14.88C602.744 16.56 601.944 19.12 601.944 22.56V29.76L602.424 36.48V90H587.424ZM576.864 38.4V26.4H619.584V38.4H576.864ZM660.063 90.84C652.943 90.84 646.703 89.44 641.343 86.64C636.063 83.76 631.943 79.84 628.983 74.88C626.103 69.92 624.663 64.28 624.663 57.96C624.663 51.56 626.063 45.92 628.863 41.04C631.743 36.08 635.663 32.2 640.623 29.4C645.663 26.6 651.383 25.2 657.783 25.2C664.023 25.2 669.583 26.56 674.463 29.28C679.343 32 683.183 35.84 685.983 40.8C688.783 45.76 690.183 51.6 690.183 58.32C690.183 58.96 690.143 59.68 690.063 60.48C690.063 61.28 690.023 62.04 689.943 62.76H636.543V52.8H682.023L676.143 55.92C676.223 52.24 675.463 49 673.863 46.2C672.263 43.4 670.063 41.2 667.263 39.6C664.543 38 661.383 37.2 657.783 37.2C654.103 37.2 650.863 38 648.063 39.6C645.343 41.2 643.183 43.44 641.583 46.32C640.063 49.12 639.303 52.44 639.303 56.28V58.68C639.303 62.52 640.183 65.92 641.943 68.88C643.703 71.84 646.183 74.12 649.383 75.72C652.583 77.32 656.263 78.12 660.423 78.12C664.023 78.12 667.263 77.56 670.143 76.44C673.023 75.32 675.583 73.56 677.823 71.16L685.863 80.4C682.983 83.76 679.343 86.36 674.943 88.2C670.623 89.96 665.663 90.84 660.063 90.84ZM732.312 90.84C725.192 90.84 718.952 89.44 713.592 86.64C708.312 83.76 704.192 79.84 701.232 74.88C698.352 69.92 696.912 64.28 696.912 57.96C696.912 51.56 698.312 45.92 701.112 41.04C703.992 36.08 707.912 32.2 712.872 29.4C717.912 26.6 723.632 25.2 730.032 25.2C736.272 25.2 741.832 26.56 746.712 29.28C751.592 32 755.432 35.84 758.232 40.8C761.032 45.76 762.432 51.6 762.432 58.32C762.432 58.96 762.392 59.68 762.312 60.48C762.312 61.28 762.272 62.04 762.192 62.76H708.792V52.8H754.272L748.392 55.92C748.472 52.24 747.712 49 746.112 46.2C744.512 43.4 742.312 41.2 739.512 39.6C736.792 38 733.632 37.2 730.032 37.2C726.352 37.2 723.112 38 720.312 39.6C717.592 41.2 715.432 43.44 713.832 46.32C712.312 49.12 711.552 52.44 711.552 56.28V58.68C711.552 62.52 712.432 65.92 714.192 68.88C715.952 71.84 718.432 74.12 721.632 75.72C724.832 77.32 728.512 78.12 732.672 78.12C736.272 78.12 739.512 77.56 742.392 76.44C745.272 75.32 747.832 73.56 750.072 71.16L758.112 80.4C755.232 83.76 751.592 86.36 747.192 88.2C742.872 89.96 737.912 90.84 732.312 90.84Z" fill="#4FBABC"/>
</svg>
