<svg width="2018" height="190" viewBox="0 0 2018 190" fill="none" xmlns="http://www.w3.org/2000/svg">
<path d="M1884.37 186V4H1926.49V151.68H2017.75V186H1884.37Z" fill="white"/>
<path d="M1572.26 186L1512.72 4H1556.4L1608.14 165.2H1586.3L1640.38 4H1679.38L1731.38 165.2H1710.32L1763.36 4H1803.66L1744.12 186H1698.88L1652.86 44.56H1664.82L1617.5 186H1572.26Z" fill="white"/>
<path d="M1346.24 189.12C1331.86 189.12 1318.51 186.78 1306.2 182.1C1294.07 177.42 1283.5 170.833 1274.48 162.34C1265.64 153.847 1258.71 143.88 1253.68 132.44C1248.83 121 1246.4 108.52 1246.4 95C1246.4 81.48 1248.83 69 1253.68 57.56C1258.71 46.12 1265.73 36.1533 1274.74 27.66C1283.76 19.1667 1294.33 12.58 1306.46 7.89999C1318.6 3.22 1331.77 0.880005 1345.98 0.880005C1360.37 0.880005 1373.54 3.22 1385.5 7.89999C1397.64 12.58 1408.12 19.1667 1416.96 27.66C1425.98 36.1533 1433 46.12 1438.02 57.56C1443.05 68.8267 1445.56 81.3067 1445.56 95C1445.56 108.52 1443.05 121.087 1438.02 132.7C1433 144.14 1425.98 154.107 1416.96 162.6C1408.12 170.92 1397.64 177.42 1385.5 182.1C1373.54 186.78 1360.46 189.12 1346.24 189.12ZM1345.98 153.24C1354.13 153.24 1361.58 151.853 1368.34 149.08C1375.28 146.307 1381.34 142.32 1386.54 137.12C1391.74 131.92 1395.73 125.767 1398.5 118.66C1401.45 111.553 1402.92 103.667 1402.92 95C1402.92 86.3333 1401.45 78.4467 1398.5 71.34C1395.73 64.2333 1391.74 58.08 1386.54 52.88C1381.52 47.68 1375.54 43.6933 1368.6 40.92C1361.67 38.1467 1354.13 36.76 1345.98 36.76C1337.84 36.76 1330.3 38.1467 1323.36 40.92C1316.6 43.6933 1310.62 47.68 1305.42 52.88C1300.22 58.08 1296.15 64.2333 1293.2 71.34C1290.43 78.4467 1289.04 86.3333 1289.04 95C1289.04 103.493 1290.43 111.38 1293.2 118.66C1296.15 125.767 1300.14 131.92 1305.16 137.12C1310.36 142.32 1316.43 146.307 1323.36 149.08C1330.3 151.853 1337.84 153.24 1345.98 153.24Z" fill="white"/>
<path d="M1001.83 186V4H1090.75C1113.63 4 1130.79 8.33334 1142.23 17C1153.85 25.6667 1159.65 37.1067 1159.65 51.32C1159.65 60.8533 1157.31 69.1733 1152.63 76.28C1147.95 83.2133 1141.54 88.5867 1133.39 92.4C1125.25 96.2133 1115.89 98.12 1105.31 98.12L1110.25 87.46C1121.69 87.46 1131.83 89.3667 1140.67 93.18C1149.51 96.82 1156.36 102.28 1161.21 109.56C1166.24 116.84 1168.75 125.767 1168.75 136.34C1168.75 151.94 1162.6 164.16 1150.29 173C1137.99 181.667 1119.87 186 1095.95 186H1001.83ZM1043.69 154.28H1092.83C1103.75 154.28 1111.99 152.547 1117.53 149.08C1123.25 145.44 1126.11 139.72 1126.11 131.92C1126.11 124.293 1123.25 118.66 1117.53 115.02C1111.99 111.207 1103.75 109.3 1092.83 109.3H1040.57V78.62H1085.55C1095.78 78.62 1103.58 76.8867 1108.95 73.42C1114.5 69.78 1117.27 64.32 1117.27 57.04C1117.27 49.9333 1114.5 44.6467 1108.95 41.18C1103.58 37.54 1095.78 35.72 1085.55 35.72H1043.69V154.28Z" fill="white"/>
<path d="M678.107 77.32H765.727V110.08H678.107V77.32ZM681.227 152.2H780.287V186H639.367V4H776.907V37.8H681.227V152.2Z" fill="white"/>
<path d="M478.584 189.12C464.544 189.12 451.457 186.867 439.324 182.36C427.364 177.68 416.964 171.093 408.124 162.6C399.284 154.107 392.351 144.14 387.324 132.7C382.471 121.26 380.044 108.693 380.044 95C380.044 81.3067 382.471 68.74 387.324 57.3C392.351 45.86 399.284 35.8933 408.124 27.4C417.137 18.9067 427.624 12.4067 439.584 7.89999C451.544 3.22 464.631 0.880005 478.844 0.880005C494.617 0.880005 508.831 3.65334 521.484 9.2C534.311 14.5733 545.057 22.5467 553.724 33.12L526.684 58.08C520.444 50.9733 513.511 45.6867 505.884 42.22C498.257 38.58 489.937 36.76 480.924 36.76C472.431 36.76 464.631 38.1467 457.524 40.92C450.417 43.6933 444.264 47.68 439.064 52.88C433.864 58.08 429.791 64.2333 426.844 71.34C424.071 78.4467 422.684 86.3333 422.684 95C422.684 103.667 424.071 111.553 426.844 118.66C429.791 125.767 433.864 131.92 439.064 137.12C444.264 142.32 450.417 146.307 457.524 149.08C464.631 151.853 472.431 153.24 480.924 153.24C489.937 153.24 498.257 151.507 505.884 148.04C513.511 144.4 520.444 138.94 526.684 131.66L553.724 156.62C545.057 167.193 534.311 175.253 521.484 180.8C508.831 186.347 494.531 189.12 478.584 189.12Z" fill="white"/>
<path d="M248.972 186V4H291.092V186H248.972Z" fill="white"/>
<path d="M0.580078 186V4H79.3601C95.6534 4 109.693 6.68667 121.48 12.06C133.267 17.26 142.367 24.8 148.78 34.68C155.193 44.56 158.4 56.3467 158.4 70.04C158.4 83.56 155.193 95.26 148.78 105.14C142.367 114.847 133.267 122.3 121.48 127.5C109.693 132.7 95.6534 135.3 79.3601 135.3H23.9801L42.7001 116.84V186H0.580078ZM116.28 186L70.7801 119.96H115.76L161.78 186H116.28ZM42.7001 121.52L23.9801 101.76H77.0201C90.0201 101.76 99.7267 98.9867 106.14 93.44C112.553 87.72 115.76 79.92 115.76 70.04C115.76 59.9867 112.553 52.1867 106.14 46.64C99.7267 41.0933 90.0201 38.32 77.0201 38.32H23.9801L42.7001 18.3V121.52Z" fill="white"/>
</svg>
