<svg width="214" height="91" viewBox="0 0 214 91" fill="none" xmlns="http://www.w3.org/2000/svg">
<path d="M33.16 36.496L41.224 29.392C46.696 33.424 53.128 39.184 56.104 43.6L47.464 51.376C44.776 47.056 38.632 40.72 33.16 36.496ZM31.624 52.336H58.12V27.952H32.008V40.624C32.008 44.56 31.912 48.496 31.624 52.336ZM89.704 52.336V63.184H69.832V90.352H58.12V63.184H29.992C27.592 74.032 22.12 83.728 10.504 90.832C8.584 88.24 4.264 84.016 1.672 82.192C10.408 77.008 15.208 70.48 17.8 63.184H0.808004V52.336H20.104C20.584 48.592 20.68 44.656 20.68 40.624V27.952H3.784V17.296H20.68V0.975996H32.008V17.296H58.12V0.783998H69.832V17.296H86.728V27.952H69.832V52.336H89.704ZM160.264 43.024L161.8 53.104C158.344 54.064 154.984 55.216 151.432 56.272V90.448H140.968V59.44C135.784 60.976 130.984 62.512 126.568 63.664L123.784 52.816C128.584 51.76 134.44 50.224 140.968 48.4V30.064H134.536C133.48 34.768 132.328 38.896 130.984 42.352C129.256 40.912 125.032 38.32 122.92 37.072C125.896 29.488 127.528 17.488 128.392 6.16L137.896 7.79199C137.512 11.632 137.032 15.376 136.456 19.216H140.968V0.783998H151.432V19.216H159.4V30.064H151.432V45.52L160.264 43.024ZM177.352 15.568H213.448C213.448 15.568 213.352 19.408 213.256 20.752C211.432 63.568 209.704 79.216 206.056 84.016C203.848 87.28 201.736 88.336 198.568 89.008C195.88 89.488 191.848 89.488 187.72 89.296C187.432 86.032 186.28 81.328 184.552 78.16C188.104 78.544 191.272 78.544 193.096 78.544C194.536 78.544 195.496 78.16 196.648 76.72C199.048 73.648 200.776 60.592 202.312 26.128H201.832C197.128 50.32 187.24 75.28 171.784 88.048C169.576 85.84 165.64 83.056 162.472 81.424C177.832 70.384 187.432 48.592 192.232 26.128H187.72C183.496 41.776 175.432 58.96 165.736 68.176C163.624 65.968 159.976 63.376 157 61.744C166.504 54.256 173.992 40.048 178.216 26.128H173.32C170.536 32.752 167.176 38.704 163.432 43.312C161.608 41.488 157.096 38.32 154.792 36.88C162.376 28.528 167.656 14.8 170.536 0.687994L180.904 2.608C179.944 7.024 178.696 11.344 177.352 15.568Z" fill="white"/>
</svg>
