<svg width="190" height="2018" viewBox="0 0 190 2018" fill="none" xmlns="http://www.w3.org/2000/svg">
<path d="M4 0.580001L186 0.580001V79.36C186 95.6533 183.313 109.693 177.94 121.48C172.74 133.267 165.2 142.367 155.32 148.78C145.44 155.193 133.653 158.4 119.96 158.4C106.44 158.4 94.74 155.193 84.86 148.78C75.1533 142.367 67.7 133.267 62.5 121.48C57.3 109.693 54.7 95.6533 54.7 79.36V23.98L73.16 42.7H4V0.580001ZM4 116.28L70.04 70.78V115.76L4 161.78V116.28ZM68.48 42.7L88.24 23.98V77.02C88.24 90.02 91.0133 99.7267 96.56 106.14C102.28 112.553 110.08 115.76 119.96 115.76C130.013 115.76 137.813 112.553 143.36 106.14C148.907 99.7267 151.68 90.02 151.68 77.02V23.98L171.7 42.7L68.48 42.7ZM4 248.971H186V291.091H4V248.971ZM0.88 478.584C0.88 464.544 3.13333 451.457 7.64 439.324C12.32 427.364 18.9067 416.964 27.4 408.124C35.8933 399.284 45.86 392.351 57.3 387.324C68.74 382.471 81.3067 380.044 95 380.044C108.693 380.044 121.26 382.471 132.7 387.324C144.14 392.351 154.107 399.284 162.6 408.124C171.093 417.137 177.593 427.624 182.1 439.584C186.78 451.544 189.12 464.631 189.12 478.844C189.12 494.617 186.347 508.831 180.8 521.484C175.427 534.311 167.453 545.057 156.88 553.724L131.92 526.684C139.027 520.444 144.313 513.511 147.78 505.884C151.42 498.257 153.24 489.937 153.24 480.924C153.24 472.431 151.853 464.631 149.08 457.524C146.307 450.417 142.32 444.264 137.12 439.064C131.92 433.864 125.767 429.791 118.66 426.844C111.553 424.071 103.667 422.684 95 422.684C86.3333 422.684 78.4467 424.071 71.34 426.844C64.2333 429.791 58.08 433.864 52.88 439.064C47.68 444.264 43.6933 450.417 40.92 457.524C38.1467 464.631 36.76 472.431 36.76 480.924C36.76 489.937 38.4933 498.257 41.96 505.884C45.6 513.511 51.06 520.444 58.34 526.684L33.38 553.724C22.8067 545.057 14.7467 534.311 9.2 521.484C3.65333 508.831 0.88 494.531 0.88 478.584ZM112.68 678.107V765.727H79.92V678.107H112.68ZM37.8 681.227V780.287H4L4 639.367H186V776.907H152.2V681.227H37.8ZM4 1001.83H186V1090.75C186 1113.63 181.667 1130.79 173 1142.23C164.333 1153.85 152.893 1159.65 138.68 1159.65C129.147 1159.65 120.827 1157.31 113.72 1152.63C106.787 1147.95 101.413 1141.54 97.6 1133.39C93.7867 1125.25 91.88 1115.89 91.88 1105.31L102.54 1110.25C102.54 1121.69 100.633 1131.83 96.82 1140.67C93.18 1149.51 87.72 1156.36 80.44 1161.21C73.16 1166.24 64.2333 1168.75 53.66 1168.75C38.06 1168.75 25.84 1162.6 17 1150.29C8.33333 1137.99 4 1119.87 4 1095.95V1001.83ZM35.72 1043.69V1092.83C35.72 1103.75 37.4533 1111.99 40.92 1117.53C44.56 1123.25 50.28 1126.11 58.08 1126.11C65.7067 1126.11 71.34 1123.25 74.98 1117.53C78.7933 1111.99 80.7 1103.75 80.7 1092.83V1040.57H111.38V1085.55C111.38 1095.78 113.113 1103.58 116.58 1108.95C120.22 1114.5 125.68 1117.27 132.96 1117.27C140.067 1117.27 145.353 1114.5 148.82 1108.95C152.46 1103.58 154.28 1095.78 154.28 1085.55V1043.69H35.72ZM0.88 1346.24C0.88 1331.86 3.22 1318.51 7.9 1306.2C12.58 1294.07 19.1667 1283.5 27.66 1274.48C36.1533 1265.64 46.12 1258.71 57.56 1253.68C69 1248.83 81.48 1246.4 95 1246.4C108.52 1246.4 121 1248.83 132.44 1253.68C143.88 1258.71 153.847 1265.73 162.34 1274.74C170.833 1283.76 177.42 1294.33 182.1 1306.46C186.78 1318.6 189.12 1331.77 189.12 1345.98C189.12 1360.37 186.78 1373.54 182.1 1385.5C177.42 1397.64 170.833 1408.12 162.34 1416.96C153.847 1425.98 143.88 1433 132.44 1438.02C121.173 1443.05 108.693 1445.56 95 1445.56C81.48 1445.56 68.9133 1443.05 57.3 1438.02C45.86 1433 35.8933 1425.98 27.4 1416.96C19.08 1408.12 12.58 1397.64 7.9 1385.5C3.22 1373.54 0.88 1360.46 0.88 1346.24ZM36.76 1345.98C36.76 1354.13 38.1467 1361.58 40.92 1368.34C43.6933 1375.28 47.68 1381.34 52.88 1386.54C58.08 1391.74 64.2333 1395.73 71.34 1398.5C78.4467 1401.45 86.3333 1402.92 95 1402.92C103.667 1402.92 111.553 1401.45 118.66 1398.5C125.767 1395.73 131.92 1391.74 137.12 1386.54C142.32 1381.52 146.307 1375.54 149.08 1368.6C151.853 1361.67 153.24 1354.13 153.24 1345.98C153.24 1337.84 151.853 1330.3 149.08 1323.36C146.307 1316.6 142.32 1310.62 137.12 1305.42C131.92 1300.22 125.767 1296.15 118.66 1293.2C111.553 1290.43 103.667 1289.04 95 1289.04C86.5067 1289.04 78.62 1290.43 71.34 1293.2C64.2333 1296.15 58.08 1300.14 52.88 1305.16C47.68 1310.36 43.6933 1316.43 40.92 1323.36C38.1467 1330.3 36.76 1337.84 36.76 1345.98ZM4 1572.26L186 1512.72V1556.4L24.8 1608.14L24.8 1586.3L186 1640.38V1679.38L24.8 1731.38V1710.32L186 1763.36V1803.66L4 1744.12V1698.88L145.44 1652.86V1664.82L4 1617.5L4 1572.26ZM4 1884.37H186V1926.49H38.32V2017.75H4V1884.37Z" fill="white"/>
</svg>
