<svg width="190" height="1941" viewBox="0 0 190 1941" fill="none" xmlns="http://www.w3.org/2000/svg">
<path d="M0.88 74.38C0.88 59.82 2.78667 45.8667 6.6 32.52C10.5867 19.1733 15.7 8.42667 21.94 0.28L53.66 14.58C48.1133 22.38 43.52 31.5667 39.88 42.14C36.4133 52.8867 34.68 63.72 34.68 74.64C34.68 82.96 35.46 89.6333 37.02 94.66C38.7533 99.86 41.0933 103.673 44.04 106.1C46.9867 108.527 50.3667 109.74 54.18 109.74C59.0333 109.74 62.8467 107.833 65.62 104.02C68.5667 100.207 70.9067 95.18 72.64 88.94C74.5467 82.7 76.28 75.7667 77.84 68.14C79.5733 60.6867 81.6533 53.1467 84.08 45.52C86.5067 38.0667 89.6267 31.22 93.44 24.98C97.2533 18.74 102.28 13.6267 108.52 9.64C114.76 5.82667 122.733 3.92 132.44 3.92C142.84 3.92 152.287 6.69333 160.78 12.24C169.447 17.96 176.293 26.4533 181.32 37.72C186.52 49.16 189.12 63.46 189.12 80.62C189.12 92.06 187.733 103.327 184.96 114.42C182.36 125.513 178.373 135.307 173 143.8L141.02 130.8C145.873 122.307 149.427 113.813 151.68 105.32C154.107 96.8267 155.32 88.5067 155.32 80.36C155.32 72.2133 154.367 65.54 152.46 60.34C150.553 55.14 148.04 51.4133 144.92 49.16C141.973 46.9067 138.507 45.78 134.52 45.78C129.84 45.78 126.027 47.6867 123.08 51.5C120.307 55.3133 118.053 60.34 116.32 66.58C114.587 72.82 112.853 79.6667 111.12 87.12C109.387 94.7467 107.393 102.287 105.14 109.74C102.887 117.367 99.8533 124.3 96.04 130.54C92.2267 136.78 87.2 141.807 80.96 145.62C74.72 149.607 66.8333 151.6 57.3 151.6C47.0733 151.6 37.7133 148.74 29.22 143.02C20.7267 137.3 13.88 128.72 8.68 117.28C3.48 106.013 0.88 91.7133 0.88 74.38ZM4 213.661L186 294.781V336.381L4 417.761V373.561L164.68 307.001V323.641L4 256.821L4 213.661ZM43 254.221L74.98 265.401V359.001L43 370.441V254.221ZM4 493.843H186V528.683L54.96 636.063V619.163H186V660.763H4V626.183L135.04 518.543V535.443H4V493.843ZM4 761.024H186V843.704C186 863.464 182.187 880.884 174.56 895.964C167.107 911.044 156.62 922.83 143.1 931.324C129.58 939.817 113.547 944.064 95 944.064C76.6267 944.064 60.5933 939.817 46.9 931.324C33.38 922.83 22.8067 911.044 15.18 895.964C7.72667 880.884 4 863.464 4 843.704V761.024ZM38.58 803.144V841.624C38.58 853.757 40.8333 864.244 45.34 873.084C50.02 882.097 56.6067 889.03 65.1 893.884C73.5933 898.91 83.56 901.424 95 901.424C106.613 901.424 116.58 898.91 124.9 893.884C133.393 889.03 139.893 882.097 144.4 873.084C149.08 864.244 151.42 853.757 151.42 841.624V803.144H38.58ZM4 1070.87L186 1011.33V1055.01L24.8 1106.75V1084.91L186 1138.99V1177.99L24.8 1229.99V1208.93L186 1261.97L186 1302.27L4 1242.73V1197.49L145.44 1151.47V1163.43L4 1116.11V1070.87ZM4 1382.98H186V1425.1H4V1382.98ZM0.88 1612.59C0.88 1598.55 3.13333 1585.47 7.64 1573.33C12.32 1561.37 18.9067 1550.97 27.4 1542.13C35.8933 1533.29 45.86 1526.36 57.3 1521.33C68.74 1516.48 81.3067 1514.05 95 1514.05C108.693 1514.05 121.26 1516.48 132.7 1521.33C144.14 1526.36 154.107 1533.29 162.6 1542.13C171.093 1551.15 177.593 1561.63 182.1 1573.59C186.78 1585.55 189.12 1598.64 189.12 1612.85C189.12 1628.63 186.347 1642.84 180.8 1655.49C175.427 1668.32 167.453 1679.07 156.88 1687.73L131.92 1660.69C139.027 1654.45 144.313 1647.52 147.78 1639.89C151.42 1632.27 153.24 1623.95 153.24 1614.93C153.24 1606.44 151.853 1598.64 149.08 1591.53C146.307 1584.43 142.32 1578.27 137.12 1573.07C131.92 1567.87 125.767 1563.8 118.66 1560.85C111.553 1558.08 103.667 1556.69 95 1556.69C86.3333 1556.69 78.4467 1558.08 71.34 1560.85C64.2333 1563.8 58.08 1567.87 52.88 1573.07C47.68 1578.27 43.6933 1584.43 40.92 1591.53C38.1467 1598.64 36.76 1606.44 36.76 1614.93C36.76 1623.95 38.4933 1632.27 41.96 1639.89C45.6 1647.52 51.06 1654.45 58.34 1660.69L33.38 1687.73C22.8067 1679.07 14.7467 1668.32 9.2 1655.49C3.65333 1642.84 0.88 1628.54 0.88 1612.59ZM186 1898.18V1940.3H4V1898.18H186ZM4 1815.5V1773.38H186V1815.5H4ZM78.62 1901.3V1812.38H114.24V1901.3H78.62Z" fill="white"/>
</svg>
