<svg width="1941" height="190" viewBox="0 0 1941 190" fill="none" xmlns="http://www.w3.org/2000/svg">
<path d="M1898.18 4H1940.3V186H1898.18V4ZM1815.5 186H1773.38V4H1815.5V186ZM1901.3 111.38H1812.38V75.76H1901.3V111.38Z" fill="white"/>
<path d="M1612.59 189.12C1598.55 189.12 1585.47 186.867 1573.33 182.36C1561.37 177.68 1550.97 171.093 1542.13 162.6C1533.29 154.107 1526.36 144.14 1521.33 132.7C1516.48 121.26 1514.05 108.693 1514.05 95C1514.05 81.3067 1516.48 68.74 1521.33 57.3C1526.36 45.86 1533.29 35.8933 1542.13 27.4C1551.15 18.9067 1561.63 12.4067 1573.59 7.89999C1585.55 3.22 1598.64 0.880005 1612.85 0.880005C1628.63 0.880005 1642.84 3.65334 1655.49 9.20001C1668.32 14.5733 1679.07 22.5467 1687.73 33.12L1660.69 58.08C1654.45 50.9733 1647.52 45.6867 1639.89 42.22C1632.27 38.58 1623.95 36.76 1614.93 36.76C1606.44 36.76 1598.64 38.1467 1591.53 40.92C1584.43 43.6933 1578.27 47.68 1573.07 52.88C1567.87 58.08 1563.8 64.2333 1560.85 71.34C1558.08 78.4467 1556.69 86.3333 1556.69 95C1556.69 103.667 1558.08 111.553 1560.85 118.66C1563.8 125.767 1567.87 131.92 1573.07 137.12C1578.27 142.32 1584.43 146.307 1591.53 149.08C1598.64 151.853 1606.44 153.24 1614.93 153.24C1623.95 153.24 1632.27 151.507 1639.89 148.04C1647.52 144.4 1654.45 138.94 1660.69 131.66L1687.73 156.62C1679.07 167.193 1668.32 175.253 1655.49 180.8C1642.84 186.347 1628.54 189.12 1612.59 189.12Z" fill="white"/>
<path d="M1382.98 186V4H1425.1V186H1382.98Z" fill="white"/>
<path d="M1070.87 186L1011.33 4H1055.01L1106.75 165.2H1084.91L1138.99 4H1177.99L1229.99 165.2H1208.93L1261.97 4H1302.27L1242.73 186H1197.49L1151.47 44.56H1163.43L1116.11 186H1070.87Z" fill="white"/>
<path d="M761.023 186V4H843.703C863.463 4 880.883 7.81334 895.963 15.44C911.043 22.8933 922.83 33.38 931.323 46.9C939.817 60.42 944.063 76.4533 944.063 95C944.063 113.373 939.817 129.407 931.323 143.1C922.83 156.62 911.043 167.193 895.963 174.82C880.883 182.273 863.463 186 843.703 186H761.023ZM803.143 151.42H841.623C853.757 151.42 864.243 149.167 873.083 144.66C882.097 139.98 889.03 133.393 893.883 124.9C898.91 116.407 901.423 106.44 901.423 95C901.423 83.3867 898.91 73.42 893.883 65.1C889.03 56.6067 882.097 50.1067 873.083 45.6C864.243 40.92 853.757 38.58 841.623 38.58H803.143V151.42Z" fill="white"/>
<path d="M493.844 186V4H528.684L636.064 135.04H619.164V4H660.764V186H626.184L518.544 54.96H535.444V186H493.844Z" fill="white"/>
<path d="M213.661 186L294.781 4H336.381L417.761 186H373.561L307.001 25.32H323.641L256.821 186H213.661ZM254.221 147L265.401 115.02H359.001L370.441 147H254.221Z" fill="white"/>
<path d="M74.3803 189.12C59.8203 189.12 45.8669 187.213 32.5203 183.4C19.1736 179.413 8.42694 174.3 0.280273 168.06L14.5803 136.34C22.3803 141.887 31.5669 146.48 42.1403 150.12C52.8869 153.587 63.7203 155.32 74.6403 155.32C82.9603 155.32 89.6336 154.54 94.6603 152.98C99.8603 151.247 103.674 148.907 106.1 145.96C108.527 143.013 109.74 139.633 109.74 135.82C109.74 130.967 107.834 127.153 104.02 124.38C100.207 121.433 95.1803 119.093 88.9403 117.36C82.7003 115.453 75.7669 113.72 68.1403 112.16C60.6869 110.427 53.1469 108.347 45.5203 105.92C38.0669 103.493 31.2203 100.373 24.9803 96.56C18.7403 92.7467 13.6269 87.72 9.64027 81.48C5.82694 75.24 3.92027 67.2667 3.92027 57.56C3.92027 47.16 6.69361 37.7133 12.2403 29.22C17.9603 20.5533 26.4536 13.7067 37.7203 8.68C49.1603 3.48 63.4603 0.880005 80.6203 0.880005C92.0603 0.880005 103.327 2.26667 114.42 5.04C125.514 7.64 135.307 11.6267 143.8 17L130.8 48.98C122.307 44.1267 113.814 40.5733 105.32 38.32C96.8269 35.8933 88.5069 34.68 80.3603 34.68C72.2136 34.68 65.5403 35.6333 60.3403 37.54C55.1403 39.4467 51.4136 41.96 49.1603 45.08C46.9069 48.0267 45.7803 51.4933 45.7803 55.48C45.7803 60.16 47.6869 63.9733 51.5003 66.92C55.3136 69.6933 60.3403 71.9467 66.5803 73.68C72.8203 75.4133 79.6669 77.1467 87.1203 78.88C94.7469 80.6133 102.287 82.6067 109.74 84.86C117.367 87.1133 124.3 90.1467 130.54 93.96C136.78 97.7733 141.807 102.8 145.62 109.04C149.607 115.28 151.6 123.167 151.6 132.7C151.6 142.927 148.74 152.287 143.02 160.78C137.3 169.273 128.72 176.12 117.28 181.32C106.014 186.52 91.7136 189.12 74.3803 189.12Z" fill="white"/>
</svg>
