<svg width="703" height="87" viewBox="0 0 703 87" fill="none" xmlns="http://www.w3.org/2000/svg">
<path d="M66.608 35.568C66.608 59.376 60.848 73.872 37.712 84.048L27.44 74.352C45.968 67.92 54.128 59.664 54.128 36.048V32.4H31.376V45.456C31.376 49.68 31.664 53.616 31.76 55.536H18.32C18.608 53.616 18.896 49.776 18.896 45.456V32.4H10.736C5.93599 32.4 2.47999 32.592 0.367988 32.784V19.728C1.99999 20.016 5.93599 20.592 10.736 20.592H18.896V11.088C18.896 8.304 18.608 5.328 18.32 2.44799H31.952C31.664 4.272 31.376 7.34399 31.376 11.088V20.592H54.128V10.512C54.128 6.672 53.84 3.504 53.552 1.58399H67.28C66.992 3.504 66.608 6.672 66.608 10.512V20.592H73.712C78.8 20.592 81.68 20.4 84.272 19.92V32.688C82.16 32.496 78.8 32.4 73.712 32.4H66.608V35.568ZM141.776 5.04C148.496 9.55199 160.976 19.536 166.544 25.392L156.752 35.376C151.76 30 139.76 19.536 132.752 14.64L141.776 5.04ZM129.776 68.976C144.752 66.864 157.232 61.968 166.544 56.4C182.96 46.704 195.44 32.016 201.488 19.056L208.976 32.592C201.68 45.552 188.912 58.8 173.456 68.112C163.76 73.968 151.376 79.344 137.84 81.648L129.776 68.976ZM307.952 6.576C310.64 10.608 314.48 16.752 316.688 21.072L308.336 24.816C305.552 18.768 303.44 14.928 299.888 9.936L307.952 6.576ZM320.528 1.296C323.312 5.13599 327.344 11.184 329.552 15.504L321.488 19.44C318.416 13.392 316.112 9.84 312.56 5.04L320.528 1.296ZM269.648 70.224V15.024C269.648 11.568 269.36 6.86399 268.688 3.408H283.664C283.28 6.768 282.8 10.992 282.8 15.024V29.04C295.568 32.88 314.096 39.696 322.928 44.016L317.552 57.36C307.568 52.08 293.168 46.512 282.8 43.056V70.224C282.8 72.912 283.28 79.632 283.76 83.568H268.688C269.264 79.824 269.648 73.968 269.648 70.224ZM372.272 40.656C389.456 36.24 403.568 30 414.224 23.472C424.112 17.328 435.056 7.72799 441.296 0.143995L451.664 10.032C444.368 17.232 435.152 24.72 425.84 30.864V69.648C425.84 73.872 426.032 79.824 426.704 82.224H411.536C411.92 79.92 412.208 73.872 412.208 69.648V38.928C402.32 44.112 390.128 49.296 378.32 52.752L372.272 40.656ZM538.64 20.976C540.464 25.104 545.168 37.584 546.512 42L534.992 46.032C533.84 41.328 529.616 29.712 527.216 24.72L538.64 20.976ZM574.064 27.984C572.912 31.056 572.336 33.072 571.76 34.992C569.264 44.688 565.232 54.672 558.704 63.12C549.776 74.64 537.776 82.704 526.544 86.928L516.464 76.656C527.024 73.872 540.368 66.576 548.336 56.592C554.864 48.432 559.472 35.664 560.624 23.664L574.064 27.984ZM516.368 26.064C518.768 30.96 523.376 42.576 525.296 47.952L513.584 52.368C511.952 47.184 507.152 34.416 504.848 30.192L516.368 26.064ZM628.688 9.07199C635.984 9.264 650.864 9.07199 661.424 7.536C671.024 6.192 680.816 3.984 685.616 1.776L693.488 12.336C690.224 13.104 687.728 13.776 686.096 14.16C681.392 15.408 675.728 16.464 669.968 17.328V32.592H694.16C696.272 32.592 700.784 32.208 702.896 32.016V44.4C700.304 44.208 697.04 44.016 694.448 44.016H669.584C668.144 60.144 661.232 73.776 645.008 83.568L632.816 75.216C647.408 68.496 655.088 58.224 656.912 44.016H630.512C627.536 44.016 623.984 44.208 621.488 44.4V32.016C624.08 32.304 627.344 32.592 630.32 32.592H657.392V18.96C648.176 19.728 638.096 20.016 631.664 20.208L628.688 9.07199Z" fill="white"/>
</svg>
