<svg width="195" height="69" viewBox="0 0 195 69" fill="none" xmlns="http://www.w3.org/2000/svg">
<path d="M0.693359 11.123H2.46094C2.62695 12.6465 4.07227 13.6523 6.08398 13.6523C7.98828 13.6523 9.375 12.6465 9.375 11.2598C9.375 10.0684 8.54492 9.33594 6.65039 8.84766L4.84375 8.37891C2.24609 7.71484 1.09375 6.57227 1.09375 4.6582C1.09375 2.31445 3.14453 0.673828 6.07422 0.673828C8.87695 0.673828 10.9082 2.33398 10.9863 4.69727H9.22852C9.07227 3.18359 7.85156 2.25586 6.01562 2.25586C4.18945 2.25586 2.91992 3.20312 2.91992 4.58008C2.91992 5.64453 3.70117 6.2793 5.61523 6.77734L7.08984 7.16797C10.0098 7.90039 11.1914 9.02344 11.1914 11.0449C11.1914 13.623 9.16016 15.2344 5.91797 15.2344C2.92969 15.2344 0.859375 13.6133 0.693359 11.123ZM28.2984 4.84375L25.4664 15H23.7379L21.443 7.13867H21.4039L19.1187 15H17.3902L14.5484 4.84375H16.2379L18.2691 13.1055H18.3082L20.6031 4.84375H22.2437L24.5484 13.1055H24.5875L26.6187 4.84375H28.2984ZM36.1672 6.14258C34.5754 6.14258 33.4621 7.36328 33.3547 9.05273H38.8723C38.8332 7.35352 37.7687 6.14258 36.1672 6.14258ZM38.8332 12.0898H40.5031C40.2102 13.8672 38.4914 15.1758 36.2746 15.1758C33.3645 15.1758 31.5969 13.1543 31.5969 9.96094C31.5969 6.80664 33.3937 4.66797 36.1965 4.66797C38.9406 4.66797 40.6301 6.66016 40.6301 9.73633V10.3809H33.3449V10.4785C33.3449 12.4219 34.4875 13.7012 36.3137 13.7012C37.6027 13.7012 38.55 13.0469 38.8332 12.0898ZM48.8211 6.14258C47.2293 6.14258 46.116 7.36328 46.0086 9.05273H51.5262C51.4871 7.35352 50.4227 6.14258 48.8211 6.14258ZM51.4871 12.0898H53.157C52.8641 13.8672 51.1453 15.1758 48.9285 15.1758C46.0184 15.1758 44.2508 13.1543 44.2508 9.96094C44.2508 6.80664 46.0477 4.66797 48.8504 4.66797C51.5945 4.66797 53.284 6.66016 53.284 9.73633V10.3809H45.9988V10.4785C45.9988 12.4219 47.1414 13.7012 48.9676 13.7012C50.2566 13.7012 51.2039 13.0469 51.4871 12.0898ZM57.9496 2.39258H59.6488V4.84375H61.6215V6.24023H59.6488V12.2754C59.6488 13.2031 60.0395 13.623 60.9086 13.623C61.1039 13.623 61.4945 13.5938 61.6117 13.5742V15C61.4066 15.0488 60.9379 15.0781 60.5375 15.0781C58.6723 15.0781 57.9496 14.3164 57.9496 12.3633V6.24023H56.4359V4.84375H57.9496V2.39258ZM65.6621 7.64648C65.6621 5.9082 67.2148 4.66797 69.4512 4.66797C71.5508 4.66797 73.0938 5.91797 73.1719 7.63672H71.5508C71.4336 6.66016 70.6426 6.05469 69.3926 6.05469C68.1523 6.05469 67.332 6.66992 67.332 7.55859C67.332 8.26172 67.8691 8.73047 69.0215 9.02344L70.5938 9.4043C72.6445 9.92188 73.3867 10.6641 73.3867 12.1582C73.3867 13.9258 71.7168 15.1758 69.3438 15.1758C67.1172 15.1758 65.5645 13.9648 65.3887 12.168H67.0879C67.2734 13.2227 68.0742 13.7891 69.4512 13.7891C70.8281 13.7891 71.6777 13.2031 71.6777 12.2852C71.6777 11.5625 71.2578 11.1719 70.1152 10.8691L68.3281 10.4102C66.541 9.95117 65.6621 9.0332 65.6621 7.64648ZM0.693359 36.123H2.46094C2.62695 37.6465 4.07227 38.6523 6.08398 38.6523C7.98828 38.6523 9.375 37.6465 9.375 36.2598C9.375 35.0684 8.54492 34.3359 6.65039 33.8477L4.84375 33.3789C2.24609 32.7148 1.09375 31.5723 1.09375 29.6582C1.09375 27.3145 3.14453 25.6738 6.07422 25.6738C8.87695 25.6738 10.9082 27.334 10.9863 29.6973H9.22852C9.07227 28.1836 7.85156 27.2559 6.01562 27.2559C4.18945 27.2559 2.91992 28.2031 2.91992 29.5801C2.91992 30.6445 3.70117 31.2793 5.61523 31.7773L7.08984 32.168C10.0098 32.9004 11.1914 34.0234 11.1914 36.0449C11.1914 38.623 9.16016 40.2344 5.91797 40.2344C2.92969 40.2344 0.859375 38.6133 0.693359 36.123ZM18.7281 38.7305C20.3297 38.7305 21.5602 37.6074 21.5602 36.1426V35.3125L18.8453 35.4785C17.4781 35.5664 16.6969 36.1719 16.6969 37.1289C16.6969 38.0957 17.5074 38.7305 18.7281 38.7305ZM18.3473 40.1758C16.3258 40.1758 14.9684 38.9551 14.9684 37.1289C14.9684 35.3906 16.3062 34.2969 18.65 34.1602L21.5602 33.9941V33.1445C21.5602 31.9043 20.7398 31.1621 19.3336 31.1621C18.025 31.1621 17.2047 31.7773 16.9898 32.7734H15.3492C15.4664 31.0156 16.9703 29.668 19.3727 29.668C21.7555 29.668 23.2594 30.957 23.2594 32.9785V40H21.648V38.252H21.609C21.0035 39.4141 19.7145 40.1758 18.3473 40.1758ZM27.8176 40V29.8438H29.4191V31.4648H29.4582C30.0246 30.3711 31.1086 29.668 32.6809 29.668C34.9074 29.668 36.1965 31.1035 36.1965 33.4082V40H34.4973V33.7109C34.4973 32.0703 33.7258 31.1719 32.1633 31.1719C30.5617 31.1719 29.5168 32.3047 29.5168 34.0234V40H27.8176ZM44.6121 40.1758C42.0242 40.1758 40.2664 38.1055 40.2664 34.9219C40.2664 31.7383 42.0145 29.668 44.573 29.668C46.0281 29.668 47.2 30.3809 47.8055 31.4941H47.8445V25.9082H49.5438V40H47.9227V38.2812H47.8934C47.2391 39.4531 46.077 40.1758 44.6121 40.1758ZM44.9344 31.1621C43.1375 31.1621 42.0047 32.627 42.0047 34.9219C42.0047 37.2266 43.1375 38.6816 44.9344 38.6816C46.6824 38.6816 47.8543 37.1973 47.8543 34.9219C47.8543 32.6562 46.6824 31.1621 44.9344 31.1621ZM67.1586 29.8438L64.3266 40H62.598L60.3031 32.1387H60.2641L57.9789 40H56.2504L53.4086 29.8438H55.098L57.1293 38.1055H57.1684L59.4633 29.8438H61.1039L63.4086 38.1055H63.4477L65.4789 29.8438H67.1586ZM71.043 40V29.8438H72.7422V40H71.043ZM71.8926 28.1348C71.3164 28.1348 70.8379 27.6562 70.8379 27.0801C70.8379 26.4941 71.3164 26.0254 71.8926 26.0254C72.4785 26.0254 72.957 26.4941 72.957 27.0801C72.957 27.6562 72.4785 28.1348 71.8926 28.1348ZM85.8746 33.1738H84.2145C83.9703 32.0703 83.1109 31.1621 81.6168 31.1621C79.859 31.1621 78.6676 32.6172 78.6676 34.9219C78.6676 37.2852 79.8785 38.6816 81.6363 38.6816C83.023 38.6816 83.9313 37.9492 84.2242 36.7285H85.8941C85.6305 38.75 83.9313 40.1758 81.6266 40.1758C78.8141 40.1758 76.9391 38.1934 76.9391 34.9219C76.9391 31.7188 78.8043 29.668 81.607 29.668C84.1461 29.668 85.6598 31.3477 85.8746 33.1738ZM89.9445 40V25.9082H91.6438V31.4648H91.6828C92.2492 30.332 93.3625 29.668 94.9055 29.668C97.132 29.668 98.4797 31.1719 98.4797 33.4375V40H96.7805V33.75C96.7805 32.1387 95.9699 31.1719 94.3781 31.1719C92.6887 31.1719 91.6438 32.3242 91.6438 34.082V40H89.9445ZM107.11 31.1426C105.518 31.1426 104.405 32.3633 104.298 34.0527H109.815C109.776 32.3535 108.712 31.1426 107.11 31.1426ZM109.776 37.0898H111.446C111.153 38.8672 109.434 40.1758 107.218 40.1758C104.307 40.1758 102.54 38.1543 102.54 34.9609C102.54 31.8066 104.337 29.668 107.139 29.668C109.884 29.668 111.573 31.6602 111.573 34.7363V35.3809H104.288V35.4785C104.288 37.4219 105.43 38.7012 107.257 38.7012C108.546 38.7012 109.493 38.0469 109.776 37.0898ZM115.516 32.6465C115.516 30.9082 117.069 29.668 119.305 29.668C121.405 29.668 122.948 30.918 123.026 32.6367H121.405C121.287 31.6602 120.496 31.0547 119.246 31.0547C118.006 31.0547 117.186 31.6699 117.186 32.5586C117.186 33.2617 117.723 33.7305 118.875 34.0234L120.448 34.4043C122.498 34.9219 123.241 35.6641 123.241 37.1582C123.241 38.9258 121.571 40.1758 119.198 40.1758C116.971 40.1758 115.418 38.9648 115.243 37.168H116.942C117.127 38.2227 117.928 38.7891 119.305 38.7891C120.682 38.7891 121.532 38.2031 121.532 37.2852C121.532 36.5625 121.112 36.1719 119.969 35.8691L118.182 35.4102C116.395 34.9512 115.516 34.0332 115.516 32.6465ZM3.10547 65H1.36719V50.9082H3.07617L10.791 61.9727H10.8789V50.9082H12.6172V65H10.9082L3.19336 53.9746H3.10547V65ZM21.5602 56.1426C19.9684 56.1426 18.8551 57.3633 18.7477 59.0527H24.2652C24.2262 57.3535 23.1617 56.1426 21.5602 56.1426ZM24.2262 62.0898H25.8961C25.6031 63.8672 23.8844 65.1758 21.6676 65.1758C18.7574 65.1758 16.9898 63.1543 16.9898 59.9609C16.9898 56.8066 18.7867 54.668 21.5895 54.668C24.3336 54.668 26.023 56.6602 26.023 59.7363V60.3809H18.7379V60.4785C18.7379 62.4219 19.8805 63.7012 21.7066 63.7012C22.9957 63.7012 23.943 63.0469 24.2262 62.0898ZM43.0617 54.8438L40.2297 65H38.5012L36.2062 57.1387H36.1672L33.882 65H32.1535L29.3117 54.8438H31.0012L33.0324 63.1055H33.0715L35.3664 54.8438H37.007L39.3117 63.1055H39.3508L41.382 54.8438H43.0617ZM53.2133 65V63.75L61.2504 52.5586V52.4902H53.4867V50.9082H63.4672V52.1582L55.4691 63.3496V63.418H63.6332V65H53.2133ZM71.9805 56.1426C70.3887 56.1426 69.2754 57.3633 69.168 59.0527H74.6855C74.6465 57.3535 73.582 56.1426 71.9805 56.1426ZM74.6465 62.0898H76.3164C76.0234 63.8672 74.3047 65.1758 72.0879 65.1758C69.1777 65.1758 67.4102 63.1543 67.4102 59.9609C67.4102 56.8066 69.207 54.668 72.0098 54.668C74.7539 54.668 76.4434 56.6602 76.4434 59.7363V60.3809H69.1582V60.4785C69.1582 62.4219 70.3008 63.7012 72.127 63.7012C73.416 63.7012 74.3633 63.0469 74.6465 62.0898ZM83.9117 63.7305C85.5133 63.7305 86.7438 62.6074 86.7438 61.1426V60.3125L84.0289 60.4785C82.6617 60.5664 81.8805 61.1719 81.8805 62.1289C81.8805 63.0957 82.691 63.7305 83.9117 63.7305ZM83.5309 65.1758C81.5094 65.1758 80.152 63.9551 80.152 62.1289C80.152 60.3906 81.4898 59.2969 83.8336 59.1602L86.7438 58.9941V58.1445C86.7438 56.9043 85.9234 56.1621 84.5172 56.1621C83.2086 56.1621 82.3883 56.7773 82.1734 57.7734H80.5328C80.65 56.0156 82.1539 54.668 84.5563 54.668C86.9391 54.668 88.443 55.957 88.443 57.9785V65H86.8316V63.252H86.7926C86.1871 64.4141 84.898 65.1758 83.5309 65.1758ZM93.0891 65V50.9082H94.7883V65H93.0891ZM102.833 63.7305C104.434 63.7305 105.665 62.6074 105.665 61.1426V60.3125L102.95 60.4785C101.583 60.5664 100.802 61.1719 100.802 62.1289C100.802 63.0957 101.612 63.7305 102.833 63.7305ZM102.452 65.1758C100.43 65.1758 99.073 63.9551 99.073 62.1289C99.073 60.3906 100.411 59.2969 102.755 59.1602L105.665 58.9941V58.1445C105.665 56.9043 104.845 56.1621 103.438 56.1621C102.13 56.1621 101.309 56.7773 101.095 57.7734H99.4539C99.5711 56.0156 101.075 54.668 103.477 54.668C105.86 54.668 107.364 55.957 107.364 57.9785V65H105.753V63.252H105.714C105.108 64.4141 103.819 65.1758 102.452 65.1758ZM111.922 65V54.8438H113.524V56.4648H113.563C114.129 55.3711 115.213 54.668 116.786 54.668C119.012 54.668 120.301 56.1035 120.301 58.4082V65H118.602V58.7109C118.602 57.0703 117.83 56.1719 116.268 56.1719C114.666 56.1719 113.621 57.3047 113.621 59.0234V65H111.922ZM128.717 65.1758C126.129 65.1758 124.371 63.1055 124.371 59.9219C124.371 56.7383 126.119 54.668 128.678 54.668C130.133 54.668 131.305 55.3809 131.91 56.4941H131.949V50.9082H133.648V65H132.027V63.2812H131.998C131.344 64.4531 130.182 65.1758 128.717 65.1758ZM129.039 56.1621C127.242 56.1621 126.109 57.627 126.109 59.9219C126.109 62.2266 127.242 63.6816 129.039 63.6816C130.787 63.6816 131.959 62.1973 131.959 59.9219C131.959 57.6562 130.787 56.1621 129.039 56.1621ZM144.435 61.123H146.202C146.368 62.6465 147.814 63.6523 149.825 63.6523C151.73 63.6523 153.116 62.6465 153.116 61.2598C153.116 60.0684 152.286 59.3359 150.392 58.8477L148.585 58.3789C145.988 57.7148 144.835 56.5723 144.835 54.6582C144.835 52.3145 146.886 50.6738 149.816 50.6738C152.618 50.6738 154.65 52.334 154.728 54.6973H152.97C152.814 53.1836 151.593 52.2559 149.757 52.2559C147.931 52.2559 146.661 53.2031 146.661 54.5801C146.661 55.6445 147.443 56.2793 149.357 56.7773L150.831 57.168C153.751 57.9004 154.933 59.0234 154.933 61.0449C154.933 63.623 152.902 65.2344 149.659 65.2344C146.671 65.2344 144.601 63.6133 144.435 61.123ZM159.667 52.3926H161.366V54.8438H163.339V56.2402H161.366V62.2754C161.366 63.2031 161.757 63.623 162.626 63.623C162.821 63.623 163.212 63.5938 163.329 63.5742V65C163.124 65.0488 162.655 65.0781 162.255 65.0781C160.389 65.0781 159.667 64.3164 159.667 62.3633V56.2402H158.153V54.8438H159.667V52.3926ZM168.395 68.7988C168.19 68.7988 167.848 68.7793 167.663 68.7402V67.3145C167.848 67.3535 168.112 67.3633 168.327 67.3633C169.274 67.3633 169.801 66.9043 170.192 65.7227L170.426 65.0098L166.676 54.8438H168.493L171.305 63.3008H171.334L174.147 54.8438H175.934L171.94 65.7129C171.071 68.0859 170.231 68.7988 168.395 68.7988ZM179.77 65V50.9082H181.469V65H179.77ZM190.236 56.1426C188.644 56.1426 187.531 57.3633 187.423 59.0527H192.941C192.902 57.3535 191.837 56.1426 190.236 56.1426ZM192.902 62.0898H194.572C194.279 63.8672 192.56 65.1758 190.343 65.1758C187.433 65.1758 185.666 63.1543 185.666 59.9609C185.666 56.8066 187.462 54.668 190.265 54.668C193.009 54.668 194.699 56.6602 194.699 59.7363V60.3809H187.414V60.4785C187.414 62.4219 188.556 63.7012 190.382 63.7012C191.671 63.7012 192.619 63.0469 192.902 62.0898Z" fill="#4FBABC"/>
</svg>
