<svg width="813" height="97" viewBox="0 0 813 97" fill="none" xmlns="http://www.w3.org/2000/svg">
<g clip-path="url(#clip0_249_144)">
<rect width="813" height="97" fill="#4FBABC"/>
<path d="M38.7958 25.88C44.2571 25.88 49.1211 26.9467 53.3878 29.08C57.7398 31.2133 61.1531 34.4987 63.6278 38.936C66.1025 43.288 67.3398 48.92 67.3398 55.832V95H51.3398V57.88C51.3398 51.8213 49.8891 47.2987 46.9878 44.312C44.1718 41.3253 40.2038 39.832 35.0838 39.832C31.3291 39.832 28.0011 40.6 25.0998 42.136C22.1985 43.672 19.9371 45.976 18.3158 49.048C16.7798 52.0347 16.0118 55.832 16.0118 60.44V95H0.0118084V26.648H15.2438V45.08L12.5558 39.448C14.9451 35.096 18.4011 31.768 22.9238 29.464C27.5318 27.0747 32.8225 25.88 38.7958 25.88ZM113.362 95.896C106.364 95.896 100.135 94.4027 94.6738 91.416C89.2125 88.344 84.9031 84.1627 81.7458 78.872C78.5885 73.5813 77.0098 67.5653 77.0098 60.824C77.0098 53.9973 78.5885 47.9813 81.7458 42.776C84.9031 37.4853 89.2125 33.3467 94.6738 30.36C100.135 27.3733 106.364 25.88 113.362 25.88C120.444 25.88 126.716 27.3733 132.178 30.36C137.724 33.3467 142.034 37.4427 145.106 42.648C148.263 47.8533 149.842 53.912 149.842 60.824C149.842 67.5653 148.263 73.5813 145.106 78.872C142.034 84.1627 137.724 88.344 132.178 91.416C126.716 94.4027 120.444 95.896 113.362 95.896ZM113.362 82.2C117.287 82.2 120.786 81.3467 123.858 79.64C126.93 77.9333 129.319 75.4587 131.026 72.216C132.818 68.9733 133.714 65.176 133.714 60.824C133.714 56.3867 132.818 52.5893 131.026 49.432C129.319 46.1893 126.93 43.7147 123.858 42.008C120.786 40.3013 117.33 39.448 113.49 39.448C109.564 39.448 106.066 40.3013 102.994 42.008C100.007 43.7147 97.6178 46.1893 95.8258 49.432C94.0338 52.5893 93.1378 56.3867 93.1378 60.824C93.1378 65.176 94.0338 68.9733 95.8258 72.216C97.6178 75.4587 100.007 77.9333 102.994 79.64C106.066 81.3467 109.522 82.2 113.362 82.2ZM195.862 95.896C188.864 95.896 182.635 94.4027 177.174 91.416C171.712 88.344 167.403 84.1627 164.246 78.872C161.088 73.5813 159.51 67.5653 159.51 60.824C159.51 53.9973 161.088 47.9813 164.246 42.776C167.403 37.4853 171.712 33.3467 177.174 30.36C182.635 27.3733 188.864 25.88 195.862 25.88C202.944 25.88 209.216 27.3733 214.678 30.36C220.224 33.3467 224.534 37.4427 227.606 42.648C230.763 47.8533 232.342 53.912 232.342 60.824C232.342 67.5653 230.763 73.5813 227.606 78.872C224.534 84.1627 220.224 88.344 214.678 91.416C209.216 94.4027 202.944 95.896 195.862 95.896ZM195.862 82.2C199.787 82.2 203.286 81.3467 206.358 79.64C209.43 77.9333 211.819 75.4587 213.526 72.216C215.318 68.9733 216.214 65.176 216.214 60.824C216.214 56.3867 215.318 52.5893 213.526 49.432C211.819 46.1893 209.43 43.7147 206.358 42.008C203.286 40.3013 199.83 39.448 195.99 39.448C192.064 39.448 188.566 40.3013 185.494 42.008C182.507 43.7147 180.118 46.1893 178.326 49.432C176.534 52.5893 175.638 56.3867 175.638 60.824C175.638 65.176 176.534 68.9733 178.326 72.216C180.118 75.4587 182.507 77.9333 185.494 79.64C188.566 81.3467 192.022 82.2 195.862 82.2ZM255.578 79.768L255.962 59.672L291.674 26.648H310.874L280.538 57.112L272.09 64.152L255.578 79.768ZM242.522 95V0.0239944H258.522V95H242.522ZM294.106 95L269.146 64.152L279.258 51.352L313.562 95H294.106ZM351.194 96.28C344.964 96.28 339.375 95.256 334.426 93.208C329.476 91.16 325.594 88.344 322.778 84.76C319.962 81.176 318.554 77.0373 318.554 72.344C318.554 68.0773 319.492 64.2373 321.37 60.824C323.247 57.4107 326.234 54.168 330.33 51.096C334.426 47.9387 339.674 44.7813 346.074 41.624C351.108 39.1493 355.034 36.9733 357.85 35.096C360.751 33.2187 362.756 31.4267 363.866 29.72C365.06 28.0133 365.658 26.2213 365.658 24.344C365.658 21.784 364.762 19.736 362.97 18.2C361.178 16.5787 358.618 15.768 355.29 15.768C351.706 15.768 348.89 16.664 346.842 18.456C344.879 20.1627 343.898 22.424 343.898 25.24C343.898 26.6907 344.154 28.0987 344.666 29.464C345.263 30.8293 346.287 32.3653 347.738 34.072C349.188 35.7787 351.279 37.9547 354.01 40.6L401.37 86.04L392.538 96.408L341.338 47.256C338.436 44.44 336.09 41.8373 334.298 39.448C332.506 37.0587 331.226 34.7547 330.458 32.536C329.69 30.232 329.306 27.8853 329.306 25.496C329.306 21.3147 330.372 17.6453 332.506 14.488C334.639 11.2453 337.668 8.77066 341.594 7.064C345.519 5.272 350.084 4.376 355.29 4.376C360.154 4.376 364.335 5.18667 367.834 6.808C371.418 8.344 374.191 10.6053 376.154 13.592C378.202 16.4933 379.226 19.992 379.226 24.088C379.226 27.672 378.33 31 376.538 34.072C374.746 37.0587 371.93 39.9173 368.09 42.648C364.335 45.3787 359.3 48.2373 352.986 51.224C348.292 53.528 344.58 55.704 341.85 57.752C339.119 59.8 337.156 61.848 335.962 63.896C334.767 65.944 334.17 68.2053 334.17 70.68C334.17 73.1547 334.895 75.3307 336.346 77.208C337.882 79.0853 340.015 80.5787 342.746 81.688C345.476 82.712 348.676 83.224 352.346 83.224C357.807 83.224 362.756 82.0293 367.194 79.64C371.716 77.1653 375.514 73.496 378.586 68.632C381.658 63.768 383.876 57.752 385.242 50.584L398.17 54.808C396.378 63.4267 393.263 70.8507 388.826 77.08C384.474 83.224 379.098 87.96 372.698 91.288C366.298 94.616 359.13 96.28 351.194 96.28ZM446.817 95.896C439.649 95.896 433.249 94.4027 427.617 91.416C422.07 88.344 417.718 84.1627 414.561 78.872C411.403 73.5813 409.825 67.5653 409.825 60.824C409.825 53.9973 411.403 47.9813 414.561 42.776C417.718 37.4853 422.07 33.3467 427.617 30.36C433.249 27.3733 439.649 25.88 446.817 25.88C453.473 25.88 459.318 27.2453 464.353 29.976C469.473 32.6213 473.355 36.5467 476.001 41.752L463.713 48.92C461.665 45.6773 459.147 43.288 456.161 41.752C453.259 40.216 450.102 39.448 446.689 39.448C442.763 39.448 439.222 40.3013 436.065 42.008C432.907 43.7147 430.433 46.1893 428.641 49.432C426.849 52.5893 425.953 56.3867 425.953 60.824C425.953 65.2613 426.849 69.1013 428.641 72.344C430.433 75.5013 432.907 77.9333 436.065 79.64C439.222 81.3467 442.763 82.2 446.689 82.2C450.102 82.2 453.259 81.432 456.161 79.896C459.147 78.36 461.665 75.9707 463.713 72.728L476.001 79.896C473.355 85.016 469.473 88.984 464.353 91.8C459.318 94.5307 453.473 95.896 446.817 95.896ZM520.832 95.896C513.834 95.896 507.605 94.4027 502.144 91.416C496.682 88.344 492.373 84.1627 489.216 78.872C486.058 73.5813 484.48 67.5653 484.48 60.824C484.48 53.9973 486.058 47.9813 489.216 42.776C492.373 37.4853 496.682 33.3467 502.144 30.36C507.605 27.3733 513.834 25.88 520.832 25.88C527.914 25.88 534.186 27.3733 539.648 30.36C545.194 33.3467 549.504 37.4427 552.576 42.648C555.733 47.8533 557.312 53.912 557.312 60.824C557.312 67.5653 555.733 73.5813 552.576 78.872C549.504 84.1627 545.194 88.344 539.648 91.416C534.186 94.4027 527.914 95.896 520.832 95.896ZM520.832 82.2C524.757 82.2 528.256 81.3467 531.328 79.64C534.4 77.9333 536.789 75.4587 538.496 72.216C540.288 68.9733 541.184 65.176 541.184 60.824C541.184 56.3867 540.288 52.5893 538.496 49.432C536.789 46.1893 534.4 43.7147 531.328 42.008C528.256 40.3013 524.8 39.448 520.96 39.448C517.034 39.448 513.536 40.3013 510.464 42.008C507.477 43.7147 505.088 46.1893 503.296 49.432C501.504 52.5893 500.608 56.3867 500.608 60.824C500.608 65.176 501.504 68.9733 503.296 72.216C505.088 75.4587 507.477 77.9333 510.464 79.64C513.536 81.3467 516.992 82.2 520.832 82.2ZM574.788 95V22.808C574.788 15.64 576.878 9.92267 581.06 5.656C585.326 1.304 591.385 -0.872002 599.236 -0.872002C602.052 -0.872002 604.697 -0.573336 607.172 0.0239944C609.732 0.62133 611.865 1.56 613.572 2.84L609.22 14.872C608.025 13.9333 606.66 13.2507 605.124 12.824C603.588 12.312 602.009 12.056 600.388 12.056C597.06 12.056 594.542 12.9947 592.836 14.872C591.129 16.664 590.276 19.3947 590.276 23.064V30.744L590.788 37.912V95H574.788ZM563.524 39.96V27.16H609.092V39.96H563.524ZM626.253 95V22.808C626.253 15.64 628.343 9.92267 632.525 5.656C636.791 1.304 642.85 -0.872002 650.701 -0.872002C653.517 -0.872002 656.162 -0.573336 658.637 0.0239944C661.197 0.62133 663.33 1.56 665.037 2.84L660.685 14.872C659.49 13.9333 658.125 13.2507 656.589 12.824C655.053 12.312 653.474 12.056 651.853 12.056C648.525 12.056 646.007 12.9947 644.301 14.872C642.594 16.664 641.741 19.3947 641.741 23.064V30.744L642.253 37.912V95H626.253ZM614.989 39.96V27.16H660.557V39.96H614.989ZM703.735 95.896C696.14 95.896 689.484 94.4027 683.767 91.416C678.135 88.344 673.74 84.1627 670.583 78.872C667.511 73.5813 665.975 67.5653 665.975 60.824C665.975 53.9973 667.468 47.9813 670.455 42.776C673.527 37.4853 677.708 33.3467 682.999 30.36C688.375 27.3733 694.476 25.88 701.303 25.88C707.959 25.88 713.889 27.3307 719.095 30.232C724.3 33.1333 728.396 37.2293 731.383 42.52C734.369 47.8107 735.863 54.04 735.863 61.208C735.863 61.8907 735.82 62.6587 735.735 63.512C735.735 64.3653 735.692 65.176 735.607 65.944H678.647V55.32H727.159L720.887 58.648C720.972 54.7227 720.161 51.2667 718.455 48.28C716.748 45.2933 714.401 42.9467 711.415 41.24C708.513 39.5333 705.143 38.68 701.303 38.68C697.377 38.68 693.921 39.5333 690.935 41.24C688.033 42.9467 685.729 45.336 684.023 48.408C682.401 51.3947 681.591 54.936 681.591 59.032V61.592C681.591 65.688 682.529 69.3147 684.407 72.472C686.284 75.6293 688.929 78.0613 692.343 79.768C695.756 81.4747 699.681 82.328 704.119 82.328C707.959 82.328 711.415 81.7307 714.487 80.536C717.559 79.3413 720.289 77.464 722.679 74.904L731.255 84.76C728.183 88.344 724.3 91.1173 719.607 93.08C714.999 94.9573 709.708 95.896 703.735 95.896ZM780.8 95.896C773.205 95.896 766.549 94.4027 760.832 91.416C755.2 88.344 750.805 84.1627 747.648 78.872C744.576 73.5813 743.04 67.5653 743.04 60.824C743.04 53.9973 744.533 47.9813 747.52 42.776C750.592 37.4853 754.773 33.3467 760.064 30.36C765.44 27.3733 771.541 25.88 778.368 25.88C785.024 25.88 790.954 27.3307 796.16 30.232C801.365 33.1333 805.461 37.2293 808.448 42.52C811.434 47.8107 812.928 54.04 812.928 61.208C812.928 61.8907 812.885 62.6587 812.8 63.512C812.8 64.3653 812.757 65.176 812.672 65.944H755.712V55.32H804.224L797.952 58.648C798.037 54.7227 797.226 51.2667 795.52 48.28C793.813 45.2933 791.466 42.9467 788.48 41.24C785.578 39.5333 782.208 38.68 778.368 38.68C774.442 38.68 770.986 39.5333 768 41.24C765.098 42.9467 762.794 45.336 761.088 48.408C759.466 51.3947 758.656 54.936 758.656 59.032V61.592C758.656 65.688 759.594 69.3147 761.472 72.472C763.349 75.6293 765.994 78.0613 769.408 79.768C772.821 81.4747 776.746 82.328 781.184 82.328C785.024 82.328 788.48 81.7307 791.552 80.536C794.624 79.3413 797.354 77.464 799.744 74.904L808.32 84.76C805.248 88.344 801.365 91.1173 796.672 93.08C792.064 94.9573 786.773 95.896 780.8 95.896Z" fill="black"/>
</g>
<defs>
<clipPath id="clip0_249_144">
<rect width="813" height="97" fill="white"/>
</clipPath>
</defs>
</svg>
