<svg width="943" height="90" viewBox="0 0 943 90" fill="none" xmlns="http://www.w3.org/2000/svg">
<path d="M216.683 25.2001C221.803 25.2001 226.363 26.2001 230.363 28.2001C234.443 30.2001 237.643 33.2801 239.963 37.4401C242.283 41.5201 243.443 46.8001 243.443 53.2801V90.0001H228.443V55.2001C228.443 49.5201 227.083 45.2801 224.363 42.4801C221.723 39.6801 218.003 38.2801 213.203 38.2801C209.683 38.2801 206.563 39.0001 203.843 40.4401C201.123 41.8801 199.003 44.0401 197.483 46.9201C196.043 49.7201 195.323 53.2801 195.323 57.6001V90.0001H180.323V25.9201H194.603V43.2001L192.083 37.9201C194.323 33.8401 197.563 30.7201 201.803 28.5601C206.123 26.3201 211.083 25.2001 216.683 25.2001Z" fill="#4FBABC"/>
<path d="M286.589 90.8401C280.029 90.8401 274.189 89.4401 269.069 86.6401C263.949 83.7601 259.909 79.8401 256.949 74.8801C253.989 69.9201 252.509 64.2801 252.509 57.9601C252.509 51.5601 253.989 45.9201 256.949 41.0401C259.909 36.0801 263.949 32.2001 269.069 29.4001C274.189 26.6001 280.029 25.2001 286.589 25.2001C293.229 25.2001 299.109 26.6001 304.229 29.4001C309.429 32.2001 313.469 36.0401 316.349 40.9201C319.309 45.8001 320.789 51.4801 320.789 57.9601C320.789 64.2801 319.309 69.9201 316.349 74.8801C313.469 79.8401 309.429 83.7601 304.229 86.6401C299.109 89.4401 293.229 90.8401 286.589 90.8401ZM286.589 78.0001C290.269 78.0001 293.549 77.2001 296.429 75.6001C299.309 74.0001 301.549 71.6801 303.149 68.6401C304.829 65.6001 305.669 62.0401 305.669 57.9601C305.669 53.8001 304.829 50.2401 303.149 47.2801C301.549 44.2401 299.309 41.9201 296.429 40.3201C293.549 38.7201 290.309 37.9201 286.709 37.9201C283.029 37.9201 279.749 38.7201 276.869 40.3201C274.069 41.9201 271.829 44.2401 270.149 47.2801C268.469 50.2401 267.629 53.8001 267.629 57.9601C267.629 62.0401 268.469 65.6001 270.149 68.6401C271.829 71.6801 274.069 74.0001 276.869 75.6001C279.749 77.2001 282.989 78.0001 286.589 78.0001Z" fill="#4FBABC"/>
<path d="M363.933 90.8401C357.373 90.8401 351.533 89.4401 346.413 86.6401C341.293 83.7601 337.253 79.8401 334.293 74.8801C331.333 69.9201 329.853 64.2801 329.853 57.9601C329.853 51.5601 331.333 45.9201 334.293 41.0401C337.253 36.0801 341.293 32.2001 346.413 29.4001C351.533 26.6001 357.373 25.2001 363.933 25.2001C370.573 25.2001 376.453 26.6001 381.573 29.4001C386.773 32.2001 390.813 36.0401 393.693 40.9201C396.653 45.8001 398.133 51.4801 398.133 57.9601C398.133 64.2801 396.653 69.9201 393.693 74.8801C390.813 79.8401 386.773 83.7601 381.573 86.6401C376.453 89.4401 370.573 90.8401 363.933 90.8401ZM363.933 78.0001C367.613 78.0001 370.893 77.2001 373.773 75.6001C376.653 74.0001 378.893 71.6801 380.493 68.6401C382.173 65.6001 383.013 62.0401 383.013 57.9601C383.013 53.8001 382.173 50.2401 380.493 47.2801C378.893 44.2401 376.653 41.9201 373.773 40.3201C370.893 38.7201 367.653 37.9201 364.053 37.9201C360.373 37.9201 357.093 38.7201 354.213 40.3201C351.413 41.9201 349.173 44.2401 347.493 47.2801C345.813 50.2401 344.973 53.8001 344.973 57.9601C344.973 62.0401 345.813 65.6001 347.493 68.6401C349.173 71.6801 351.413 74.0001 354.213 75.6001C357.093 77.2001 360.333 78.0001 363.933 78.0001Z" fill="#4FBABC"/>
<path d="M419.917 75.7201L420.277 56.8801L453.757 25.9201H471.757L443.317 54.4801L435.397 61.0801L419.917 75.7201ZM407.677 90.0001V0.960114H422.677V90.0001H407.677ZM456.037 90.0001L432.637 61.0801L442.117 49.0801L474.277 90.0001H456.037Z" fill="#4FBABC"/>
<path d="M509.557 91.2001C503.717 91.2001 498.477 90.2401 493.837 88.3201C489.197 86.4001 485.557 83.7601 482.917 80.4001C480.277 77.0401 478.957 73.1601 478.957 68.7601C478.957 64.7601 479.837 61.1601 481.597 57.9601C483.357 54.7601 486.157 51.7201 489.997 48.8401C493.837 45.8801 498.757 42.9201 504.757 39.9601C509.477 37.6401 513.157 35.6001 515.797 33.8401C518.517 32.0801 520.397 30.4001 521.437 28.8001C522.557 27.2001 523.117 25.5201 523.117 23.7601C523.117 21.3601 522.277 19.4401 520.597 18.0001C518.917 16.4801 516.517 15.7201 513.397 15.7201C510.037 15.7201 507.397 16.5601 505.477 18.2401C503.637 19.8401 502.717 21.9601 502.717 24.6001C502.717 25.9601 502.957 27.2801 503.437 28.5601C503.997 29.8401 504.957 31.2801 506.317 32.8801C507.677 34.4801 509.637 36.5201 512.197 39.0001L556.597 81.6001L548.317 91.3201L500.317 45.2401C497.597 42.6001 495.397 40.1601 493.717 37.9201C492.037 35.6801 490.837 33.5201 490.117 31.4401C489.397 29.2801 489.037 27.0801 489.037 24.8401C489.037 20.9201 490.037 17.4801 492.037 14.5201C494.037 11.4801 496.877 9.16011 500.557 7.56011C504.237 5.88012 508.517 5.04012 513.397 5.04012C517.957 5.04012 521.877 5.80012 525.157 7.32012C528.517 8.76012 531.117 10.8801 532.957 13.6801C534.877 16.4001 535.837 19.6801 535.837 23.5201C535.837 26.8801 534.997 30.0001 533.317 32.8801C531.637 35.6801 528.997 38.3601 525.397 40.9201C521.877 43.4801 517.157 46.1601 511.237 48.9601C506.837 51.1201 503.357 53.1601 500.797 55.0801C498.237 57.0001 496.397 58.9201 495.277 60.8401C494.157 62.7601 493.597 64.8801 493.597 67.2001C493.597 69.5201 494.277 71.5601 495.637 73.3201C497.077 75.0801 499.077 76.4801 501.637 77.5201C504.197 78.4801 507.197 78.9601 510.637 78.9601C515.757 78.9601 520.397 77.8401 524.557 75.6001C528.797 73.2801 532.357 69.8401 535.237 65.2801C538.117 60.7201 540.197 55.0801 541.477 48.3601L553.597 52.3201C551.917 60.4001 548.997 67.3601 544.837 73.2001C540.757 78.9601 535.717 83.4001 529.717 86.5201C523.717 89.6401 516.997 91.2001 509.557 91.2001Z" fill="#4FBABC"/>
<path d="M599.203 90.8401C592.483 90.8401 586.483 89.4401 581.203 86.6401C576.003 83.7601 571.923 79.8401 568.963 74.8801C566.003 69.9201 564.523 64.2801 564.523 57.9601C564.523 51.5601 566.003 45.9201 568.963 41.0401C571.923 36.0801 576.003 32.2001 581.203 29.4001C586.483 26.6001 592.483 25.2001 599.203 25.2001C605.443 25.2001 610.923 26.4801 615.643 29.0401C620.443 31.5201 624.083 35.2001 626.563 40.0801L615.043 46.8001C613.123 43.7601 610.763 41.5201 607.963 40.0801C605.243 38.6401 602.283 37.9201 599.083 37.9201C595.403 37.9201 592.083 38.7201 589.123 40.3201C586.163 41.9201 583.843 44.2401 582.163 47.2801C580.483 50.2401 579.643 53.8001 579.643 57.9601C579.643 62.1201 580.483 65.7201 582.163 68.7601C583.843 71.7201 586.163 74.0001 589.123 75.6001C592.083 77.2001 595.403 78.0001 599.083 78.0001C602.283 78.0001 605.243 77.2801 607.963 75.8401C610.763 74.4001 613.123 72.1601 615.043 69.1201L626.563 75.8401C624.083 80.6401 620.443 84.3601 615.643 87.0001C610.923 89.5601 605.443 90.8401 599.203 90.8401Z" fill="#4FBABC"/>
<path d="M668.592 90.8401C662.032 90.8401 656.192 89.4401 651.072 86.6401C645.952 83.7601 641.912 79.8401 638.952 74.8801C635.992 69.9201 634.512 64.2801 634.512 57.9601C634.512 51.5601 635.992 45.9201 638.952 41.0401C641.912 36.0801 645.952 32.2001 651.072 29.4001C656.192 26.6001 662.032 25.2001 668.592 25.2001C675.232 25.2001 681.112 26.6001 686.232 29.4001C691.432 32.2001 695.472 36.0401 698.352 40.9201C701.312 45.8001 702.792 51.4801 702.792 57.9601C702.792 64.2801 701.312 69.9201 698.352 74.8801C695.472 79.8401 691.432 83.7601 686.232 86.6401C681.112 89.4401 675.232 90.8401 668.592 90.8401ZM668.592 78.0001C672.272 78.0001 675.552 77.2001 678.432 75.6001C681.312 74.0001 683.552 71.6801 685.152 68.6401C686.832 65.6001 687.672 62.0401 687.672 57.9601C687.672 53.8001 686.832 50.2401 685.152 47.2801C683.552 44.2401 681.312 41.9201 678.432 40.3201C675.552 38.7201 672.312 37.9201 668.712 37.9201C665.032 37.9201 661.752 38.7201 658.872 40.3201C656.072 41.9201 653.832 44.2401 652.152 47.2801C650.472 50.2401 649.632 53.8001 649.632 57.9601C649.632 62.0401 650.472 65.6001 652.152 68.6401C653.832 71.6801 656.072 74.0001 658.872 75.6001C661.752 77.2001 664.992 78.0001 668.592 78.0001Z" fill="#4FBABC"/>
<path d="M719.176 90.0001V22.3201C719.176 15.6001 721.136 10.2401 725.056 6.24012C729.056 2.16012 734.736 0.120117 742.096 0.120117C744.736 0.120117 747.216 0.400116 749.536 0.960114C751.936 1.52012 753.936 2.40012 755.536 3.60012L751.456 14.8801C750.336 14.0001 749.056 13.3601 747.616 12.9601C746.176 12.4801 744.696 12.2401 743.176 12.2401C740.056 12.2401 737.696 13.1201 736.096 14.8801C734.496 16.5601 733.696 19.1201 733.696 22.5601V29.7601L734.176 36.4801V90.0001H719.176ZM708.616 38.4001V26.4001H751.336V38.4001H708.616Z" fill="#4FBABC"/>
<path d="M767.424 90.0001V22.3201C767.424 15.6001 769.384 10.2401 773.304 6.24012C777.304 2.16012 782.984 0.120117 790.344 0.120117C792.984 0.120117 795.464 0.400116 797.784 0.960114C800.184 1.52012 802.184 2.40012 803.784 3.60012L799.704 14.8801C798.584 14.0001 797.304 13.3601 795.864 12.9601C794.424 12.4801 792.944 12.2401 791.424 12.2401C788.304 12.2401 785.944 13.1201 784.344 14.8801C782.744 16.5601 781.944 19.1201 781.944 22.5601V29.7601L782.424 36.4801V90.0001H767.424ZM756.864 38.4001V26.4001H799.584V38.4001H756.864Z" fill="#4FBABC"/>
<path d="M840.064 90.8401C832.944 90.8401 826.704 89.4401 821.344 86.6401C816.064 83.7601 811.944 79.8401 808.984 74.8801C806.104 69.9201 804.664 64.2801 804.664 57.9601C804.664 51.5601 806.064 45.9201 808.864 41.0401C811.744 36.0801 815.664 32.2001 820.624 29.4001C825.664 26.6001 831.384 25.2001 837.784 25.2001C844.024 25.2001 849.584 26.5601 854.464 29.2801C859.344 32.0001 863.184 35.8401 865.984 40.8001C868.784 45.7601 870.184 51.6001 870.184 58.3201C870.184 58.9601 870.144 59.6801 870.064 60.4801C870.064 61.2801 870.024 62.0401 869.944 62.7601H816.544V52.8001H862.024L856.144 55.9201C856.224 52.2401 855.464 49.0001 853.864 46.2001C852.264 43.4001 850.064 41.2001 847.264 39.6001C844.544 38.0001 841.384 37.2001 837.784 37.2001C834.104 37.2001 830.864 38.0001 828.064 39.6001C825.344 41.2001 823.184 43.4401 821.584 46.3201C820.064 49.1201 819.304 52.4401 819.304 56.2801V58.6801C819.304 62.5201 820.184 65.9201 821.944 68.8801C823.704 71.8401 826.184 74.1201 829.384 75.7201C832.584 77.3201 836.264 78.1201 840.424 78.1201C844.024 78.1201 847.264 77.5601 850.144 76.4401C853.024 75.3201 855.584 73.5601 857.824 71.1601L865.864 80.4001C862.984 83.7601 859.344 86.3601 854.944 88.2001C850.624 89.9601 845.664 90.8401 840.064 90.8401Z" fill="#4FBABC"/>
<path d="M912.312 90.8401C905.192 90.8401 898.952 89.4401 893.592 86.6401C888.312 83.7601 884.192 79.8401 881.232 74.8801C878.352 69.9201 876.912 64.2801 876.912 57.9601C876.912 51.5601 878.312 45.9201 881.112 41.0401C883.992 36.0801 887.912 32.2001 892.872 29.4001C897.912 26.6001 903.632 25.2001 910.032 25.2001C916.272 25.2001 921.832 26.5601 926.712 29.2801C931.592 32.0001 935.432 35.8401 938.232 40.8001C941.032 45.7601 942.432 51.6001 942.432 58.3201C942.432 58.9601 942.392 59.6801 942.312 60.4801C942.312 61.2801 942.272 62.0401 942.192 62.7601H888.792V52.8001H934.272L928.392 55.9201C928.472 52.2401 927.712 49.0001 926.112 46.2001C924.512 43.4001 922.312 41.2001 919.512 39.6001C916.792 38.0001 913.632 37.2001 910.032 37.2001C906.352 37.2001 903.112 38.0001 900.312 39.6001C897.592 41.2001 895.432 43.4401 893.832 46.3201C892.312 49.1201 891.552 52.4401 891.552 56.2801V58.6801C891.552 62.5201 892.432 65.9201 894.192 68.8801C895.952 71.8401 898.432 74.1201 901.632 75.7201C904.832 77.3201 908.512 78.1201 912.672 78.1201C916.272 78.1201 919.512 77.5601 922.392 76.4401C925.272 75.3201 927.832 73.5601 930.072 71.1601L938.112 80.4001C935.232 83.7601 931.592 86.3601 927.192 88.2001C922.872 89.9601 917.912 90.8401 912.312 90.8401Z" fill="#4FBABC"/>
<path d="M8.68945 33.8183V44.0001H7.78462L1.769 35.4738H1.68945V44.0001H0.759766V33.8183H1.65962L7.69514 42.3545H7.77468V33.8183H8.68945Z" fill="#4FBABC"/>
<path d="M16.9599 44.1592C16.2473 44.1592 15.6308 43.9935 15.1105 43.6621C14.5901 43.3273 14.1874 42.8649 13.9024 42.275C13.6206 41.6817 13.4798 40.9989 13.4798 40.2267C13.4798 39.4577 13.6206 38.775 13.9024 38.1784C14.1874 37.5785 14.5802 37.1095 15.0806 36.7714C15.5844 36.43 16.1661 36.2593 16.8257 36.2593C17.24 36.2593 17.6393 36.3356 18.0238 36.488C18.4083 36.6372 18.753 36.8675 19.0579 37.1791C19.3661 37.4873 19.6098 37.8768 19.7887 38.3474C19.9677 38.8147 20.0572 39.3683 20.0572 40.0079V40.4454H14.0913V39.6649H19.1524C19.1524 39.1744 19.0529 38.7335 18.8541 38.3424C18.6585 37.948 18.3851 37.6365 18.0338 37.4078C17.6857 37.1791 17.283 37.0648 16.8257 37.0648C16.3418 37.0648 15.9159 37.194 15.548 37.4525C15.1801 37.7111 14.8917 38.0524 14.6829 38.4767C14.4774 38.9009 14.373 39.3649 14.3697 39.8687V40.3361C14.3697 40.9426 14.4741 41.4729 14.6829 41.927C14.895 42.3777 15.195 42.7274 15.5828 42.976C15.9705 43.2246 16.4296 43.3488 16.9599 43.3488C17.3212 43.3488 17.6377 43.2925 17.9095 43.1798C18.1846 43.0671 18.4149 42.9163 18.6005 42.7274C18.7894 42.5352 18.932 42.3247 19.0281 42.096L19.8683 42.3694C19.7523 42.6909 19.5617 42.9876 19.2965 43.2593C19.0347 43.5311 18.7066 43.7499 18.3122 43.9156C17.9211 44.078 17.4703 44.1592 16.9599 44.1592Z" fill="#4FBABC"/>
<path d="M26.3626 44.0001L24.0558 36.3638H24.9905L26.8001 42.6628H26.8647L28.6694 36.3638H29.6091L31.3988 42.6478H31.4684L33.2781 36.3638H34.2128L31.9059 44.0001H30.9912L29.1815 37.7409H29.087L27.2774 44.0001H26.3626Z" fill="#4FBABC"/>
<path d="M44.9717 44.0001V43.2991L50.6244 34.6535H44.9418V33.8183H51.733V34.5193L46.0754 43.1649H51.7828V44.0001H44.9717Z" fill="#4FBABC"/>
<path d="M59.5921 44.1592C58.8795 44.1592 58.263 43.9935 57.7426 43.6621C57.2223 43.3273 56.8196 42.8649 56.5346 42.275C56.2528 41.6817 56.112 40.9989 56.112 40.2267C56.112 39.4577 56.2528 38.775 56.5346 38.1784C56.8196 37.5785 57.2123 37.1095 57.7128 36.7714C58.2166 36.43 58.7983 36.2593 59.4578 36.2593C59.8721 36.2593 60.2715 36.3356 60.656 36.488C61.0405 36.6372 61.3852 36.8675 61.6901 37.1791C61.9983 37.4873 62.2419 37.8768 62.4209 38.3474C62.5999 38.8147 62.6894 39.3683 62.6894 40.0079V40.4454H56.7235V39.6649H61.7846C61.7846 39.1744 61.6851 38.7335 61.4863 38.3424C61.2907 37.948 61.0173 37.6365 60.6659 37.4078C60.3179 37.1791 59.9152 37.0648 59.4578 37.0648C58.9739 37.0648 58.548 37.194 58.1801 37.4525C57.8123 37.7111 57.5239 38.0524 57.3151 38.4767C57.1096 38.9009 57.0052 39.3649 57.0019 39.8687V40.3361C57.0019 40.9426 57.1063 41.4729 57.3151 41.927C57.5272 42.3777 57.8272 42.7274 58.215 42.976C58.6027 43.2246 59.0618 43.3488 59.5921 43.3488C59.9533 43.3488 60.2699 43.2925 60.5417 43.1798C60.8167 43.0671 61.0471 42.9163 61.2327 42.7274C61.4216 42.5352 61.5641 42.3247 61.6603 42.096L62.5005 42.3694C62.3845 42.6909 62.1939 42.9876 61.9287 43.2593C61.6669 43.5311 61.3388 43.7499 60.9444 43.9156C60.5533 44.078 60.1025 44.1592 59.5921 44.1592Z" fill="#4FBABC"/>
<path d="M69.4323 44.1741C68.9716 44.1741 68.5507 44.0846 68.1695 43.9057C67.7884 43.7234 67.4851 43.4615 67.2597 43.1201C67.0343 42.7755 66.9216 42.3578 66.9216 41.8673C66.9216 41.4895 66.9929 41.1713 67.1354 40.9128C67.2779 40.6542 67.4801 40.4421 67.742 40.2764C68.0038 40.1107 68.3137 39.9798 68.6716 39.8836C69.0296 39.7875 69.424 39.7129 69.8549 39.6599C70.2824 39.6069 70.6437 39.5605 70.9387 39.5207C71.237 39.4809 71.464 39.418 71.6198 39.3318C71.7756 39.2456 71.8535 39.1064 71.8535 38.9142V38.7352C71.8535 38.2148 71.6977 37.8055 71.3861 37.5072C71.0779 37.2056 70.6338 37.0548 70.0537 37.0548C69.5036 37.0548 69.0545 37.1758 68.7065 37.4177C68.3618 37.6597 68.1198 37.9447 67.9806 38.2728L67.1404 37.9696C67.3127 37.552 67.5514 37.2189 67.8563 36.9703C68.1612 36.7184 68.5026 36.5378 68.8805 36.4284C69.2583 36.3157 69.6411 36.2593 70.0289 36.2593C70.3206 36.2593 70.6238 36.2975 70.9387 36.3737C71.2569 36.4499 71.5519 36.5825 71.8236 36.7714C72.0954 36.957 72.3158 37.2172 72.4849 37.552C72.6539 37.8834 72.7384 38.3043 72.7384 38.8148V44.0001H71.8535V42.792H71.7988C71.6927 43.0174 71.5353 43.2362 71.3265 43.4483C71.1177 43.6604 70.8558 43.8344 70.541 43.9703C70.2261 44.1062 69.8565 44.1741 69.4323 44.1741ZM69.5516 43.3638C70.0223 43.3638 70.4299 43.2594 70.7746 43.0505C71.1193 42.8417 71.3845 42.565 71.5701 42.2203C71.759 41.8723 71.8535 41.4895 71.8535 41.0718V39.9682C71.7872 40.0311 71.6761 40.0875 71.5204 40.1372C71.3679 40.1869 71.1906 40.2317 70.9884 40.2714C70.7895 40.3079 70.5907 40.3394 70.3918 40.3659C70.193 40.3924 70.014 40.4156 69.8549 40.4355C69.424 40.4885 69.0561 40.5714 68.7512 40.6841C68.4463 40.7968 68.2126 40.9525 68.0502 41.1514C67.8878 41.3469 67.8066 41.5988 67.8066 41.9071C67.8066 42.3711 67.9723 42.7307 68.3037 42.9859C68.6352 43.2378 69.0511 43.3638 69.5516 43.3638Z" fill="#4FBABC"/>
<path d="M78.6374 33.8183V44.0001H77.7525V33.8183H78.6374Z" fill="#4FBABC"/>
<path d="M85.7718 44.1741C85.3111 44.1741 84.8902 44.0846 84.509 43.9057C84.1279 43.7234 83.8246 43.4615 83.5992 43.1201C83.3739 42.7755 83.2612 42.3578 83.2612 41.8673C83.2612 41.4895 83.3324 41.1713 83.475 40.9128C83.6175 40.6542 83.8197 40.4421 84.0815 40.2764C84.3433 40.1107 84.6532 39.9798 85.0112 39.8836C85.3691 39.7875 85.7635 39.7129 86.1944 39.6599C86.622 39.6069 86.9832 39.5605 87.2782 39.5207C87.5765 39.4809 87.8036 39.418 87.9593 39.3318C88.1151 39.2456 88.193 39.1064 88.193 38.9142V38.7352C88.193 38.2148 88.0372 37.8055 87.7257 37.5072C87.4174 37.2056 86.9733 37.0548 86.3933 37.0548C85.8431 37.0548 85.394 37.1758 85.046 37.4177C84.7013 37.6597 84.4593 37.9447 84.3201 38.2728L83.4799 37.9696C83.6523 37.552 83.8909 37.2189 84.1958 36.9703C84.5008 36.7184 84.8421 36.5378 85.22 36.4284C85.5978 36.3157 85.9806 36.2593 86.3684 36.2593C86.6601 36.2593 86.9634 36.2975 87.2782 36.3737C87.5964 36.4499 87.8914 36.5825 88.1632 36.7714C88.435 36.957 88.6554 37.2172 88.8244 37.552C88.9934 37.8834 89.0779 38.3043 89.0779 38.8148V44.0001H88.193V42.792H88.1383C88.0322 43.0174 87.8748 43.2362 87.666 43.4483C87.4572 43.6604 87.1954 43.8344 86.8805 43.9703C86.5656 44.1062 86.1961 44.1741 85.7718 44.1741ZM85.8912 43.3638C86.3618 43.3638 86.7695 43.2594 87.1142 43.0505C87.4589 42.8417 87.724 42.565 87.9096 42.2203C88.0985 41.8723 88.193 41.4895 88.193 41.0718V39.9682C88.1267 40.0311 88.0157 40.0875 87.8599 40.1372C87.7074 40.1869 87.5301 40.2317 87.3279 40.2714C87.1291 40.3079 86.9302 40.3394 86.7313 40.3659C86.5325 40.3924 86.3535 40.4156 86.1944 40.4355C85.7635 40.4885 85.3956 40.5714 85.0907 40.6841C84.7858 40.7968 84.5521 40.9525 84.3897 41.1514C84.2273 41.3469 84.1461 41.5988 84.1461 41.9071C84.1461 42.3711 84.3118 42.7307 84.6433 42.9859C84.9747 43.2378 85.3907 43.3638 85.8912 43.3638Z" fill="#4FBABC"/>
<path d="M94.9769 39.2274V44.0001H94.092V36.3638H94.9521V37.5619H95.0316C95.2106 37.1708 95.489 36.8576 95.8669 36.6223C96.248 36.3836 96.7186 36.2643 97.2788 36.2643C97.7925 36.2643 98.2433 36.372 98.6311 36.5875C99.0221 36.7996 99.3254 37.1128 99.5409 37.5271C99.7596 37.9414 99.869 38.4502 99.869 39.0534V44.0001H98.984V39.1081C98.984 38.4817 98.8084 37.9862 98.457 37.6216C98.109 37.257 97.6417 37.0747 97.0551 37.0747C96.654 37.0747 96.2977 37.1609 95.9862 37.3332C95.6746 37.5056 95.4277 37.7541 95.2454 38.079C95.0664 38.4004 94.9769 38.7833 94.9769 39.2274Z" fill="#4FBABC"/>
<path d="M107.609 44.1592C106.982 44.1592 106.434 43.9935 105.963 43.6621C105.492 43.3306 105.125 42.8683 104.859 42.275C104.598 41.6817 104.467 40.9906 104.467 40.2018C104.467 39.4163 104.598 38.7286 104.859 38.1386C105.125 37.5453 105.494 37.0846 105.968 36.7565C106.442 36.4251 106.994 36.2593 107.624 36.2593C108.088 36.2593 108.474 36.3422 108.782 36.5079C109.09 36.6703 109.337 36.8725 109.523 37.1145C109.708 37.3564 109.853 37.5917 109.955 37.8204H110.035V33.8183H110.925V44.0001H110.06V42.5832H109.955C109.853 42.8152 109.707 43.0539 109.518 43.2991C109.329 43.5411 109.079 43.7449 108.767 43.9106C108.459 44.0763 108.073 44.1592 107.609 44.1592ZM107.713 43.3488C108.207 43.3488 108.628 43.2146 108.976 42.9461C109.324 42.6744 109.589 42.3015 109.771 41.8275C109.957 41.3503 110.05 40.8034 110.05 40.1869C110.05 39.5771 109.959 39.0385 109.776 38.5711C109.594 38.1005 109.329 37.7326 108.981 37.4674C108.633 37.199 108.21 37.0648 107.713 37.0648C107.203 37.0648 106.772 37.204 106.42 37.4824C106.072 37.7575 105.807 38.1303 105.625 38.601C105.446 39.0716 105.357 39.6003 105.357 40.1869C105.357 40.7802 105.448 41.3155 105.63 41.7927C105.812 42.27 106.077 42.6495 106.425 42.9312C106.777 43.2096 107.206 43.3488 107.713 43.3488Z" fill="#4FBABC"/>
<path d="M128.415 36.3638C128.359 35.797 128.109 35.3462 127.664 35.0115C127.22 34.6767 126.662 34.5093 125.989 34.5093C125.515 34.5093 125.097 34.5906 124.736 34.753C124.378 34.9154 124.097 35.1407 123.891 35.4291C123.689 35.7141 123.588 36.0389 123.588 36.4035C123.588 36.672 123.646 36.9073 123.762 37.1095C123.878 37.3117 124.034 37.4857 124.229 37.6315C124.428 37.774 124.647 37.8967 124.885 37.9994C125.127 38.1022 125.371 38.1883 125.616 38.2579L126.69 38.5662C127.015 38.6557 127.34 38.77 127.664 38.9092C127.989 39.0484 128.286 39.2241 128.554 39.4362C128.826 39.645 129.043 39.9019 129.206 40.2068C129.371 40.5084 129.454 40.8713 129.454 41.2956C129.454 41.8391 129.313 42.328 129.032 42.7622C128.75 43.1964 128.346 43.5411 127.819 43.7963C127.292 44.0482 126.66 44.1741 125.924 44.1741C125.232 44.1741 124.63 44.0598 124.12 43.8311C123.609 43.5991 123.208 43.2792 122.917 42.8716C122.625 42.4639 122.461 41.9916 122.424 41.4547H123.379C123.412 41.8557 123.545 42.1954 123.777 42.4738C124.009 42.7522 124.31 42.9644 124.682 43.1102C125.053 43.2527 125.467 43.324 125.924 43.324C126.432 43.324 126.882 43.2395 127.277 43.0704C127.674 42.8981 127.986 42.6594 128.211 42.3545C128.44 42.0463 128.554 41.6883 128.554 41.2807C128.554 40.936 128.465 40.6476 128.286 40.4156C128.107 40.1803 127.857 39.9831 127.535 39.824C127.217 39.6649 126.847 39.524 126.427 39.4014L125.209 39.0434C124.41 38.8048 123.79 38.475 123.349 38.0541C122.908 37.6332 122.688 37.0962 122.688 36.4433C122.688 35.8964 122.834 35.4158 123.125 35.0015C123.42 34.5839 123.818 34.2591 124.319 34.0271C124.822 33.7918 125.388 33.6741 126.014 33.6741C126.647 33.6741 127.207 33.7901 127.694 34.0221C128.182 34.2541 128.568 34.574 128.853 34.9817C129.141 35.386 129.295 35.8467 129.315 36.3638H128.415Z" fill="#4FBABC"/>
<path d="M137.175 36.3638V37.1343H133.531V36.3638H137.175ZM134.67 34.5342H135.56V42.0065C135.56 42.3247 135.614 42.5749 135.724 42.7572C135.833 42.9362 135.976 43.0638 136.151 43.14C136.327 43.213 136.514 43.2494 136.713 43.2494C136.829 43.2494 136.928 43.2428 137.011 43.2295C137.094 43.213 137.167 43.1964 137.23 43.1798L137.419 43.9802C137.333 44.0134 137.227 44.0432 137.101 44.0697C136.975 44.0996 136.819 44.1145 136.633 44.1145C136.309 44.1145 135.995 44.0432 135.694 43.9007C135.396 43.7582 135.15 43.546 134.958 43.2643C134.766 42.9826 134.67 42.6329 134.67 42.2153V34.5342Z" fill="#4FBABC"/>
<path d="M142.462 46.8638C142.286 46.8638 142.122 46.8472 141.969 46.814C141.817 46.7809 141.696 46.7444 141.606 46.7047L141.845 45.9241C142.147 46.0169 142.415 46.0501 142.651 46.0236C142.886 46.0004 143.095 45.8943 143.277 45.7054C143.459 45.5198 143.622 45.2347 143.764 44.8503L144.043 44.0747L141.234 36.3638H142.193L144.46 42.8318H144.53L146.797 36.3638H147.756L144.525 45.2082C144.389 45.5761 144.222 45.8827 144.023 46.128C143.824 46.3765 143.593 46.5605 143.332 46.6798C143.073 46.8024 142.783 46.8638 142.462 46.8638Z" fill="#4FBABC"/>
<path d="M153.033 33.8183V44.0001H152.148V33.8183H153.033Z" fill="#4FBABC"/>
<path d="M161.122 44.1592C160.409 44.1592 159.793 43.9935 159.272 43.6621C158.752 43.3273 158.349 42.8649 158.064 42.275C157.782 41.6817 157.641 40.9989 157.641 40.2267C157.641 39.4577 157.782 38.775 158.064 38.1784C158.349 37.5785 158.742 37.1095 159.242 36.7714C159.746 36.43 160.328 36.2593 160.987 36.2593C161.402 36.2593 161.801 36.3356 162.186 36.488C162.57 36.6372 162.915 36.8675 163.22 37.1791C163.528 37.4873 163.771 37.8768 163.95 38.3474C164.129 38.8147 164.219 39.3683 164.219 40.0079V40.4454H158.253V39.6649H163.314C163.314 39.1744 163.215 38.7335 163.016 38.3424C162.82 37.948 162.547 37.6365 162.195 37.4078C161.847 37.1791 161.445 37.0648 160.987 37.0648C160.503 37.0648 160.078 37.194 159.71 37.4525C159.342 37.7111 159.053 38.0524 158.845 38.4767C158.639 38.9009 158.535 39.3649 158.531 39.8687V40.3361C158.531 40.9426 158.636 41.4729 158.845 41.927C159.057 42.3777 159.357 42.7274 159.744 42.976C160.132 43.2246 160.591 43.3488 161.122 43.3488C161.483 43.3488 161.799 43.2925 162.071 43.1798C162.346 43.0671 162.577 42.9163 162.762 42.7274C162.951 42.5352 163.094 42.3247 163.19 42.096L164.03 42.3694C163.914 42.6909 163.723 42.9876 163.458 43.2593C163.196 43.5311 162.868 43.7499 162.474 43.9156C162.083 44.078 161.632 44.1592 161.122 44.1592Z" fill="#4FBABC"/>
<path d="M68.8769 54.3638C68.8206 53.797 68.5703 53.3462 68.1262 53.0115C67.6821 52.6767 67.1236 52.5093 66.4508 52.5093C65.9768 52.5093 65.5592 52.5906 65.1979 52.753C64.84 52.9154 64.5583 53.1407 64.3528 53.4291C64.1506 53.7141 64.0495 54.0389 64.0495 54.4035C64.0495 54.672 64.1075 54.9073 64.2235 55.1095C64.3395 55.3117 64.4953 55.4857 64.6908 55.6315C64.8897 55.774 65.1085 55.8967 65.3471 55.9994C65.589 56.1022 65.8326 56.1883 66.0779 56.2579L67.1518 56.5662C67.4766 56.6557 67.8014 56.77 68.1262 56.9092C68.451 57.0484 68.7477 57.2241 69.0161 57.4362C69.2879 57.645 69.505 57.9019 69.6674 58.2068C69.8331 58.5084 69.916 58.8713 69.916 59.2956C69.916 59.8391 69.7751 60.328 69.4934 60.7622C69.2117 61.1964 68.8073 61.5411 68.2803 61.7963C67.7533 62.0482 67.1219 62.1741 66.3862 62.1741C65.6934 62.1741 65.0919 62.0598 64.5815 61.8311C64.071 61.5991 63.67 61.2792 63.3783 60.8716C63.0867 60.4639 62.9226 59.9916 62.8862 59.4547H63.8407C63.8738 59.8557 64.0064 60.1954 64.2384 60.4738C64.4704 60.7522 64.772 60.9644 65.1433 61.1102C65.5145 61.2527 65.9288 61.324 66.3862 61.324C66.8933 61.324 67.344 61.2395 67.7384 61.0704C68.1362 60.8981 68.4477 60.6594 68.6731 60.3545C68.9018 60.0463 69.0161 59.6883 69.0161 59.2807C69.0161 58.936 68.9266 58.6476 68.7477 58.4156C68.5687 58.1803 68.3184 57.9831 67.9969 57.824C67.6788 57.6649 67.3092 57.524 66.8883 57.4014L65.6702 57.0434C64.8715 56.8048 64.2517 56.475 63.8109 56.0541C63.3701 55.6332 63.1496 55.0962 63.1496 54.4433C63.1496 53.8964 63.2955 53.4158 63.5871 53.0015C63.8821 52.5839 64.2799 52.2591 64.7803 52.0271C65.2841 51.7918 65.8492 51.6741 66.4756 51.6741C67.1087 51.6741 67.6688 51.7901 68.156 52.0221C68.6433 52.2541 69.0294 52.574 69.3144 52.9817C69.6028 53.386 69.7569 53.8467 69.7768 54.3638H68.8769Z" fill="#4FBABC"/>
<path d="M76.7621 62.1741C76.3014 62.1741 75.8804 62.0846 75.4993 61.9057C75.1181 61.7234 74.8149 61.4615 74.5895 61.1201C74.3641 60.7755 74.2514 60.3578 74.2514 59.8673C74.2514 59.4895 74.3227 59.1713 74.4652 58.9128C74.6077 58.6542 74.8099 58.4421 75.0717 58.2764C75.3336 58.1107 75.6435 57.9798 76.0014 57.8836C76.3594 57.7875 76.7538 57.7129 77.1847 57.6599C77.6122 57.6069 77.9735 57.5605 78.2685 57.5207C78.5668 57.4809 78.7938 57.418 78.9496 57.3318C79.1053 57.2456 79.1832 57.1064 79.1832 56.9142V56.7352C79.1832 56.2148 79.0275 55.8055 78.7159 55.5072C78.4077 55.2056 77.9635 55.0548 77.3835 55.0548C76.8333 55.0548 76.3842 55.1758 76.0362 55.4177C75.6915 55.6597 75.4496 55.9447 75.3104 56.2728L74.4702 55.9696C74.6425 55.552 74.8811 55.2189 75.1861 54.9703C75.491 54.7184 75.8324 54.5378 76.2102 54.4284C76.5881 54.3157 76.9709 54.2593 77.3587 54.2593C77.6503 54.2593 77.9536 54.2975 78.2685 54.3737C78.5866 54.4499 78.8816 54.5825 79.1534 54.7714C79.4252 54.957 79.6456 55.2172 79.8146 55.552C79.9837 55.8834 80.0682 56.3043 80.0682 56.8148V62.0001H79.1832V60.792H79.1285C79.0225 61.0174 78.865 61.2362 78.6562 61.4483C78.4474 61.6604 78.1856 61.8344 77.8707 61.9703C77.5559 62.1062 77.1863 62.1741 76.7621 62.1741ZM76.8814 61.3638C77.352 61.3638 77.7597 61.2594 78.1044 61.0505C78.4491 60.8417 78.7142 60.565 78.8998 60.2203C79.0888 59.8723 79.1832 59.4895 79.1832 59.0718V57.9682C79.1169 58.0311 79.0059 58.0875 78.8501 58.1372C78.6977 58.1869 78.5204 58.2317 78.3182 58.2714C78.1193 58.3079 77.9204 58.3394 77.7216 58.3659C77.5227 58.3924 77.3437 58.4156 77.1847 58.4355C76.7538 58.4885 76.3859 58.5714 76.081 58.6841C75.776 58.7968 75.5424 58.9525 75.38 59.1514C75.2176 59.3469 75.1364 59.5988 75.1364 59.9071C75.1364 60.3711 75.3021 60.7307 75.6335 60.9859C75.965 61.2378 76.3809 61.3638 76.8814 61.3638Z" fill="#4FBABC"/>
<path d="M85.9672 57.2274V62.0001H85.0822V54.3638H85.9423V55.5619H86.0219C86.2008 55.1708 86.4792 54.8576 86.8571 54.6223C87.2382 54.3836 87.7089 54.2643 88.269 54.2643C88.7827 54.2643 89.2335 54.372 89.6213 54.5875C90.0124 54.7996 90.3156 55.1128 90.5311 55.5271C90.7498 55.9414 90.8592 56.4502 90.8592 57.0534V62.0001H89.9743V57.1081C89.9743 56.4817 89.7986 55.9862 89.4473 55.6216C89.0993 55.257 88.6319 55.0747 88.0453 55.0747C87.6442 55.0747 87.2879 55.1609 86.9764 55.3332C86.6648 55.5056 86.4179 55.7541 86.2356 56.079C86.0566 56.4004 85.9672 56.7833 85.9672 57.2274Z" fill="#4FBABC"/>
<path d="M98.5989 62.1592C97.9725 62.1592 97.424 61.9935 96.9533 61.6621C96.4827 61.3306 96.1148 60.8683 95.8496 60.275C95.5878 59.6817 95.4569 58.9906 95.4569 58.2018C95.4569 57.4163 95.5878 56.7286 95.8496 56.1386C96.1148 55.5453 96.4843 55.0846 96.9583 54.7565C97.4323 54.4251 97.9841 54.2593 98.6138 54.2593C99.0779 54.2593 99.464 54.3422 99.7722 54.5079C100.08 54.6703 100.327 54.8725 100.513 55.1145C100.699 55.3564 100.843 55.5917 100.946 55.8204H101.025V51.8183H101.915V62.0001H101.05V60.5832H100.946C100.843 60.8152 100.697 61.0539 100.508 61.2991C100.319 61.5411 100.069 61.7449 99.7573 61.9106C99.4491 62.0763 99.0629 62.1592 98.5989 62.1592ZM98.7033 61.3488C99.1972 61.3488 99.6181 61.2146 99.9661 60.9461C100.314 60.6744 100.579 60.3015 100.762 59.8275C100.947 59.3503 101.04 58.8034 101.04 58.1869C101.04 57.5771 100.949 57.0385 100.767 56.5711C100.584 56.1005 100.319 55.7326 99.9711 55.4674C99.6231 55.199 99.2005 55.0648 98.7033 55.0648C98.1929 55.0648 97.762 55.204 97.4107 55.4824C97.0627 55.7575 96.7975 56.1303 96.6153 56.601C96.4363 57.0716 96.3468 57.6003 96.3468 58.1869C96.3468 58.7802 96.4379 59.3155 96.6202 59.7927C96.8025 60.27 97.0677 60.6495 97.4157 60.9312C97.767 61.2096 98.1962 61.3488 98.7033 61.3488Z" fill="#4FBABC"/>
<path d="M108.791 62.0001L106.484 54.3638H107.419L109.228 60.6628H109.293L111.098 54.3638H112.037L113.827 60.6478H113.897L115.706 54.3638H116.641L114.334 62.0001H113.419L111.61 55.7409H111.515L109.706 62.0001H108.791Z" fill="#4FBABC"/>
<path d="M121.031 62.0001V54.3638H121.921V62.0001H121.031ZM121.484 53.0513C121.301 53.0513 121.145 52.9899 121.016 52.8673C120.887 52.7414 120.822 52.5906 120.822 52.4149C120.822 52.2392 120.887 52.0901 121.016 51.9674C121.145 51.8415 121.301 51.7785 121.484 51.7785C121.666 51.7785 121.822 51.8415 121.951 51.9674C122.08 52.0901 122.145 52.2392 122.145 52.4149C122.145 52.5906 122.08 52.7414 121.951 52.8673C121.822 52.9899 121.666 53.0513 121.484 53.0513Z" fill="#4FBABC"/>
<path d="M129.904 62.1592C129.222 62.1592 128.627 61.9885 128.12 61.6471C127.616 61.3058 127.225 60.8384 126.946 60.2451C126.668 59.6519 126.529 58.9757 126.529 58.2167C126.529 57.4511 126.67 56.77 126.951 56.1734C127.236 55.5768 127.631 55.1095 128.135 54.7714C128.638 54.43 129.223 54.2593 129.889 54.2593C130.4 54.2593 130.862 54.3588 131.277 54.5576C131.691 54.7532 132.032 55.0299 132.301 55.3879C132.572 55.7425 132.743 56.1568 132.813 56.6308H131.918C131.825 56.1999 131.601 55.832 131.247 55.5271C130.895 55.2189 130.448 55.0648 129.904 55.0648C129.417 55.0648 128.986 55.1973 128.612 55.4625C128.237 55.7243 127.944 56.0906 127.732 56.5612C127.523 57.0285 127.419 57.5704 127.419 58.1869C127.419 58.8067 127.521 59.3552 127.727 59.8325C127.932 60.3065 128.221 60.6777 128.592 60.9461C128.966 61.2146 129.404 61.3488 129.904 61.3488C130.242 61.3488 130.551 61.2859 130.829 61.1599C131.111 61.0307 131.346 60.8484 131.535 60.613C131.727 60.3777 131.857 60.0977 131.923 59.7728H132.818C132.751 60.2335 132.587 60.6445 132.326 61.0058C132.067 61.3638 131.731 61.6455 131.316 61.851C130.905 62.0565 130.435 62.1592 129.904 62.1592Z" fill="#4FBABC"/>
<path d="M138.259 57.2274V62.0001H137.374V51.8183H138.259V55.5619H138.339C138.518 55.1675 138.795 54.8526 139.169 54.6173C139.547 54.382 140.024 54.2643 140.601 54.2643C141.118 54.2643 141.572 54.3704 141.963 54.5825C142.354 54.7946 142.659 55.1078 142.878 55.5221C143.097 55.9364 143.206 56.4469 143.206 57.0534V62.0001H142.316V57.1081C142.316 56.4783 142.14 55.9828 141.789 55.6216C141.441 55.257 140.971 55.0747 140.377 55.0747C139.97 55.0747 139.607 55.1609 139.288 55.3332C138.97 55.5056 138.718 55.7541 138.533 56.079C138.35 56.4004 138.259 56.7833 138.259 57.2274Z" fill="#4FBABC"/>
<path d="M151.284 62.1592C150.571 62.1592 149.955 61.9935 149.434 61.6621C148.914 61.3273 148.511 60.8649 148.226 60.275C147.945 59.6817 147.804 58.9989 147.804 58.2267C147.804 57.4577 147.945 56.775 148.226 56.1784C148.511 55.5785 148.904 55.1095 149.405 54.7714C149.908 54.43 150.49 54.2593 151.15 54.2593C151.564 54.2593 151.963 54.3356 152.348 54.488C152.732 54.6372 153.077 54.8675 153.382 55.1791C153.69 55.4873 153.934 55.8768 154.113 56.3474C154.292 56.8147 154.381 57.3683 154.381 58.0079V58.4454H148.415V57.6649H153.476C153.476 57.1744 153.377 56.7335 153.178 56.3424C152.983 55.948 152.709 55.6365 152.358 55.4078C152.01 55.1791 151.607 55.0648 151.15 55.0648C150.666 55.0648 150.24 55.194 149.872 55.4525C149.504 55.7111 149.216 56.0524 149.007 56.4767C148.801 56.9009 148.697 57.3649 148.694 57.8687V58.3361C148.694 58.9426 148.798 59.4729 149.007 59.927C149.219 60.3777 149.519 60.7274 149.907 60.976C150.295 61.2246 150.754 61.3488 151.284 61.3488C151.645 61.3488 151.962 61.2925 152.233 61.1798C152.509 61.0671 152.739 60.9163 152.924 60.7274C153.113 60.5352 153.256 60.3247 153.352 60.096L154.192 60.3694C154.076 60.6909 153.886 60.9876 153.621 61.2593C153.359 61.5311 153.031 61.7499 152.636 61.9156C152.245 62.078 151.794 62.1592 151.284 62.1592Z" fill="#4FBABC"/>
<path d="M164.122 56.0392L163.312 56.2679C163.232 56.0392 163.119 55.832 162.974 55.6464C162.828 55.4608 162.637 55.3133 162.402 55.204C162.17 55.0946 161.881 55.0399 161.537 55.0399C161.02 55.0399 160.595 55.1625 160.264 55.4078C159.933 55.6531 159.767 55.9696 159.767 56.3574C159.767 56.6855 159.88 56.9523 160.105 57.1578C160.334 57.36 160.685 57.5207 161.159 57.64L162.312 57.9234C162.952 58.0792 163.431 58.3261 163.749 58.6642C164.071 59.0022 164.231 59.4265 164.231 59.9369C164.231 60.3678 164.112 60.7506 163.873 61.0853C163.635 61.4201 163.302 61.6836 162.874 61.8758C162.45 62.0647 161.958 62.1592 161.398 62.1592C160.652 62.1592 160.037 61.9918 159.553 61.6571C159.069 61.319 158.759 60.8318 158.623 60.1954L159.474 59.9866C159.583 60.4407 159.797 60.7837 160.115 61.0157C160.436 61.2478 160.859 61.3638 161.383 61.3638C161.969 61.3638 162.438 61.2328 162.79 60.971C163.141 60.7058 163.317 60.3744 163.317 59.9767C163.317 59.6684 163.214 59.4099 163.008 59.2011C162.803 58.989 162.491 58.8332 162.074 58.7338L160.826 58.4355C160.163 58.2764 159.672 58.0245 159.354 57.6798C159.036 57.3351 158.877 56.9076 158.877 56.3971C158.877 55.9762 158.991 55.6067 159.22 55.2885C159.449 54.967 159.764 54.7151 160.165 54.5328C160.566 54.3505 161.023 54.2593 161.537 54.2593C162.236 54.2593 162.795 54.4184 163.212 54.7366C163.633 55.0515 163.936 55.4857 164.122 56.0392Z" fill="#4FBABC"/>
<path d="M110.443 72.3638C110.386 71.797 110.136 71.3462 109.692 71.0115C109.248 70.6767 108.689 70.5094 108.017 70.5094C107.543 70.5094 107.125 70.5906 106.764 70.753C106.406 70.9154 106.124 71.1407 105.919 71.4291C105.716 71.7141 105.615 72.0389 105.615 72.4035C105.615 72.672 105.673 72.9073 105.789 73.1095C105.905 73.3117 106.061 73.4857 106.257 73.6315C106.455 73.774 106.674 73.8967 106.913 73.9994C107.155 74.1022 107.398 74.1883 107.644 74.2579L108.718 74.5662C109.042 74.6557 109.367 74.77 109.692 74.9092C110.017 75.0484 110.313 75.2241 110.582 75.4362C110.854 75.645 111.071 75.9019 111.233 76.2068C111.399 76.5084 111.482 76.8713 111.482 77.2956C111.482 77.8391 111.341 78.328 111.059 78.7622C110.777 79.1964 110.373 79.5411 109.846 79.7963C109.319 80.0482 108.688 80.1741 107.952 80.1741C107.259 80.1741 106.658 80.0598 106.147 79.8311C105.637 79.5991 105.236 79.2792 104.944 78.8716C104.652 78.4639 104.488 77.9916 104.452 77.4547H105.406C105.44 77.8557 105.572 78.1954 105.804 78.4738C106.036 78.7522 106.338 78.9644 106.709 79.1102C107.08 79.2527 107.495 79.324 107.952 79.324C108.459 79.324 108.91 79.2395 109.304 79.0704C109.702 78.8981 110.013 78.6594 110.239 78.3545C110.468 78.0463 110.582 77.6883 110.582 77.2807C110.582 76.936 110.492 76.6476 110.313 76.4156C110.134 76.1803 109.884 75.9831 109.563 75.824C109.245 75.6649 108.875 75.524 108.454 75.4014L107.236 75.0434C106.437 74.8048 105.817 74.475 105.377 74.0541C104.936 73.6332 104.715 73.0962 104.715 72.4433C104.715 71.8964 104.861 71.4158 105.153 71.0015C105.448 70.5839 105.846 70.2591 106.346 70.0271C106.85 69.7918 107.415 69.6741 108.041 69.6741C108.674 69.6741 109.235 69.7901 109.722 70.0221C110.209 70.2541 110.595 70.574 110.88 70.9817C111.169 71.386 111.323 71.8467 111.343 72.3638H110.443Z" fill="#4FBABC"/>
<path d="M117.89 80.0001L115.584 72.3638H116.518L118.328 78.6628H118.392L120.197 72.3638H121.137L122.927 78.6478H122.996L124.806 72.3638H125.74L123.434 80.0001H122.519L120.709 73.7409H120.615L118.805 80.0001H117.89Z" fill="#4FBABC"/>
<path d="M132.948 80.1592C132.236 80.1592 131.619 79.9935 131.099 79.662C130.578 79.3273 130.176 78.8649 129.891 78.275C129.609 77.6817 129.468 76.9989 129.468 76.2267C129.468 75.4577 129.609 74.775 129.891 74.1784C130.176 73.5785 130.569 73.1095 131.069 72.7714C131.573 72.43 132.154 72.2594 132.814 72.2594C133.228 72.2594 133.628 72.3356 134.012 72.488C134.397 72.6372 134.741 72.8675 135.046 73.1791C135.354 73.4873 135.598 73.8768 135.777 74.3474C135.956 74.8147 136.046 75.3683 136.046 76.0079V76.4454H130.08V75.6649H135.141C135.141 75.1744 135.041 74.7335 134.842 74.3424C134.647 73.948 134.373 73.6365 134.022 73.4078C133.674 73.1791 133.271 73.0648 132.814 73.0648C132.33 73.0648 131.904 73.194 131.536 73.4525C131.168 73.7111 130.88 74.0524 130.671 74.4767C130.466 74.9009 130.361 75.3649 130.358 75.8687V76.3361C130.358 76.9426 130.462 77.4729 130.671 77.927C130.883 78.3777 131.183 78.7274 131.571 78.976C131.959 79.2245 132.418 79.3488 132.948 79.3488C133.31 79.3488 133.626 79.2925 133.898 79.1798C134.173 79.0671 134.403 78.9163 134.589 78.7274C134.778 78.5352 134.92 78.3247 135.016 78.096L135.857 78.3694C135.741 78.6909 135.55 78.9876 135.285 79.2594C135.023 79.5311 134.695 79.7499 134.301 79.9156C133.909 80.078 133.459 80.1592 132.948 80.1592Z" fill="#4FBABC"/>
<path d="M143.743 80.1592C143.03 80.1592 142.414 79.9935 141.894 79.662C141.373 79.3273 140.971 78.8649 140.685 78.275C140.404 77.6817 140.263 76.9989 140.263 76.2267C140.263 75.4577 140.404 74.775 140.685 74.1784C140.971 73.5785 141.363 73.1095 141.864 72.7714C142.368 72.43 142.949 72.2594 143.609 72.2594C144.023 72.2594 144.422 72.3356 144.807 72.488C145.191 72.6372 145.536 72.8675 145.841 73.1791C146.149 73.4873 146.393 73.8768 146.572 74.3474C146.751 74.8147 146.84 75.3683 146.84 76.0079V76.4454H140.874V75.6649H145.935C145.935 75.1744 145.836 74.7335 145.637 74.3424C145.442 73.948 145.168 73.6365 144.817 73.4078C144.469 73.1791 144.066 73.0648 143.609 73.0648C143.125 73.0648 142.699 73.194 142.331 73.4525C141.963 73.7111 141.675 74.0524 141.466 74.4767C141.261 74.9009 141.156 75.3649 141.153 75.8687V76.3361C141.153 76.9426 141.257 77.4729 141.466 77.927C141.678 78.3777 141.978 78.7274 142.366 78.976C142.754 79.2245 143.213 79.3488 143.743 79.3488C144.104 79.3488 144.421 79.2925 144.693 79.1798C144.968 79.0671 145.198 78.9163 145.384 78.7274C145.573 78.5352 145.715 78.3247 145.811 78.096L146.651 78.3694C146.535 78.6909 146.345 78.9876 146.08 79.2594C145.818 79.5311 145.49 79.7499 145.095 79.9156C144.704 80.078 144.253 80.1592 143.743 80.1592Z" fill="#4FBABC"/>
<path d="M154.458 72.3638V73.1344H150.814V72.3638H154.458ZM151.953 70.5342H152.842V78.0065C152.842 78.3247 152.897 78.5749 153.007 78.7572C153.116 78.9362 153.258 79.0638 153.434 79.14C153.61 79.2129 153.797 79.2494 153.996 79.2494C154.112 79.2494 154.211 79.2428 154.294 79.2295C154.377 79.213 154.45 79.1964 154.513 79.1798L154.702 79.9802C154.616 80.0134 154.51 80.0432 154.384 80.0697C154.258 80.0995 154.102 80.1145 153.916 80.1145C153.592 80.1145 153.278 80.0432 152.977 79.9007C152.678 79.7582 152.433 79.546 152.241 79.2643C152.049 78.9826 151.953 78.6329 151.953 78.2153V70.5342Z" fill="#4FBABC"/>
<path d="M164.122 74.0392L163.312 74.2679C163.232 74.0392 163.119 73.832 162.974 73.6464C162.828 73.4608 162.637 73.3133 162.402 73.204C162.17 73.0946 161.881 73.0399 161.537 73.0399C161.02 73.0399 160.595 73.1625 160.264 73.4078C159.933 73.6531 159.767 73.9696 159.767 74.3574C159.767 74.6855 159.88 74.9523 160.105 75.1578C160.334 75.36 160.685 75.5207 161.159 75.64L162.312 75.9234C162.952 76.0792 163.431 76.3261 163.749 76.6642C164.071 77.0023 164.231 77.4265 164.231 77.9369C164.231 78.3678 164.112 78.7506 163.873 79.0853C163.635 79.4201 163.302 79.6836 162.874 79.8758C162.45 80.0648 161.958 80.1592 161.398 80.1592C160.652 80.1592 160.037 79.9918 159.553 79.6571C159.069 79.319 158.759 78.8318 158.623 78.1954L159.474 77.9866C159.583 78.4407 159.797 78.7837 160.115 79.0157C160.436 79.2478 160.859 79.3638 161.383 79.3638C161.969 79.3638 162.438 79.2328 162.79 78.971C163.141 78.7058 163.317 78.3744 163.317 77.9767C163.317 77.6684 163.214 77.4099 163.008 77.2011C162.803 76.989 162.491 76.8332 162.074 76.7338L160.826 76.4355C160.163 76.2764 159.672 76.0245 159.354 75.6798C159.036 75.3351 158.877 74.9075 158.877 74.3971C158.877 73.9762 158.991 73.6066 159.22 73.2885C159.449 72.967 159.764 72.7151 160.165 72.5328C160.566 72.3505 161.023 72.2594 161.537 72.2594C162.236 72.2594 162.795 72.4184 163.212 72.7366C163.633 73.0515 163.936 73.4857 164.122 74.0392Z" fill="#4FBABC"/>
</svg>
