<svg width="124" height="16" viewBox="0 0 124 16" fill="none" xmlns="http://www.w3.org/2000/svg">
<path d="M7.17781 3.05469L4.57625 12H3.24812L0.177811 0.726562H1.64656L3.90437 9.92969H3.96687L6.50594 0.726562H7.92781L10.4669 9.92969H10.5294L12.7872 0.726562H14.2559L11.1856 12H9.8575L7.25594 3.05469H7.17781ZM17.2362 10.9844C18.5175 10.9844 19.5019 10.0859 19.5019 8.91406V8.25L17.33 8.38281C16.2362 8.45312 15.6112 8.9375 15.6112 9.70312C15.6112 10.4766 16.2597 10.9844 17.2362 10.9844ZM16.9316 12.1406C15.3144 12.1406 14.2284 11.1641 14.2284 9.70312C14.2284 8.3125 15.2987 7.4375 17.1737 7.32812L19.5019 7.19531V6.51562C19.5019 5.52344 18.8456 4.92969 17.7206 4.92969C16.6737 4.92969 16.0175 5.42188 15.8456 6.21875H14.5331C14.6269 4.8125 15.83 3.73438 17.7519 3.73438C19.6581 3.73438 20.8612 4.76562 20.8612 6.38281V12H19.5722V10.6016H19.5409C19.0566 11.5312 18.0253 12.1406 16.9316 12.1406ZM25.8259 12.1406C23.7556 12.1406 22.3494 10.4844 22.3494 7.9375C22.3494 5.39062 23.7478 3.73438 25.7947 3.73438C26.9587 3.73438 27.8962 4.30469 28.3806 5.19531H28.4119V0.726562H29.7712V12H28.4744V10.625H28.4509C27.9275 11.5625 26.9978 12.1406 25.8259 12.1406ZM26.0837 4.92969C24.6462 4.92969 23.74 6.10156 23.74 7.9375C23.74 9.78125 24.6462 10.9453 26.0837 10.9453C27.4822 10.9453 28.4197 9.75781 28.4197 7.9375C28.4197 6.125 27.4822 4.92969 26.0837 4.92969ZM34.4469 10.9844C35.7281 10.9844 36.7125 10.0859 36.7125 8.91406V8.25L34.5406 8.38281C33.4469 8.45312 32.8219 8.9375 32.8219 9.70312C32.8219 10.4766 33.4703 10.9844 34.4469 10.9844ZM34.1422 12.1406C32.525 12.1406 31.4391 11.1641 31.4391 9.70312C31.4391 8.3125 32.5094 7.4375 34.3844 7.32812L36.7125 7.19531V6.51562C36.7125 5.52344 36.0562 4.92969 34.9312 4.92969C33.8844 4.92969 33.2281 5.42188 33.0562 6.21875H31.7437C31.8375 4.8125 33.0406 3.73438 34.9625 3.73438C36.8687 3.73438 38.0719 4.76562 38.0719 6.38281V12H36.7828V10.6016H36.7516C36.2672 11.5312 35.2359 12.1406 34.1422 12.1406ZM40.6303 15.0391C40.4662 15.0391 40.1928 15.0234 40.0444 14.9922V13.8516C40.1928 13.8828 40.4037 13.8906 40.5756 13.8906C41.3334 13.8906 41.7553 13.5234 42.0678 12.5781L42.2553 12.0078L39.2553 3.875H40.7084L42.9584 10.6406H42.9819L45.2319 3.875H46.6616L43.4662 12.5703C42.7709 14.4688 42.0991 15.0391 40.6303 15.0391ZM50.4231 10.9844C51.7044 10.9844 52.6887 10.0859 52.6887 8.91406V8.25L50.5169 8.38281C49.4231 8.45312 48.7981 8.9375 48.7981 9.70312C48.7981 10.4766 49.4466 10.9844 50.4231 10.9844ZM50.1184 12.1406C48.5012 12.1406 47.4153 11.1641 47.4153 9.70312C47.4153 8.3125 48.4856 7.4375 50.3606 7.32812L52.6887 7.19531V6.51562C52.6887 5.52344 52.0325 4.92969 50.9075 4.92969C49.8606 4.92969 49.2044 5.42188 49.0325 6.21875H47.72C47.8137 4.8125 49.0169 3.73438 50.9387 3.73438C52.845 3.73438 54.0481 4.76562 54.0481 6.38281V12H52.7591V10.6016H52.7278C52.2434 11.5312 51.2122 12.1406 50.1184 12.1406ZM55.9347 12V3.875H57.2159V5.17188H57.2472C57.63 4.3125 58.4581 3.73438 59.5519 3.73438C60.6612 3.73438 61.4816 4.29688 61.8331 5.28125H61.8644C62.3175 4.3125 63.2706 3.73438 64.4112 3.73438C66.0206 3.73438 67.0597 4.78125 67.0597 6.39062V12H65.7003V6.70312C65.7003 5.59375 65.0831 4.9375 64.0128 4.9375C62.9347 4.9375 62.1769 5.73438 62.1769 6.83594V12H60.8175V6.55469C60.8175 5.57812 60.1612 4.9375 59.1534 4.9375C58.0753 4.9375 57.2941 5.78125 57.2941 6.90625V12H55.9347ZM71.6338 10.9844C72.915 10.9844 73.8994 10.0859 73.8994 8.91406V8.25L71.7275 8.38281C70.6338 8.45312 70.0088 8.9375 70.0088 9.70312C70.0088 10.4766 70.6572 10.9844 71.6338 10.9844ZM71.3291 12.1406C69.7119 12.1406 68.6259 11.1641 68.6259 9.70312C68.6259 8.3125 69.6963 7.4375 71.5713 7.32812L73.8994 7.19531V6.51562C73.8994 5.52344 73.2431 4.92969 72.1181 4.92969C71.0713 4.92969 70.415 5.42188 70.2431 6.21875H68.9306C69.0244 4.8125 70.2275 3.73438 72.1494 3.73438C74.0556 3.73438 75.2588 4.76562 75.2588 6.38281V12H73.9697V10.6016H73.9384C73.4541 11.5312 72.4228 12.1406 71.3291 12.1406ZM78.075 14.2422H76.9422L77.7 10.2656H79.1453L78.075 14.2422ZM88.9069 12L87.7741 8.77344H83.2897L82.1569 12H80.6803L84.8366 0.726562H86.2272L90.3834 12H88.9069ZM85.5084 2.4375L83.7038 7.57812H87.36L85.5553 2.4375H85.5084ZM91.4809 6.11719C91.4809 4.72656 92.7231 3.73438 94.5122 3.73438C96.1919 3.73438 97.4262 4.73438 97.4887 6.10938H96.1919C96.0981 5.32812 95.4653 4.84375 94.4653 4.84375C93.4731 4.84375 92.8169 5.33594 92.8169 6.04688C92.8169 6.60938 93.2466 6.98438 94.1684 7.21875L95.4262 7.52344C97.0669 7.9375 97.6606 8.53125 97.6606 9.72656C97.6606 11.1406 96.3247 12.1406 94.4262 12.1406C92.645 12.1406 91.4028 11.1719 91.2622 9.73438H92.6216C92.77 10.5781 93.4106 11.0312 94.5122 11.0312C95.6137 11.0312 96.2934 10.5625 96.2934 9.82812C96.2934 9.25 95.9575 8.9375 95.0434 8.69531L93.6137 8.32812C92.1841 7.96094 91.4809 7.22656 91.4809 6.11719ZM101.914 10.9844C103.196 10.9844 104.18 10.0859 104.18 8.91406V8.25L102.008 8.38281C100.914 8.45312 100.289 8.9375 100.289 9.70312C100.289 10.4766 100.938 10.9844 101.914 10.9844ZM101.61 12.1406C99.9925 12.1406 98.9066 11.1641 98.9066 9.70312C98.9066 8.3125 99.9769 7.4375 101.852 7.32812L104.18 7.19531V6.51562C104.18 5.52344 103.524 4.92969 102.399 4.92969C101.352 4.92969 100.696 5.42188 100.524 6.21875H99.2113C99.305 4.8125 100.508 3.73438 102.43 3.73438C104.336 3.73438 105.539 4.76562 105.539 6.38281V12H104.25V10.6016H104.219C103.735 11.5312 102.703 12.1406 101.61 12.1406ZM110.731 10.8672C112.145 10.8672 113.09 9.69531 113.09 7.90625C113.09 6.11719 112.145 4.92969 110.731 4.92969C109.332 4.92969 108.418 6.08594 108.418 7.90625C108.418 9.72656 109.332 10.8672 110.731 10.8672ZM110.777 15.0625C108.988 15.0625 107.574 14.0547 107.348 12.6719H108.746C109.012 13.4141 109.817 13.9062 110.832 13.9062C112.238 13.9062 113.09 13.0938 113.09 11.8828V10.6016H113.059C112.559 11.4844 111.598 12.0625 110.457 12.0625C108.387 12.0625 107.027 10.4297 107.027 7.90625C107.027 5.35938 108.387 3.73438 110.488 3.73438C111.637 3.73438 112.59 4.29688 113.129 5.24219H113.152V3.875H114.449V11.8359C114.449 13.7734 113.02 15.0625 110.777 15.0625ZM119.75 12.1406C117.5 12.1406 115.984 10.5234 115.984 7.9375C115.984 5.34375 117.5 3.73438 119.75 3.73438C121.992 3.73438 123.508 5.34375 123.508 7.9375C123.508 10.5234 121.992 12.1406 119.75 12.1406ZM119.75 10.9453C121.188 10.9453 122.125 9.85156 122.125 7.9375C122.125 6.02344 121.188 4.92969 119.75 4.92969C118.312 4.92969 117.367 6.02344 117.367 7.9375C117.367 9.85156 118.312 10.9453 119.75 10.9453Z" fill="#4FBABC"/>
</svg>
