<svg width="443" height="181" viewBox="0 0 443 181" fill="none" xmlns="http://www.w3.org/2000/svg">
<path d="M71.2083 99.232V94.432H87.3843C87.4483 96.896 87.1283 99.232 86.4243 101.44C85.7203 103.616 84.6643 105.552 83.2563 107.248C81.8483 108.944 80.0883 110.288 77.9763 111.28C75.8963 112.24 73.5283 112.72 70.8723 112.72C68.3443 112.72 66.0083 112.304 63.8643 111.472C61.7203 110.608 59.8483 109.392 58.2483 107.824C56.6803 106.256 55.4643 104.4 54.6003 102.256C53.7363 100.112 53.3043 97.76 53.3043 95.2C53.3043 92.64 53.7363 90.304 54.6003 88.192C55.4963 86.048 56.7283 84.208 58.2963 82.672C59.8963 81.104 61.7683 79.904 63.9123 79.072C66.0883 78.24 68.4403 77.824 70.9683 77.824C73.1763 77.824 75.1763 78.128 76.9683 78.736C78.7603 79.312 80.3603 80.16 81.7683 81.28C83.2083 82.368 84.4243 83.696 85.4163 85.264L80.8083 88.336C79.8803 86.736 78.5843 85.456 76.9203 84.496C75.2883 83.536 73.3043 83.056 70.9683 83.056C68.7923 83.056 66.8243 83.568 65.0643 84.592C63.3043 85.584 61.8963 86.992 60.8403 88.816C59.7843 90.608 59.2563 92.736 59.2563 95.2C59.2563 97.632 59.7683 99.776 60.7923 101.632C61.8483 103.456 63.2563 104.88 65.0163 105.904C66.7763 106.928 68.7603 107.44 70.9683 107.44C72.4723 107.44 73.8163 107.232 75.0003 106.816C76.1843 106.4 77.2083 105.808 78.0723 105.04C78.9363 104.272 79.6563 103.392 80.2323 102.4C80.8083 101.408 81.2403 100.352 81.5283 99.232H71.2083Z" fill="#F5F5F5"/>
<path d="M113.977 112V107.008H130.921V112H113.977ZM113.977 83.392V78.4H130.921V83.392H113.977ZM113.977 96.448V91.552H129.961V96.448H113.977ZM110.473 78.4H116.041V112H110.473V78.4Z" fill="#F5F5F5"/>
<path d="M179.703 78.4H185.271V113.68L160.743 89.44V112H155.175V76.72L179.703 100.96V78.4Z" fill="#F5F5F5"/>
<path d="M214.322 94.672V91.888H219.746C220.802 91.888 221.73 91.712 222.53 91.36C223.33 91.008 223.954 90.512 224.402 89.872C224.85 89.2 225.074 88.4 225.074 87.472C225.074 86.064 224.578 84.976 223.586 84.208C222.594 83.44 221.314 83.056 219.746 83.056H215.666V107.344H220.37C221.65 107.344 222.786 107.136 223.778 106.72C224.77 106.304 225.554 105.68 226.13 104.848C226.706 104.016 226.994 102.976 226.994 101.728C226.994 100.832 226.818 100.048 226.466 99.376C226.146 98.672 225.682 98.096 225.074 97.648C224.498 97.168 223.81 96.832 223.01 96.64C222.21 96.416 221.33 96.304 220.37 96.304H214.322V93.184H220.706C222.338 93.184 223.874 93.36 225.314 93.712C226.754 94.064 228.034 94.608 229.154 95.344C230.306 96.08 231.202 97.024 231.842 98.176C232.482 99.328 232.802 100.704 232.802 102.304C232.802 104.512 232.274 106.336 231.218 107.776C230.194 109.216 228.77 110.288 226.946 110.992C225.154 111.664 223.074 112 220.706 112H210.002V78.4H220.13C222.242 78.4 224.098 78.704 225.698 79.312C227.33 79.92 228.594 80.848 229.49 82.096C230.418 83.344 230.882 84.928 230.882 86.848C230.882 88.512 230.418 89.936 229.49 91.12C228.594 92.272 227.33 93.152 225.698 93.76C224.098 94.368 222.242 94.672 220.13 94.672H214.322Z" fill="#F5F5F5"/>
<path d="M255.823 78.4H261.487V100.72C261.487 102.8 262.031 104.48 263.119 105.76C264.239 107.008 265.887 107.632 268.063 107.632C270.207 107.632 271.839 107.008 272.959 105.76C274.079 104.48 274.639 102.8 274.639 100.72V78.4H280.303V100.96C280.303 102.816 279.999 104.48 279.391 105.952C278.815 107.392 277.983 108.624 276.895 109.648C275.807 110.672 274.511 111.456 273.007 112C271.503 112.544 269.855 112.816 268.063 112.816C266.271 112.816 264.623 112.544 263.119 112C261.615 111.456 260.303 110.672 259.183 109.648C258.095 108.624 257.263 107.392 256.687 105.952C256.111 104.48 255.823 102.816 255.823 100.96V78.4Z" fill="#F5F5F5"/>
<path d="M304.843 78.4H310.603V112H304.843V78.4ZM315.691 112H308.347V106.672H315.547C317.211 106.672 318.747 106.432 320.155 105.952C321.563 105.472 322.779 104.752 323.803 103.792C324.859 102.832 325.675 101.632 326.251 100.192C326.859 98.752 327.163 97.088 327.163 95.2C327.163 93.312 326.859 91.648 326.251 90.208C325.675 88.768 324.859 87.568 323.803 86.608C322.779 85.648 321.563 84.928 320.155 84.448C318.747 83.968 317.211 83.728 315.547 83.728H308.347V78.4H315.691C319.115 78.4 322.123 79.104 324.715 80.512C327.307 81.888 329.323 83.84 330.763 86.368C332.235 88.864 332.971 91.808 332.971 95.2C332.971 98.592 332.235 101.552 330.763 104.08C329.323 106.576 327.307 108.528 324.715 109.936C322.123 111.312 319.115 112 315.691 112Z" fill="#F5F5F5"/>
<path d="M359.859 95.2C359.859 97.504 360.339 99.568 361.299 101.392C362.291 103.184 363.651 104.592 365.379 105.616C367.107 106.64 369.075 107.152 371.283 107.152C373.523 107.152 375.491 106.64 377.187 105.616C378.915 104.592 380.259 103.184 381.219 101.392C382.211 99.568 382.707 97.504 382.707 95.2C382.707 92.896 382.227 90.848 381.267 89.056C380.307 87.232 378.963 85.808 377.235 84.784C375.539 83.76 373.555 83.248 371.283 83.248C369.075 83.248 367.107 83.76 365.379 84.784C363.651 85.808 362.291 87.232 361.299 89.056C360.339 90.848 359.859 92.896 359.859 95.2ZM353.859 95.2C353.859 92.672 354.291 90.352 355.155 88.24C356.019 86.128 357.235 84.304 358.803 82.768C360.403 81.2 362.259 79.984 364.371 79.12C366.515 78.256 368.819 77.824 371.283 77.824C373.811 77.824 376.131 78.256 378.243 79.12C380.355 79.984 382.195 81.2 383.763 82.768C385.363 84.304 386.595 86.128 387.459 88.24C388.323 90.352 388.755 92.672 388.755 95.2C388.755 97.696 388.323 100.016 387.459 102.16C386.595 104.304 385.379 106.16 383.811 107.728C382.243 109.296 380.387 110.528 378.243 111.424C376.131 112.288 373.811 112.72 371.283 112.72C368.787 112.72 366.467 112.288 364.323 111.424C362.179 110.528 360.323 109.296 358.755 107.728C357.219 106.16 356.019 104.304 355.155 102.16C354.291 100.016 353.859 97.696 353.859 95.2Z" fill="#F5F5F5"/>
<path d="M140.933 147.4H146.597V181H140.933V147.4ZM144.293 152.392V147.4H151.061C153.493 147.4 155.605 147.832 157.397 148.696C159.221 149.528 160.629 150.728 161.621 152.296C162.613 153.832 163.109 155.672 163.109 157.816C163.109 159.96 162.613 161.816 161.621 163.384C160.629 164.952 159.221 166.168 157.397 167.032C155.605 167.864 153.493 168.28 151.061 168.28H144.293V163.288H151.061C153.013 163.288 154.581 162.824 155.765 161.896C156.949 160.968 157.541 159.608 157.541 157.816C157.541 156.024 156.949 154.68 155.765 153.784C154.581 152.856 153.013 152.392 151.061 152.392H144.293Z" fill="#F5F5F5"/>
<path d="M186.62 172.36L187.676 167.56H203.276L204.38 172.36H186.62ZM195.404 156.904L190.124 169.24L190.028 170.488L185.372 181H178.988L195.404 145.528L211.82 181H205.436L200.876 170.776L200.732 169.384L195.404 156.904Z" fill="#F5F5F5"/>
<path d="M239.921 164.968H246.065L257.441 181H250.625L239.921 164.968ZM233.009 147.4H238.673V181H233.009V147.4ZM236.369 152.296V147.4H243.377C245.809 147.4 247.921 147.832 249.713 148.696C251.537 149.56 252.945 150.776 253.937 152.344C254.929 153.88 255.425 155.704 255.425 157.816C255.425 159.928 254.929 161.768 253.937 163.336C252.945 164.904 251.537 166.12 249.713 166.984C247.921 167.848 245.809 168.28 243.377 168.28H236.369V163.624H243.137C244.417 163.624 245.537 163.4 246.497 162.952C247.489 162.504 248.257 161.864 248.801 161.032C249.345 160.168 249.617 159.144 249.617 157.96C249.617 156.744 249.345 155.72 248.801 154.888C248.257 154.056 247.489 153.416 246.497 152.968C245.537 152.52 244.417 152.296 243.137 152.296H236.369Z" fill="#F5F5F5"/>
<path d="M278.836 147.4H284.644V181H278.836V147.4ZM297.124 147.4H303.94L289.78 163.144L304.66 181H297.7L282.916 163.288L297.124 147.4Z" fill="#F5F5F5"/>
<path d="M102.839 0H338.722L443 22.2938L338.722 44.5877H102.839L0 22.2938L102.839 0Z" fill="white"/>
</svg>
