<svg width="549" height="82" viewBox="0 0 549 82" fill="none" xmlns="http://www.w3.org/2000/svg">
<path d="M34.4836 0H225.516L260 40.5276L225.516 81.0551H34.4836L0 40.5276L34.4836 0Z" fill="#2D2D2D"/>
<path d="M76.492 28.624C77.0573 28.624 77.499 28.3943 77.817 27.935L78.665 26.769C78.8417 26.557 79.0537 26.2743 79.301 25.921C79.5837 25.5677 79.7957 25.3027 79.937 25.126C80.1137 24.9493 80.2727 24.861 80.414 24.861C80.6967 24.861 81.4387 25.3557 82.64 26.345C83.8413 27.299 84.707 28.094 85.237 28.73C85.4137 28.9773 85.502 29.1893 85.502 29.366C85.502 29.5427 85.4137 29.7193 85.237 29.896C84.9543 30.0727 84.6187 30.161 84.23 30.161H48.72C46.5647 30.1963 44.2327 30.3907 41.724 30.744H41.406C40.9113 30.744 40.558 30.5143 40.346 30.055L40.134 29.631C40.028 29.419 39.975 29.207 39.975 28.995C39.975 28.783 40.0633 28.624 40.24 28.518C40.4167 28.3767 40.664 28.3237 40.982 28.359C42.1833 28.465 44.003 28.5533 46.441 28.624H59.214C59.5673 28.624 59.8323 28.5357 60.009 28.359C60.221 28.147 60.327 27.8643 60.327 27.511V26.981C60.327 23.483 60.168 20.3207 59.85 17.494V17.282C59.85 16.7167 60.115 16.434 60.645 16.434C60.8217 16.434 60.963 16.4517 61.069 16.487C64.249 17.2997 65.839 17.9357 65.839 18.395C65.839 18.5363 65.6977 18.6953 65.415 18.872L65.256 18.978C64.7613 19.296 64.514 19.7377 64.514 20.303V27.511C64.514 27.8643 64.6023 28.147 64.779 28.359C64.991 28.5357 65.2737 28.624 65.627 28.624H76.492ZM52.854 37.846C52.96 37.316 53.2427 37.051 53.702 37.051C53.8787 37.051 54.073 37.104 54.285 37.21L56.564 38.376C58.26 38.9413 59.108 39.4007 59.108 39.754C59.108 39.966 58.9137 40.125 58.525 40.231L58.313 40.284C57.783 40.4607 57.412 40.7963 57.2 41.291C55.1153 45.8137 52.642 49.7887 49.78 53.216C46.9533 56.608 43.8263 59.4523 40.399 61.749C39.8337 62.1023 39.4627 62.1907 39.286 62.014L39.18 61.802C39.18 61.59 39.3743 61.2897 39.763 60.901C43.2963 57.297 46.4233 52.9157 49.144 47.757C49.8507 46.4143 50.5397 44.8243 51.211 42.987C51.9177 41.1143 52.4653 39.4007 52.854 37.846ZM68.701 39.012C68.171 38.376 68.0297 38.005 68.277 37.899C68.3123 37.8637 68.383 37.846 68.489 37.846C68.7363 37.846 69.0367 37.9697 69.39 38.217C73.1 40.6197 76.121 43.0753 78.453 45.584C80.785 48.0927 82.4633 50.407 83.488 52.527C84.5127 54.647 85.025 56.502 85.025 58.092C85.025 59.0813 84.8307 59.841 84.442 60.371C84.0887 60.9363 83.6117 61.219 83.011 61.219C82.587 61.219 82.1453 61.0953 81.686 60.848C81.262 60.5653 80.997 60.1943 80.891 59.735C80.0783 56.5903 78.5237 53.1277 76.227 49.347C73.9303 45.5663 71.4217 42.1213 68.701 39.012Z" fill="#F5F5F5"/>
<path d="M132.725 21.257C133.255 21.257 133.697 21.0627 134.05 20.674L134.633 20.038C134.774 19.8967 135.004 19.6493 135.322 19.296C135.675 18.9427 135.958 18.766 136.17 18.766C136.417 18.766 136.983 19.1547 137.866 19.932C138.749 20.674 139.421 21.363 139.88 21.999C140.021 22.1403 140.092 22.317 140.092 22.529C140.092 22.8823 139.898 23.112 139.509 23.218L139.032 23.271C138.573 23.3063 138.149 23.5183 137.76 23.907C135.711 25.9563 134.103 27.458 132.937 28.412C132.584 28.6593 132.407 28.9067 132.407 29.154C132.407 29.3307 132.495 29.472 132.672 29.578C132.849 29.684 133.078 29.737 133.361 29.737H142.53C143.095 29.737 143.537 29.5073 143.855 29.048L144.226 28.571C144.332 28.4297 144.509 28.2 144.756 27.882C145.039 27.5287 145.286 27.352 145.498 27.352C145.745 27.352 146.346 27.6877 147.3 28.359C148.254 29.0303 148.978 29.631 149.473 30.161C149.614 30.3377 149.685 30.532 149.685 30.744C149.685 30.9913 149.544 31.221 149.261 31.433L148.943 31.592C148.307 31.8393 147.989 32.2633 147.989 32.864V58.41C147.989 59.5407 147.865 60.4593 147.618 61.166C147.371 61.908 146.841 62.5263 146.028 63.021C145.251 63.5157 144.085 63.869 142.53 64.081H142.265C141.735 64.081 141.382 63.763 141.205 63.127C140.993 62.2083 140.587 61.537 139.986 61.113C139.103 60.477 137.725 59.9647 135.852 59.576C135.145 59.47 134.792 59.2757 134.792 58.993C134.792 58.8163 135.057 58.728 135.587 58.728C136.4 58.728 137.831 58.7987 139.88 58.94C141.046 59.046 141.929 59.099 142.53 59.099C143.06 59.099 143.413 59.0107 143.59 58.834C143.767 58.622 143.855 58.304 143.855 57.88V51.52C143.855 51.1667 143.749 50.9017 143.537 50.725C143.36 50.513 143.095 50.407 142.742 50.407H119.21C118.609 50.407 118.203 50.725 117.991 51.361C116.401 56.555 113.133 60.6537 108.186 63.657C107.585 64.0457 107.197 64.1163 107.02 63.869C106.985 63.8337 106.967 63.7807 106.967 63.71C106.967 63.5687 107.161 63.2683 107.55 62.809C110.553 59.9823 112.567 56.82 113.592 53.322C114.652 49.824 115.182 45.7607 115.182 41.132V32.228C115.182 31.9453 115.111 31.7157 114.97 31.539C114.864 31.3623 114.705 31.274 114.493 31.274C114.246 31.274 114.016 31.3623 113.804 31.539C111.861 33.0583 110.076 34.2243 108.451 35.037C107.886 35.355 107.515 35.408 107.338 35.196C107.303 35.1607 107.285 35.1077 107.285 35.037C107.285 34.825 107.515 34.5247 107.974 34.136C111.083 31.698 114.034 28.518 116.825 24.596C117.708 23.3593 118.556 21.946 119.369 20.356C120.182 18.7307 120.8 17.229 121.224 15.851C121.401 15.321 121.719 15.056 122.178 15.056C122.249 15.056 122.425 15.0913 122.708 15.162C125.994 16.2573 127.637 16.9993 127.637 17.388C127.637 17.494 127.478 17.5823 127.16 17.653H127.001C126.506 17.759 126.1 18.0417 125.782 18.501C125.605 18.819 125.305 19.296 124.881 19.932C124.704 20.2147 124.616 20.4443 124.616 20.621C124.616 20.7977 124.704 20.9567 124.881 21.098C125.058 21.204 125.287 21.257 125.57 21.257H132.725ZM119.263 29.472C119.652 29.6487 120.093 29.737 120.588 29.737H128.962C129.563 29.737 130.004 29.4897 130.287 28.995C130.888 28.041 131.753 26.4333 132.884 24.172C132.99 23.96 133.043 23.7657 133.043 23.589C133.043 23.0943 132.707 22.847 132.036 22.847H123.556C122.955 22.847 122.496 23.059 122.178 23.483C120.871 25.073 119.599 26.4687 118.362 27.67C118.079 27.9527 117.938 28.2 117.938 28.412C117.938 28.6947 118.168 28.9597 118.627 29.207L119.263 29.472ZM129.174 32.387C129.174 32.0337 129.068 31.7687 128.856 31.592C128.679 31.38 128.414 31.274 128.061 31.274H120.323C119.97 31.274 119.687 31.38 119.475 31.592C119.298 31.7687 119.21 32.0337 119.21 32.387V38.058C119.21 38.4113 119.298 38.694 119.475 38.906C119.687 39.0827 119.97 39.171 120.323 39.171H128.061C128.414 39.171 128.679 39.0827 128.856 38.906C129.068 38.694 129.174 38.4113 129.174 38.058V32.387ZM142.742 39.171C143.095 39.171 143.36 39.0827 143.537 38.906C143.749 38.694 143.855 38.4113 143.855 38.058V32.387C143.855 32.0337 143.749 31.7687 143.537 31.592C143.36 31.38 143.095 31.274 142.742 31.274H134.156C133.803 31.274 133.52 31.38 133.308 31.592C133.131 31.7687 133.043 32.0337 133.043 32.387V38.058C133.043 38.4113 133.131 38.694 133.308 38.906C133.52 39.0827 133.803 39.171 134.156 39.171H142.742ZM118.786 47.916C118.786 48.552 119.122 48.87 119.793 48.87H128.061C128.414 48.87 128.679 48.7817 128.856 48.605C129.068 48.393 129.174 48.1103 129.174 47.757V41.821C129.174 41.4677 129.068 41.2027 128.856 41.026C128.679 40.814 128.414 40.708 128.061 40.708H120.323C119.581 40.708 119.21 40.8493 119.21 41.132C119.21 43.8173 119.069 45.9903 118.786 47.651V47.916ZM134.156 40.708C133.803 40.708 133.52 40.814 133.308 41.026C133.131 41.2027 133.043 41.4677 133.043 41.821V47.757C133.043 48.1103 133.131 48.393 133.308 48.605C133.52 48.7817 133.803 48.87 134.156 48.87H142.742C143.095 48.87 143.36 48.7817 143.537 48.605C143.749 48.393 143.855 48.1103 143.855 47.757V41.821C143.855 41.4677 143.749 41.2027 143.537 41.026C143.36 40.814 143.095 40.708 142.742 40.708H134.156Z" fill="#F5F5F5"/>
<path d="M214.928 16.805C215.14 16.381 215.405 16.169 215.723 16.169C215.9 16.169 216.129 16.2573 216.412 16.434L218.479 17.918C219.998 18.6953 220.758 19.2607 220.758 19.614C220.758 19.7553 220.564 19.8613 220.175 19.932H220.016C219.486 19.9673 219.044 20.197 218.691 20.621C216.606 22.9177 214.257 25.0553 211.642 27.034C209.027 28.9773 206.289 30.6733 203.427 32.122C203.003 32.2633 202.738 32.334 202.632 32.334C202.491 32.334 202.349 32.2633 202.208 32.122C202.137 31.9807 202.102 31.8923 202.102 31.857C202.102 31.6803 202.332 31.4153 202.791 31.062C205.335 29.0833 207.543 27.0693 209.416 25.02C210.441 23.854 211.448 22.529 212.437 21.045C213.462 19.5257 214.292 18.1123 214.928 16.805ZM197.226 35.832C197.685 35.832 198.074 35.5847 198.392 35.09L199.081 34.083C199.258 33.871 199.452 33.606 199.664 33.288C199.876 32.97 200.053 32.7403 200.194 32.599C200.335 32.4223 200.477 32.334 200.618 32.334C200.865 32.334 201.484 32.7757 202.473 33.659C203.498 34.5423 204.24 35.2843 204.699 35.885C204.876 36.1323 204.964 36.3443 204.964 36.521C204.964 36.733 204.858 36.9273 204.646 37.104C204.363 37.2807 204.028 37.369 203.639 37.369H197.597C197.244 37.369 196.961 37.475 196.749 37.687C196.572 37.8637 196.484 38.1287 196.484 38.482V49.824C196.555 53.6753 196.678 57.562 196.855 61.484V61.749C196.855 62.2437 196.678 62.6147 196.325 62.862C195.442 63.5333 194.399 63.869 193.198 63.869C192.845 63.869 192.527 63.763 192.244 63.551C191.997 63.339 191.873 63.0917 191.873 62.809C192.014 60.7243 192.138 58.7103 192.244 56.767C192.35 54.7883 192.421 52.209 192.456 49.029V38.482C192.456 38.1287 192.35 37.8637 192.138 37.687C191.961 37.475 191.696 37.369 191.343 37.369H186.361C185.619 37.369 185.248 37.74 185.248 38.482C185.107 43.8527 184.4 48.6403 183.128 52.845C181.856 57.0143 179.453 60.6537 175.92 63.763C175.425 64.2223 175.054 64.3637 174.807 64.187C174.736 64.1163 174.701 64.028 174.701 63.922C174.701 63.71 174.842 63.4097 175.125 63.021C177.422 59.735 178.994 56.0957 179.842 52.103C180.69 48.1103 181.167 43.57 181.273 38.482C181.273 37.74 180.902 37.369 180.16 37.369H179.153C178.128 37.4397 177.263 37.581 176.556 37.793C176.45 37.8283 176.309 37.846 176.132 37.846C175.708 37.846 175.355 37.6163 175.072 37.157L174.913 36.839C174.807 36.627 174.754 36.4327 174.754 36.256C174.754 36.044 174.842 35.885 175.019 35.779C175.196 35.6377 175.461 35.5847 175.814 35.62C176.521 35.6907 177.581 35.7613 178.994 35.832H180.16C180.513 35.832 180.778 35.7437 180.955 35.567C181.167 35.355 181.273 35.0723 181.273 34.719V22.582C181.273 22.2287 181.167 21.9637 180.955 21.787C180.778 21.575 180.513 21.469 180.16 21.469H179.471C178.764 21.5397 178.146 21.6633 177.616 21.84C177.333 21.9107 177.157 21.946 177.086 21.946C176.662 21.946 176.344 21.7163 176.132 21.257L175.973 20.939C175.867 20.727 175.814 20.5327 175.814 20.356C175.814 20.1087 175.902 19.932 176.079 19.826C176.256 19.6847 176.503 19.6317 176.821 19.667C178.058 19.773 179.895 19.8613 182.333 19.932H195.689C196.254 19.932 196.696 19.7023 197.014 19.243L197.703 18.236C197.88 18.024 198.074 17.759 198.286 17.441C198.498 17.123 198.675 16.8933 198.816 16.752C198.957 16.5753 199.099 16.487 199.24 16.487C199.523 16.487 200.194 16.9287 201.254 17.812C202.314 18.66 203.074 19.3843 203.533 19.985C203.71 20.2323 203.798 20.4443 203.798 20.621C203.798 20.833 203.692 21.0273 203.48 21.204C203.197 21.3807 202.862 21.469 202.473 21.469H197.597C197.244 21.469 196.961 21.575 196.749 21.787C196.572 21.9637 196.484 22.2287 196.484 22.582V34.719C196.484 35.461 196.731 35.832 197.226 35.832ZM186.361 21.469C186.008 21.469 185.725 21.575 185.513 21.787C185.336 21.9637 185.248 22.2287 185.248 22.582V34.719C185.248 35.0723 185.336 35.355 185.513 35.567C185.725 35.7437 186.008 35.832 186.361 35.832H191.343C191.696 35.832 191.961 35.7437 192.138 35.567C192.35 35.355 192.456 35.0723 192.456 34.719V22.582C192.456 22.2287 192.35 21.9637 192.138 21.787C191.961 21.575 191.696 21.469 191.343 21.469H186.361ZM215.034 30.426C215.281 29.9667 215.564 29.737 215.882 29.737C216.059 29.737 216.271 29.8253 216.518 30.002L218.638 31.486C220.228 32.2633 221.023 32.811 221.023 33.129C221.023 33.2703 220.811 33.3763 220.387 33.447H220.228C219.698 33.4823 219.256 33.712 218.903 34.136C214.31 39.5067 208.444 43.6937 201.307 46.697C200.989 46.803 200.742 46.856 200.565 46.856C200.353 46.856 200.212 46.803 200.141 46.697V46.591C200.141 46.3437 200.371 46.061 200.83 45.743C204.01 43.6937 206.854 41.3087 209.363 38.588C210.423 37.4927 211.465 36.203 212.49 34.719C213.55 33.1997 214.398 31.7687 215.034 30.426ZM215.776 43.941C215.988 43.4463 216.271 43.199 216.624 43.199C216.765 43.199 216.977 43.2697 217.26 43.411L219.009 44.471C219.362 44.683 219.769 44.895 220.228 45.107C220.864 45.3897 221.323 45.637 221.606 45.849C221.924 46.061 222.083 46.2377 222.083 46.379C222.083 46.5557 221.889 46.6793 221.5 46.75H221.341C220.776 46.7853 220.334 47.0503 220.016 47.545C217.366 51.3963 214.274 54.647 210.741 57.297C207.243 59.9117 203.25 62.067 198.763 63.763C198.339 63.9043 198.092 63.975 198.021 63.975C197.809 63.975 197.668 63.8867 197.597 63.71V63.551C197.597 63.3037 197.844 63.0387 198.339 62.756C203.18 60.0707 207.261 56.7317 210.582 52.739C211.571 51.573 212.543 50.1597 213.497 48.499C214.486 46.8383 215.246 45.319 215.776 43.941Z" fill="#F5F5F5"/>
<path d="M305.468 15.264C309.137 15.264 312.785 16.0107 316.412 17.504C320.039 18.9973 323.068 21.3867 325.5 24.672C327.932 27.9573 329.148 32.1387 329.148 37.216C329.148 43.4027 327.292 48.2667 323.58 51.808C319.868 55.3067 315.644 57.696 310.908 58.976C306.215 60.2133 301.948 60.832 298.108 60.832C297.809 60.832 297.532 60.7893 297.276 60.704C297.02 60.6613 296.892 60.5973 296.892 60.512C296.892 60.3413 297.169 60.1707 297.724 60C298.279 59.872 298.833 59.7653 299.388 59.68C306.556 58.4853 312.401 56.032 316.924 52.32C321.489 48.5653 323.772 43.424 323.772 36.896C323.772 32.16 322.769 28.3413 320.764 25.44C318.759 22.496 316.305 20.4053 313.404 19.168C310.503 17.9307 307.623 17.312 304.764 17.312C303.996 17.7813 303.697 18.2933 303.868 18.848C304.252 19.9573 304.551 21.152 304.764 22.432C304.977 23.712 305.084 24.8853 305.084 25.952C305.084 27.5733 304.892 29.3867 304.508 31.392C304.124 33.3547 303.548 35.3173 302.78 37.28C301.415 40.9067 299.815 44.0853 297.98 46.816C296.188 49.5467 294.439 51.6373 292.732 53.088C291.025 54.5387 289.639 55.264 288.572 55.264C286.993 55.264 285.5 54.4747 284.092 52.896C282.727 51.3173 281.617 49.2693 280.764 46.752C279.953 44.2347 279.548 41.6747 279.548 39.072C279.548 34.3787 280.785 30.2187 283.26 26.592C285.777 22.9653 289.02 20.1707 292.988 18.208C296.999 16.2453 301.159 15.264 305.468 15.264ZM302.908 22.304C302.908 20.9387 302.78 19.7227 302.524 18.656C302.353 17.8453 301.82 17.504 300.924 17.632C297.767 18.2293 294.887 19.488 292.284 21.408C289.681 23.2853 287.612 25.6747 286.076 28.576C284.54 31.4347 283.772 34.5707 283.772 37.984C283.772 40.416 284.071 42.4853 284.668 44.192C285.308 45.856 286.012 47.0933 286.78 47.904C287.591 48.7147 288.231 49.12 288.7 49.12C289.724 49.12 290.94 48.352 292.348 46.816C293.799 45.28 295.185 43.488 296.508 41.44C298.812 37.856 300.455 34.5707 301.436 31.584C302.417 28.5547 302.908 25.4613 302.908 22.304Z" fill="#2D2D2D"/>
<path d="M409.468 13.408C410.151 13.408 410.684 13.1307 411.068 12.576L412.092 11.232C412.305 10.9333 412.54 10.6133 412.796 10.272C413.052 9.93067 413.308 9.632 413.564 9.376C413.82 9.12 414.033 8.992 414.204 8.992C414.545 8.992 415.441 9.568 416.892 10.72C418.343 11.872 419.388 12.832 420.028 13.6C420.241 13.8133 420.348 14.048 420.348 14.304C420.348 14.56 420.22 14.7947 419.964 15.008C419.623 15.2213 419.196 15.328 418.684 15.328H396.796C396.113 15.328 395.58 15.648 395.196 16.288C395.281 17.056 395.665 17.4827 396.348 17.568C400.231 18.0373 403.409 18.8053 405.884 19.872C408.359 20.896 410.129 22.0267 411.196 23.264C412.305 24.5013 412.86 25.6533 412.86 26.72C412.86 27.4027 412.647 27.9573 412.22 28.384C411.836 28.8107 411.324 29.024 410.684 29.024H410.3C410.001 28.9813 409.745 28.8747 409.532 28.704C409.319 28.5333 409.105 28.3413 408.892 28.128C407.399 26.6347 405.415 25.0773 402.94 23.456C400.508 21.8347 397.777 20.4053 394.748 19.168C394.492 19.04 394.257 18.976 394.044 18.976C393.617 18.976 393.255 19.1893 392.956 19.616C388.86 24.224 381.777 27.488 371.708 29.408C371.58 29.4507 371.388 29.472 371.132 29.472C370.663 29.472 370.385 29.3653 370.3 29.152V29.024C370.3 28.8107 370.705 28.576 371.516 28.32C380.348 25.888 386.321 22.0907 389.436 16.928C389.564 16.672 389.628 16.4373 389.628 16.224C389.628 15.968 389.521 15.7547 389.308 15.584C389.095 15.4133 388.817 15.328 388.476 15.328H380.796C378.193 15.3707 375.377 15.6053 372.348 16.032H371.964C371.367 16.032 370.94 15.7547 370.684 15.2L370.364 14.624C370.236 14.368 370.172 14.1333 370.172 13.92C370.172 13.28 370.599 13.0027 371.452 13.088C372.903 13.216 375.1 13.3227 378.044 13.408H389.948C390.759 13.408 391.249 13.024 391.42 12.256C391.804 10.72 391.996 9.12 391.996 7.456V7.328C391.996 6.98667 392.124 6.688 392.38 6.432C392.679 6.13333 393.063 6.00533 393.532 6.048C397.415 6.64533 399.356 7.2 399.356 7.712C399.356 7.84 399.164 8.01067 398.78 8.224L398.524 8.352C397.969 8.608 397.628 9.09866 397.5 9.824C397.415 10.4213 397.244 11.104 396.988 11.872C396.945 12 396.924 12.1707 396.924 12.384C396.924 13.0667 397.308 13.408 398.076 13.408H409.468ZM407.42 34.272C407.42 33.8453 407.292 33.5253 407.036 33.312C406.823 33.056 406.503 32.928 406.076 32.928H377.788C375.1 32.9707 372.284 33.2053 369.34 33.632H369.02C368.38 33.632 367.911 33.3547 367.612 32.8L367.356 32.352C367.228 32.096 367.164 31.84 367.164 31.584C367.164 31.328 367.271 31.136 367.484 31.008C367.697 30.8373 367.996 30.7733 368.38 30.816C369.831 30.944 372.028 31.0507 374.972 31.136H413.18C413.863 31.136 414.396 30.8587 414.78 30.304L415.74 28.896C415.953 28.5973 416.188 28.256 416.444 27.872C416.743 27.4453 416.977 27.1467 417.148 26.976C417.361 26.7627 417.553 26.656 417.724 26.656C417.98 26.656 418.599 27.04 419.58 27.808C420.561 28.5333 421.479 29.3227 422.332 30.176C423.228 31.0293 423.676 31.6053 423.676 31.904C423.633 32.2453 423.463 32.5013 423.164 32.672C422.865 32.8427 422.503 32.928 422.076 32.928H413.756C413.329 32.928 412.988 33.056 412.732 33.312C412.519 33.5253 412.412 33.8453 412.412 34.272V58.464C412.412 60.384 411.985 61.856 411.132 62.88C410.279 63.9467 408.572 64.6507 406.012 64.992H405.756C405.372 64.992 405.073 64.9067 404.86 64.736C404.689 64.5653 404.54 64.2667 404.412 63.84C404.199 62.944 403.793 62.2613 403.196 61.792C402.215 61.0667 400.615 60.512 398.396 60.128C397.543 60 397.116 59.7867 397.116 59.488C397.116 59.232 397.585 59.104 398.524 59.104C399.804 59.232 401.127 59.3387 402.492 59.424C403.9 59.5093 405.031 59.552 405.884 59.552C406.481 59.552 406.887 59.4667 407.1 59.296C407.313 59.1253 407.42 58.8053 407.42 58.336V34.272ZM391.484 39.008C392.167 39.008 392.7 38.7093 393.084 38.112L393.596 37.344C393.724 37.1733 393.895 36.9387 394.108 36.64C394.364 36.2987 394.556 36.064 394.684 35.936C394.855 35.7653 395.025 35.68 395.196 35.68C395.537 35.68 396.284 36.1493 397.436 37.088C398.588 38.0267 399.441 38.8587 399.996 39.584C400.167 39.7973 400.252 40.032 400.252 40.288C400.252 40.5867 400.06 40.864 399.676 41.12L399.1 41.44C398.332 41.696 397.948 42.1867 397.948 42.912V46.304C398.076 49.8027 398.183 52.3627 398.268 53.984V54.304C398.268 54.9013 398.055 55.328 397.628 55.584C397.116 55.8827 396.497 56.16 395.772 56.416C395.089 56.6293 394.449 56.736 393.852 56.736C393.511 56.736 393.233 56.5867 393.02 56.288C392.935 56.16 392.892 55.968 392.892 55.712C392.892 55.4987 392.935 55.264 393.02 55.008C393.02 54.8373 393.041 54.688 393.084 54.56C393.084 53.8347 392.636 53.472 391.74 53.472H382.204C381.777 53.472 381.436 53.6 381.18 53.856C380.967 54.0693 380.86 54.3893 380.86 54.816V54.88C380.903 55.3493 380.924 55.8613 380.924 56.416L380.988 56.992C380.988 57.376 380.839 57.7173 380.54 58.016C380.156 58.4 379.623 58.72 378.94 58.976C378.3 59.1893 377.617 59.296 376.892 59.296C376.551 59.296 376.273 59.168 376.06 58.912C375.889 58.656 375.804 58.3573 375.804 58.016C375.975 56.352 376.103 54.2827 376.188 51.808V48.032C376.188 44.2773 376.039 41.0347 375.74 38.304V38.048C375.74 37.408 376.017 37.088 376.572 37.088C376.828 37.088 377.041 37.1307 377.212 37.216L380.412 38.624C380.967 38.88 381.521 39.008 382.076 39.008H391.484ZM382.204 40.864C381.777 40.864 381.436 40.992 381.18 41.248C380.967 41.4613 380.86 41.7813 380.86 42.208V50.272C380.86 50.6987 380.967 51.04 381.18 51.296C381.436 51.5093 381.777 51.616 382.204 51.616H391.74C392.167 51.616 392.487 51.5093 392.7 51.296C392.956 51.04 393.084 50.6987 393.084 50.272V42.208C393.084 41.7813 392.956 41.4613 392.7 41.248C392.487 40.992 392.167 40.864 391.74 40.864H382.204Z" fill="#2D2D2D"/>
<path d="M505.404 18.272C506.087 18.272 506.62 17.9733 507.004 17.376L507.772 16.16C507.985 15.904 508.22 15.584 508.476 15.2C508.732 14.816 508.945 14.5387 509.116 14.368C509.287 14.1547 509.457 14.048 509.628 14.048C509.969 14.048 510.737 14.5813 511.932 15.648C513.169 16.672 514.065 17.568 514.62 18.336C514.833 18.6347 514.94 18.8693 514.94 19.04C514.94 19.296 514.833 19.5307 514.62 19.744C514.279 19.9573 513.873 20.064 513.404 20.064H504.956C504.529 20.064 504.188 20.192 503.932 20.448C503.719 20.6613 503.612 20.9813 503.612 21.408V58.144C503.612 60.064 503.271 61.5787 502.588 62.688C501.905 63.7973 500.519 64.5653 498.428 64.992L498.044 65.056C497.404 65.056 497.02 64.6293 496.892 63.776C496.679 62.752 496.359 62.0053 495.932 61.536C495.207 60.8107 494.012 60.2773 492.348 59.936C491.495 59.808 491.068 59.5733 491.068 59.232C491.068 58.976 491.537 58.848 492.476 58.848C495.377 59.0613 497.148 59.168 497.788 59.168C498.3 59.168 498.641 59.0827 498.812 58.912C499.025 58.7413 499.132 58.4213 499.132 57.952V21.408C499.132 20.9813 499.004 20.6613 498.748 20.448C498.535 20.192 498.215 20.064 497.788 20.064H495.676C494.78 20.064 494.332 20.512 494.332 21.408C494.247 29.6853 493.863 36.2133 493.18 40.992C492.497 45.7707 490.876 50.1867 488.316 54.24C485.756 58.2507 481.767 61.728 476.348 64.672C475.921 64.8853 475.601 64.992 475.388 64.992C475.175 64.992 475.004 64.9067 474.876 64.736L474.748 64.48C474.748 64.1813 475.025 63.8187 475.58 63.392C479.975 60.32 483.153 56.7787 485.116 52.768C487.121 48.7147 488.359 44.448 488.828 39.968C489.297 35.488 489.553 29.3013 489.596 21.408C489.596 20.512 489.148 20.064 488.252 20.064H486.204C484.455 20.1493 482.791 20.3627 481.212 20.704H480.828C480.231 20.704 479.804 20.4267 479.548 19.872L479.356 19.488C479.228 19.232 479.164 18.976 479.164 18.72C479.164 18.464 479.271 18.272 479.484 18.144C479.697 17.9733 479.996 17.9093 480.38 17.952C481.831 18.08 484.028 18.1867 486.972 18.272H492.348C493.244 18.272 493.692 17.824 493.692 16.928C493.607 13.5573 493.415 10.528 493.116 7.84V7.712C493.116 6.944 493.457 6.56 494.14 6.56C494.353 6.56 494.524 6.58133 494.652 6.624C498.279 7.648 500.092 8.416 500.092 8.928C500.092 9.14133 499.9 9.35466 499.516 9.568L499.26 9.696C498.663 10.08 498.364 10.6347 498.364 11.36V16.928C498.364 17.3547 498.471 17.696 498.684 17.952C498.94 18.1653 499.281 18.272 499.708 18.272H505.404ZM472.764 39.52C473.105 39.52 473.468 39.2427 473.852 38.688L475.068 36.896C475.324 36.4693 475.644 36.256 476.028 36.256C476.327 36.256 476.625 36.4053 476.924 36.704L478.78 38.56C479.121 38.9013 479.441 39.072 479.74 39.072C480.167 39.072 480.444 38.7733 480.572 38.176C481.34 35.104 481.767 32.096 481.852 29.152C481.852 28.3413 482.215 27.936 482.94 27.936C483.153 27.936 483.324 27.9573 483.452 28C486.865 28.8107 488.572 29.472 488.572 29.984C488.572 30.112 488.38 30.2827 487.996 30.496L487.804 30.624C487.207 30.9653 486.823 31.4347 486.652 32.032C484.775 38.6453 482.044 43.8293 478.46 47.584C478.076 47.968 477.735 48.16 477.436 48.16C477.137 48.16 476.988 48.0107 476.988 47.712C476.988 47.456 477.116 47.1147 477.372 46.688C478.097 45.2373 478.631 44.0213 478.972 43.04C479.399 41.888 479.484 41.312 479.228 41.312C479.143 41.3547 479.015 41.376 478.844 41.376H473.596C473.169 41.376 472.828 41.504 472.572 41.76C472.359 41.9733 472.252 42.2933 472.252 42.72V52.96C472.252 53.4293 472.38 53.7707 472.636 53.984C472.892 54.1973 473.255 54.24 473.724 54.112L479.228 52.64C479.655 52.5547 479.932 52.512 480.06 52.512C480.359 52.512 480.551 52.5973 480.636 52.768V52.832C480.636 53.088 480.316 53.3867 479.676 53.728C474.385 56.416 468.327 59.2533 461.5 62.24C460.903 62.496 460.54 62.7733 460.412 63.072C460.199 63.4133 459.964 63.584 459.708 63.584C459.495 63.584 459.281 63.4987 459.068 63.328C458.855 63.1573 458.705 62.9227 458.62 62.624L457.532 59.488C457.447 59.232 457.404 59.04 457.404 58.912C457.404 58.3147 457.745 57.952 458.428 57.824L459.26 57.632C460.028 57.504 460.412 57.0133 460.412 56.16V45.984C460.412 42.0587 460.263 38.7307 459.964 36V35.744C459.964 35.0613 460.263 34.72 460.86 34.72C460.945 34.72 461.159 34.7627 461.5 34.848C464.231 35.744 465.596 36.4267 465.596 36.896C465.596 37.0667 465.447 37.2373 465.148 37.408C464.593 37.7067 464.316 38.24 464.316 39.008V54.944C464.316 55.4133 464.444 55.7547 464.7 55.968C464.956 56.1813 465.319 56.224 465.788 56.096L466.748 55.84C467.516 55.6267 467.9 55.136 467.9 54.368V29.472C467.9 29.0453 467.772 28.7253 467.516 28.512C467.303 28.256 466.983 28.128 466.556 28.128H466.236C465.809 28.128 465.468 28.256 465.212 28.512C464.999 28.7253 464.892 29.0453 464.892 29.472V29.984C464.892 30.24 464.529 30.5387 463.804 30.88C463.121 31.2213 462.268 31.392 461.244 31.392C460.945 31.392 460.689 31.264 460.476 31.008C460.305 30.752 460.22 30.4533 460.22 30.112C460.391 28.4053 460.519 26.2933 460.604 23.776V19.936C460.604 16.0533 460.455 12.7467 460.156 10.016V9.76C460.156 9.12 460.433 8.8 460.988 8.8C461.244 8.8 461.457 8.84267 461.628 8.928L464.828 10.336C465.297 10.5493 465.831 10.656 466.428 10.656H472.38C473.063 10.656 473.617 10.4 474.044 9.888L474.492 9.312C474.62 9.184 474.833 8.928 475.132 8.544C475.473 8.16 475.772 7.968 476.028 7.968C476.327 7.968 476.988 8.352 478.012 9.12C479.036 9.888 479.825 10.592 480.38 11.232C480.636 11.5307 480.7 11.8507 480.572 12.192C480.444 12.4053 480.252 12.576 479.996 12.704C479.783 12.832 479.548 12.9387 479.292 13.024C478.695 13.4933 478.396 13.9627 478.396 14.432V18.592C478.524 22.6453 478.631 25.7173 478.716 27.808V28.128C478.716 28.7253 478.503 29.152 478.076 29.408C477.607 29.7067 477.052 29.9627 476.412 30.176C475.772 30.3893 475.196 30.496 474.684 30.496C474.257 30.496 474.044 30.0907 474.044 29.28C474.044 28.512 473.745 28.128 473.148 28.128C472.551 28.128 472.252 28.576 472.252 29.472V38.176C472.252 39.072 472.423 39.52 472.764 39.52ZM466.236 12.512C465.809 12.512 465.468 12.64 465.212 12.896C464.999 13.1093 464.892 13.4293 464.892 13.856V24.928C464.892 25.3547 464.999 25.696 465.212 25.952C465.468 26.1653 465.809 26.272 466.236 26.272H472.7C473.127 26.272 473.447 26.1653 473.66 25.952C473.916 25.696 474.044 25.3547 474.044 24.928V13.856C474.044 13.4293 473.916 13.1093 473.66 12.896C473.447 12.64 473.127 12.512 472.7 12.512H466.236ZM505.916 29.536C505.575 28.7253 505.532 28.256 505.788 28.128L505.98 28.064C506.236 28.064 506.599 28.256 507.068 28.64C509.841 31.1147 511.868 33.6107 513.148 36.128C514.428 38.6027 515.068 40.8427 515.068 42.848C515.068 44.128 514.833 45.1733 514.364 45.984C513.895 46.752 513.276 47.136 512.508 47.136C512.081 47.136 511.655 46.9867 511.228 46.688C510.716 46.3467 510.46 45.8133 510.46 45.088C510.375 42.7413 509.905 40.2027 509.052 37.472C508.199 34.6987 507.153 32.0533 505.916 29.536Z" fill="#2D2D2D"/>
<path d="M541.916 63.264C540.7 63.264 539.58 62.96 538.556 62.352C537.532 61.744 536.716 60.928 536.108 59.904C535.5 58.88 535.196 57.744 535.196 56.496C535.196 55.28 535.5 54.16 536.108 53.136C536.716 52.112 537.532 51.312 538.556 50.736C539.58 50.128 540.7 49.824 541.916 49.824C543.132 49.824 544.252 50.128 545.276 50.736C546.3 51.312 547.1 52.112 547.676 53.136C548.284 54.16 548.588 55.28 548.588 56.496C548.588 57.744 548.284 58.88 547.676 59.904C547.1 60.928 546.3 61.744 545.276 62.352C544.252 62.96 543.132 63.264 541.916 63.264ZM541.916 61.728C543.356 61.728 544.572 61.216 545.564 60.192C546.588 59.168 547.1 57.936 547.1 56.496C547.1 55.088 546.588 53.888 545.564 52.896C544.54 51.872 543.324 51.36 541.916 51.36C540.476 51.36 539.244 51.872 538.22 52.896C537.196 53.888 536.684 55.088 536.684 56.496C536.684 57.968 537.196 59.2 538.22 60.192C539.244 61.216 540.476 61.728 541.916 61.728Z" fill="#2D2D2D"/>
</svg>
