<svg width="302" height="34" viewBox="0 0 302 34" fill="none" xmlns="http://www.w3.org/2000/svg">
<path d="M18.488 6.844C18.872 6.844 19.184 6.688 19.424 6.376L19.64 6.088C19.712 5.992 19.796 5.872 19.892 5.728C20.012 5.584 20.108 5.476 20.18 5.404C20.276 5.332 20.372 5.296 20.468 5.296C20.636 5.296 21.008 5.524 21.584 5.98C22.184 6.412 22.64 6.808 22.952 7.168C23.048 7.288 23.096 7.42 23.096 7.564C23.096 7.732 22.988 7.888 22.772 8.032C22.7 8.08 22.628 8.116 22.556 8.14C22.484 8.164 22.424 8.188 22.376 8.212C21.944 8.356 21.728 8.632 21.728 9.04V24.088C21.776 26.704 21.86 29.344 21.98 32.008V32.188C21.98 32.524 21.86 32.764 21.62 32.908C21.356 33.124 21.044 33.304 20.684 33.448C20.348 33.592 20.036 33.664 19.748 33.664C19.58 33.664 19.448 33.58 19.352 33.412C19.28 33.268 19.244 33.136 19.244 33.016C19.244 32.92 19.268 32.752 19.316 32.512L19.388 32.08V32.008C19.388 31.768 19.316 31.576 19.172 31.432C19.052 31.312 18.872 31.252 18.632 31.252H3.728C3.488 31.252 3.296 31.312 3.152 31.432C3.032 31.576 2.972 31.768 2.972 32.008V32.8C2.972 32.992 2.768 33.196 2.36 33.412C1.976 33.628 1.556 33.736 1.1 33.736C0.908 33.736 0.728 33.664 0.56 33.52C0.392 33.376 0.308 33.208 0.308 33.016C0.404001 31.6 0.488001 30.232 0.56 28.912C0.632 27.568 0.680001 25.816 0.704001 23.656V12.82C0.704001 10.492 0.596001 8.392 0.38 6.52V6.376C0.38 6.016 0.536 5.836 0.848 5.836C0.992 5.836 1.112 5.86 1.208 5.908L2.792 6.628C3.128 6.772 3.44 6.844 3.728 6.844H7.58C8.012 6.844 8.288 6.64 8.408 6.232C8.888 4.672 9.164 3.064 9.236 1.408C9.236 0.855999 9.524 0.639999 10.1 0.759999C12.164 1.168 13.196 1.504 13.196 1.768C13.196 1.888 13.1 1.984 12.908 2.056L12.764 2.128C12.428 2.32 12.188 2.56 12.044 2.848C11.516 3.76 10.844 4.78 10.028 5.908C9.884 6.076 9.812 6.244 9.812 6.412C9.812 6.532 9.872 6.64 9.992 6.736C10.112 6.808 10.268 6.844 10.46 6.844H18.488ZM18.632 14.476C18.872 14.476 19.052 14.416 19.172 14.296C19.316 14.152 19.388 13.96 19.388 13.72V8.68C19.388 8.44 19.316 8.26 19.172 8.14C19.052 7.996 18.872 7.924 18.632 7.924H3.728C3.488 7.924 3.296 7.996 3.152 8.14C3.032 8.26 2.972 8.44 2.972 8.68V13.72C2.972 13.96 3.032 14.152 3.152 14.296C3.296 14.416 3.488 14.476 3.728 14.476H18.632ZM18.632 22.252C18.872 22.252 19.052 22.192 19.172 22.072C19.316 21.928 19.388 21.736 19.388 21.496V16.276C19.388 16.036 19.316 15.856 19.172 15.736C19.052 15.592 18.872 15.52 18.632 15.52H3.728C3.488 15.52 3.296 15.592 3.152 15.736C3.032 15.856 2.972 16.036 2.972 16.276V21.496C2.972 21.736 3.032 21.928 3.152 22.072C3.296 22.192 3.488 22.252 3.728 22.252H18.632ZM3.728 23.332C3.488 23.332 3.296 23.404 3.152 23.548C3.032 23.668 2.972 23.848 2.972 24.088V29.452C2.972 29.692 3.032 29.884 3.152 30.028C3.296 30.148 3.488 30.208 3.728 30.208H18.632C18.872 30.208 19.052 30.148 19.172 30.028C19.316 29.884 19.388 29.692 19.388 29.452V24.088C19.388 23.848 19.316 23.668 19.172 23.548C19.052 23.404 18.872 23.332 18.632 23.332H3.728ZM71.372 10.012C71.756 10.012 72.056 9.856 72.272 9.544L72.668 8.968C72.764 8.848 72.872 8.692 72.992 8.5C73.136 8.284 73.256 8.128 73.352 8.032C73.448 7.936 73.544 7.888 73.64 7.888C73.808 7.888 74.216 8.152 74.864 8.68C75.512 9.208 75.992 9.676 76.304 10.084C76.424 10.252 76.484 10.396 76.484 10.516C76.484 10.66 76.412 10.792 76.268 10.912C76.1 11.032 75.884 11.092 75.62 11.092H68.132C67.868 11.092 67.676 11.176 67.556 11.344C67.436 11.488 67.412 11.692 67.484 11.956C68.804 16.876 71.672 20.368 76.088 22.432C76.496 22.6 76.7 22.744 76.7 22.864C76.676 22.936 76.592 23.008 76.448 23.08C76.304 23.128 76.184 23.176 76.088 23.224C75.56 23.464 75.164 23.836 74.9 24.34C74.732 24.628 74.54 24.772 74.324 24.772C74.156 24.772 74.012 24.724 73.892 24.628C72.068 23.38 70.592 21.82 69.464 19.948C68.36 18.052 67.52 15.736 66.944 13C66.872 12.664 66.788 12.496 66.692 12.496C66.596 12.496 66.512 12.652 66.44 12.964C65.816 15.556 64.652 17.824 62.948 19.768C61.268 21.688 58.724 23.368 55.316 24.808C55.148 24.88 54.992 24.916 54.848 24.916C54.656 24.916 54.524 24.856 54.452 24.736C54.428 24.712 54.416 24.676 54.416 24.628C54.416 24.484 54.608 24.292 54.992 24.052C57.968 22.54 60.176 20.8 61.616 18.832C63.08 16.84 64.04 14.536 64.496 11.92L64.532 11.704C64.532 11.512 64.46 11.368 64.316 11.272C64.196 11.152 64.028 11.092 63.812 11.092H60.86C60.404 11.092 60.14 10.936 60.068 10.624C60.044 10.504 59.96 10.54 59.816 10.732C59.672 10.9 59.528 11.164 59.384 11.524C56.552 18.172 52.076 23.032 45.956 26.104C45.548 26.296 45.284 26.308 45.164 26.14L45.128 26.068C45.128 25.9 45.308 25.696 45.668 25.456C48.884 23.416 51.548 20.848 53.66 17.752C55.796 14.632 57.368 11.188 58.376 7.42C58.4 7.348 58.412 7.264 58.412 7.168C58.412 6.784 58.184 6.592 57.728 6.592H53.048C52.616 6.592 52.316 6.772 52.148 7.132L51.608 8.068C51.512 8.188 51.464 8.32 51.464 8.464C51.464 8.728 51.656 8.92 52.04 9.04C53.24 9.352 54.128 9.796 54.704 10.372C55.304 10.948 55.604 11.512 55.604 12.064C55.604 12.352 55.52 12.592 55.352 12.784C55.184 12.976 54.968 13.072 54.704 13.072H54.524C54.356 13.048 54.224 12.988 54.128 12.892C54.032 12.772 53.924 12.616 53.804 12.424C53.3 11.536 52.484 10.684 51.356 9.868C51.188 9.748 51.032 9.688 50.888 9.688C50.696 9.688 50.504 9.82 50.312 10.084C49.904 10.684 49.4 11.356 48.8 12.1C48.656 12.268 48.584 12.424 48.584 12.568C48.584 12.784 48.764 12.964 49.124 13.108C50.324 13.564 51.212 14.128 51.788 14.8C52.388 15.448 52.688 16.06 52.688 16.636C52.688 16.972 52.592 17.248 52.4 17.464C52.232 17.68 52.004 17.788 51.716 17.788C51.596 17.788 51.512 17.776 51.464 17.752C51.152 17.704 50.936 17.464 50.816 17.032C50.36 15.928 49.544 14.836 48.368 13.756C48.224 13.588 48.056 13.504 47.864 13.504C47.696 13.504 47.516 13.6 47.324 13.792C46.82 14.296 46.244 14.812 45.596 15.34C45.428 15.508 45.272 15.616 45.128 15.664C44.984 15.688 44.888 15.664 44.84 15.592L44.768 15.448C44.768 15.28 44.876 15.076 45.092 14.836C46.7 12.964 48.14 10.708 49.412 8.068C49.868 7.108 50.312 5.98 50.744 4.684C51.2 3.388 51.512 2.248 51.68 1.264C51.752 0.855998 51.956 0.651998 52.292 0.651998C52.34 0.651998 52.46 0.675998 52.652 0.723999C54.38 1.348 55.244 1.792 55.244 2.056C55.244 2.176 55.124 2.272 54.884 2.344L54.74 2.38C54.404 2.476 54.164 2.716 54.02 3.1C53.732 3.82 53.504 4.348 53.336 4.684C53.288 4.78 53.264 4.9 53.264 5.044C53.264 5.404 53.48 5.584 53.912 5.584H57.944C58.352 5.584 58.664 5.44 58.88 5.152L59.132 4.864C59.228 4.768 59.36 4.624 59.528 4.432C59.72 4.216 59.888 4.108 60.032 4.108C60.2 4.108 60.524 4.324 61.004 4.756C61.484 5.164 61.856 5.548 62.12 5.908C62.216 6.028 62.264 6.16 62.264 6.304C62.264 6.496 62.144 6.652 61.904 6.772L61.652 6.844C61.196 6.916 60.92 7.144 60.824 7.528L60.284 9.148C60.236 9.292 60.212 9.4 60.212 9.472C60.212 9.64 60.272 9.772 60.392 9.868C60.512 9.964 60.68 10.012 60.896 10.012H64.064C64.568 10.012 64.832 9.772 64.856 9.292L64.892 8.86C64.94 7.9 64.964 7.144 64.964 6.592C64.964 5.2 64.88 3.748 64.712 2.236V2.092C64.712 1.876 64.784 1.72 64.928 1.624C65.072 1.528 65.276 1.492 65.54 1.516C67.244 1.708 68.096 1.936 68.096 2.2C68.096 2.248 68 2.344 67.808 2.488L67.736 2.524C67.424 2.74 67.268 3.04 67.268 3.424L67.232 4.828C67.208 5.308 67.172 6.004 67.124 6.916C67.1 7.804 67.064 8.572 67.016 9.22V9.328C67.016 9.784 67.256 10.012 67.736 10.012H71.372ZM68.888 4.036C68.624 3.772 68.492 3.568 68.492 3.424C68.492 3.304 68.576 3.244 68.744 3.244C68.888 3.244 69.068 3.28 69.284 3.352C70.58 3.808 71.528 4.36 72.128 5.008C72.728 5.632 73.028 6.244 73.028 6.844C73.028 7.204 72.92 7.504 72.704 7.744C72.512 7.984 72.26 8.104 71.948 8.104C71.876 8.104 71.744 8.08 71.552 8.032C71.264 7.912 71.06 7.672 70.94 7.312C70.772 6.76 70.496 6.196 70.112 5.62C69.752 5.02 69.344 4.492 68.888 4.036ZM69.176 26.032C68.912 25.768 68.78 25.564 68.78 25.42C68.78 25.3 68.852 25.24 68.996 25.24C69.092 25.24 69.284 25.3 69.572 25.42C71.852 26.476 73.52 27.64 74.576 28.912C75.656 30.16 76.196 31.288 76.196 32.296C76.196 32.728 76.1 33.064 75.908 33.304C75.716 33.568 75.464 33.7 75.152 33.7C75.056 33.7 74.912 33.676 74.72 33.628C74.432 33.508 74.228 33.28 74.108 32.944C73.724 31.864 73.064 30.7 72.128 29.452C71.216 28.204 70.232 27.064 69.176 26.032ZM50.312 25.96C50.384 25.48 50.504 25.24 50.672 25.24C50.84 25.24 50.96 25.48 51.032 25.96C51.056 26.2 51.068 26.572 51.068 27.076C51.068 28.612 50.756 29.908 50.132 30.964C49.508 32.02 48.776 32.788 47.936 33.268C47.408 33.604 46.892 33.772 46.388 33.772C45.836 33.772 45.488 33.58 45.344 33.196C45.272 33.052 45.236 32.908 45.236 32.764C45.236 32.5 45.32 32.248 45.488 32.008C45.68 31.768 45.92 31.564 46.208 31.396C47.144 31.012 48.008 30.328 48.8 29.344C49.592 28.36 50.096 27.232 50.312 25.96ZM62.552 26.248C62.288 25.792 62.228 25.528 62.372 25.456L62.48 25.42C62.624 25.42 62.828 25.516 63.092 25.708C64.532 26.692 65.576 27.712 66.224 28.768C66.872 29.824 67.196 30.796 67.196 31.684C67.196 32.212 67.088 32.632 66.872 32.944C66.656 33.28 66.38 33.448 66.044 33.448C65.876 33.448 65.708 33.4 65.54 33.304C65.372 33.232 65.252 33.124 65.18 32.98C65.132 32.86 65.096 32.692 65.072 32.476C64.928 31.54 64.616 30.52 64.136 29.416C63.68 28.288 63.152 27.232 62.552 26.248ZM55.748 26.392C55.604 25.936 55.604 25.672 55.748 25.6L55.856 25.564C56 25.564 56.18 25.696 56.396 25.96C57.284 26.872 57.932 27.796 58.34 28.732C58.772 29.644 58.988 30.484 58.988 31.252C58.988 31.924 58.856 32.464 58.592 32.872C58.328 33.28 58.016 33.484 57.656 33.484C57.44 33.484 57.224 33.412 57.008 33.268C56.864 33.172 56.768 33.052 56.72 32.908C56.672 32.788 56.648 32.608 56.648 32.368C56.672 32.248 56.684 32.056 56.684 31.792C56.684 30.928 56.6 30.016 56.432 29.056C56.264 28.096 56.036 27.208 55.748 26.392ZM123.572 2.956C124.628 2.956 125.684 3.136 126.74 3.496C127.796 3.856 128.324 4.492 128.324 5.404C128.324 5.716 128.216 5.968 128 6.16C127.808 6.328 127.604 6.412 127.388 6.412C126.86 6.412 126.44 6.22 126.128 5.836C125.72 5.308 125.324 4.9 124.94 4.612C124.58 4.324 124.076 4.06 123.428 3.82C123.236 3.748 123.056 3.7 122.888 3.676C122.72 3.628 122.576 3.58 122.456 3.532C122.36 3.484 122.312 3.412 122.312 3.316C122.312 3.076 122.732 2.956 123.572 2.956ZM110.252 11.524C111.692 11.524 112.748 12.016 113.42 13C114.116 13.96 114.464 15.304 114.464 17.032C114.464 17.896 114.332 19.12 114.068 20.704C113.804 22.288 113.396 23.86 112.844 25.42C112.292 26.98 111.608 28.168 110.792 28.984C110.36 29.416 109.916 29.776 109.46 30.064C109.004 30.352 108.596 30.496 108.236 30.496C107.876 30.496 107.6 30.376 107.408 30.136C107.24 29.896 107.096 29.62 106.976 29.308C106.856 28.996 106.772 28.792 106.724 28.696C106.46 28 105.884 27.088 104.996 25.96C104.732 25.648 104.6 25.432 104.6 25.312C104.6 25.264 104.636 25.24 104.708 25.24C104.828 25.24 105.296 25.504 106.112 26.032L106.76 26.464C107.144 26.752 107.456 26.956 107.696 27.076C107.936 27.196 108.176 27.256 108.416 27.256C109.232 27.256 109.952 26.608 110.576 25.312C111.224 24.016 111.728 22.516 112.088 20.812C112.448 19.084 112.628 17.68 112.628 16.6C112.628 14.08 111.848 12.82 110.288 12.82C109.424 12.82 108.188 13.168 106.58 13.864C106.244 14.032 106.028 14.296 105.932 14.656C104.852 19.384 103.1 23.704 100.676 27.616C100.364 28.144 100.028 28.564 99.668 28.876C99.308 29.164 98.96 29.308 98.624 29.308C98.36 29.308 98.132 29.212 97.94 29.02C97.748 28.828 97.652 28.588 97.652 28.3C97.652 27.628 98.12 26.68 99.056 25.456C101.216 22.6 102.776 19.504 103.736 16.168C103.76 16.096 103.772 16 103.772 15.88C103.772 15.544 103.616 15.376 103.304 15.376C103.184 15.376 103.052 15.412 102.908 15.484C101.156 16.204 100.064 16.564 99.632 16.564C99.128 16.564 98.612 16.408 98.084 16.096C97.58 15.784 97.16 15.4 96.824 14.944C96.488 14.464 96.32 14.02 96.32 13.612C96.32 13.396 96.38 13.288 96.5 13.288C96.596 13.288 96.74 13.336 96.932 13.432C97.148 13.528 97.316 13.6 97.436 13.648C98.108 13.936 98.804 14.08 99.524 14.08C100.388 14.056 101.12 13.972 101.72 13.828C102.344 13.66 103.1 13.42 103.988 13.108C104.348 12.964 104.564 12.7 104.636 12.316C104.9 11.116 105.032 10 105.032 8.968C105.032 7.744 104.78 6.832 104.276 6.232C104.108 6.04 103.88 5.8 103.592 5.512C103.328 5.224 103.196 5.032 103.196 4.936C103.196 4.792 103.292 4.684 103.484 4.612C103.7 4.54 103.964 4.504 104.276 4.504C104.732 4.504 105.212 4.576 105.716 4.72C106.22 4.864 106.616 5.044 106.904 5.26C107.288 5.572 107.48 5.956 107.48 6.412C107.48 6.604 107.408 6.988 107.264 7.564C107.144 8.044 107.048 8.512 106.976 8.968C106.952 9.16 106.916 9.436 106.868 9.796C106.82 10.156 106.748 10.636 106.652 11.236L106.616 11.488C106.616 11.704 106.676 11.86 106.796 11.956C106.94 12.028 107.12 12.04 107.336 11.992C108.44 11.68 109.412 11.524 110.252 11.524ZM120.26 6.736C120.188 6.712 120.056 6.676 119.864 6.628C119.696 6.58 119.564 6.532 119.468 6.484C119.396 6.412 119.36 6.328 119.36 6.232C119.36 5.992 119.744 5.872 120.512 5.872C121.664 5.872 122.756 6.112 123.788 6.592C124.844 7.048 125.372 7.732 125.372 8.644C125.372 8.956 125.252 9.208 125.012 9.4C124.796 9.592 124.532 9.688 124.22 9.688C123.716 9.688 123.332 9.472 123.068 9.04C122.684 8.44 122.276 7.96 121.844 7.6C121.436 7.216 120.908 6.928 120.26 6.736ZM118.064 11.2C119.912 11.272 121.424 11.632 122.6 12.28C123.8 12.928 124.664 13.684 125.192 14.548C125.72 15.412 125.984 16.216 125.984 16.96C125.984 17.8 125.744 18.52 125.264 19.12C124.808 19.696 124.328 19.984 123.824 19.984C123.536 19.984 123.272 19.9 123.032 19.732C122.792 19.54 122.648 19.432 122.6 19.408C122.264 19.168 121.808 19 121.232 18.904C120.656 18.808 119.972 18.712 119.18 18.616C118.844 18.568 118.676 18.496 118.676 18.4C118.676 18.28 118.82 18.208 119.108 18.184C120.668 18.016 121.484 17.932 121.556 17.932C122.204 17.812 122.648 17.668 122.888 17.5C123.152 17.332 123.284 17.056 123.284 16.672C123.284 15.52 122.744 14.464 121.664 13.504C120.584 12.544 119.348 11.896 117.956 11.56C117.74 11.512 117.632 11.44 117.632 11.344C117.632 11.248 117.776 11.2 118.064 11.2ZM148.808 7.276C148.664 7.444 148.592 7.6 148.592 7.744C148.592 7.936 148.7 8.14 148.916 8.356C149.756 9.124 150.176 9.916 150.176 10.732C150.176 11.092 150.08 11.392 149.888 11.632C149.72 11.872 149.48 11.992 149.168 11.992C149.072 11.992 148.952 11.968 148.808 11.92C148.52 11.8 148.316 11.548 148.196 11.164C147.956 10.54 147.584 9.88 147.08 9.184C146.6 8.488 146.072 7.852 145.496 7.276C145.112 6.94 144.98 6.712 145.1 6.592C145.148 6.544 145.232 6.52 145.352 6.52C145.496 6.52 145.652 6.556 145.82 6.628L146.9 7.06C147.044 7.132 147.188 7.168 147.332 7.168C147.572 7.168 147.764 7.012 147.908 6.7C148.604 5.044 149.168 3.244 149.6 1.3C149.672 0.915999 149.864 0.723999 150.176 0.723999C150.296 0.723999 150.428 0.759999 150.572 0.831998C152.252 1.528 153.092 2.008 153.092 2.272C153.092 2.344 152.984 2.428 152.768 2.524L152.66 2.56C152.348 2.656 152.084 2.86 151.868 3.172C150.836 4.804 149.816 6.172 148.808 7.276ZM170.372 15.016C170.78 15.016 171.092 14.86 171.308 14.548L171.56 14.188C171.656 14.092 171.788 13.936 171.956 13.72C172.148 13.48 172.316 13.36 172.46 13.36C172.628 13.36 172.964 13.588 173.468 14.044C173.996 14.5 174.404 14.92 174.692 15.304C174.788 15.424 174.836 15.556 174.836 15.7C174.836 15.892 174.716 16.048 174.476 16.168L174.188 16.276C173.732 16.396 173.492 16.672 173.468 17.104C173.108 25.624 172.148 30.676 170.588 32.26C169.844 32.956 168.848 33.388 167.6 33.556H167.492C167.132 33.556 166.892 33.328 166.772 32.872C166.7 32.488 166.52 32.164 166.232 31.9C165.848 31.612 165.02 31.336 163.748 31.072C163.292 30.976 163.064 30.82 163.064 30.604C163.064 30.508 163.136 30.436 163.28 30.388C163.424 30.34 163.616 30.328 163.856 30.352C165.68 30.544 166.94 30.64 167.636 30.64C167.972 30.64 168.236 30.616 168.428 30.568C168.62 30.52 168.824 30.412 169.04 30.244C169.544 29.74 169.988 28.336 170.372 26.032C170.756 23.704 171.056 20.656 171.272 16.888V16.816C171.272 16.336 171.02 16.096 170.516 16.096H165.296C164.816 16.096 164.552 16.336 164.504 16.816C164 20.488 163.052 23.656 161.66 26.32C160.292 28.984 158.216 31.324 155.432 33.34C155.024 33.628 154.76 33.7 154.64 33.556L154.568 33.412C154.568 33.22 154.7 33.016 154.964 32.8C156.932 30.856 158.456 28.732 159.536 26.428C160.616 24.124 161.372 21.664 161.804 19.048C162.236 16.432 162.488 13.384 162.56 9.904C162.56 9.664 162.488 9.484 162.344 9.364C162.224 9.22 162.044 9.148 161.804 9.148H160.544C159.488 9.172 158.48 9.292 157.52 9.508C157.448 9.532 157.364 9.544 157.268 9.544C157.004 9.544 156.776 9.376 156.584 9.04L156.44 8.788C156.368 8.644 156.332 8.5 156.332 8.356C156.332 8.212 156.392 8.104 156.512 8.032C156.632 7.936 156.8 7.9 157.016 7.924C157.832 7.996 159.068 8.056 160.724 8.104H163.748C164.252 8.104 164.504 7.852 164.504 7.348C164.456 5.356 164.348 3.592 164.18 2.056V1.984C164.18 1.552 164.36 1.336 164.72 1.336L165.044 1.408C166.82 1.912 167.708 2.308 167.708 2.596C167.708 2.716 167.6 2.836 167.384 2.956L167.276 3.028C166.94 3.244 166.772 3.544 166.772 3.928V7.348C166.772 7.588 166.832 7.78 166.952 7.924C167.096 8.044 167.288 8.104 167.528 8.104H171.092C171.476 8.104 171.776 7.948 171.992 7.636L172.424 6.988C172.496 6.868 172.604 6.712 172.748 6.52C172.916 6.304 173.048 6.148 173.144 6.052C173.24 5.932 173.336 5.872 173.432 5.872C173.6 5.872 174.02 6.148 174.692 6.7C175.364 7.252 175.856 7.732 176.168 8.14C176.288 8.308 176.348 8.452 176.348 8.572C176.348 8.716 176.276 8.848 176.132 8.968C175.964 9.088 175.76 9.148 175.52 9.148H165.8C165.32 9.148 165.056 9.4 165.008 9.904L164.936 11.308C164.888 12.604 164.84 13.576 164.792 14.224V14.332C164.792 14.788 165.032 15.016 165.512 15.016H170.372ZM149.924 15.016C149.756 15.184 149.672 15.352 149.672 15.52C149.672 15.64 149.732 15.736 149.852 15.808C149.972 15.88 150.128 15.904 150.32 15.88L153.92 15.592C154.328 15.544 154.532 15.352 154.532 15.016C154.532 14.92 154.496 14.8 154.424 14.656L153.596 13.396C153.452 13.204 153.368 13.036 153.344 12.892C153.32 12.748 153.332 12.652 153.38 12.604C153.404 12.58 153.452 12.568 153.524 12.568C153.668 12.568 153.86 12.64 154.1 12.784C155.468 13.6 156.464 14.464 157.088 15.376C157.736 16.264 158.06 17.092 158.06 17.86C158.06 18.316 157.952 18.688 157.736 18.976C157.544 19.24 157.292 19.372 156.98 19.372C156.812 19.372 156.644 19.336 156.476 19.264C156.332 19.192 156.224 19.096 156.152 18.976C156.08 18.856 156.008 18.676 155.936 18.436C155.816 17.836 155.66 17.308 155.468 16.852C155.324 16.42 155.012 16.264 154.532 16.384L153.02 16.744C152.588 16.84 152.372 17.116 152.372 17.572V24.34C152.42 26.956 152.504 29.596 152.624 32.26V32.44C152.624 32.752 152.516 33.004 152.3 33.196C151.772 33.58 151.184 33.772 150.536 33.772C150.344 33.772 150.164 33.688 149.996 33.52C149.852 33.376 149.78 33.22 149.78 33.052C149.876 31.636 149.96 30.268 150.032 28.948C150.104 27.604 150.152 25.852 150.176 23.692V18.22C150.176 17.98 150.104 17.8 149.96 17.68C149.816 17.56 149.612 17.524 149.348 17.572L146.72 18.112C146.336 18.184 146.132 18.268 146.108 18.364L146 18.508C145.904 18.652 145.784 18.724 145.64 18.724C145.52 18.724 145.4 18.676 145.28 18.58C145.184 18.484 145.112 18.352 145.064 18.184L144.632 17.14C144.584 17.044 144.56 16.924 144.56 16.78C144.56 16.468 144.764 16.288 145.172 16.24L147.476 16.096C147.884 16.048 148.184 15.88 148.376 15.592C149.072 14.512 149.888 13.072 150.824 11.272C151.328 10.336 151.796 9.328 152.228 8.248C152.684 7.144 153.044 6.124 153.308 5.188C153.38 4.828 153.572 4.648 153.884 4.648C153.98 4.648 154.124 4.684 154.316 4.756C155.972 5.452 156.8 5.932 156.8 6.196C156.8 6.292 156.68 6.376 156.44 6.448L156.332 6.484C155.948 6.604 155.696 6.784 155.576 7.024C154.88 8.248 154.028 9.568 153.02 10.984C152.036 12.4 151.004 13.744 149.924 15.016ZM153.848 21.1C153.632 20.62 153.596 20.344 153.74 20.272L153.848 20.236C153.992 20.236 154.184 20.344 154.424 20.56C155.504 21.448 156.296 22.36 156.8 23.296C157.304 24.232 157.556 25.096 157.556 25.888C157.556 26.44 157.448 26.896 157.232 27.256C157.016 27.592 156.74 27.76 156.404 27.76C156.236 27.76 156.068 27.712 155.9 27.616C155.612 27.424 155.468 27.124 155.468 26.716C155.444 25.852 155.276 24.928 154.964 23.944C154.676 22.936 154.304 21.988 153.848 21.1ZM146.216 21.244C146.216 20.812 146.396 20.596 146.756 20.596C146.828 20.596 146.936 20.62 147.08 20.668L147.764 20.92C147.836 20.944 148.136 21.016 148.664 21.136C149.264 21.28 149.564 21.436 149.564 21.604C149.564 21.724 149.432 21.844 149.168 21.964L149.06 22C148.748 22.12 148.532 22.384 148.412 22.792C147.428 25.96 146.288 28.456 144.992 30.28C144.776 30.592 144.596 30.748 144.452 30.748C144.284 30.748 144.2 30.64 144.2 30.424C144.2 30.28 144.236 30.1 144.308 29.884C144.524 29.404 144.752 28.756 144.992 27.94C145.304 26.956 145.568 25.852 145.784 24.628C146.024 23.38 146.168 22.252 146.216 21.244ZM205.94 29.848C205.46 29.848 204.836 29.668 204.068 29.308C203.3 28.948 202.46 28.36 201.548 27.544C199.22 25.432 198.056 22.432 198.056 18.544C198.056 17.344 198.188 15.868 198.452 14.116C198.596 13.06 198.668 12.34 198.668 11.956C198.668 11.38 198.56 10.864 198.344 10.408C198.152 9.928 197.804 9.46 197.3 9.004C197.156 8.884 197.084 8.788 197.084 8.716C197.084 8.644 197.132 8.596 197.228 8.572C197.324 8.524 197.42 8.5 197.516 8.5C197.996 8.5 198.536 8.656 199.136 8.968C199.76 9.256 200.288 9.652 200.72 10.156C201.152 10.636 201.368 11.128 201.368 11.632C201.368 11.944 201.308 12.304 201.188 12.712C201.092 13.096 200.972 13.504 200.828 13.936C200.516 14.944 200.276 15.808 200.108 16.528C199.964 17.248 199.892 18.088 199.892 19.048C199.892 20.344 200.132 21.52 200.612 22.576C201.116 23.608 201.692 24.424 202.34 25.024C203.012 25.6 203.588 25.888 204.068 25.888C204.356 25.888 204.548 25.636 204.644 25.132C204.86 24.1 205.088 23.188 205.328 22.396C205.592 21.604 205.796 21.064 205.94 20.776C206.012 20.608 206.096 20.464 206.192 20.344C206.288 20.2 206.372 20.128 206.444 20.128C206.516 20.128 206.552 20.2 206.552 20.344C206.552 20.464 206.528 20.668 206.48 20.956C206.24 22.18 206.12 23.296 206.12 24.304C206.12 24.664 206.132 25.012 206.156 25.348C206.18 25.66 206.204 25.912 206.228 26.104C206.252 26.56 206.384 27.076 206.624 27.652C206.816 28.228 206.912 28.624 206.912 28.84C206.912 29.152 206.828 29.404 206.66 29.596C206.492 29.764 206.252 29.848 205.94 29.848ZM220.88 20.272C220.4 20.272 220.064 20.176 219.872 19.984C219.704 19.792 219.56 19.528 219.44 19.192C219.416 19.144 219.2 18.376 218.792 16.888C218.408 15.376 217.64 14.332 216.488 13.756C215.936 13.468 215.192 13.324 214.256 13.324H213.824C213.608 13.324 213.5 13.252 213.5 13.108C213.5 13.012 213.62 12.916 213.86 12.82C213.956 12.772 214.184 12.712 214.544 12.64C214.928 12.568 215.348 12.532 215.804 12.532C217.484 12.532 218.936 13.12 220.16 14.296C221.024 15.112 221.612 15.928 221.924 16.744C222.236 17.536 222.392 18.148 222.392 18.58C222.392 19.012 222.248 19.408 221.96 19.768C221.696 20.104 221.336 20.272 220.88 20.272ZM272.576 2.704C273.08 2.704 273.704 2.8 274.448 2.992C275.192 3.184 275.852 3.496 276.428 3.928C277.028 4.36 277.328 4.9 277.328 5.548C277.328 5.884 277.22 6.136 277.004 6.304C276.812 6.448 276.608 6.52 276.392 6.52C275.816 6.52 275.384 6.304 275.096 5.872C274.76 5.368 274.4 4.972 274.016 4.684C273.632 4.372 273.092 4.036 272.396 3.676C272.18 3.58 271.988 3.496 271.82 3.424C271.652 3.352 271.508 3.292 271.388 3.244C271.292 3.172 271.244 3.1 271.244 3.028C271.244 2.812 271.688 2.704 272.576 2.704ZM255.404 7.744C255.548 7.792 255.752 7.828 256.016 7.852C256.304 7.852 256.52 7.876 256.664 7.924C256.832 7.948 256.976 8.044 257.096 8.212C257.168 8.308 257.204 8.452 257.204 8.644C257.204 9.004 257 9.364 256.592 9.724C255.536 10.708 254.408 11.512 253.208 12.136C252.872 12.304 252.668 12.58 252.596 12.964C251.876 16.708 251.228 19.852 250.652 22.396C250.1 24.94 249.572 26.968 249.068 28.48C248.468 30.232 247.94 31.108 247.484 31.108C247.1 31.108 246.752 30.964 246.44 30.676C246.128 30.364 245.972 29.968 245.972 29.488C245.972 29.176 246.176 28.576 246.584 27.688C247.256 26.176 247.88 24.508 248.456 22.684C249.392 19.732 250.16 16.828 250.76 13.972C250.784 13.924 250.796 13.84 250.796 13.72C250.796 13.528 250.724 13.396 250.58 13.324C250.46 13.228 250.28 13.204 250.04 13.252C249.608 13.324 249.176 13.36 248.744 13.36C248.216 13.36 247.664 13.24 247.088 13C246.512 12.736 245.984 12.4 245.504 11.992C245.264 11.8 245.144 11.644 245.144 11.524C245.144 11.452 245.204 11.416 245.324 11.416L245.936 11.488C246.416 11.584 246.92 11.632 247.448 11.632C248.672 11.632 249.812 11.416 250.868 10.984C251.228 10.864 251.444 10.6 251.516 10.192C251.732 8.68 251.84 7.576 251.84 6.88C251.84 6.16 251.732 5.584 251.516 5.152C251.3 4.72 250.988 4.384 250.58 4.144C250.196 3.904 249.992 3.772 249.968 3.748C249.848 3.676 249.788 3.592 249.788 3.496C249.788 3.352 249.956 3.28 250.292 3.28C250.58 3.28 250.928 3.316 251.336 3.388C251.744 3.46 252.104 3.568 252.416 3.712C252.968 3.976 253.364 4.264 253.604 4.576C253.868 4.864 254 5.26 254 5.764V5.98V6.16C254 6.52 254.132 6.82 254.396 7.06C254.78 7.42 255.116 7.648 255.404 7.744ZM268.616 5.332C269.288 5.332 270.068 5.452 270.956 5.692C271.844 5.908 272.624 6.268 273.296 6.772C273.968 7.276 274.304 7.912 274.304 8.68C274.304 9.04 274.172 9.316 273.908 9.508C273.668 9.7 273.392 9.796 273.08 9.796C272.84 9.796 272.588 9.736 272.324 9.616C272.084 9.472 271.892 9.256 271.748 8.968C271.388 8.296 270.992 7.744 270.56 7.312C270.152 6.88 269.6 6.52 268.904 6.232C268.808 6.184 268.664 6.124 268.472 6.052C268.28 5.98 268.136 5.92 268.04 5.872C267.968 5.8 267.932 5.716 267.932 5.62C267.932 5.524 267.992 5.452 268.112 5.404C268.256 5.356 268.424 5.332 268.616 5.332ZM253.424 8.86C253.424 8.98 253.472 9.064 253.568 9.112C253.664 9.136 253.76 9.1 253.856 9.004C254.12 8.692 254.252 8.464 254.252 8.32C253.892 7.648 253.7 7.36 253.676 7.456C253.676 7.528 253.652 7.66 253.604 7.852L253.424 8.752V8.86ZM263.648 11.776C263.12 11.608 262.628 11.368 262.172 11.056C261.74 10.744 261.524 10.504 261.524 10.336C261.524 10.216 261.608 10.156 261.776 10.156C261.776 10.156 261.956 10.192 262.316 10.264C263.132 10.456 263.768 10.552 264.224 10.552C264.44 10.552 264.932 10.504 265.7 10.408C266.42 10.312 266.924 10.264 267.212 10.264C268.124 10.264 268.844 10.432 269.372 10.768C269.9 11.104 270.164 11.62 270.164 12.316C270.164 12.556 270.092 12.784 269.948 13C269.708 13.288 269.288 13.432 268.688 13.432C268.448 13.432 268.268 13.444 268.148 13.468C267.572 13.564 267.032 13.756 266.528 14.044C266.048 14.332 265.52 14.704 264.944 15.16C264.512 15.472 264.26 15.652 264.188 15.7C263.924 15.844 263.708 15.916 263.54 15.916C263.444 15.916 263.396 15.88 263.396 15.808C263.396 15.712 263.444 15.604 263.54 15.484C263.588 15.388 263.816 15.136 264.224 14.728C265.232 13.6 265.736 12.928 265.736 12.712C265.736 12.52 265.604 12.376 265.34 12.28C265.076 12.16 264.776 12.064 264.44 11.992C264.104 11.896 263.84 11.824 263.648 11.776ZM269.66 28.336C270.572 28.336 271.028 28.684 271.028 29.38C271.028 30.172 270.488 30.688 269.408 30.928C268.256 31.192 267.008 31.324 265.664 31.324C263.504 31.324 261.74 30.964 260.372 30.244C259.004 29.524 258.32 28.36 258.32 26.752C258.32 26.488 258.344 26.2 258.392 25.888C258.464 25.576 258.524 25.348 258.572 25.204C258.692 24.868 258.824 24.592 258.968 24.376C259.136 24.136 259.292 24.016 259.436 24.016C259.556 24.016 259.616 24.1 259.616 24.268V24.412L259.58 25.384C259.58 27.712 261.284 28.876 264.692 28.876C265.34 28.876 266.528 28.756 268.256 28.516C268.976 28.396 269.444 28.336 269.66 28.336ZM298.568 32.224C297.104 29.584 295.52 27.568 293.816 26.176C293.72 26.104 293.588 26.008 293.42 25.888C293.276 25.768 293.204 25.672 293.204 25.6C293.204 25.48 293.288 25.42 293.456 25.42C293.552 25.42 293.768 25.468 294.104 25.564C294.848 25.756 295.832 26.164 297.056 26.788C298.28 27.412 299.36 28.156 300.296 29.02C301.256 29.86 301.736 30.712 301.736 31.576C301.736 32.224 301.568 32.704 301.232 33.016C300.92 33.328 300.56 33.484 300.152 33.484C299.552 33.484 299.024 33.064 298.568 32.224Z" fill="#2D2D2D"/>
</svg>
