<svg width="525" height="167" viewBox="0 0 525 167" fill="none" xmlns="http://www.w3.org/2000/svg">
<g filter="url(#filter0_d_60_10)">
<path d="M81.732 63.884C82.82 63.884 83.652 63.468 84.228 62.636L85.188 61.292C85.444 60.972 85.732 60.588 86.052 60.14C86.436 59.628 86.756 59.244 87.012 58.988C87.268 58.732 87.524 58.604 87.78 58.604C88.292 58.604 89.38 59.276 91.044 60.62C92.772 61.964 94.02 63.116 94.788 64.076C95.108 64.524 95.268 64.908 95.268 65.228C95.268 65.548 95.108 65.868 94.788 66.188C94.276 66.508 93.636 66.668 92.868 66.668H73.572C72.996 66.668 72.548 66.796 72.228 67.052C71.908 67.244 71.748 67.5 71.748 67.82C71.748 68.204 72.004 68.652 72.516 69.164C75.396 71.788 78.884 74.22 82.98 76.46C87.076 78.636 91.236 80.364 95.46 81.644C96.74 82.028 97.316 82.38 97.188 82.7C97.124 82.956 96.9 83.18 96.516 83.372C96.132 83.5 95.812 83.628 95.556 83.756C94.596 84.268 93.828 85.132 93.252 86.348C92.74 87.244 92.164 87.692 91.524 87.692C91.268 87.692 90.98 87.596 90.66 87.404C86.116 85.036 82.276 82.572 79.14 80.012C78.372 79.372 77.732 79.116 77.22 79.244C76.964 79.372 76.74 79.436 76.548 79.436V85.964C76.74 90.892 76.9 94.54 77.028 96.908V97.292C77.028 98.316 76.644 98.988 75.876 99.308C75.236 99.628 74.5 99.916 73.668 100.172C72.836 100.428 72.132 100.556 71.556 100.556C71.3 100.556 71.076 100.46 70.884 100.268C70.756 100.012 70.692 99.66 70.692 99.212C70.692 98.316 70.02 97.868 68.676 97.868H58.5C57.284 97.868 56.676 98.284 56.676 99.116C56.676 99.564 56.932 99.98 57.444 100.364C59.876 102.604 63.012 104.556 66.852 106.22C67.236 106.412 67.62 106.508 68.004 106.508C68.58 106.508 69.092 106.316 69.54 105.932C73.38 103.052 76.804 99.852 79.812 96.332C80.324 95.756 80.836 95.468 81.348 95.468C81.86 95.468 82.34 95.66 82.788 96.044C85.796 98.348 87.3 99.852 87.3 100.556C87.3 100.812 87.012 100.94 86.436 100.94H86.148C85.316 100.94 84.484 101.164 83.652 101.612C80.772 103.212 77.732 104.812 74.532 106.412C73.7 106.796 73.284 107.244 73.284 107.756C73.284 108.268 73.732 108.684 74.628 109.004C80.068 110.476 86.308 111.468 93.348 111.98C94.692 112.172 95.364 112.428 95.364 112.748C95.3 113.004 95.044 113.228 94.596 113.42C94.212 113.612 93.956 113.74 93.828 113.804C92.74 114.444 91.876 115.436 91.236 116.78C90.724 117.996 89.892 118.508 88.74 118.316C80.164 116.716 72.964 114.444 67.14 111.5C61.38 108.492 56.804 104.396 53.412 99.212C52.772 98.316 51.94 97.868 50.916 97.868H38.916C38.276 97.868 37.764 98.06 37.38 98.444C37.06 98.764 36.9 99.244 36.9 99.884V107.372C36.9 108.78 37.604 109.42 39.012 109.292L57.348 107.18C57.604 107.116 57.956 107.084 58.404 107.084C59.172 107.084 59.556 107.276 59.556 107.66C59.556 108.172 58.98 108.588 57.828 108.908C50.532 110.892 39.844 113.484 25.764 116.684C24.804 116.876 24.228 117.164 24.036 117.548L23.748 118.028C23.492 118.348 23.172 118.508 22.788 118.508C22.02 118.508 21.476 118.06 21.156 117.164L19.62 113.42C19.492 113.164 19.428 112.844 19.428 112.46C19.428 111.628 19.972 111.148 21.06 111.02C25.348 110.636 28.068 110.38 29.22 110.252C30.5 110.124 31.14 109.42 31.14 108.14V82.412C31.14 81.9 31.012 81.484 30.756 81.164C30.564 80.844 30.308 80.684 29.988 80.684C29.54 80.684 29.124 80.844 28.74 81.164C23.812 84.62 18.596 87.5 13.092 89.804C12.58 90.06 12.132 90.188 11.748 90.188C11.364 90.188 11.076 90.028 10.884 89.708C10.82 89.644 10.788 89.548 10.788 89.42C10.788 88.972 11.268 88.46 12.228 87.884C16.452 85.452 20.42 82.636 24.132 79.436C27.844 76.236 31.108 72.812 33.924 69.164C34.244 68.716 34.404 68.332 34.404 68.012C34.404 67.628 34.244 67.308 33.924 67.052C33.604 66.796 33.156 66.668 32.58 66.668H28.164C24.452 66.732 20.42 67.084 16.068 67.724H15.492C14.596 67.724 13.956 67.308 13.572 66.476L13.188 65.708C12.996 65.324 12.9 64.94 12.9 64.556C12.9 64.172 13.06 63.884 13.38 63.692C13.7 63.436 14.148 63.34 14.724 63.404C16.9 63.596 20.196 63.756 24.612 63.884H48.516C49.156 63.884 49.636 63.724 49.956 63.404C50.34 63.02 50.532 62.508 50.532 61.868V58.316C50.532 57.676 50.34 57.196 49.956 56.876C49.636 56.492 49.156 56.3 48.516 56.3H35.94C32.036 56.364 27.812 56.716 23.268 57.356H22.692C21.796 57.356 21.156 56.94 20.772 56.108L20.388 55.34C20.196 54.956 20.1 54.572 20.1 54.188C20.1 53.804 20.26 53.516 20.58 53.324C20.9 53.068 21.348 52.972 21.924 53.036C24.1 53.228 27.396 53.388 31.812 53.516H48.516C49.156 53.516 49.636 53.356 49.956 53.036C50.34 52.652 50.532 52.14 50.532 51.5V48.236C50.532 47.596 50.34 47.116 49.956 46.796C49.636 46.412 49.156 46.22 48.516 46.22H31.428C27.524 46.284 23.3 46.636 18.756 47.276H18.18C17.284 47.276 16.644 46.86 16.26 46.028L15.876 45.26C15.684 44.876 15.588 44.492 15.588 44.108C15.588 43.724 15.748 43.436 16.068 43.244C16.388 42.988 16.836 42.892 17.412 42.956C19.588 43.148 22.884 43.308 27.3 43.436H35.844L41.124 43.34H41.028C40.58 41.804 39.748 40.14 38.532 38.348C37.316 36.556 35.972 34.86 34.5 33.26C33.796 32.556 33.444 32.012 33.444 31.628C33.444 31.308 33.7 31.148 34.212 31.148C34.724 31.148 35.172 31.212 35.556 31.34C39.204 32.364 41.892 33.772 43.62 35.564C45.348 37.292 46.212 38.988 46.212 40.652V41.228C46.148 41.484 46.116 41.836 46.116 42.284C46.116 42.668 46.212 42.956 46.404 43.148C46.596 43.34 46.98 43.436 47.556 43.436H58.692C59.844 43.436 60.644 42.956 61.092 41.996C63.012 38.156 64.356 34.828 65.124 32.012C65.444 31.052 66.02 30.572 66.852 30.572C66.98 30.572 67.3 30.636 67.812 30.764C72.1 32.428 74.244 33.612 74.244 34.316C74.244 34.572 73.924 34.796 73.284 34.988L72.804 35.18C71.908 35.5 71.204 35.948 70.692 36.524C69.156 38.06 67.588 39.532 65.988 40.94C65.412 41.388 65.124 41.868 65.124 42.38C65.124 42.7 65.284 42.956 65.604 43.148C65.924 43.34 66.34 43.436 66.852 43.436H79.62C80.708 43.436 81.54 43.02 82.116 42.188L83.076 40.844C83.332 40.524 83.62 40.14 83.94 39.692C84.324 39.18 84.644 38.796 84.9 38.54C85.156 38.284 85.412 38.156 85.668 38.156C86.116 38.156 87.172 38.796 88.836 40.076C90.5 41.356 91.748 42.508 92.58 43.532C92.9 43.98 93.06 44.364 93.06 44.684C93.06 45.068 92.868 45.42 92.484 45.74C91.972 46.06 91.364 46.22 90.66 46.22H58.5C57.86 46.22 57.348 46.412 56.964 46.796C56.644 47.116 56.484 47.596 56.484 48.236V51.5C56.484 52.14 56.644 52.652 56.964 53.036C57.348 53.356 57.86 53.516 58.5 53.516H75.3C76.324 53.516 77.124 53.1 77.7 52.268L78.564 51.116C78.756 50.86 79.012 50.508 79.332 50.06C79.716 49.548 80.004 49.196 80.196 49.004C80.452 48.748 80.708 48.62 80.964 48.62C81.476 48.62 82.532 49.228 84.132 50.444C85.732 51.66 86.884 52.748 87.588 53.708C87.908 54.156 88.068 54.508 88.068 54.764C88.068 55.148 87.908 55.5 87.588 55.82C87.14 56.14 86.596 56.3 85.956 56.3H58.5C57.86 56.3 57.348 56.492 56.964 56.876C56.644 57.196 56.484 57.676 56.484 58.316V61.868C56.484 62.508 56.644 63.02 56.964 63.404C57.348 63.724 57.86 63.884 58.5 63.884H81.732ZM36.996 75.596C37.828 75.916 38.628 76.076 39.396 76.076H48.612C49.956 76.076 50.628 75.404 50.628 74.06C50.628 73.228 50.564 72.108 50.436 70.7V70.508C50.436 69.356 50.916 68.78 51.876 68.78L52.74 68.972C56.516 70.316 58.404 71.34 58.404 72.044C58.404 72.236 58.18 72.492 57.732 72.812C56.9 73.452 56.484 74.124 56.484 74.828C56.484 75.212 56.644 75.532 56.964 75.788C57.348 75.98 57.86 76.076 58.5 76.076H68.58C69.54 76.076 70.34 75.724 70.98 75.02L71.076 74.924C71.524 74.476 71.748 74.028 71.748 73.58C71.748 73.068 71.524 72.588 71.076 72.14C69.924 70.668 68.964 69.292 68.196 68.012C67.556 67.116 66.724 66.668 65.7 66.668H44.772C43.748 66.668 42.948 67.084 42.372 67.916C40.964 69.836 39.428 71.66 37.764 73.388C36.548 74.604 36.292 75.34 36.996 75.596ZM70.692 80.876C70.692 80.236 70.5 79.756 70.116 79.436C69.796 79.052 69.316 78.86 68.676 78.86H38.916C38.276 78.86 37.764 79.052 37.38 79.436C37.06 79.756 36.9 80.236 36.9 80.876V83.372C36.9 84.012 37.06 84.524 37.38 84.908C37.764 85.228 38.276 85.388 38.916 85.388H68.676C69.316 85.388 69.796 85.228 70.116 84.908C70.5 84.524 70.692 84.012 70.692 83.372V80.876ZM38.916 88.268C38.276 88.268 37.764 88.46 37.38 88.844C37.06 89.164 36.9 89.644 36.9 90.284V92.972C36.9 93.612 37.06 94.124 37.38 94.508C37.764 94.828 38.276 94.988 38.916 94.988H68.676C69.316 94.988 69.796 94.828 70.116 94.508C70.5 94.124 70.692 93.612 70.692 92.972V90.284C70.692 89.644 70.5 89.164 70.116 88.844C69.796 88.46 69.316 88.268 68.676 88.268H38.916ZM174.66 34.124C174.98 33.164 175.492 32.684 176.196 32.684C176.516 32.684 176.868 32.78 177.252 32.972L179.652 34.412C180.036 34.668 180.804 35.02 181.956 35.468C183.748 36.172 184.644 36.78 184.644 37.292C184.644 37.548 184.292 37.772 183.588 37.964H183.3C182.404 38.156 181.668 38.668 181.092 39.5C178.34 44.236 174.756 48.94 170.34 53.612C165.924 58.284 161.124 62.252 155.94 65.516C155.428 65.836 154.98 66.028 154.596 66.092C154.212 66.092 153.956 65.996 153.828 65.804C153.764 65.74 153.732 65.644 153.732 65.516C153.732 65.196 154.116 64.652 154.884 63.884C159.172 60.108 163.364 55.212 167.46 49.196C168.996 46.956 170.404 44.492 171.684 41.804C172.964 39.116 173.956 36.556 174.66 34.124ZM202.404 36.236C201.572 35.596 201.156 35.052 201.156 34.604C201.156 34.348 201.38 34.22 201.828 34.22C202.276 34.22 202.788 34.348 203.364 34.604C210.02 37.612 215.428 40.748 219.588 44.012C223.812 47.276 226.82 50.38 228.612 53.324C230.468 56.204 231.396 58.7 231.396 60.812C231.396 61.964 231.14 62.86 230.628 63.5C230.116 64.14 229.444 64.46 228.612 64.46C228.228 64.46 227.78 64.364 227.268 64.172C226.564 63.98 225.988 63.436 225.54 62.54C223.684 58.508 220.548 54.092 216.132 49.292C211.716 44.428 207.14 40.076 202.404 36.236ZM178.02 68.78C177.764 67.884 177.348 67.436 176.772 67.436C176.26 67.436 175.812 67.756 175.428 68.396L171.3 74.828C170.852 75.532 170.628 76.076 170.628 76.46L170.724 77.228C170.468 77.356 170.148 77.42 169.764 77.42C169.188 77.42 168.708 77.196 168.324 76.748L166.404 74.348C166.02 73.836 165.828 73.388 165.828 73.004C165.828 72.556 166.084 72.076 166.596 71.564C169.796 69.004 172.804 66.38 175.62 63.692C176.26 63.052 176.708 62.316 176.964 61.484L177.444 59.948C177.764 58.988 178.308 58.508 179.076 58.508L179.844 58.7C180.42 58.956 180.708 59.372 180.708 59.948C180.708 60.332 180.516 60.78 180.132 61.292L179.364 62.252C178.916 62.764 178.692 63.34 178.692 63.98C178.692 64.236 178.756 64.556 178.884 64.94C181.636 73.068 185.732 80.3 191.172 86.636C191.556 87.148 192.004 87.404 192.516 87.404C192.964 87.404 193.444 87.116 193.956 86.54C196.9 82.572 199.332 78.828 201.252 75.308C202.596 72.94 203.812 70.284 204.9 67.34C205.988 64.396 206.788 61.644 207.3 59.084C207.492 58.06 208.036 57.548 208.932 57.548C209.316 57.548 209.636 57.612 209.892 57.74C214.82 59.66 217.284 60.972 217.284 61.676C217.284 61.996 216.964 62.22 216.324 62.348L215.94 62.444C214.916 62.636 214.212 63.212 213.828 64.172C209.668 74.54 204.324 83.404 197.796 90.764C197.348 91.34 197.124 91.82 197.124 92.204C197.124 92.652 197.38 93.132 197.892 93.644C207.236 101.964 218.884 108.14 232.836 112.172C234.052 112.428 234.66 112.78 234.66 113.228C234.596 113.548 233.988 113.836 232.836 114.092C231.236 114.604 229.956 115.628 228.996 117.164C228.612 117.996 228.036 118.412 227.268 118.412L226.404 118.22C213.476 113.484 202.788 106.54 194.34 97.388C193.828 96.876 193.348 96.62 192.9 96.62C192.452 96.62 192.004 96.844 191.556 97.292C181.188 106.828 168.74 113.804 154.212 118.22C153.636 118.412 153.188 118.508 152.868 118.508C152.42 118.508 152.164 118.38 152.1 118.124V117.932C152.1 117.74 152.228 117.516 152.484 117.26C152.804 117.004 153.22 116.78 153.732 116.588C167.556 111.084 179.108 103.244 188.388 93.068C188.9 92.556 189.156 92.076 189.156 91.628C189.156 91.244 188.996 90.828 188.676 90.38C184.068 83.788 180.516 76.588 178.02 68.78ZM312.612 73.868C312.164 73.356 311.716 73.1 311.268 73.1C310.5 73.1 310.116 73.676 310.116 74.828V93.74C310.244 100.716 310.468 107.756 310.788 114.86V115.34C310.788 116.236 310.468 116.908 309.828 117.356C308.356 118.444 306.82 118.988 305.22 118.988C304.708 118.988 304.228 118.796 303.78 118.412C303.332 118.028 303.108 117.58 303.108 117.068C303.364 113.292 303.588 109.644 303.78 106.124C303.972 102.54 304.1 97.868 304.164 92.108V78.956C304.164 78.444 304.036 78.028 303.78 77.708C303.588 77.388 303.332 77.228 303.012 77.228C302.564 77.228 302.116 77.452 301.668 77.9C297.956 81.42 294.18 84.524 290.34 87.212C289.444 87.98 288.804 88.172 288.42 87.788C288.356 87.724 288.324 87.628 288.324 87.5C288.324 87.18 288.708 86.636 289.476 85.868C293.956 81.708 298.308 76.812 302.532 71.18C306.756 65.484 310.148 60.012 312.708 54.764C312.9 54.38 312.996 54.028 312.996 53.708C312.996 52.812 312.388 52.364 311.172 52.364H306.276C302.372 52.428 298.276 52.78 293.988 53.42H293.508C292.548 53.42 291.844 53.004 291.396 52.172L291.012 51.5C290.82 51.116 290.724 50.732 290.724 50.348C290.724 49.516 291.364 49.164 292.644 49.292C294.116 49.42 296.388 49.548 299.46 49.676H302.052C303.396 49.676 304.068 49.004 304.068 47.66C303.94 42.22 303.652 37.42 303.204 33.26V33.068C303.204 32.556 303.332 32.14 303.588 31.82C303.908 31.5 304.292 31.34 304.74 31.34L305.604 31.532C310.02 32.94 312.228 34.028 312.228 34.796C312.228 35.116 311.972 35.436 311.46 35.756L311.172 35.948C310.34 36.524 309.924 37.324 309.924 38.348V47.66C309.924 48.3 310.084 48.812 310.404 49.196C310.788 49.516 311.3 49.676 311.94 49.676H312.612C313.572 49.676 314.372 49.324 315.012 48.62L315.876 47.66C316.068 47.468 316.42 47.084 316.932 46.508C317.508 45.932 317.988 45.644 318.372 45.644C318.82 45.644 319.62 46.252 320.772 47.468C321.988 48.62 322.98 49.74 323.748 50.828C323.94 51.212 324.036 51.532 324.036 51.788C324.036 52.492 323.652 52.94 322.884 53.132L322.116 53.324C321.028 53.516 320.228 54.028 319.716 54.86C317.284 59.404 314.628 63.404 311.748 66.86C311.364 67.308 311.172 67.724 311.172 68.108C311.172 68.684 311.62 69.164 312.516 69.548C315.908 71.02 318.404 72.684 320.004 74.54C321.604 76.332 322.404 78.06 322.404 79.724C322.404 80.684 322.148 81.452 321.636 82.028C321.188 82.604 320.58 82.892 319.812 82.892C319.684 82.892 319.364 82.828 318.852 82.7C318.084 82.444 317.54 81.868 317.22 80.972C316.324 78.86 314.788 76.492 312.612 73.868ZM362.724 48.332C363.748 48.332 364.548 47.916 365.124 47.084L365.604 46.508C365.796 46.316 366.084 45.964 366.468 45.452C366.916 44.94 367.332 44.684 367.716 44.684C368.164 44.684 369.06 45.164 370.404 46.124C371.748 47.084 372.804 48.012 373.572 48.908C373.828 49.228 373.956 49.58 373.956 49.964C373.956 50.412 373.668 50.828 373.092 51.212C372.836 51.34 372.644 51.404 372.516 51.404C371.364 51.852 370.788 52.62 370.788 53.708V70.124C370.916 77.1 371.14 84.14 371.46 91.244V91.724C371.46 92.62 371.14 93.26 370.5 93.644C369.796 94.092 369.028 94.508 368.196 94.892C367.364 95.212 366.596 95.372 365.892 95.372C365.508 95.372 365.188 95.148 364.932 94.7C364.804 94.508 364.74 94.22 364.74 93.836C364.74 93.516 364.804 93.036 364.932 92.396L365.124 91.244V91.148C365.124 90.508 364.932 90.028 364.548 89.708C364.228 89.324 363.748 89.132 363.108 89.132H352.836C352.196 89.132 351.684 89.324 351.3 89.708C350.98 90.028 350.82 90.508 350.82 91.148V98.252C351.012 105.548 351.204 110.956 351.396 114.476V115.052C351.396 115.756 351.14 116.364 350.628 116.876C350.116 117.388 349.412 117.836 348.516 118.22C347.62 118.604 346.788 118.796 346.02 118.796C345.444 118.796 344.964 118.604 344.58 118.22C344.196 117.836 344.004 117.388 344.004 116.876C344.388 110.924 344.644 104.972 344.772 99.02V91.148C344.772 90.508 344.58 90.028 344.196 89.708C343.876 89.324 343.396 89.132 342.756 89.132H333.06C332.42 89.132 331.908 89.292 331.524 89.612C331.204 89.932 331.044 90.38 331.044 90.956C331.108 91.468 331.14 92.044 331.14 92.684L331.236 93.644C331.236 94.284 331.012 94.828 330.564 95.276C330.052 95.66 329.412 96.012 328.644 96.332C327.876 96.588 327.108 96.716 326.34 96.716C325.892 96.716 325.476 96.524 325.092 96.14C324.772 95.692 324.612 95.244 324.612 94.796C325.06 88.844 325.348 82.316 325.476 75.212V64.46C325.476 58.252 325.188 52.652 324.612 47.66V47.276C324.612 46.828 324.708 46.476 324.9 46.22C325.156 45.9 325.444 45.74 325.764 45.74C326.084 45.74 326.436 45.836 326.82 46.028L330.372 47.756C331.076 48.14 331.908 48.332 332.868 48.332H342.756C344.1 48.332 344.772 47.66 344.772 46.316C344.644 41.004 344.42 36.716 344.1 33.452V33.068C344.1 32.044 344.548 31.532 345.444 31.532C345.572 31.532 345.892 31.596 346.404 31.724C350.884 33.132 353.124 34.252 353.124 35.084C353.124 35.404 352.868 35.724 352.356 36.044L352.068 36.236C351.236 36.812 350.82 37.612 350.82 38.636V46.316C350.82 46.956 350.98 47.468 351.3 47.852C351.684 48.172 352.196 48.332 352.836 48.332H362.724ZM342.756 67.052C343.396 67.052 343.876 66.892 344.196 66.572C344.58 66.188 344.772 65.676 344.772 65.036V53.132C344.772 52.492 344.58 52.012 344.196 51.692C343.876 51.308 343.396 51.116 342.756 51.116H333.06C332.42 51.116 331.908 51.308 331.524 51.692C331.204 52.012 331.044 52.492 331.044 53.132V65.036C331.044 65.676 331.204 66.188 331.524 66.572C331.908 66.892 332.42 67.052 333.06 67.052H342.756ZM363.108 67.052C363.748 67.052 364.228 66.892 364.548 66.572C364.932 66.188 365.124 65.676 365.124 65.036V53.132C365.124 52.492 364.932 52.012 364.548 51.692C364.228 51.308 363.748 51.116 363.108 51.116H352.836C352.196 51.116 351.684 51.308 351.3 51.692C350.98 52.012 350.82 52.492 350.82 53.132V65.036C350.82 65.676 350.98 66.188 351.3 66.572C351.684 66.892 352.196 67.052 352.836 67.052H363.108ZM333.06 69.836C332.42 69.836 331.908 70.028 331.524 70.412C331.204 70.732 331.044 71.212 331.044 71.852V84.332C331.044 84.972 331.204 85.484 331.524 85.868C331.908 86.188 332.42 86.348 333.06 86.348H342.756C343.396 86.348 343.876 86.188 344.196 85.868C344.58 85.484 344.772 84.972 344.772 84.332V71.852C344.772 71.212 344.58 70.732 344.196 70.412C343.876 70.028 343.396 69.836 342.756 69.836H333.06ZM352.836 69.836C352.196 69.836 351.684 70.028 351.3 70.412C350.98 70.732 350.82 71.212 350.82 71.852V84.332C350.82 84.972 350.98 85.484 351.3 85.868C351.684 86.188 352.196 86.348 352.836 86.348H363.108C363.748 86.348 364.228 86.188 364.548 85.868C364.932 85.484 365.124 84.972 365.124 84.332V71.852C365.124 71.212 364.932 70.732 364.548 70.412C364.228 70.028 363.748 69.836 363.108 69.836H352.836ZM444.516 79.532C444.516 79.02 444.388 78.604 444.132 78.284C443.94 77.964 443.684 77.804 443.364 77.804C442.916 77.804 442.468 78.028 442.02 78.476C438.372 81.932 434.372 85.164 430.02 88.172C429.06 88.748 428.356 88.876 427.908 88.556C427.844 88.492 427.812 88.396 427.812 88.268C427.812 87.948 428.196 87.404 428.964 86.636C433.764 82.412 438.372 77.388 442.788 71.564C447.204 65.74 450.66 60.108 453.156 54.668C453.348 54.284 453.444 53.964 453.444 53.708C453.444 52.812 452.836 52.364 451.62 52.364H445.668C441.764 52.428 437.54 52.78 432.996 53.42H432.42C431.524 53.42 430.884 53.004 430.5 52.172L430.116 51.5C429.924 51.116 429.828 50.732 429.828 50.348C429.828 49.516 430.468 49.164 431.748 49.292C433.348 49.42 435.876 49.548 439.332 49.676H442.308C443.652 49.676 444.324 49.004 444.324 47.66C444.196 42.284 443.908 37.548 443.46 33.452V33.26C443.46 32.748 443.588 32.332 443.844 32.012C444.164 31.692 444.548 31.532 444.996 31.532L445.86 31.724C448.356 32.492 450.084 33.132 451.044 33.644C452.068 34.156 452.58 34.604 452.58 34.988C452.58 35.308 452.292 35.628 451.716 35.948L451.428 36.14C450.532 36.716 450.084 37.516 450.084 38.54V47.66C450.084 48.3 450.244 48.812 450.564 49.196C450.948 49.516 451.46 49.676 452.1 49.676H452.964C453.924 49.676 454.724 49.324 455.364 48.62L456.228 47.66C456.484 47.404 456.868 47.02 457.38 46.508C457.956 45.932 458.436 45.644 458.82 45.644C459.268 45.644 460.068 46.252 461.22 47.468C462.436 48.62 463.428 49.74 464.196 50.828C464.452 51.34 464.58 51.692 464.58 51.884C464.58 52.524 464.196 52.908 463.428 53.036C463.044 53.164 462.724 53.228 462.468 53.228C461.892 53.356 461.412 53.548 461.028 53.804C460.708 53.996 460.42 54.348 460.164 54.86C457.988 59.084 455.332 63.212 452.196 67.244C451.876 67.756 451.716 68.172 451.716 68.492C451.716 69.132 452.196 69.644 453.156 70.028C456.804 71.436 459.492 73.1 461.22 75.02C463.012 76.94 463.908 78.732 463.908 80.396C463.908 81.292 463.652 82.06 463.14 82.7C462.692 83.276 462.052 83.564 461.22 83.564C460.836 83.564 460.548 83.532 460.356 83.468C459.908 83.34 459.556 83.148 459.3 82.892C459.108 82.572 458.852 82.156 458.532 81.644C457.252 79.02 455.364 76.396 452.868 73.772C452.42 73.324 451.972 73.1 451.524 73.1C451.204 73.1 450.916 73.26 450.66 73.58C450.468 73.9 450.372 74.316 450.372 74.828V93.74C450.5 100.716 450.724 107.756 451.044 114.86V115.34C451.044 116.172 450.756 116.844 450.18 117.356C448.836 118.444 447.236 118.988 445.38 118.988C444.932 118.988 444.484 118.764 444.036 118.316C443.652 117.932 443.46 117.516 443.46 117.068C443.716 113.292 443.94 109.644 444.132 106.124C444.324 102.54 444.452 97.868 444.516 92.108V79.532ZM497.796 64.46C498.82 64.46 499.62 64.012 500.196 63.116L501.252 61.58C501.508 61.26 501.796 60.844 502.116 60.332C502.5 59.756 502.82 59.34 503.076 59.084C503.332 58.828 503.588 58.7 503.844 58.7C504.292 58.7 505.38 59.404 507.108 60.812C508.836 62.22 510.116 63.468 510.948 64.556C511.268 65.004 511.428 65.388 511.428 65.708C511.428 66.092 511.236 66.444 510.852 66.764C510.404 67.084 509.828 67.244 509.124 67.244H490.116C489.476 67.244 488.964 67.436 488.58 67.82C488.26 68.14 488.1 68.62 488.1 69.26V109.58C488.1 110.22 488.26 110.732 488.58 111.116C488.964 111.436 489.476 111.596 490.116 111.596H500.484C501.508 111.596 502.308 111.148 502.884 110.252L503.94 108.716C504.132 108.396 504.42 107.98 504.804 107.468C505.252 106.892 505.604 106.476 505.86 106.22C506.116 105.9 506.372 105.74 506.628 105.74C507.14 105.74 508.228 106.476 509.892 107.948C511.62 109.42 512.868 110.7 513.636 111.788C513.956 112.236 514.116 112.588 514.116 112.844C514.116 113.228 513.956 113.58 513.636 113.9C513.188 114.22 512.612 114.38 511.908 114.38H473.412C469.508 114.444 465.284 114.796 460.74 115.436H460.164C459.268 115.436 458.628 115.02 458.244 114.188L457.86 113.42C457.668 113.036 457.572 112.652 457.572 112.268C457.572 111.884 457.732 111.596 458.052 111.404C458.372 111.148 458.82 111.052 459.396 111.116C461.572 111.308 464.868 111.468 469.284 111.596H479.748C480.388 111.596 480.868 111.436 481.188 111.116C481.572 110.732 481.764 110.22 481.764 109.58V69.26C481.764 68.62 481.572 68.14 481.188 67.82C480.868 67.436 480.388 67.244 479.748 67.244H475.524C472.836 67.308 469.7 67.628 466.116 68.204C465.988 68.268 465.764 68.3 465.444 68.3C464.612 68.3 464.004 67.852 463.62 66.956L463.236 66.284C463.044 65.9 462.948 65.548 462.948 65.228C462.948 64.268 463.588 63.852 464.868 63.98C467.044 64.172 470.34 64.332 474.756 64.46H479.748C480.388 64.46 480.868 64.3 481.188 63.98C481.572 63.596 481.764 63.084 481.764 62.444V50.828C481.764 44.428 481.476 38.7 480.9 33.644V33.26C480.9 32.812 481.028 32.46 481.284 32.204C481.54 31.884 481.892 31.724 482.34 31.724C482.532 31.724 482.82 31.788 483.204 31.916C488.004 33.388 490.404 34.54 490.404 35.372C490.404 35.692 490.148 36.012 489.636 36.332L489.348 36.524C488.516 37.1 488.1 37.9 488.1 38.924V62.444C488.1 63.084 488.26 63.596 488.58 63.98C488.964 64.3 489.476 64.46 490.116 64.46H497.796Z" fill="white"/>
<path d="M101.416 139.724L106.12 148.484L105.088 149.324L99.3524 139.724H101.416ZM106.456 148.772V156.5H104.896V148.772H106.456ZM110.728 139.724H112.192L106.288 149.276L105.424 149.012L110.728 139.724ZM109.744 141.428C109.888 141.204 109.928 140.98 109.864 140.756C109.8 140.516 109.68 140.324 109.504 140.18C109.328 140.02 109.128 139.94 108.904 139.94C108.904 139.94 108.856 139.94 108.76 139.94C108.664 139.94 108.616 139.94 108.616 139.94V139.7H113.944V139.94H113.608C113.112 139.94 112.648 140.084 112.216 140.372C111.784 140.66 111.44 140.988 111.184 141.356L109.744 141.428ZM102.328 141.428L100.312 141.356C100.088 140.988 99.7604 140.66 99.3284 140.372C98.8964 140.084 98.4244 139.94 97.9124 139.94H97.5764V139.7H103.48V139.94C103.48 139.94 103.424 139.94 103.312 139.94C103.216 139.94 103.168 139.94 103.168 139.94C102.816 139.94 102.544 140.108 102.352 140.444C102.176 140.764 102.168 141.092 102.328 141.428ZM104.944 154.748V156.5H103.048V156.26C103.048 156.26 103.096 156.26 103.192 156.26C103.288 156.26 103.344 156.26 103.36 156.26C103.776 156.26 104.128 156.116 104.416 155.828C104.72 155.524 104.88 155.164 104.896 154.748H104.944ZM106.384 154.748H106.456C106.456 155.164 106.608 155.524 106.912 155.828C107.216 156.116 107.576 156.26 107.992 156.26C107.992 156.26 108.04 156.26 108.136 156.26C108.232 156.26 108.28 156.26 108.28 156.26V156.5H106.384V154.748ZM136.63 141.764L143.23 156.356H141.334L136.222 143.9L136.63 141.764ZM131.998 154.748C131.822 155.228 131.846 155.604 132.07 155.876C132.294 156.132 132.55 156.26 132.838 156.26H133.03V156.5H128.446V156.26C128.446 156.26 128.478 156.26 128.542 156.26C128.606 156.26 128.638 156.26 128.638 156.26C128.974 156.26 129.318 156.148 129.67 155.924C130.022 155.684 130.326 155.292 130.582 154.748H131.998ZM136.63 141.764L136.798 143.42L131.302 156.428H129.79L135.478 144.236C135.478 144.236 135.518 144.14 135.598 143.948C135.694 143.756 135.798 143.524 135.91 143.252C136.038 142.964 136.15 142.684 136.246 142.412C136.342 142.14 136.398 141.924 136.414 141.764H136.63ZM139.462 150.908V151.628H133.102V150.908H139.462ZM140.686 154.748H142.51C142.75 155.292 143.046 155.684 143.398 155.924C143.75 156.148 144.086 156.26 144.406 156.26C144.406 156.26 144.438 156.26 144.502 156.26C144.566 156.26 144.598 156.26 144.598 156.26V156.5H139.678V156.26H139.87C140.142 156.26 140.39 156.132 140.614 155.876C140.838 155.604 140.862 155.228 140.686 154.748ZM165.84 142.1H168.696C169.128 142.1 169.624 142.14 170.184 142.22C170.76 142.3 171.312 142.46 171.84 142.7C172.368 142.94 172.808 143.3 173.16 143.78C173.512 144.26 173.688 144.9 173.688 145.7C173.688 146.18 173.56 146.628 173.304 147.044C173.048 147.46 172.72 147.812 172.32 148.1C171.92 148.372 171.496 148.564 171.048 148.676C171.832 148.756 172.52 148.98 173.112 149.348C173.72 149.7 174.2 150.148 174.552 150.692C174.904 151.236 175.08 151.828 175.08 152.468C175.08 153.252 174.912 153.908 174.576 154.436C174.256 154.948 173.832 155.356 173.304 155.66C172.776 155.964 172.2 156.18 171.576 156.308C170.952 156.436 170.344 156.5 169.752 156.5H166.824C166.824 156.5 166.824 156.444 166.824 156.332C166.84 156.204 166.848 156.084 166.848 155.972C166.848 155.844 166.848 155.78 166.848 155.78H169.728C170.416 155.78 171.032 155.668 171.576 155.444C172.136 155.204 172.576 154.836 172.896 154.34C173.216 153.844 173.376 153.22 173.376 152.468C173.376 151.7 173.208 151.084 172.872 150.62C172.536 150.14 172.096 149.78 171.552 149.54C171.008 149.284 170.408 149.116 169.752 149.036C169.096 148.94 168.44 148.892 167.784 148.892V148.652C168.216 148.652 168.68 148.62 169.176 148.556C169.672 148.492 170.128 148.364 170.544 148.172C170.976 147.964 171.328 147.668 171.6 147.284C171.872 146.884 172.008 146.356 172.008 145.7C172.008 144.692 171.712 143.964 171.12 143.516C170.528 143.052 169.712 142.82 168.672 142.82H166.056C166.056 142.804 166.032 142.74 165.984 142.628C165.952 142.5 165.92 142.38 165.888 142.268C165.856 142.156 165.84 142.1 165.84 142.1ZM167.04 142.1V156.5H165.528V142.1H167.04ZM165.6 154.964V156.5H163.8V156.26C163.8 156.26 163.848 156.26 163.944 156.26C164.04 156.26 164.088 156.26 164.088 156.26C164.504 156.26 164.84 156.132 165.096 155.876C165.368 155.62 165.512 155.316 165.528 154.964H165.6ZM165.6 143.636H165.528C165.512 143.252 165.368 142.94 165.096 142.7C164.84 142.46 164.504 142.34 164.088 142.34C164.088 142.34 164.04 142.34 163.944 142.34C163.848 142.34 163.8 142.34 163.8 142.34V142.1H165.6V143.636ZM198.176 142.1V151.172C198.176 152.724 198.568 153.948 199.352 154.844C200.152 155.74 201.24 156.188 202.616 156.188C204.136 156.188 205.328 155.764 206.192 154.916C207.072 154.068 207.512 152.908 207.512 151.436V142.1H208.616V151.436C208.616 153.1 208.08 154.42 207.008 155.396C205.952 156.356 204.496 156.836 202.64 156.836C200.8 156.836 199.336 156.356 198.248 155.396C197.176 154.436 196.64 153.124 196.64 151.46V142.1H198.176ZM196.688 142.1V143.372H196.64C196.624 143.084 196.504 142.844 196.28 142.652C196.072 142.444 195.808 142.34 195.488 142.34C195.488 142.34 195.424 142.34 195.296 142.34C195.184 142.34 195.128 142.34 195.128 142.34V142.1H196.688ZM199.688 142.1V142.34C199.688 142.34 199.624 142.34 199.496 142.34C199.384 142.34 199.328 142.34 199.328 142.34C199.024 142.34 198.752 142.444 198.512 142.652C198.288 142.844 198.176 143.084 198.176 143.372H198.128V142.1H199.688ZM207.56 142.1V143.372H207.512C207.512 143.084 207.4 142.844 207.176 142.652C206.952 142.444 206.68 142.34 206.36 142.34C206.36 142.34 206.296 142.34 206.168 142.34C206.056 142.34 206 142.34 206 142.34V142.1H207.56ZM210.128 142.1V142.34C210.128 142.34 210.064 142.34 209.936 142.34C209.824 142.34 209.768 142.34 209.768 142.34C209.464 142.34 209.2 142.444 208.976 142.652C208.752 142.844 208.632 143.084 208.616 143.372H208.568V142.1H210.128ZM258.997 139.364C259.253 139.364 259.525 139.38 259.813 139.412C260.117 139.444 260.405 139.492 260.677 139.556C260.965 139.604 261.221 139.66 261.445 139.724C261.685 139.772 261.869 139.828 261.997 139.892V142.556H261.781C261.781 141.788 261.517 141.188 260.989 140.756C260.461 140.308 259.821 140.084 259.069 140.084C258.189 140.084 257.477 140.364 256.933 140.924C256.389 141.468 256.117 142.108 256.117 142.844C256.117 143.148 256.181 143.508 256.309 143.924C256.453 144.324 256.709 144.7 257.077 145.052L261.805 149.42C262.285 149.868 262.605 150.348 262.765 150.86C262.925 151.372 263.005 151.868 263.005 152.348C263.005 153.676 262.597 154.756 261.781 155.588C260.981 156.42 259.893 156.836 258.517 156.836C258.133 156.836 257.677 156.796 257.149 156.716C256.637 156.636 256.133 156.5 255.637 156.308C255.157 156.1 254.757 155.836 254.437 155.516C254.389 155.26 254.365 154.94 254.365 154.556C254.365 154.172 254.397 153.772 254.461 153.356C254.525 152.924 254.613 152.532 254.725 152.18H254.941C254.861 152.996 254.965 153.708 255.253 154.316C255.541 154.924 255.957 155.388 256.501 155.708C257.061 156.012 257.693 156.148 258.397 156.116C259.277 156.068 260.029 155.764 260.653 155.204C261.293 154.628 261.613 153.86 261.613 152.9C261.613 152.436 261.533 152.02 261.373 151.652C261.213 151.268 260.981 150.94 260.677 150.668L256.069 146.396C255.589 145.948 255.253 145.46 255.061 144.932C254.869 144.388 254.773 143.884 254.773 143.42C254.773 142.748 254.933 142.1 255.253 141.476C255.573 140.852 256.045 140.348 256.669 139.964C257.309 139.564 258.085 139.364 258.997 139.364ZM261.997 139.604V140.108H260.173V139.604H261.997ZM297.291 142.1V156.5H295.755V142.1H297.291ZM286.899 142.1V156.5H285.363V142.1H286.899ZM295.995 149.036V149.756H286.635V149.036H295.995ZM285.435 154.964V156.5H283.683V156.26C283.683 156.26 283.731 156.26 283.827 156.26C283.923 156.26 283.971 156.26 283.971 156.26C284.355 156.26 284.675 156.132 284.931 155.876C285.203 155.62 285.347 155.316 285.363 154.964H285.435ZM286.827 154.964H286.899C286.899 155.316 287.035 155.62 287.307 155.876C287.579 156.132 287.907 156.26 288.291 156.26C288.291 156.26 288.339 156.26 288.435 156.26C288.531 156.26 288.579 156.26 288.579 156.26V156.5H286.827V154.964ZM286.827 143.636V142.1H288.579V142.34C288.579 142.34 288.531 142.34 288.435 142.34C288.339 142.34 288.291 142.34 288.291 142.34C287.907 142.34 287.579 142.468 287.307 142.724C287.035 142.964 286.899 143.268 286.899 143.636H286.827ZM285.435 143.636H285.363C285.347 143.268 285.203 142.964 284.931 142.724C284.675 142.468 284.355 142.34 283.971 142.34C283.971 142.34 283.923 142.34 283.827 142.34C283.731 142.34 283.683 142.34 283.683 142.34V142.1H285.435V143.636ZM295.827 154.964V156.5H294.075V156.26C294.075 156.26 294.123 156.26 294.219 156.26C294.315 156.26 294.363 156.26 294.363 156.26C294.747 156.26 295.067 156.132 295.323 155.876C295.595 155.62 295.739 155.316 295.755 154.964H295.827ZM297.219 154.964H297.291C297.307 155.316 297.443 155.62 297.699 155.876C297.971 156.132 298.299 156.26 298.683 156.26C298.683 156.26 298.731 156.26 298.827 156.26C298.923 156.26 298.971 156.26 298.971 156.26V156.5H297.219V154.964ZM297.219 143.636V142.1H298.971V142.34C298.971 142.34 298.923 142.34 298.827 142.34C298.731 142.34 298.683 142.34 298.683 142.34C298.299 142.34 297.971 142.468 297.699 142.724C297.443 142.964 297.307 143.268 297.291 143.636H297.219ZM295.827 143.636H295.755C295.739 143.268 295.595 142.964 295.323 142.724C295.067 142.468 294.747 142.34 294.363 142.34C294.363 142.34 294.315 142.34 294.219 142.34C294.123 142.34 294.075 142.34 294.075 142.34V142.1H295.827V143.636ZM322.518 142.1H325.614C326.366 142.1 327.038 142.188 327.63 142.364C328.238 142.54 328.75 142.796 329.166 143.132C329.598 143.468 329.926 143.876 330.15 144.356C330.374 144.836 330.486 145.38 330.486 145.988C330.486 146.66 330.326 147.284 330.006 147.86C329.686 148.436 329.238 148.908 328.662 149.276C328.102 149.644 327.462 149.868 326.742 149.948C327.014 150.06 327.326 150.308 327.678 150.692C328.046 151.076 328.358 151.452 328.614 151.82C328.614 151.82 328.718 151.964 328.926 152.252C329.134 152.524 329.398 152.868 329.718 153.284C330.054 153.684 330.382 154.068 330.702 154.436C331.038 154.804 331.342 155.124 331.614 155.396C331.902 155.668 332.206 155.884 332.526 156.044C332.862 156.188 333.246 156.26 333.678 156.26V156.5H332.934C332.054 156.5 331.326 156.388 330.75 156.164C330.19 155.94 329.734 155.668 329.382 155.348C329.03 155.012 328.726 154.692 328.47 154.388C328.406 154.308 328.254 154.108 328.014 153.788C327.79 153.452 327.542 153.092 327.27 152.708C326.998 152.324 326.75 151.98 326.526 151.676C326.302 151.356 326.166 151.164 326.118 151.1C325.798 150.684 325.43 150.316 325.014 149.996C324.598 149.66 324.158 149.492 323.694 149.492V149.252C323.694 149.252 323.822 149.26 324.078 149.276C324.334 149.276 324.662 149.268 325.062 149.252C325.51 149.236 325.958 149.204 326.406 149.156C326.854 149.092 327.27 148.916 327.654 148.628C328.054 148.34 328.366 147.86 328.59 147.188C328.654 147.012 328.702 146.804 328.734 146.564C328.766 146.324 328.774 146.076 328.758 145.82C328.742 145.372 328.654 144.972 328.494 144.62C328.35 144.268 328.134 143.964 327.846 143.708C327.574 143.452 327.246 143.252 326.862 143.108C326.478 142.964 326.046 142.884 325.566 142.868C324.814 142.836 324.158 142.828 323.598 142.844C323.038 142.86 322.758 142.86 322.758 142.844C322.758 142.828 322.734 142.764 322.686 142.652C322.654 142.524 322.614 142.404 322.566 142.292C322.534 142.164 322.518 142.1 322.518 142.1ZM322.806 142.1V156.5H321.27V142.1H322.806ZM321.342 154.964L321.63 156.5H319.59V156.26C319.59 156.26 319.646 156.26 319.758 156.26C319.87 156.26 319.926 156.26 319.926 156.26C320.31 156.26 320.63 156.132 320.886 155.876C321.142 155.62 321.278 155.316 321.294 154.964H321.342ZM321.342 143.612H321.294C321.278 143.244 321.142 142.94 320.886 142.7C320.63 142.46 320.31 142.34 319.926 142.34C319.926 142.34 319.87 142.34 319.758 142.34C319.646 142.34 319.59 142.34 319.59 142.34V142.1H321.63L321.342 143.612ZM322.734 154.964H322.806C322.822 155.316 322.958 155.62 323.214 155.876C323.47 156.132 323.79 156.26 324.174 156.26C324.174 156.26 324.222 156.26 324.318 156.26C324.43 156.26 324.486 156.26 324.486 156.26L324.51 156.5H322.446L322.734 154.964ZM356.116 142.1V156.5H354.604V142.1H356.116ZM354.676 154.964V156.5H352.636V156.26C352.636 156.26 352.692 156.26 352.804 156.26C352.916 156.26 352.972 156.26 352.972 156.26C353.42 156.26 353.796 156.132 354.1 155.876C354.42 155.62 354.588 155.316 354.604 154.964H354.676ZM356.044 154.964H356.116C356.132 155.316 356.292 155.62 356.596 155.876C356.916 156.132 357.3 156.26 357.748 156.26C357.748 156.26 357.796 156.26 357.892 156.26C358.004 156.26 358.06 156.26 358.06 156.26L358.084 156.5H356.044V154.964ZM356.044 143.636V142.1H358.084L358.06 142.34C358.06 142.34 358.004 142.34 357.892 142.34C357.796 142.34 357.748 142.34 357.748 142.34C357.3 142.34 356.916 142.468 356.596 142.724C356.292 142.964 356.132 143.268 356.116 143.636H356.044ZM354.676 143.636H354.604C354.588 143.268 354.42 142.964 354.1 142.724C353.796 142.468 353.42 142.34 352.972 142.34C352.956 142.34 352.892 142.34 352.78 142.34C352.684 142.34 352.636 142.34 352.636 142.34V142.1H354.676V143.636ZM379.971 141.74L393.267 154.268L393.507 156.836L380.211 144.236L379.971 141.74ZM380.019 155.012V156.5H378.219V156.26C378.219 156.26 378.283 156.26 378.411 156.26C378.555 156.26 378.627 156.26 378.627 156.26C378.995 156.26 379.307 156.14 379.563 155.9C379.819 155.66 379.947 155.364 379.947 155.012H380.019ZM381.027 155.012C381.027 155.364 381.155 155.66 381.411 155.9C381.683 156.14 381.995 156.26 382.347 156.26C382.347 156.26 382.411 156.26 382.539 156.26C382.683 156.26 382.755 156.26 382.755 156.26V156.5H380.955V155.012H381.027ZM379.971 141.74L381.003 143.084L381.027 156.5H379.947V144.74C379.947 143.924 379.907 143.22 379.827 142.628C379.763 142.036 379.731 141.74 379.731 141.74H379.971ZM393.507 142.1V153.764C393.507 154.276 393.523 154.772 393.555 155.252C393.587 155.716 393.619 156.1 393.651 156.404C393.699 156.692 393.723 156.836 393.723 156.836H393.507L392.451 155.564V142.1H393.507ZM393.435 143.588V142.1H395.235V142.34C395.235 142.34 395.163 142.34 395.019 142.34C394.891 142.34 394.827 142.34 394.827 142.34C394.475 142.34 394.163 142.46 393.891 142.7C393.635 142.94 393.507 143.236 393.507 143.588H393.435ZM392.451 143.588C392.435 143.236 392.299 142.94 392.043 142.7C391.787 142.46 391.475 142.34 391.107 142.34C391.107 142.34 391.035 142.34 390.891 142.34C390.763 142.34 390.699 142.34 390.699 142.34V142.1H392.499V143.588H392.451ZM418.666 142.1V156.5H417.13V142.1H418.666ZM425.122 155.756L425.074 156.5H418.618V155.756H425.122ZM423.994 148.94V149.66H418.618V148.94H423.994ZM425.098 142.1V142.844H418.618V142.1H425.098ZM426.466 153.068L425.146 156.5H421.498L422.314 155.756C423.114 155.756 423.754 155.644 424.234 155.42C424.73 155.18 425.13 154.86 425.434 154.46C425.738 154.044 426.002 153.58 426.226 153.068H426.466ZM423.994 149.612V150.98H423.73V150.668C423.73 150.396 423.65 150.164 423.49 149.972C423.33 149.764 423.082 149.66 422.746 149.66V149.612H423.994ZM423.994 147.62V148.988H422.746V148.94C423.082 148.94 423.33 148.844 423.49 148.652C423.65 148.444 423.73 148.204 423.73 147.932V147.62H423.994ZM425.098 142.772V144.428H424.834V144.068C424.834 143.732 424.722 143.444 424.498 143.204C424.29 142.964 424.002 142.844 423.634 142.844V142.772H425.098ZM425.098 141.716V142.34L422.362 142.1C422.858 142.1 423.386 142.06 423.946 141.98C424.506 141.884 424.89 141.796 425.098 141.716ZM417.178 154.964L417.49 156.5H415.402V156.26C415.402 156.26 415.458 156.26 415.57 156.26C415.682 156.26 415.738 156.26 415.738 156.26C416.138 156.26 416.466 156.132 416.722 155.876C416.978 155.62 417.114 155.316 417.13 154.964H417.178ZM417.178 143.612H417.13C417.114 143.244 416.978 142.94 416.722 142.7C416.466 142.46 416.138 142.34 415.738 142.34C415.738 142.34 415.682 142.34 415.57 142.34C415.458 142.34 415.402 142.34 415.402 142.34V142.1H417.49L417.178 143.612Z" fill="white"/>
</g>
<defs>
<filter id="filter0_d_60_10" x="-4.5" y="-9.5" width="534" height="185" filterUnits="userSpaceOnUse" color-interpolation-filters="sRGB">
<feFlood flood-opacity="0" result="BackgroundImageFix"/>
<feColorMatrix in="SourceAlpha" type="matrix" values="0 0 0 0 0 0 0 0 0 0 0 0 0 0 0 0 0 0 127 0" result="hardAlpha"/>
<feOffset/>
<feGaussianBlur stdDeviation="5"/>
<feComposite in2="hardAlpha" operator="out"/>
<feColorMatrix type="matrix" values="0 0 0 0 0 0 0 0 0 0 0 0 0 0 0 0 0 0 0.4 0"/>
<feBlend mode="normal" in2="BackgroundImageFix" result="effect1_dropShadow_60_10"/>
<feBlend mode="normal" in="SourceGraphic" in2="effect1_dropShadow_60_10" result="shape"/>
</filter>
</defs>
</svg>
