<svg width="105" height="39" viewBox="0 0 105 39" fill="none" xmlns="http://www.w3.org/2000/svg">
<path d="M89.0576 20.1509L101.96 36.9764H1.5V1.5H101.96L89.0576 18.3254L88.3577 19.2382L89.0576 20.1509Z" stroke="black" stroke-width="3"/>
<path d="M20.864 13.6V10.504H26.648V28H23.192V13.6H20.864ZM30.6873 19.024C30.6873 16.256 31.1833 14.088 32.1753 12.52C33.1833 10.952 34.8473 10.168 37.1673 10.168C39.4873 10.168 41.1433 10.952 42.1353 12.52C43.1433 14.088 43.6473 16.256 43.6473 19.024C43.6473 21.808 43.1433 23.992 42.1353 25.576C41.1433 27.16 39.4873 27.952 37.1673 27.952C34.8473 27.952 33.1833 27.16 32.1753 25.576C31.1833 23.992 30.6873 21.808 30.6873 19.024ZM40.3353 19.024C40.3353 17.84 40.2553 16.848 40.0953 16.048C39.9513 15.232 39.6473 14.568 39.1833 14.056C38.7353 13.544 38.0633 13.288 37.1673 13.288C36.2713 13.288 35.5913 13.544 35.1273 14.056C34.6793 14.568 34.3753 15.232 34.2153 16.048C34.0713 16.848 33.9993 17.84 33.9993 19.024C33.9993 20.24 34.0713 21.264 34.2153 22.096C34.3593 22.912 34.6633 23.576 35.1273 24.088C35.5913 24.584 36.2713 24.832 37.1673 24.832C38.0633 24.832 38.7433 24.584 39.2073 24.088C39.6713 23.576 39.9753 22.912 40.1193 22.096C40.2633 21.264 40.3353 20.24 40.3353 19.024ZM48.7949 28.168C48.1869 28.168 47.6829 27.984 47.2829 27.616C46.8989 27.232 46.7069 26.76 46.7069 26.2C46.7069 25.64 46.8989 25.176 47.2829 24.808C47.6829 24.424 48.1869 24.232 48.7949 24.232C49.3869 24.232 49.8749 24.424 50.2589 24.808C50.6429 25.176 50.8349 25.64 50.8349 26.2C50.8349 26.76 50.6429 27.232 50.2589 27.616C49.8749 27.984 49.3869 28.168 48.7949 28.168ZM48.7949 18.232C48.1869 18.232 47.6829 18.048 47.2829 17.68C46.8989 17.296 46.7069 16.824 46.7069 16.264C46.7069 15.704 46.8989 15.24 47.2829 14.872C47.6829 14.488 48.1869 14.296 48.7949 14.296C49.3869 14.296 49.8749 14.488 50.2589 14.872C50.6429 15.24 50.8349 15.704 50.8349 16.264C50.8349 16.824 50.6429 17.296 50.2589 17.68C49.8749 18.048 49.3869 18.232 48.7949 18.232ZM53.5396 13.6V10.504H59.3236V28H55.8676V13.6H53.5396ZM75.1229 13.408H67.3469V17.512C67.6829 17.096 68.1629 16.76 68.7869 16.504C69.4109 16.232 70.0749 16.096 70.7789 16.096C72.0589 16.096 73.1069 16.376 73.9229 16.936C74.7389 17.496 75.3309 18.216 75.6989 19.096C76.0669 19.96 76.2509 20.888 76.2509 21.88C76.2509 23.72 75.7229 25.2 74.6669 26.32C73.6269 27.44 72.1389 28 70.2029 28C68.3789 28 66.9229 27.544 65.8349 26.632C64.7469 25.72 64.1309 24.528 63.9869 23.056H67.2509C67.3949 23.696 67.7149 24.208 68.2109 24.592C68.7229 24.976 69.3709 25.168 70.1549 25.168C71.0989 25.168 71.8109 24.872 72.2909 24.28C72.7709 23.688 73.0109 22.904 73.0109 21.928C73.0109 20.936 72.7629 20.184 72.2669 19.672C71.7869 19.144 71.0749 18.88 70.1309 18.88C69.4589 18.88 68.8989 19.048 68.4509 19.384C68.0029 19.72 67.6829 20.168 67.4909 20.728H64.2749V10.456H75.1229V13.408Z" fill="black"/>
</svg>
