<svg width="105" height="39" viewBox="0 0 105 39" fill="none" xmlns="http://www.w3.org/2000/svg">
<path d="M89.0576 20.1509L101.96 36.9764H1.5V1.5H101.96L89.0576 18.3254L88.3577 19.2382L89.0576 20.1509Z" stroke="black" stroke-width="3"/>
<path d="M20.864 13.6V10.504H26.648V28H23.192V13.6H20.864ZM30.2793 13.6V10.504H36.0633V28H32.6073V13.6H30.2793ZM41.9746 28.168C41.3666 28.168 40.8626 27.984 40.4626 27.616C40.0786 27.232 39.8866 26.76 39.8866 26.2C39.8866 25.64 40.0786 25.176 40.4626 24.808C40.8626 24.424 41.3666 24.232 41.9746 24.232C42.5666 24.232 43.0546 24.424 43.4386 24.808C43.8226 25.176 44.0146 25.64 44.0146 26.2C44.0146 26.76 43.8226 27.232 43.4386 27.616C43.0546 27.984 42.5666 28.168 41.9746 28.168ZM41.9746 18.232C41.3666 18.232 40.8626 18.048 40.4626 17.68C40.0786 17.296 39.8866 16.824 39.8866 16.264C39.8866 15.704 40.0786 15.24 40.4626 14.872C40.8626 14.488 41.3666 14.296 41.9746 14.296C42.5666 14.296 43.0546 14.488 43.4386 14.872C43.8226 15.24 44.0146 15.704 44.0146 16.264C44.0146 16.824 43.8226 17.296 43.4386 17.68C43.0546 18.048 42.5666 18.232 41.9746 18.232ZM48.1833 24.208C49.7193 22.928 50.9433 21.864 51.8553 21.016C52.7673 20.152 53.5273 19.256 54.1353 18.328C54.7433 17.4 55.0473 16.488 55.0473 15.592C55.0473 14.776 54.8553 14.136 54.4713 13.672C54.0873 13.208 53.4953 12.976 52.6953 12.976C51.8953 12.976 51.2793 13.248 50.8473 13.792C50.4153 14.32 50.1913 15.048 50.1753 15.976H46.9113C46.9753 14.056 47.5433 12.6 48.6153 11.608C49.7033 10.616 51.0793 10.12 52.7433 10.12C54.5673 10.12 55.9673 10.608 56.9433 11.584C57.9193 12.544 58.4073 13.816 58.4073 15.4C58.4073 16.648 58.0713 17.84 57.3993 18.976C56.7273 20.112 55.9593 21.104 55.0953 21.952C54.2313 22.784 53.1033 23.792 51.7113 24.976H58.7913V27.76H46.9353V25.264L48.1833 24.208ZM61.6286 19.024C61.6286 16.256 62.1246 14.088 63.1166 12.52C64.1246 10.952 65.7886 10.168 68.1086 10.168C70.4286 10.168 72.0846 10.952 73.0766 12.52C74.0846 14.088 74.5886 16.256 74.5886 19.024C74.5886 21.808 74.0846 23.992 73.0766 25.576C72.0846 27.16 70.4286 27.952 68.1086 27.952C65.7886 27.952 64.1246 27.16 63.1166 25.576C62.1246 23.992 61.6286 21.808 61.6286 19.024ZM71.2766 19.024C71.2766 17.84 71.1966 16.848 71.0366 16.048C70.8926 15.232 70.5886 14.568 70.1246 14.056C69.6766 13.544 69.0046 13.288 68.1086 13.288C67.2126 13.288 66.5326 13.544 66.0686 14.056C65.6206 14.568 65.3166 15.232 65.1566 16.048C65.0126 16.848 64.9406 17.84 64.9406 19.024C64.9406 20.24 65.0126 21.264 65.1566 22.096C65.3006 22.912 65.6046 23.576 66.0686 24.088C66.5326 24.584 67.2126 24.832 68.1086 24.832C69.0046 24.832 69.6846 24.584 70.1486 24.088C70.6126 23.576 70.9166 22.912 71.0606 22.096C71.2046 21.264 71.2766 20.24 71.2766 19.024Z" fill="black"/>
</svg>
