<svg width="105" height="39" viewBox="0 0 105 39" fill="none" xmlns="http://www.w3.org/2000/svg">
<path d="M89.0576 20.1509L101.96 36.9764H1.5V1.5H101.96L89.0576 18.3254L88.3577 19.2382L89.0576 20.1509Z" stroke="black" stroke-width="3"/>
<path d="M25.16 23.08C25.288 23.784 25.576 24.328 26.024 24.712C26.488 25.08 27.104 25.264 27.872 25.264C28.864 25.264 29.584 24.856 30.032 24.04C30.48 23.208 30.704 21.816 30.704 19.864C30.336 20.376 29.816 20.776 29.144 21.064C28.488 21.352 27.776 21.496 27.008 21.496C25.984 21.496 25.056 21.288 24.224 20.872C23.408 20.44 22.76 19.808 22.28 18.976C21.8 18.128 21.56 17.104 21.56 15.904C21.56 14.128 22.088 12.72 23.144 11.68C24.2 10.624 25.64 10.096 27.464 10.096C29.736 10.096 31.336 10.824 32.264 12.28C33.208 13.736 33.68 15.928 33.68 18.856C33.68 20.936 33.496 22.64 33.128 23.968C32.776 25.296 32.16 26.304 31.28 26.992C30.416 27.68 29.232 28.024 27.728 28.024C26.544 28.024 25.536 27.8 24.704 27.352C23.872 26.888 23.232 26.288 22.784 25.552C22.352 24.8 22.104 23.976 22.04 23.08H25.16ZM27.704 18.76C28.536 18.76 29.192 18.504 29.672 17.992C30.152 17.48 30.392 16.792 30.392 15.928C30.392 14.984 30.136 14.256 29.624 13.744C29.128 13.216 28.448 12.952 27.584 12.952C26.72 12.952 26.032 13.224 25.52 13.768C25.024 14.296 24.776 15 24.776 15.88C24.776 16.728 25.016 17.424 25.496 17.968C25.992 18.496 26.728 18.76 27.704 18.76ZM38.8874 28.168C38.2794 28.168 37.7754 27.984 37.3754 27.616C36.9914 27.232 36.7994 26.76 36.7994 26.2C36.7994 25.64 36.9914 25.176 37.3754 24.808C37.7754 24.424 38.2794 24.232 38.8874 24.232C39.4794 24.232 39.9674 24.424 40.3514 24.808C40.7354 25.176 40.9274 25.64 40.9274 26.2C40.9274 26.76 40.7354 27.232 40.3514 27.616C39.9674 27.984 39.4794 28.168 38.8874 28.168ZM38.8874 18.232C38.2794 18.232 37.7754 18.048 37.3754 17.68C36.9914 17.296 36.7994 16.824 36.7994 16.264C36.7994 15.704 36.9914 15.24 37.3754 14.872C37.7754 14.488 38.2794 14.296 38.8874 14.296C39.4794 14.296 39.9674 14.488 40.3514 14.872C40.7354 15.24 40.9274 15.704 40.9274 16.264C40.9274 16.824 40.7354 17.296 40.3514 17.68C39.9674 18.048 39.4794 18.232 38.8874 18.232ZM44.0401 19.024C44.0401 16.256 44.5361 14.088 45.5281 12.52C46.5361 10.952 48.2001 10.168 50.5201 10.168C52.8401 10.168 54.4961 10.952 55.4881 12.52C56.4961 14.088 57.0001 16.256 57.0001 19.024C57.0001 21.808 56.4961 23.992 55.4881 25.576C54.4961 27.16 52.8401 27.952 50.5201 27.952C48.2001 27.952 46.5361 27.16 45.5281 25.576C44.5361 23.992 44.0401 21.808 44.0401 19.024ZM53.6881 19.024C53.6881 17.84 53.6081 16.848 53.4481 16.048C53.3041 15.232 53.0001 14.568 52.5361 14.056C52.0881 13.544 51.4161 13.288 50.5201 13.288C49.6241 13.288 48.9441 13.544 48.4801 14.056C48.0321 14.568 47.7281 15.232 47.5681 16.048C47.4241 16.848 47.3521 17.84 47.3521 19.024C47.3521 20.24 47.4241 21.264 47.5681 22.096C47.7121 22.912 48.0161 23.576 48.4801 24.088C48.9441 24.584 49.6241 24.832 50.5201 24.832C51.4161 24.832 52.0961 24.584 52.5601 24.088C53.0241 23.576 53.3281 22.912 53.4721 22.096C53.6161 21.264 53.6881 20.24 53.6881 19.024ZM72.0358 13.408H64.2598V17.512C64.5958 17.096 65.0758 16.76 65.6998 16.504C66.3238 16.232 66.9878 16.096 67.6918 16.096C68.9718 16.096 70.0198 16.376 70.8358 16.936C71.6518 17.496 72.2438 18.216 72.6118 19.096C72.9798 19.96 73.1638 20.888 73.1638 21.88C73.1638 23.72 72.6358 25.2 71.5798 26.32C70.5398 27.44 69.0518 28 67.1158 28C65.2918 28 63.8357 27.544 62.7477 26.632C61.6597 25.72 61.0437 24.528 60.8997 23.056H64.1637C64.3077 23.696 64.6278 24.208 65.1238 24.592C65.6358 24.976 66.2838 25.168 67.0678 25.168C68.0118 25.168 68.7238 24.872 69.2038 24.28C69.6838 23.688 69.9238 22.904 69.9238 21.928C69.9238 20.936 69.6758 20.184 69.1798 19.672C68.6998 19.144 67.9878 18.88 67.0438 18.88C66.3718 18.88 65.8118 19.048 65.3638 19.384C64.9158 19.72 64.5958 20.168 64.4038 20.728H61.1877V10.456H72.0358V13.408Z" fill="black"/>
</svg>
