<svg width="105" height="39" viewBox="0 0 105 39" fill="none" xmlns="http://www.w3.org/2000/svg">
<path d="M89.0576 20.1509L101.96 36.9764H1.5V1.5H101.96L89.0576 18.3254L88.3577 19.2382L89.0576 20.1509Z" stroke="black" stroke-width="3"/>
<path d="M25.16 23.08C25.288 23.784 25.576 24.328 26.024 24.712C26.488 25.08 27.104 25.264 27.872 25.264C28.864 25.264 29.584 24.856 30.032 24.04C30.48 23.208 30.704 21.816 30.704 19.864C30.336 20.376 29.816 20.776 29.144 21.064C28.488 21.352 27.776 21.496 27.008 21.496C25.984 21.496 25.056 21.288 24.224 20.872C23.408 20.44 22.76 19.808 22.28 18.976C21.8 18.128 21.56 17.104 21.56 15.904C21.56 14.128 22.088 12.72 23.144 11.68C24.2 10.624 25.64 10.096 27.464 10.096C29.736 10.096 31.336 10.824 32.264 12.28C33.208 13.736 33.68 15.928 33.68 18.856C33.68 20.936 33.496 22.64 33.128 23.968C32.776 25.296 32.16 26.304 31.28 26.992C30.416 27.68 29.232 28.024 27.728 28.024C26.544 28.024 25.536 27.8 24.704 27.352C23.872 26.888 23.232 26.288 22.784 25.552C22.352 24.8 22.104 23.976 22.04 23.08H25.16ZM27.704 18.76C28.536 18.76 29.192 18.504 29.672 17.992C30.152 17.48 30.392 16.792 30.392 15.928C30.392 14.984 30.136 14.256 29.624 13.744C29.128 13.216 28.448 12.952 27.584 12.952C26.72 12.952 26.032 13.224 25.52 13.768C25.024 14.296 24.776 15 24.776 15.88C24.776 16.728 25.016 17.424 25.496 17.968C25.992 18.496 26.728 18.76 27.704 18.76ZM38.8874 28.168C38.2794 28.168 37.7754 27.984 37.3754 27.616C36.9914 27.232 36.7994 26.76 36.7994 26.2C36.7994 25.64 36.9914 25.176 37.3754 24.808C37.7754 24.424 38.2794 24.232 38.8874 24.232C39.4794 24.232 39.9674 24.424 40.3514 24.808C40.7354 25.176 40.9274 25.64 40.9274 26.2C40.9274 26.76 40.7354 27.232 40.3514 27.616C39.9674 27.984 39.4794 28.168 38.8874 28.168ZM38.8874 18.232C38.2794 18.232 37.7754 18.048 37.3754 17.68C36.9914 17.296 36.7994 16.824 36.7994 16.264C36.7994 15.704 36.9914 15.24 37.3754 14.872C37.7754 14.488 38.2794 14.296 38.8874 14.296C39.4794 14.296 39.9674 14.488 40.3514 14.872C40.7354 15.24 40.9274 15.704 40.9274 16.264C40.9274 16.824 40.7354 17.296 40.3514 17.68C39.9674 18.048 39.4794 18.232 38.8874 18.232ZM44.0881 15.112C44.1681 13.512 44.7281 12.28 45.7681 11.416C46.8241 10.536 48.2081 10.096 49.9201 10.096C51.0881 10.096 52.0881 10.304 52.9201 10.72C53.7521 11.12 54.3761 11.672 54.7921 12.376C55.2241 13.064 55.4401 13.848 55.4401 14.728C55.4401 15.736 55.1761 16.592 54.6481 17.296C54.1361 17.984 53.5201 18.448 52.8001 18.688V18.784C53.7281 19.072 54.4481 19.584 54.9601 20.32C55.4881 21.056 55.7521 22 55.7521 23.152C55.7521 24.112 55.5281 24.968 55.0801 25.72C54.6481 26.472 54.0001 27.064 53.1361 27.496C52.2881 27.912 51.2641 28.12 50.0641 28.12C48.2561 28.12 46.7841 27.664 45.6481 26.752C44.5121 25.84 43.9121 24.496 43.8481 22.72H47.1121C47.1441 23.504 47.4081 24.136 47.9041 24.616C48.4161 25.08 49.1121 25.312 49.9921 25.312C50.8081 25.312 51.4321 25.088 51.8641 24.64C52.3121 24.176 52.5361 23.584 52.5361 22.864C52.5361 21.904 52.2321 21.216 51.6241 20.8C51.0161 20.384 50.0721 20.176 48.7921 20.176H48.0961V17.416H48.7921C51.0641 17.416 52.2001 16.656 52.2001 15.136C52.2001 14.448 51.9921 13.912 51.5761 13.528C51.1761 13.144 50.5921 12.952 49.8241 12.952C49.0721 12.952 48.4881 13.16 48.0721 13.576C47.6721 13.976 47.4401 14.488 47.3761 15.112H44.0881ZM59.1273 19.024C59.1273 16.256 59.6233 14.088 60.6153 12.52C61.6233 10.952 63.2873 10.168 65.6073 10.168C67.9273 10.168 69.5833 10.952 70.5753 12.52C71.5833 14.088 72.0873 16.256 72.0873 19.024C72.0873 21.808 71.5833 23.992 70.5753 25.576C69.5833 27.16 67.9273 27.952 65.6073 27.952C63.2873 27.952 61.6233 27.16 60.6153 25.576C59.6233 23.992 59.1273 21.808 59.1273 19.024ZM68.7753 19.024C68.7753 17.84 68.6953 16.848 68.5353 16.048C68.3913 15.232 68.0873 14.568 67.6233 14.056C67.1753 13.544 66.5033 13.288 65.6073 13.288C64.7113 13.288 64.0313 13.544 63.5673 14.056C63.1193 14.568 62.8153 15.232 62.6553 16.048C62.5113 16.848 62.4393 17.84 62.4393 19.024C62.4393 20.24 62.5113 21.264 62.6553 22.096C62.7993 22.912 63.1033 23.576 63.5673 24.088C64.0313 24.584 64.7113 24.832 65.6073 24.832C66.5033 24.832 67.1833 24.584 67.6473 24.088C68.1113 23.576 68.4153 22.912 68.5593 22.096C68.7033 21.264 68.7753 20.24 68.7753 19.024Z" fill="black"/>
</svg>
