<svg width="616" height="776" viewBox="0 0 616 776" fill="none" xmlns="http://www.w3.org/2000/svg">
<path d="M0 0H616V776L308 634L0 776V0Z" fill="black"/>
<path d="M140.517 154.28H168.357V162.84H140.517V154.28ZM141.317 178.28H172.917V187H130.917V131H171.797V139.72H141.317V178.28ZM223.489 187L199.009 131H210.289L232.129 181.64H225.649L247.729 131H258.129L233.729 187H223.489ZM296.839 154.28H324.679V162.84H296.839V154.28ZM297.639 178.28H329.239V187H287.239V131H328.119V139.72H297.639V178.28ZM364.033 187V131H372.593L407.713 174.12H403.473V131H413.793V187H405.233L370.113 143.88H374.353V187H364.033ZM463.358 187V139.8H444.798V131H492.318V139.8H473.758V187H463.358Z" fill="white"/>
<path d="M231.8 485C215.2 485 200.2 480.8 186.8 472.4C173.6 464 163.2 451.8 155.6 435.8C148 419.6 144.2 400 144.2 377C144.2 354 148 334.5 155.6 318.5C163.2 302.3 173.6 290 186.8 281.6C200.2 273.2 215.2 269 231.8 269C248.6 269 263.6 273.2 276.8 281.6C290 290 300.4 302.3 308 318.5C315.8 334.5 319.7 354 319.7 377C319.7 400 315.8 419.6 308 435.8C300.4 451.8 290 464 276.8 472.4C263.6 480.8 248.6 485 231.8 485ZM231.8 451.1C241.6 451.1 250.1 448.5 257.3 443.3C264.5 437.9 270.1 429.7 274.1 418.7C278.3 407.7 280.4 393.8 280.4 377C280.4 360 278.3 346.1 274.1 335.3C270.1 324.3 264.5 316.2 257.3 311C250.1 305.6 241.6 302.9 231.8 302.9C222.4 302.9 214 305.6 206.6 311C199.4 316.2 193.7 324.3 189.5 335.3C185.5 346.1 183.5 360 183.5 377C183.5 393.8 185.5 407.7 189.5 418.7C193.7 429.7 199.4 437.9 206.6 443.3C214 448.5 222.4 451.1 231.8 451.1ZM391.363 482V287L408.463 304.7H346.963V272H430.363V482H391.363Z" fill="white"/>
</svg>
