<svg width="616" height="776" viewBox="0 0 616 776" fill="none" xmlns="http://www.w3.org/2000/svg">
<path d="M0 0H616V776L308 634L0 776V0Z" fill="black"/>
<path d="M214.8 485C198.2 485 183.2 480.8 169.8 472.4C156.6 464 146.2 451.8 138.6 435.8C131 419.6 127.2 400 127.2 377C127.2 354 131 334.5 138.6 318.5C146.2 302.3 156.6 290 169.8 281.6C183.2 273.2 198.2 269 214.8 269C231.6 269 246.6 273.2 259.8 281.6C273 290 283.4 302.3 291 318.5C298.8 334.5 302.7 354 302.7 377C302.7 400 298.8 419.6 291 435.8C283.4 451.8 273 464 259.8 472.4C246.6 480.8 231.6 485 214.8 485ZM214.8 451.1C224.6 451.1 233.1 448.5 240.3 443.3C247.5 437.9 253.1 429.7 257.1 418.7C261.3 407.7 263.4 393.8 263.4 377C263.4 360 261.3 346.1 257.1 335.3C253.1 324.3 247.5 316.2 240.3 311C233.1 305.6 224.6 302.9 214.8 302.9C205.4 302.9 197 305.6 189.6 311C182.4 316.2 176.7 324.3 172.5 335.3C168.5 346.1 166.5 360 166.5 377C166.5 393.8 168.5 407.7 172.5 418.7C176.7 429.7 182.4 437.9 189.6 443.3C197 448.5 205.4 451.1 214.8 451.1ZM338.063 482V455.9L421.463 376.7C428.463 370.1 433.663 364.3 437.063 359.3C440.463 354.3 442.663 349.7 443.663 345.5C444.863 341.1 445.463 337 445.463 333.2C445.463 323.6 442.163 316.2 435.563 311C428.963 305.6 419.263 302.9 406.463 302.9C396.263 302.9 386.963 304.7 378.563 308.3C370.363 311.9 363.263 317.4 357.263 324.8L329.963 303.8C338.163 292.8 349.163 284.3 362.963 278.3C376.963 272.1 392.563 269 409.763 269C424.963 269 438.163 271.5 449.363 276.5C460.763 281.3 469.463 288.2 475.463 297.2C481.663 306.2 484.763 316.9 484.763 329.3C484.763 336.1 483.863 342.9 482.063 349.7C480.263 356.3 476.863 363.3 471.863 370.7C466.863 378.1 459.563 386.4 449.963 395.6L378.263 463.7L370.163 449H492.862V482H338.063Z" fill="white"/>
<path d="M140.517 154.28H168.357V162.84H140.517V154.28ZM141.317 178.28H172.917V187H130.917V131H171.797V139.72H141.317V178.28ZM223.489 187L199.009 131H210.289L232.129 181.64H225.649L247.729 131H258.129L233.729 187H223.489ZM296.839 154.28H324.679V162.84H296.839V154.28ZM297.639 178.28H329.239V187H287.239V131H328.119V139.72H297.639V178.28ZM364.033 187V131H372.593L407.713 174.12H403.473V131H413.793V187H405.233L370.113 143.88H374.353V187H364.033ZM463.358 187V139.8H444.798V131H492.318V139.8H473.758V187H463.358Z" fill="white"/>
</svg>
