<svg width="616" height="776" viewBox="0 0 616 776" fill="none" xmlns="http://www.w3.org/2000/svg">
<path d="M0 0H616V776L308 634L0 776V0Z" fill="black"/>
<path d="M215.8 485C199.2 485 184.2 480.8 170.8 472.4C157.6 464 147.2 451.8 139.6 435.8C132 419.6 128.2 400 128.2 377C128.2 354 132 334.5 139.6 318.5C147.2 302.3 157.6 290 170.8 281.6C184.2 273.2 199.2 269 215.8 269C232.6 269 247.6 273.2 260.8 281.6C274 290 284.4 302.3 292 318.5C299.8 334.5 303.7 354 303.7 377C303.7 400 299.8 419.6 292 435.8C284.4 451.8 274 464 260.8 472.4C247.6 480.8 232.6 485 215.8 485ZM215.8 451.1C225.6 451.1 234.1 448.5 241.3 443.3C248.5 437.9 254.1 429.7 258.1 418.7C262.3 407.7 264.4 393.8 264.4 377C264.4 360 262.3 346.1 258.1 335.3C254.1 324.3 248.5 316.2 241.3 311C234.1 305.6 225.6 302.9 215.8 302.9C206.4 302.9 198 305.6 190.6 311C183.4 316.2 177.7 324.3 173.5 335.3C169.5 346.1 167.5 360 167.5 377C167.5 393.8 169.5 407.7 173.5 418.7C177.7 429.7 183.4 437.9 190.6 443.3C198 448.5 206.4 451.1 215.8 451.1ZM405.126 485C390.326 485 375.826 482.9 361.626 478.7C347.626 474.3 335.826 468.3 326.226 460.7L343.026 430.4C350.626 436.6 359.826 441.6 370.626 445.4C381.426 449.2 392.726 451.1 404.526 451.1C418.526 451.1 429.426 448.3 437.226 442.7C445.026 436.9 448.926 429.1 448.926 419.3C448.926 409.7 445.326 402.1 438.126 396.5C430.926 390.9 419.326 388.1 403.326 388.1H384.126V361.4L444.126 290L449.226 304.7H336.426V272H479.526V298.1L419.526 369.5L399.126 357.5H410.826C436.626 357.5 455.926 363.3 468.726 374.9C481.726 386.3 488.226 401 488.226 419C488.226 430.8 485.226 441.7 479.226 451.7C473.226 461.7 464.026 469.8 451.626 476C439.426 482 423.926 485 405.126 485Z" fill="white"/>
<path d="M140.517 154.28H168.357V162.84H140.517V154.28ZM141.317 178.28H172.917V187H130.917V131H171.797V139.72H141.317V178.28ZM223.489 187L199.009 131H210.289L232.129 181.64H225.649L247.729 131H258.129L233.729 187H223.489ZM296.839 154.28H324.679V162.84H296.839V154.28ZM297.639 178.28H329.239V187H287.239V131H328.119V139.72H297.639V178.28ZM364.033 187V131H372.593L407.713 174.12H403.473V131H413.793V187H405.233L370.113 143.88H374.353V187H364.033ZM463.358 187V139.8H444.798V131H492.318V139.8H473.758V187H463.358Z" fill="white"/>
</svg>
