<svg width="616" height="776" viewBox="0 0 616 776" fill="none" xmlns="http://www.w3.org/2000/svg">
<path d="M0 0H616V776L308 634L0 776V0Z" fill="black"/>
<path d="M199.8 485C183.2 485 168.2 480.8 154.8 472.4C141.6 464 131.2 451.8 123.6 435.8C116 419.6 112.2 400 112.2 377C112.2 354 116 334.5 123.6 318.5C131.2 302.3 141.6 290 154.8 281.6C168.2 273.2 183.2 269 199.8 269C216.6 269 231.6 273.2 244.8 281.6C258 290 268.4 302.3 276 318.5C283.8 334.5 287.7 354 287.7 377C287.7 400 283.8 419.6 276 435.8C268.4 451.8 258 464 244.8 472.4C231.6 480.8 216.6 485 199.8 485ZM199.8 451.1C209.6 451.1 218.1 448.5 225.3 443.3C232.5 437.9 238.1 429.7 242.1 418.7C246.3 407.7 248.4 393.8 248.4 377C248.4 360 246.3 346.1 242.1 335.3C238.1 324.3 232.5 316.2 225.3 311C218.1 305.6 209.6 302.9 199.8 302.9C190.4 302.9 182 305.6 174.6 311C167.4 316.2 161.7 324.3 157.5 335.3C153.5 346.1 151.5 360 151.5 377C151.5 393.8 153.5 407.7 157.5 418.7C161.7 429.7 167.4 437.9 174.6 443.3C182 448.5 190.4 451.1 199.8 451.1ZM323.055 434.3V407.3L426.555 272H468.255L366.255 407.3L346.755 401.3H513.255V434.3H323.055ZM438.255 482V434.3L439.455 401.3V359H476.055V482H438.255Z" fill="white"/>
<path d="M140.517 154.28H168.357V162.84H140.517V154.28ZM141.317 178.28H172.917V187H130.917V131H171.797V139.72H141.317V178.28ZM223.489 187L199.009 131H210.289L232.129 181.64H225.649L247.729 131H258.129L233.729 187H223.489ZM296.839 154.28H324.679V162.84H296.839V154.28ZM297.639 178.28H329.239V187H287.239V131H328.119V139.72H297.639V178.28ZM364.033 187V131H372.593L407.713 174.12H403.473V131H413.793V187H405.233L370.113 143.88H374.353V187H364.033ZM463.358 187V139.8H444.798V131H492.318V139.8H473.758V187H463.358Z" fill="white"/>
</svg>
