<svg width="643" height="141" viewBox="0 0 643 141" fill="none" xmlns="http://www.w3.org/2000/svg">
<g filter="url(#filter0_d_326_22)">
<path d="M58.78 12.1999V10.5499H82.43V12.3099C80.45 12.5299 79.79 12.6399 79.02 14.8399C79.02 14.8399 78.8 18.7999 78.8 19.0199V68.5199C78.58 76.7699 78.47 87.99 67.47 94.7C53.83 103.17 32.93 100.75 16.65 93.5999L13.68 92.7199L12.03 94.2599L10.38 93.16L19.4 73.4699L20.94 73.9099C20.83 76.3299 19.84 75.8899 21.93 78.3099C22.37 78.9699 23.8 80.0699 26.11 81.3899C34.47 85.7899 47.45 88.3199 55.48 83.3699C62.41 79.1899 61.53 74.3499 61.53 67.1999V13.8499C60.65 12.5299 60.65 12.1999 58.78 12.1999Z" fill="white"/>
<path d="M123.121 12.1999V10.5499H146.881V12.1999C145.341 12.1999 144.351 12.3099 143.691 14.0699C143.471 14.6199 143.581 17.0399 143.581 17.5899V63.4599C143.801 70.9399 142.151 76.3299 151.061 81.6099C159.861 86.7799 182.191 86.6699 191.101 81.6099C198.801 77.0999 197.371 67.7499 197.371 63.0199V17.8099C197.371 17.2599 197.371 15.0599 197.041 14.1799C195.831 12.0899 195.391 12.8599 193.741 12.1999V10.5499H217.501V12.4199C215.851 12.4199 215.301 11.6499 214.531 14.1799C214.311 14.7299 214.311 17.4799 214.311 18.0299V62.3599C214.751 73.3599 214.421 84.91 201.991 93.16C189.011 101.74 153.481 101.41 139.951 93.5999C126.531 85.8999 126.971 75.1199 126.971 64.7799V17.5899C126.971 17.4799 126.421 14.5099 126.201 14.0699C125.761 12.6399 124.441 12.1999 123.121 12.1999Z" fill="white"/>
<path d="M293.184 12.1999V10.7699H319.144V11.7599C317.824 12.7499 316.724 12.5299 316.504 14.3999C316.394 14.7299 317.714 17.3699 317.824 17.6999L353.574 92.1699C353.684 92.7199 354.454 94.4799 355.004 95.2499C355.664 95.9099 356.654 96.3499 358.084 96.3499V97.9999H334.324V96.5699L336.524 95.2499L326.844 73.9099H286.364L278.444 91.5099C277.784 93.3799 277.674 92.61 277.674 94.7L279.544 95.91V97.9999H258.314V96.24C258.864 96.24 260.404 95.69 261.174 94.7C261.724 94.04 262.054 92.83 262.494 91.84L294.284 18.3599C294.284 18.3599 295.604 14.9499 295.604 14.8399C295.934 13.4099 295.164 12.9699 293.184 12.1999ZM305.284 29.9099L291.754 60.3799H319.694L305.284 29.9099Z" fill="white"/>
<path d="M398.555 12.0899L398.665 10.4399C399.325 10.4399 399.545 10.4399 400.425 10.5499H424.075V12.4199L421.215 13.1899V14.0699L474.345 71.0499V17.2599C474.345 16.9299 474.455 14.1799 474.235 13.8499C473.905 12.8599 472.365 12.3099 471.155 12.3099V10.5499H492.495V12.3099C491.615 12.3099 490.405 12.6399 489.635 13.9599C489.415 14.3999 489.525 16.5999 489.525 17.2599V90.8499C489.525 91.5099 489.415 93.4899 489.745 94.3699C490.625 96.5699 491.175 96.0199 492.715 96.7899V98.1099H470.275V96.4599L472.805 95.7999C473.245 94.5899 472.585 93.9299 471.155 92.6099L416.815 34.8599V91.5099C416.815 91.7299 416.815 94.26 416.925 94.7C417.585 96.02 417.695 96.0199 419.785 96.7899L419.565 97.9999H398.555V96.5699C399.655 96.2399 400.975 96.35 401.525 94.7C401.965 94.04 401.855 92.0599 401.855 91.3999V18.0299C401.855 17.2599 401.965 15.2799 401.525 14.3999C400.645 12.3099 399.985 12.6399 398.555 12.0899Z" fill="white"/>
<path d="M567.114 12.1999V10.7699H593.074V11.7599C591.754 12.7499 590.654 12.5299 590.434 14.3999C590.324 14.7299 591.644 17.3699 591.754 17.6999L627.504 92.1699C627.614 92.7199 628.384 94.4799 628.934 95.2499C629.594 95.9099 630.584 96.3499 632.014 96.3499V97.9999H608.254V96.5699L610.454 95.2499L600.774 73.9099H560.294L552.374 91.5099C551.714 93.3799 551.604 92.61 551.604 94.7L553.474 95.91V97.9999H532.244V96.24C532.794 96.24 534.334 95.69 535.104 94.7C535.654 94.04 535.984 92.83 536.424 91.84L568.214 18.3599C568.214 18.3599 569.534 14.9499 569.534 14.8399C569.864 13.4099 569.094 12.9699 567.114 12.1999ZM579.214 29.9099L565.684 60.3799H593.624L579.214 29.9099Z" fill="white"/>
<path d="M181.777 127.644L181.562 127.273C182.448 126.401 183.398 125.581 184.414 124.812C185.43 124.044 186.38 123.198 187.266 122.273C187.526 121.974 187.656 121.629 187.656 121.238L187.07 120.652C186.302 120.366 185.495 120.177 184.648 120.086L184.062 120.144C183.164 120.105 182.266 120.073 181.367 120.047C180.482 120.021 179.727 119.741 179.102 119.207C178.802 118.868 178.672 118.452 178.711 117.957C178.867 117.332 179.128 116.766 179.492 116.258C179.87 115.75 180.299 115.255 180.781 114.773C181.393 114.24 182.031 113.745 182.695 113.289C183.359 112.82 184.115 112.586 184.961 112.586L185.664 113.094C185.872 113.523 185.951 114.012 185.898 114.559L185.469 115.125H185.176L185.117 114.109L185.176 113.894C184.928 113.452 184.557 113.282 184.062 113.387C183.008 113.921 182.005 114.598 181.055 115.418L179.707 117.176L179.492 118.269C179.688 118.595 179.967 118.862 180.332 119.07L183.477 119.344L183.984 119.266C184.766 119.266 185.501 119.344 186.191 119.5C186.895 119.643 187.539 119.962 188.125 120.457C188.372 120.743 188.496 121.102 188.496 121.531C188.21 122.208 187.786 122.84 187.227 123.426C186.393 124.142 185.54 124.845 184.668 125.535C183.809 126.212 182.962 126.915 182.129 127.644H181.777Z" fill="white"/>
<path d="M213.995 127.019C213.343 126.538 212.849 125.939 212.51 125.223L212.002 123.25H211.553C210.759 123.914 210.023 124.572 209.346 125.223C208.669 125.874 207.927 126.414 207.12 126.844L206.436 126.941L205.811 126.414L205.655 125.379C205.772 124.337 206.032 123.335 206.436 122.371C206.853 121.407 207.445 120.529 208.213 119.734C209.164 118.849 210.225 118.289 211.397 118.055L211.69 118.269L212.237 119.715L212.178 120.555C212.36 121.727 212.634 122.866 212.998 123.973C213.363 125.079 213.884 126.056 214.561 126.902L213.995 127.019ZM207.276 125.887C208.031 125.431 208.734 124.904 209.385 124.305C210.049 123.706 210.739 123.113 211.455 122.527L211.651 121.863L211.358 120.379L211.495 119.891L211.006 119.109L210.538 118.992C209.053 119.721 207.953 120.789 207.237 122.195C206.755 123.159 206.455 124.187 206.338 125.281L206.553 125.887H207.276Z" fill="white"/>
<path d="M231.837 126.902C231.654 126.798 231.589 126.629 231.641 126.394C232.084 125.157 232.488 123.901 232.852 122.625C233.23 121.336 233.569 120.073 233.868 118.836L234.122 118.797C234.33 118.901 234.402 119.116 234.337 119.441L233.692 122.781L235.157 121.004C236.029 120.092 236.967 119.48 237.97 119.168C238.542 119.272 239.05 119.565 239.493 120.047C240.027 120.984 240.261 122.039 240.196 123.211L239.669 126.394L239.141 126.492L238.907 125.926C239.089 124.975 239.246 124.025 239.376 123.074C239.428 121.954 239.07 121.017 238.302 120.262L237.403 120.027L235.977 121.258C235.209 122.104 234.48 123.003 233.79 123.953C233.113 124.904 232.585 125.867 232.208 126.844L231.837 126.902Z" fill="white"/>
<path d="M259.738 127.137L258.937 126.668C258.338 125.626 258.149 124.467 258.37 123.191L259.034 120.301H258.585L257.179 120.652L256.886 120.437V120.125L257.296 119.676C257.986 119.676 258.65 119.565 259.288 119.344C259.614 118.341 260.05 117.41 260.597 116.551L261.202 116.414L261.417 116.961L260.421 118.055L260.265 118.934C261.593 118.999 262.895 118.868 264.171 118.543L264.288 118.797C263.65 119.2 262.934 119.428 262.14 119.48C261.346 119.532 260.59 119.76 259.874 120.164C259.653 120.776 259.484 121.434 259.366 122.137C259.262 122.827 259.152 123.523 259.034 124.227C259.099 124.904 259.301 125.529 259.64 126.102L260.226 126.258C261.059 125.75 261.736 125.112 262.257 124.344C262.309 123.953 262.465 123.634 262.726 123.387L262.902 123.328L262.999 124.07C262.713 124.747 262.329 125.392 261.847 126.004C261.248 126.59 260.545 126.967 259.738 127.137Z" fill="white"/>
<path d="M282.599 126.98L282.13 126.687L281.447 126.082C281.16 125.431 281.056 124.702 281.134 123.894C281.356 122.944 281.668 122.078 282.072 121.297C282.489 120.516 283.055 119.767 283.771 119.051C284.214 118.543 284.806 118.354 285.548 118.484C286.447 118.602 287.228 118.901 287.892 119.383C288.361 120.06 288.595 120.828 288.595 121.687C288.309 122.677 287.86 123.634 287.248 124.559C286.271 125.535 285.19 126.303 284.005 126.863L282.599 126.98ZM284.22 125.809C285.353 125.366 286.349 124.572 287.209 123.426C287.586 122.775 287.775 122.052 287.775 121.258C287.528 120.594 287.098 120.06 286.486 119.656L285.47 119.422L285.138 119.519L284.63 119.402L283.263 120.594C282.534 121.635 282.059 122.82 281.837 124.148C281.837 124.812 282.039 125.366 282.443 125.809L283.498 126.043L284.22 125.809Z" fill="white"/>
<path d="M312.531 127.996C312.102 126.798 311.926 125.418 312.004 123.855L311.887 123.641C310.91 124.578 309.966 125.353 309.055 125.965L307.258 126.746L306.457 126.414C306.092 125.802 305.969 125.079 306.086 124.246C306.151 123.335 306.307 122.456 306.555 121.609C306.802 120.763 307.036 119.923 307.258 119.09L307.863 118.855C308.02 118.894 308.078 119.031 308.039 119.266C307.701 120.112 307.414 120.984 307.18 121.883C306.958 122.781 306.815 123.738 306.75 124.754L307.062 125.73L307.668 125.848L309.797 124.656L311.262 123.152C311.952 122.41 312.329 121.518 312.395 120.477L312.297 120.105L312.727 119.246L313.293 119.168L313.527 119.754C313.254 120.809 312.993 121.863 312.746 122.918C312.772 124.572 312.863 126.206 313.02 127.82L312.531 127.996Z" fill="white"/>
<path d="M331.252 128.211L331.174 127.937C331.747 127.182 332.222 126.388 332.6 125.555L332.307 124.988C332.359 124.663 332.554 124.5 332.893 124.5L333.459 124.988L333.596 125.613C332.984 126.551 332.294 127.417 331.526 128.211H331.252Z" fill="white"/>
<path d="M365.696 127.605L365.462 127.508V126.961C365.696 125.711 365.787 124.344 365.735 122.859L365.638 122.625L365.735 122.371L365.149 119.305L364.778 119.187C363.671 119.37 362.636 119.637 361.673 119.988C360.709 120.327 359.739 120.685 358.763 121.062L358.216 120.945C357.708 121.883 357.239 122.827 356.809 123.777C356.393 124.728 356.126 125.711 356.009 126.727L355.501 126.863C355.266 126.694 355.208 126.447 355.325 126.121C355.755 124.715 356.276 123.328 356.888 121.961C357.513 120.581 358.196 119.24 358.938 117.937L359.622 117.195L361.77 114.285C362.304 113.699 362.942 113.406 363.684 113.406L364.563 113.934C365.423 115.756 365.976 117.755 366.223 119.93C366.471 122.104 366.595 124.279 366.595 126.453L366.184 127.488L365.696 127.605ZM360.13 119.773C360.872 119.526 361.634 119.279 362.415 119.031C363.196 118.784 364.023 118.562 364.895 118.367L364.954 117.488C364.772 116.368 364.355 115.333 363.704 114.383L362.845 114.324C361.985 115.236 361.21 116.134 360.52 117.019C359.843 117.892 359.257 118.907 358.763 120.066H359.544L360.13 119.773Z" fill="white"/>
<path d="M385.12 127.098C384.665 127.098 384.3 126.935 384.027 126.609L383.968 126.375L384.613 125.672H384.866L385.452 126.297L386.429 126.394C387.783 126.329 389.02 125.913 390.14 125.144L390.296 124.598L388.948 123.426C388.18 123.035 387.386 122.736 386.566 122.527C385.745 122.319 385.023 121.974 384.398 121.492L383.948 120.437C384.053 119.513 384.528 118.738 385.374 118.113C386.103 117.462 386.989 117.169 388.03 117.234L388.284 117.293L388.675 117.234C389.196 117.234 389.626 117.495 389.964 118.016L390.257 119.09C390.153 119.428 389.964 119.63 389.691 119.695C389.613 119.2 389.411 118.719 389.085 118.25C388.408 118.042 387.698 117.97 386.956 118.035L385.394 118.875C384.977 119.331 384.736 119.845 384.671 120.418L385.687 121.297C386.598 121.622 387.49 121.935 388.363 122.234C389.235 122.521 389.997 123.003 390.648 123.68C390.947 124.135 391.097 124.689 391.097 125.34C390.329 126.082 389.417 126.564 388.363 126.785C387.321 126.993 386.24 127.098 385.12 127.098Z" fill="white"/>
<path d="M416.42 127.019C415.769 126.538 415.274 125.939 414.935 125.223L414.427 123.25H413.978C413.184 123.914 412.448 124.572 411.771 125.223C411.094 125.874 410.352 126.414 409.545 126.844L408.861 126.941L408.236 126.414L408.08 125.379C408.197 124.337 408.457 123.335 408.861 122.371C409.278 121.407 409.87 120.529 410.638 119.734C411.589 118.849 412.65 118.289 413.822 118.055L414.115 118.269L414.662 119.715L414.603 120.555C414.785 121.727 415.059 122.866 415.423 123.973C415.788 125.079 416.309 126.056 416.986 126.902L416.42 127.019ZM409.701 125.887C410.456 125.431 411.159 124.904 411.81 124.305C412.474 123.706 413.164 123.113 413.88 122.527L414.076 121.863L413.783 120.379L413.92 119.891L413.431 119.109L412.963 118.992C411.478 119.721 410.378 120.789 409.662 122.195C409.18 123.159 408.88 124.187 408.763 125.281L408.978 125.887H409.701Z" fill="white"/>
<path d="M436.176 130.809L434.965 130.144C434.626 129.676 434.457 129.174 434.457 128.641C434.73 127.651 435.395 126.779 436.449 126.023C437.348 125.45 438.298 125.034 439.301 124.773C439.561 124.474 439.659 124.227 439.594 124.031L439.516 123.582C438.07 124.168 436.547 124.585 434.945 124.832L434.223 124.285L434.008 123.133C434.438 122.052 435.017 121.01 435.746 120.008C436.566 119.083 437.471 118.302 438.461 117.664L440.121 117.273L440.766 117.684L441.156 119.246C441.013 120.262 440.837 121.297 440.629 122.352L440.531 123.875C440.479 124.318 440.245 125.034 439.828 126.023C439.411 127 438.793 128.159 437.973 129.5L436.508 130.809H436.176ZM436.781 129.578C437.719 128.523 438.376 127.286 438.754 125.867H437.914C436.938 126.336 436.163 127.006 435.59 127.879L435.512 129.207C435.746 129.611 436.169 129.734 436.781 129.578ZM436.371 123.836C437.335 123.445 438.357 123.087 439.438 122.762C439.867 121.72 440.186 120.659 440.395 119.578L440.18 118.387L439.047 118.172C437.719 118.875 436.671 119.819 435.902 121.004C435.355 121.746 435.023 122.527 434.906 123.348L435.238 123.836H436.371Z" fill="white"/>
<path d="M459.897 126.98L459.428 126.687L458.745 126.082C458.458 125.431 458.354 124.702 458.432 123.894C458.653 122.944 458.966 122.078 459.37 121.297C459.786 120.516 460.353 119.767 461.069 119.051C461.511 118.543 462.104 118.354 462.846 118.484C463.745 118.602 464.526 118.901 465.19 119.383C465.659 120.06 465.893 120.828 465.893 121.687C465.607 122.677 465.157 123.634 464.545 124.559C463.569 125.535 462.488 126.303 461.303 126.863L459.897 126.98ZM461.518 125.809C462.651 125.366 463.647 124.572 464.506 123.426C464.884 122.775 465.073 122.052 465.073 121.258C464.825 120.594 464.396 120.06 463.784 119.656L462.768 119.422L462.436 119.519L461.928 119.402L460.561 120.594C459.832 121.635 459.357 122.82 459.135 124.148C459.135 124.812 459.337 125.366 459.741 125.809L460.795 126.043L461.518 125.809Z" fill="white"/>
</g>
<defs>
<filter id="filter0_d_326_22" x="0.380005" y="0.439941" width="641.634" height="140.369" filterUnits="userSpaceOnUse" color-interpolation-filters="sRGB">
<feFlood flood-opacity="0" result="BackgroundImageFix"/>
<feColorMatrix in="SourceAlpha" type="matrix" values="0 0 0 0 0 0 0 0 0 0 0 0 0 0 0 0 0 0 127 0" result="hardAlpha"/>
<feOffset/>
<feGaussianBlur stdDeviation="5"/>
<feComposite in2="hardAlpha" operator="out"/>
<feColorMatrix type="matrix" values="0 0 0 0 0 0 0 0 0 0 0 0 0 0 0 0 0 0 0.15 0"/>
<feBlend mode="normal" in2="BackgroundImageFix" result="effect1_dropShadow_326_22"/>
<feBlend mode="normal" in="SourceGraphic" in2="effect1_dropShadow_326_22" result="shape"/>
</filter>
</defs>
</svg>
