<?xml version="1.0" encoding="UTF-8"?>
<svg id="_レイヤー_1" data-name="レイヤー_1" xmlns="http://www.w3.org/2000/svg" viewBox="0 0 522.98 455.9">
  <defs>
    <style>
      .cls-1 {
        fill: #7ec8eb;
      }
    </style>
  </defs>
  <g id="_x38_3">
    <path class="cls-1" d="M61.91,233.34c8.29,0,15-6.72,15-15v-28.33h26.69v28.33c0,8.28,6.71,15,15,15s15-6.72,15-15v-28.33h26.69v28.33c0,8.28,6.71,15,15,15s15-6.72,15-15v-28.33h26.69v28.33c0,8.28,6.71,15,15,15s15-6.72,15-15v-28.33h15c8.29,0,15-6.72,15-15s-6.71-15-15-15H15c-8.29,0-15,6.72-15,15s6.71,15,15,15h31.91v28.33c0,8.28,6.71,15,15,15Z"/>
    <path class="cls-1" d="M522.87,17.14c1-8.22-4.86-15.7-13.09-16.7-.46-.05-3.75-.44-8.75-.44-8.75.09-22.84.93-36.76,8.39-5.58,3.03-11.07,7.4-15.58,13.19-2.02-.46-4.22-.94-6.64-1.42-10.62-2.1-24.66-4.25-39.16-4.26-12.15.05-24.73,1.39-36.4,6.77-5.8,2.72-11.39,6.59-15.89,11.98-2.16,2.56-3.99,5.48-5.49,8.62-8.15,1.11-20.42,3.03-33.08,6-10.84,2.57-21.83,5.76-31.35,10.48-4.77,2.42-9.26,5.18-13.31,9.29-2.01,2.07-3.9,4.54-5.36,7.58-1.45,3.02-2.4,6.66-2.38,10.38.02,9.34-1.52,21.29-3.12,30.61-.8,4.67-1.6,8.71-2.19,11.56-.3,1.43-.54,2.55-.71,3.3l-.19.85-.05.24c-1.9,8.07,3.1,16.14,11.16,18.04,8.07,1.89,16.14-3.1,18.04-11.16.05-.22,1.78-7.56,3.52-17.79,1.63-9.62,3.25-21.66,3.47-33.27.55-.45,1.35-1.03,2.52-1.7,3.68-2.16,10-4.63,17.06-6.65,9.67-2.82,20.69-4.97,29.81-6.47-.61,7-1.02,14.35-1.38,21.93-1.05,22.94-1.49,48.08-4.04,70.8-1.57,14.57-4.17,28.05-7.89,39.06-7.82-4.72-15.94-7.77-23.4-9.64-11.08-2.74-20.9-3.23-27.12-3.24-3.98,0-6.48.22-6.86.24-8.25.75-14.33,8.06-13.57,16.31.75,8.22,8.02,14.3,16.25,13.57h.05c.16-.02,1.66-.13,4.13-.13,6.01-.04,17.51.79,27.62,4.8,5.07,1.98,9.75,4.67,13.59,8.19,3.85,3.55,6.97,7.85,9.19,13.94,3.94,10.93,10.93,28.35,19.34,48.7,2.25,5.45,4.62,11.15,7.04,16.92.01.03.02.05.03.07,9.1,21.77,19.05,45.19,28.02,66.17h0c15.25,35.64,27.59,64.01,27.6,64.03,3.3,7.6,12.14,11.08,19.74,7.78,7.6-3.31,11.08-12.14,7.77-19.74-.01-.03-4.16-9.57-10.64-24.58-3.73-8.64-8.24-19.11-13.15-30.58,4.95-6.6,9.21-14.13,13.06-22.53,9.57-21.03,16.72-47.39,22.5-76.15,17.16-86.16,21.11-193.56,21.15-225.19.03-6.82,1.46-10.86,3.23-13.79,1.35-2.21,3.02-3.9,5.16-5.41,3.17-2.25,7.53-3.92,12.09-4.87,4.55-.98,9.19-1.26,12.58-1.26,1.72,0,3.12.07,4.03.14l.98.08h.12c8.22,1.01,15.7-4.85,16.7-13.08ZM427.2,212.95c-4.22,33.68-9.99,67.35-17.58,95.08-3.78,13.86-8.03,26.21-12.58,36.19-.12.27-.25.5-.38.76-3.59-8.45-7.21-17.01-10.77-25.46-1.13-2.69-2.25-5.34-3.36-8.01,6.51-12.07,11.09-26.38,14.81-42.31,6.6-28.9,10.02-62.62,11.9-92.37,1.86-29.72,2.12-55.37,2.12-67.54,0-4.76-.04-7.44-.04-7.51-.13-8.28-6.94-14.9-15.22-14.78-8.28.13-14.9,6.94-14.78,15.23,0,0,.01.59.02,1.79,0,1.2.02,2.98.02,5.27,0,15.63-.46,55.09-4.43,95.35-1.97,20.12-4.84,40.45-8.83,57.86-.68,3.05-1.43,5.97-2.2,8.82-5.28-13.01-9.59-23.95-12.15-31.07-1.4-3.93-3.21-7.48-5.18-10.86,5.17-10.61,8.61-22.3,11.1-34.54,4.74-23.63,5.97-49.54,6.94-73.67.92-24.06,1.65-46.51,4.46-61.44.55-2.81,1.4-4.4,2.58-5.85,1.74-2.12,4.94-4.22,10.15-5.73,5.13-1.51,11.91-2.27,19.11-2.25,11.47-.02,23.93,1.81,33.31,3.68.76.16,1.36.29,2.08.45-.14,1.75-.32,3.48-.31,5.29,0,22.56-2.32,90.27-10.78,157.62Z"/>
    <path class="cls-1" d="M486.31,73.66v328.34c0,8.28,6.71,15,15,15s15-6.72,15-15V73.66c0-8.28-6.71-15-15-15s-15,6.72-15,15Z"/>
    <path class="cls-1" d="M212.24,314.55l1.75,1.76c4.01,4.01,9.98,5.32,15.34,3.55v.04s.89-.05,2.71-.07c1.8-.05,4.63-.14,8.04-1.11,7.96-2.28,12.56-10.59,10.27-18.55-1.27-4.43-4.44-7.76-8.34-9.5.07-.85.27-1.53.28-2.45.08-4.7-1.39-10.88-5.39-15.77-2.67-3.4-6.44-6.18-10.25-7.65-3.81-1.5-7.35-1.82-10.12-1.82-5.51.12-8.85.87-9.92.76h-.22c-7.34-2.89-15.74.35-19.09,7.62-3.47,7.52-.19,16.43,7.34,19.9,4.42,2.04,8.71,2.48,11.97,2.48,1.53-.03,2.86-.11,4.06-.2-.63,1.69-1.37,3.56-2.12,5.9-1.69,5.34-.27,11.16,3.68,15.13ZM232.14,289.8h0Z"/>
    <path class="cls-1" d="M151.82,400.74c.91,2.77,2.13,5.48,3.86,8.03,2.52,3.83,6.46,7.17,10.62,8.93,4.17,1.81,8.14,2.23,11.46,2.23,3.31,0,6.15-.4,8.8-.8,8.19-1.27,13.79-8.93,12.52-17.13-1.27-8.18-8.94-13.79-17.12-12.52-.8.13-1.44.2-2.06.27-.04-.29-.06-.51-.06-.62.03-.34-.03-.23.3-1.22.17-.49.47-1.23.91-2.56.41-1.32,1.07-3.35,1.09-6.47.08-3.03-1.01-7.06-2.97-9.88-2.98-4.32-6.15-6.05-8.89-7.52-1.78-.9-3.69-1.68-5.71-2.44.39-1.48.65-3.14.66-5.02l-.05-1.41c-.25-3.57-1.21-7.13-2.76-10.24-2.73-5.54-6.98-9.36-10.96-11.89-6.05-3.8-11.93-5.49-17.03-6.93-5.05-1.37-9.5-2.45-11.45-3.24-7.73-2.97-16.41.89-19.39,8.62-2.97,7.73.88,16.41,8.61,19.39,3.99,1.51,7.69,2.4,11.15,3.33,3.66.92,6.97,1.91,9.28,2.82-.23.31-.39.51-.64.84-.94,1.34-1.99,2.93-2.98,5.12-.97,2.16-1.91,5.06-1.92,8.66-.02,2.83.69,6.01,2.06,8.67l.02.04c1.31,2.6,3.3,5.49,6.56,7.8,3.21,2.35,7.52,3.46,10.7,3.39,1.33,0,2.45-.15,3.47-.33,0,.17-.04.31-.04.48-.01,3.63.63,7.58,1.97,11.62Z"/>
    <path class="cls-1" d="M295.27,448.94c2.38,3.63,6.25,6.06,10.55,6.64,1.7.24,3.35.32,4.92.32,9.32-.13,15.94-2.82,20.14-3.63,8.08-1.81,13.17-9.82,11.36-17.91-1.6-7.13-8.03-11.91-15.07-11.71-.34-2.67-1.3-5.24-2.99-7.4-2.81-3.58-7.15-5.7-11.7-5.73-.47,0-.85-.01-1.31-.01.95-1.78,1.88-3.59,2.68-5.7.91-2.53,1.84-5.35,1.89-9.41,0-2.32-.38-5.19-1.76-8.16-2.27-4.86-5.95-7.91-9.13-9.76-4.88-2.76-9.33-3.72-13.76-4.44-4.41-.66-8.79-.87-13.02-.87-8.91.02-16.8.9-21.44,1.71-8.15,1.45-13.59,9.25-12.13,17.4,1.45,8.15,9.25,13.58,17.4,12.13,2.3-.43,9.57-1.27,16.17-1.24,1.12-.01,2.23.02,3.3.07-.74,1.21-1.49,2.43-2.26,3.69-1,1.65-2.01,3.34-2.96,5.14-.95,1.84-1.89,3.68-2.69,6.37-1.93,6.6.87,13.66,6.81,17.15,4.34,2.53,8.72,3.91,12.84,4.71-.6,3.69.1,7.51,2.17,10.66Z"/>
    <path class="cls-1" d="M283.48,304.53c5.06,3.88,8.17,6.91,9.95,9.19,2.57,3.48,3.01,4.81,3.68,9.25.57,4.36.41,11.56.77,21.66.26,6.61,4.77,12.24,11.17,13.92,3.14.81,6.23,1.28,9.17,1.7,1.45.21,2.79.37,3.95.49l1.64.16c.56.04.97.08,1.95.09l1.06-.03c.52-.05,1.06-.05,2.63-.4,8.05-1.94,13-10.05,11.05-18.1-1.53-6.31-6.85-10.66-12.96-11.33-.03-1.32-.04-2.67-.09-3.97-.15-3.85-.42-7.72-1.19-11.79-1.11-6.09-3.67-12.62-7.87-18.35-4.18-5.79-9.62-10.88-16.66-16.29-6.58-5.04-15.99-3.8-21.03,2.78-5.04,6.57-3.79,15.99,2.78,21.03Z"/>
  </g>
</svg>