<svg width="616" height="776" viewBox="0 0 616 776" fill="none" xmlns="http://www.w3.org/2000/svg">
<path d="M0 0H616V776L308 634L0 776V0Z" fill="#212529"/>
<path d="M137.52 187V131H160.56C165.52 131 169.76 131.8 173.28 133.4C176.853 135 179.6 137.293 181.52 140.28C183.44 143.267 184.4 146.813 184.4 150.92C184.4 155.027 183.44 158.573 181.52 161.56C179.6 164.547 176.853 166.84 173.28 168.44C169.76 170.04 165.52 170.84 160.56 170.84H143.28L147.92 165.96V187H137.52ZM147.92 167.08L143.28 162.04H160.08C164.667 162.04 168.107 161.08 170.4 159.16C172.747 157.187 173.92 154.44 173.92 150.92C173.92 147.347 172.747 144.6 170.4 142.68C168.107 140.76 164.667 139.8 160.08 139.8H143.28L147.92 134.68V167.08ZM245.007 187.8C240.634 187.8 236.607 187.08 232.927 185.64C229.247 184.2 226.047 182.2 223.327 179.64C220.607 177.027 218.5 173.987 217.007 170.52C215.514 167 214.767 163.16 214.767 159C214.767 154.84 215.514 151.027 217.007 147.56C218.5 144.04 220.607 141 223.327 138.44C226.047 135.827 229.247 133.8 232.927 132.36C236.607 130.92 240.607 130.2 244.927 130.2C249.3 130.2 253.3 130.92 256.927 132.36C260.607 133.8 263.807 135.827 266.527 138.44C269.247 141 271.354 144.04 272.847 147.56C274.34 151.027 275.087 154.84 275.087 159C275.087 163.16 274.34 167 272.847 170.52C271.354 174.04 269.247 177.08 266.527 179.64C263.807 182.2 260.607 184.2 256.927 185.64C253.3 187.08 249.327 187.8 245.007 187.8ZM244.927 178.68C247.754 178.68 250.367 178.2 252.767 177.24C255.167 176.28 257.247 174.92 259.007 173.16C260.767 171.347 262.127 169.267 263.087 166.92C264.1 164.52 264.607 161.88 264.607 159C264.607 156.12 264.1 153.507 263.087 151.16C262.127 148.76 260.767 146.68 259.007 144.92C257.247 143.107 255.167 141.72 252.767 140.76C250.367 139.8 247.754 139.32 244.927 139.32C242.1 139.32 239.487 139.8 237.087 140.76C234.74 141.72 232.66 143.107 230.847 144.92C229.087 146.68 227.7 148.76 226.687 151.16C225.727 153.507 225.247 156.12 225.247 159C225.247 161.827 225.727 164.44 226.687 166.84C227.7 169.24 229.087 171.347 230.847 173.16C232.607 174.92 234.687 176.28 237.087 177.24C239.487 178.2 242.1 178.68 244.927 178.68ZM309.311 187V131H319.711V187H309.311ZM358.058 187V131H366.618L401.738 174.12H397.498V131H407.818V187H399.258L364.138 143.88H368.378V187H358.058ZM457.383 187V139.8H438.823V131H486.343V139.8H467.783V187H457.383Z" fill="white"/>
<path d="M215.8 485C199.2 485 184.2 480.8 170.8 472.4C157.6 464 147.2 451.8 139.6 435.8C132 419.6 128.2 400 128.2 377C128.2 354 132 334.5 139.6 318.5C147.2 302.3 157.6 290 170.8 281.6C184.2 273.2 199.2 269 215.8 269C232.6 269 247.6 273.2 260.8 281.6C274 290 284.4 302.3 292 318.5C299.8 334.5 303.7 354 303.7 377C303.7 400 299.8 419.6 292 435.8C284.4 451.8 274 464 260.8 472.4C247.6 480.8 232.6 485 215.8 485ZM215.8 451.1C225.6 451.1 234.1 448.5 241.3 443.3C248.5 437.9 254.1 429.7 258.1 418.7C262.3 407.7 264.4 393.8 264.4 377C264.4 360 262.3 346.1 258.1 335.3C254.1 324.3 248.5 316.2 241.3 311C234.1 305.6 225.6 302.9 215.8 302.9C206.4 302.9 198 305.6 190.6 311C183.4 316.2 177.7 324.3 173.5 335.3C169.5 346.1 167.5 360 167.5 377C167.5 393.8 169.5 407.7 173.5 418.7C177.7 429.7 183.4 437.9 190.6 443.3C198 448.5 206.4 451.1 215.8 451.1ZM405.126 485C390.326 485 375.826 482.9 361.626 478.7C347.626 474.3 335.826 468.3 326.226 460.7L343.026 430.4C350.626 436.6 359.826 441.6 370.626 445.4C381.426 449.2 392.726 451.1 404.526 451.1C418.526 451.1 429.426 448.3 437.226 442.7C445.026 436.9 448.926 429.1 448.926 419.3C448.926 409.7 445.326 402.1 438.126 396.5C430.926 390.9 419.326 388.1 403.326 388.1H384.126V361.4L444.126 290L449.226 304.7H336.426V272H479.526V298.1L419.526 369.5L399.126 357.5H410.826C436.626 357.5 455.926 363.3 468.726 374.9C481.726 386.3 488.226 401 488.226 419C488.226 430.8 485.226 441.7 479.226 451.7C473.226 461.7 464.026 469.8 451.626 476C439.426 482 423.926 485 405.126 485Z" fill="white"/>
</svg>
