<svg width="616" height="776" viewBox="0 0 616 776" fill="none" xmlns="http://www.w3.org/2000/svg">
<path d="M0 0H616V776L308 634L0 776V0Z" fill="white"/>
<path d="M137.52 187V131H160.56C165.52 131 169.76 131.8 173.28 133.4C176.853 135 179.6 137.293 181.52 140.28C183.44 143.267 184.4 146.813 184.4 150.92C184.4 155.027 183.44 158.573 181.52 161.56C179.6 164.547 176.853 166.84 173.28 168.44C169.76 170.04 165.52 170.84 160.56 170.84H143.28L147.92 165.96V187H137.52ZM147.92 167.08L143.28 162.04H160.08C164.667 162.04 168.107 161.08 170.4 159.16C172.747 157.187 173.92 154.44 173.92 150.92C173.92 147.347 172.747 144.6 170.4 142.68C168.107 140.76 164.667 139.8 160.08 139.8H143.28L147.92 134.68V167.08ZM245.007 187.8C240.634 187.8 236.607 187.08 232.927 185.64C229.247 184.2 226.047 182.2 223.327 179.64C220.607 177.027 218.5 173.987 217.007 170.52C215.514 167 214.767 163.16 214.767 159C214.767 154.84 215.514 151.027 217.007 147.56C218.5 144.04 220.607 141 223.327 138.44C226.047 135.827 229.247 133.8 232.927 132.36C236.607 130.92 240.607 130.2 244.927 130.2C249.3 130.2 253.3 130.92 256.927 132.36C260.607 133.8 263.807 135.827 266.527 138.44C269.247 141 271.354 144.04 272.847 147.56C274.34 151.027 275.087 154.84 275.087 159C275.087 163.16 274.34 167 272.847 170.52C271.354 174.04 269.247 177.08 266.527 179.64C263.807 182.2 260.607 184.2 256.927 185.64C253.3 187.08 249.327 187.8 245.007 187.8ZM244.927 178.68C247.754 178.68 250.367 178.2 252.767 177.24C255.167 176.28 257.247 174.92 259.007 173.16C260.767 171.347 262.127 169.267 263.087 166.92C264.1 164.52 264.607 161.88 264.607 159C264.607 156.12 264.1 153.507 263.087 151.16C262.127 148.76 260.767 146.68 259.007 144.92C257.247 143.107 255.167 141.72 252.767 140.76C250.367 139.8 247.754 139.32 244.927 139.32C242.1 139.32 239.487 139.8 237.087 140.76C234.74 141.72 232.66 143.107 230.847 144.92C229.087 146.68 227.7 148.76 226.687 151.16C225.727 153.507 225.247 156.12 225.247 159C225.247 161.827 225.727 164.44 226.687 166.84C227.7 169.24 229.087 171.347 230.847 173.16C232.607 174.92 234.687 176.28 237.087 177.24C239.487 178.2 242.1 178.68 244.927 178.68ZM309.311 187V131H319.711V187H309.311ZM358.058 187V131H366.618L401.738 174.12H397.498V131H407.818V187H399.258L364.138 143.88H368.378V187H358.058ZM457.383 187V139.8H438.823V131H486.343V139.8H467.783V187H457.383Z" fill="black"/>
<path d="M199.8 485C183.2 485 168.2 480.8 154.8 472.4C141.6 464 131.2 451.8 123.6 435.8C116 419.6 112.2 400 112.2 377C112.2 354 116 334.5 123.6 318.5C131.2 302.3 141.6 290 154.8 281.6C168.2 273.2 183.2 269 199.8 269C216.6 269 231.6 273.2 244.8 281.6C258 290 268.4 302.3 276 318.5C283.8 334.5 287.7 354 287.7 377C287.7 400 283.8 419.6 276 435.8C268.4 451.8 258 464 244.8 472.4C231.6 480.8 216.6 485 199.8 485ZM199.8 451.1C209.6 451.1 218.1 448.5 225.3 443.3C232.5 437.9 238.1 429.7 242.1 418.7C246.3 407.7 248.4 393.8 248.4 377C248.4 360 246.3 346.1 242.1 335.3C238.1 324.3 232.5 316.2 225.3 311C218.1 305.6 209.6 302.9 199.8 302.9C190.4 302.9 182 305.6 174.6 311C167.4 316.2 161.7 324.3 157.5 335.3C153.5 346.1 151.5 360 151.5 377C151.5 393.8 153.5 407.7 157.5 418.7C161.7 429.7 167.4 437.9 174.6 443.3C182 448.5 190.4 451.1 199.8 451.1ZM323.055 434.3V407.3L426.555 272H468.255L366.255 407.3L346.755 401.3H513.255V434.3H323.055ZM438.255 482V434.3L439.455 401.3V359H476.055V482H438.255Z" fill="black"/>
</svg>
