<svg width="525" height="160" viewBox="0 0 525 160" fill="none" xmlns="http://www.w3.org/2000/svg">
<g filter="url(#filter0_d_93_4)">
<path d="M77.22 35.948C78.244 35.948 79.044 35.5 79.62 34.604L80.388 33.452C80.58 33.196 80.836 32.844 81.156 32.396C81.476 31.884 81.732 31.5 81.924 31.244C82.18 30.988 82.436 30.86 82.692 30.86C83.14 30.86 84.1 31.5 85.572 32.78C87.108 34.06 88.26 35.244 89.028 36.332C89.284 36.588 89.412 36.908 89.412 37.292C89.412 37.804 89.156 38.22 88.644 38.54C88.388 38.668 88.196 38.732 88.068 38.732C86.916 39.18 86.34 39.948 86.34 41.036V48.14C86.532 55.308 86.724 60.556 86.916 63.884V64.364C86.916 65.26 86.596 65.9 85.956 66.284C84.292 67.308 82.404 67.82 80.292 67.82C79.972 67.82 79.684 67.66 79.428 67.34C79.236 66.956 79.14 66.444 79.14 65.804V65.324C79.14 64.684 78.948 64.204 78.564 63.884C78.244 63.5 77.764 63.308 77.124 63.308H52.836C52.196 63.308 51.684 63.5 51.3 63.884C50.98 64.204 50.82 64.684 50.82 65.324V66.956C50.82 67.34 50.244 67.788 49.092 68.3C48.004 68.748 46.66 68.972 45.06 68.972C44.548 68.972 44.132 68.78 43.812 68.396C43.492 68.012 43.332 67.564 43.332 67.052C43.588 64.364 43.78 60.972 43.908 56.876V50.732C43.908 45.228 43.652 39.916 43.14 34.796V34.412C43.14 33.452 43.556 32.972 44.388 32.972C44.772 32.972 45.092 33.036 45.348 33.164L50.724 35.468C51.428 35.788 52.228 35.948 53.124 35.948H77.22ZM18.564 33.548C17.54 32.524 17.188 31.916 17.508 31.724C17.636 31.596 17.892 31.532 18.276 31.532C18.788 31.532 19.204 31.564 19.524 31.628C24.068 32.652 27.396 34.156 29.508 36.14C31.684 38.124 32.772 40.14 32.772 42.188C32.772 43.34 32.42 44.3 31.716 45.068C31.076 45.772 30.212 46.124 29.124 46.124C28.804 46.124 28.324 46.06 27.684 45.932C26.98 45.676 26.404 45.036 25.956 44.012C25.188 42.284 24.132 40.492 22.788 38.636C21.444 36.716 20.036 35.02 18.564 33.548ZM77.124 48.236C77.764 48.236 78.244 48.076 78.564 47.756C78.948 47.372 79.14 46.86 79.14 46.22V40.748C79.14 40.108 78.948 39.628 78.564 39.308C78.244 38.924 77.764 38.732 77.124 38.732H52.836C52.196 38.732 51.684 38.924 51.3 39.308C50.98 39.628 50.82 40.108 50.82 40.748V46.22C50.82 46.86 50.98 47.372 51.3 47.756C51.684 48.076 52.196 48.236 52.836 48.236H77.124ZM12.132 92.492C12.132 91.788 12.804 91.436 14.148 91.436H16.164C16.868 91.436 17.348 91.34 17.604 91.148C17.86 90.956 18.18 90.38 18.564 89.42C19.332 88.14 20.388 85.9 21.732 82.7C23.14 79.5 24.932 75.276 27.108 70.028C29.348 64.716 31.108 60.556 32.388 57.548L35.652 49.868C36.164 48.716 36.676 48.14 37.188 48.14C37.636 48.14 37.86 48.46 37.86 49.1C37.86 49.42 37.764 49.836 37.572 50.348C35.332 57.132 32.932 64.428 30.372 72.236C27.812 79.98 26.244 84.876 25.668 86.924C24.772 90.636 24.324 93.292 24.324 94.892C24.324 96.3 24.676 98.284 25.38 100.844C25.892 103.02 26.276 104.812 26.532 106.22C26.788 107.564 26.916 109.164 26.916 111.02C26.916 113.58 26.436 115.564 25.476 116.972C24.516 118.444 23.14 119.18 21.348 119.18C20.58 119.18 19.908 118.86 19.332 118.22C18.756 117.644 18.34 116.78 18.084 115.628C18.02 115.372 17.988 115.02 17.988 114.572C17.988 113.996 18.02 113.516 18.084 113.132C18.468 109.868 18.66 106.892 18.66 104.204C18.66 101.708 18.5 99.66 18.18 98.06C17.86 96.46 17.38 95.436 16.74 94.988C15.972 94.412 15.076 94.028 14.052 93.836C12.772 93.516 12.132 93.068 12.132 92.492ZM52.836 50.924C52.196 50.924 51.684 51.116 51.3 51.5C50.98 51.82 50.82 52.3 50.82 52.94V58.508C50.82 59.148 50.98 59.66 51.3 60.044C51.684 60.364 52.196 60.524 52.836 60.524H77.124C77.764 60.524 78.244 60.364 78.564 60.044C78.948 59.66 79.14 59.148 79.14 58.508V52.94C79.14 52.3 78.948 51.82 78.564 51.5C78.244 51.116 77.764 50.924 77.124 50.924H52.836ZM12.228 54.956C11.78 54.572 11.428 54.22 11.172 53.9C10.98 53.58 10.948 53.356 11.076 53.228C11.204 53.1 11.46 53.036 11.844 53.036C12.356 53.036 12.772 53.068 13.092 53.132C17.316 53.9 20.42 55.212 22.404 57.068C24.452 58.86 25.476 60.716 25.476 62.636C25.476 63.788 25.156 64.748 24.516 65.516C23.876 66.284 23.044 66.668 22.02 66.668C21.572 66.668 21.06 66.572 20.484 66.38C19.716 66.06 19.172 65.42 18.852 64.46C18.276 62.86 17.38 61.228 16.164 59.564C14.948 57.836 13.636 56.3 12.228 54.956ZM82.5 72.524C83.524 72.524 84.324 72.108 84.9 71.276L86.052 69.644C86.308 69.324 86.628 68.908 87.012 68.396C87.46 67.82 87.812 67.404 88.068 67.148C88.324 66.892 88.58 66.764 88.836 66.764C89.348 66.764 90.5 67.5 92.292 68.972C94.084 70.38 95.396 71.596 96.228 72.62C96.548 73.068 96.708 73.452 96.708 73.772C96.708 74.156 96.516 74.508 96.132 74.828C95.684 75.148 95.108 75.308 94.404 75.308H57.156C56.132 75.308 55.332 75.788 54.756 76.748C54.244 77.772 53.348 79.244 52.068 81.164C51.748 81.676 51.588 82.092 51.588 82.412C51.588 82.732 51.748 83.02 52.068 83.276C52.388 83.468 52.804 83.564 53.316 83.564H82.884C83.972 83.564 84.804 83.18 85.38 82.412L86.244 81.452C86.436 81.26 86.692 80.972 87.012 80.588C87.396 80.14 87.716 79.82 87.972 79.628C88.228 79.436 88.484 79.34 88.74 79.34C89.188 79.34 90.18 79.98 91.716 81.26C93.316 82.476 94.5 83.596 95.268 84.62C95.524 84.94 95.652 85.292 95.652 85.676C95.652 86.252 95.364 86.636 94.788 86.828C94.532 86.956 94.308 87.02 94.116 87.02C93.54 87.212 93.092 87.468 92.772 87.788C92.452 88.108 92.26 88.588 92.196 89.228C90.852 103.884 88.1 112.844 83.94 116.108C81.764 117.708 79.108 118.668 75.972 118.988H75.684C74.66 118.988 74.052 118.348 73.86 117.068C73.54 115.532 73.06 114.508 72.42 113.996C71.396 113.036 69.476 112.236 66.66 111.596C65.444 111.34 64.836 110.956 64.836 110.444C64.836 109.932 65.54 109.74 66.948 109.868C71.428 110.252 74.436 110.444 75.972 110.444C76.74 110.444 77.348 110.38 77.796 110.252C78.308 110.124 78.788 109.9 79.236 109.58C80.388 108.684 81.444 106.412 82.404 102.764C83.428 99.052 84.26 94.348 84.9 88.652V88.364C84.9 87.084 84.26 86.444 82.98 86.444H80.388C79.236 86.444 78.468 86.988 78.084 88.076C75.14 95.372 70.788 101.516 65.028 106.508C59.332 111.436 51.908 115.5 42.756 118.7C42.436 118.828 41.988 118.892 41.412 118.892C40.9 118.892 40.612 118.764 40.548 118.508V118.316C40.548 117.804 41.028 117.292 41.988 116.78C48.9 113.644 54.66 109.772 59.268 105.164C63.876 100.492 67.428 95.02 69.924 88.748C70.052 88.364 70.116 88.076 70.116 87.884C70.116 87.436 69.956 87.084 69.636 86.828C69.316 86.572 68.868 86.444 68.292 86.444H65.22C64.196 86.444 63.364 86.892 62.724 87.788C57.092 96.62 48.644 103.596 37.38 108.716C36.612 108.972 36.164 109.1 36.036 109.1C35.652 109.1 35.364 108.94 35.172 108.62C35.108 108.556 35.076 108.428 35.076 108.236C35.076 107.852 35.524 107.372 36.42 106.796C43.908 102.188 49.956 96.204 54.564 88.844C54.82 88.524 54.948 88.14 54.948 87.692C54.948 87.308 54.788 87.02 54.468 86.828C54.148 86.572 53.732 86.444 53.22 86.444H49.284C48.324 86.444 47.492 86.796 46.788 87.5C42.564 91.788 37.508 95.564 31.62 98.828C30.98 99.148 30.5 99.308 30.18 99.308C29.86 99.308 29.636 99.18 29.508 98.924C29.444 98.86 29.412 98.764 29.412 98.636C29.412 98.188 29.828 97.644 30.66 97.004C37.124 92.012 42.436 85.58 46.596 77.708C46.788 77.324 46.884 76.972 46.884 76.652C46.884 75.756 46.276 75.308 45.06 75.308H42.852C40.548 75.372 38.244 75.66 35.94 76.172C35.748 76.236 35.492 76.268 35.172 76.268C34.404 76.268 33.796 75.852 33.348 75.02L32.964 74.348C32.772 73.964 32.676 73.612 32.676 73.292C32.676 72.332 33.316 71.916 34.596 72.044C36.772 72.236 40.068 72.396 44.484 72.524H82.5ZM166.692 80.972C166.692 79.82 166.372 79.244 165.732 79.244C165.22 79.244 164.772 79.628 164.388 80.396C160.996 86.86 157.028 92.556 152.484 97.484C151.588 98.38 150.916 98.636 150.468 98.252C150.34 98.124 150.276 97.932 150.276 97.676C150.276 97.292 150.468 96.78 150.852 96.14C156.996 86.668 161.668 74.092 164.868 58.412L164.964 57.836C164.964 56.748 164.356 56.204 163.14 56.204H160.644C158.404 56.332 156.228 56.62 154.116 57.068C153.924 57.132 153.668 57.164 153.348 57.164C152.58 57.164 151.972 56.748 151.524 55.916L151.14 55.244C150.948 54.86 150.852 54.508 150.852 54.188C150.852 53.804 151.012 53.484 151.332 53.228C151.716 52.972 152.196 52.876 152.772 52.94C154.628 53.132 157.444 53.292 161.22 53.42H164.676C165.316 53.42 165.796 53.26 166.116 52.94C166.5 52.556 166.692 52.044 166.692 51.404V50.06C166.692 43.66 166.404 37.932 165.828 32.876V32.492C165.828 31.468 166.276 30.956 167.172 30.956C167.3 30.956 167.62 31.02 168.132 31.148C171.204 32.044 173.348 32.78 174.564 33.356C175.844 33.868 176.484 34.316 176.484 34.7C176.484 35.02 176.196 35.34 175.62 35.66L175.236 35.852C174.34 36.428 173.892 37.26 173.892 38.348V51.404C173.892 52.044 174.052 52.556 174.372 52.94C174.756 53.26 175.268 53.42 175.908 53.42H176.868C177.956 53.42 178.756 52.972 179.268 52.076L180.324 50.348C180.58 49.964 180.868 49.484 181.188 48.908C181.572 48.332 181.892 47.916 182.148 47.66C182.404 47.34 182.66 47.18 182.916 47.18C183.364 47.18 184.42 47.948 186.084 49.484C187.812 51.02 189.06 52.364 189.828 53.516C190.084 54.028 190.212 54.412 190.212 54.668C190.212 55.052 190.02 55.404 189.636 55.724C189.188 56.044 188.644 56.204 188.004 56.204H175.908C175.268 56.204 174.756 56.396 174.372 56.78C174.052 57.1 173.892 57.58 173.892 58.22V64.844C173.892 65.932 174.436 66.7 175.524 67.148C179.684 69.068 182.724 71.276 184.644 73.772C186.628 76.204 187.62 78.508 187.62 80.684C187.62 82.028 187.268 83.116 186.564 83.948C185.924 84.78 185.124 85.196 184.164 85.196C183.652 85.196 183.012 85.036 182.244 84.716C181.54 84.332 181.092 83.564 180.9 82.412C180.26 79.084 178.756 75.532 176.388 71.756C176.004 71.116 175.556 70.796 175.044 70.796C174.724 70.796 174.436 70.956 174.18 71.276C173.988 71.596 173.892 72.044 173.892 72.62V93.548C174.02 100.46 174.244 107.532 174.564 114.764V115.34C174.564 116.044 174.308 116.652 173.796 117.164C173.092 117.74 172.228 118.22 171.204 118.604C170.244 118.988 169.284 119.18 168.324 119.18C167.556 119.18 166.916 118.988 166.404 118.604C165.892 118.22 165.636 117.772 165.636 117.26C165.892 113.484 166.116 109.836 166.308 106.316C166.5 102.732 166.628 98.06 166.692 92.3V80.972ZM224.1 53.42C224.612 53.42 225.124 52.972 225.636 52.076L226.692 50.252C226.884 49.932 227.14 49.484 227.46 48.908C227.844 48.268 228.164 47.82 228.42 47.564C228.676 47.244 228.932 47.084 229.188 47.084C229.636 47.084 230.692 47.884 232.356 49.484C234.02 51.02 235.236 52.364 236.004 53.516C236.26 54.028 236.388 54.412 236.388 54.668C236.388 55.052 236.196 55.404 235.812 55.724C235.364 56.044 234.788 56.204 234.084 56.204H225.252C224.612 56.204 224.1 56.396 223.716 56.78C223.396 57.1 223.236 57.58 223.236 58.22V108.428C223.236 110.54 222.98 112.268 222.468 113.612C222.02 114.956 221.06 116.076 219.588 116.972C218.116 117.868 215.972 118.54 213.156 118.988H212.676C211.716 118.988 211.076 118.444 210.756 117.356C210.372 115.756 209.636 114.508 208.548 113.612C206.884 112.396 204.292 111.468 200.772 110.828C199.492 110.636 198.852 110.284 198.852 109.772C198.852 109.452 199.332 109.292 200.292 109.292C201.892 109.292 204.612 109.42 208.452 109.676C210.564 109.868 212.132 109.964 213.156 109.964C214.116 109.964 214.788 109.804 215.172 109.484C215.556 109.1 215.748 108.524 215.748 107.756V58.22C215.748 57.58 215.556 57.1 215.172 56.78C214.852 56.396 214.372 56.204 213.732 56.204H207.684C203.78 56.268 199.556 56.62 195.012 57.26H194.436C193.54 57.26 192.9 56.844 192.516 56.012L192.132 55.244C191.94 54.86 191.844 54.508 191.844 54.188C191.844 53.74 192.004 53.42 192.324 53.228C192.644 52.972 193.092 52.876 193.668 52.94C195.972 53.132 199.3 53.292 203.652 53.42H213.732C214.372 53.42 214.852 53.26 215.172 52.94C215.556 52.556 215.748 52.044 215.748 51.404V50.252C215.748 43.852 215.46 38.124 214.884 33.068V32.684C214.884 31.66 215.332 31.148 216.228 31.148C216.356 31.148 216.676 31.212 217.188 31.34C220.26 32.236 222.404 32.972 223.62 33.548C224.9 34.06 225.54 34.508 225.54 34.892C225.54 35.148 225.284 35.436 224.772 35.756L224.484 35.948C223.652 36.524 223.236 37.324 223.236 38.348V51.404C223.236 52.748 223.524 53.42 224.1 53.42ZM192.996 68.3C192.228 67.148 192.004 66.444 192.324 66.188C192.388 66.124 192.516 66.092 192.708 66.092C193.028 66.092 193.572 66.284 194.34 66.668C199.076 69.292 202.564 72.172 204.804 75.308C207.044 78.38 208.164 81.26 208.164 83.948C208.164 85.548 207.78 86.86 207.012 87.884C206.308 88.908 205.412 89.42 204.324 89.42C203.62 89.42 202.916 89.196 202.212 88.748C201.508 88.3 201.06 87.564 200.868 86.54C200.484 83.724 199.556 80.716 198.084 77.516C196.676 74.252 194.98 71.18 192.996 68.3ZM297.252 33.548C296.356 32.524 296.004 31.916 296.196 31.724C296.324 31.596 296.58 31.532 296.964 31.532C297.476 31.532 297.892 31.564 298.212 31.628C302.756 32.652 306.116 34.188 308.292 36.236C310.468 38.22 311.556 40.204 311.556 42.188C311.556 43.34 311.204 44.3 310.5 45.068C309.86 45.772 308.996 46.124 307.908 46.124C307.652 46.124 307.14 46.06 306.372 45.932C305.668 45.676 305.092 45.036 304.644 44.012C303.94 42.284 302.916 40.492 301.572 38.636C300.228 36.78 298.788 35.084 297.252 33.548ZM353.604 36.908C354.628 36.908 355.428 36.46 356.004 35.564L356.772 34.412C356.9 34.22 357.124 33.868 357.444 33.356C357.764 32.844 358.052 32.492 358.308 32.3C358.564 32.044 358.82 31.916 359.076 31.916C359.524 31.916 360.484 32.556 361.956 33.836C363.492 35.052 364.644 36.172 365.412 37.196C365.668 37.516 365.796 37.868 365.796 38.252C365.796 38.764 365.508 39.18 364.932 39.5L364.452 39.596C363.3 39.98 362.724 40.748 362.724 41.9V50.732C362.916 59.244 363.108 65.644 363.3 69.932V70.412C363.3 71.308 362.98 71.948 362.34 72.332C360.868 73.42 358.98 73.964 356.676 73.964C356.1 73.964 355.684 73.74 355.428 73.292C355.236 72.908 355.14 72.588 355.14 72.332C355.14 72.012 355.204 71.66 355.332 71.276C355.46 70.572 355.524 69.996 355.524 69.548C355.524 69.292 355.332 69.1 354.948 68.972C354.628 68.78 354.148 68.684 353.508 68.684H328.452C327.812 68.684 327.3 68.876 326.916 69.26C326.596 69.58 326.436 70.06 326.436 70.7V72.716C326.436 73.1 325.86 73.548 324.708 74.06C323.62 74.572 322.276 74.828 320.676 74.828C320.1 74.828 319.62 74.636 319.236 74.252C318.916 73.868 318.756 73.42 318.756 72.908C319.012 69.772 319.236 65.484 319.428 60.044V52.652C319.428 46.38 319.14 40.748 318.564 35.756V35.372C318.564 34.348 318.98 33.836 319.812 33.836C320.196 33.836 320.516 33.9 320.772 34.028L326.436 36.428C327.14 36.748 327.94 36.908 328.836 36.908H353.604ZM353.508 51.212C354.148 51.212 354.628 51.052 354.948 50.732C355.332 50.348 355.524 49.836 355.524 49.196V41.708C355.524 41.068 355.332 40.588 354.948 40.268C354.628 39.884 354.148 39.692 353.508 39.692H328.452C327.812 39.692 327.3 39.884 326.916 40.268C326.596 40.588 326.436 41.068 326.436 41.708V49.196C326.436 49.836 326.596 50.348 326.916 50.732C327.3 51.052 327.812 51.212 328.452 51.212H353.508ZM289.668 92.492C289.668 91.788 290.34 91.436 291.684 91.436H293.796C294.372 91.436 294.788 91.34 295.044 91.148C295.364 90.892 295.748 90.316 296.196 89.42C297.028 87.948 298.372 85.1 300.228 80.876C302.084 76.652 305.348 69.164 310.02 58.412C311.748 54.316 312.932 51.564 313.572 50.156C314.02 49.004 314.532 48.428 315.108 48.428C315.428 48.428 315.588 48.684 315.588 49.196C315.588 49.58 315.492 50.06 315.3 50.636L310.212 65.516C305.796 78.572 303.428 85.74 303.108 87.02C302.084 90.412 301.572 93.196 301.572 95.372C301.572 96.588 301.924 98.444 302.628 100.94C303.14 103.116 303.524 104.908 303.78 106.316C304.036 107.66 304.164 109.26 304.164 111.116C304.164 113.612 303.684 115.564 302.724 116.972C301.764 118.38 300.42 119.084 298.692 119.084C297.22 119.084 296.228 117.9 295.716 115.532C295.652 115.212 295.62 114.796 295.62 114.284C295.62 113.772 295.652 113.356 295.716 113.036C296.1 109.772 296.292 106.828 296.292 104.204C296.292 101.708 296.1 99.66 295.716 98.06C295.332 96.396 294.82 95.34 294.18 94.892C293.54 94.38 292.676 94.028 291.588 93.836C290.308 93.516 289.668 93.068 289.668 92.492ZM290.82 54.956C290.372 54.572 290.02 54.22 289.764 53.9C289.572 53.58 289.54 53.356 289.668 53.228C289.796 53.1 290.052 53.036 290.436 53.036C290.948 53.036 291.364 53.068 291.684 53.132C295.908 53.9 299.012 55.212 300.996 57.068C303.044 58.86 304.068 60.716 304.068 62.636C304.068 63.788 303.748 64.748 303.108 65.516C302.468 66.284 301.636 66.668 300.612 66.668C300.164 66.668 299.652 66.572 299.076 66.38C298.308 66.06 297.764 65.42 297.444 64.46C296.868 62.86 295.972 61.228 294.756 59.564C293.54 57.836 292.228 56.3 290.82 54.956ZM328.452 53.996C327.812 53.996 327.3 54.188 326.916 54.572C326.596 54.892 326.436 55.372 326.436 56.012V63.98C326.436 64.62 326.596 65.132 326.916 65.516C327.3 65.836 327.812 65.996 328.452 65.996H353.508C354.148 65.996 354.628 65.836 354.948 65.516C355.332 65.132 355.524 64.62 355.524 63.98V56.012C355.524 55.372 355.332 54.892 354.948 54.572C354.628 54.188 354.148 53.996 353.508 53.996H328.452ZM356.196 80.972C357.284 80.972 358.084 80.524 358.596 79.628L359.364 78.38C359.556 78.06 359.78 77.676 360.036 77.228C360.356 76.716 360.612 76.364 360.804 76.172C361.06 75.916 361.316 75.788 361.572 75.788C362.084 75.788 363.236 76.492 365.028 77.9C366.884 79.244 368.292 80.46 369.252 81.548C369.572 81.868 369.732 82.22 369.732 82.604C369.732 83.052 369.444 83.436 368.868 83.756C368.548 83.948 368.132 84.108 367.62 84.236C366.404 84.62 365.796 85.356 365.796 86.444V110.924C365.796 112.268 365.892 112.94 366.084 112.94H366.372L368.004 109.964C368.196 109.644 368.452 109.196 368.772 108.62C369.156 108.044 369.444 107.628 369.636 107.372C369.892 107.052 370.148 106.892 370.404 106.892C370.852 106.892 371.748 107.628 373.092 109.1C374.436 110.572 375.428 111.884 376.068 113.036C376.324 113.548 376.452 113.932 376.452 114.188C376.452 114.636 376.26 114.988 375.876 115.244C375.428 115.564 374.852 115.724 374.148 115.724H322.116C318.212 115.788 313.988 116.14 309.444 116.78H308.868C307.972 116.78 307.332 116.364 306.948 115.532L306.564 114.86C306.372 114.476 306.276 114.124 306.276 113.804C306.276 113.42 306.436 113.1 306.756 112.844C307.14 112.652 307.62 112.588 308.196 112.652C309.028 112.78 309.764 112.844 310.404 112.844C311.044 112.908 311.556 112.94 311.94 112.94H313.092C313.732 112.94 314.212 112.748 314.532 112.364C314.916 112.044 315.108 111.564 315.108 110.924V96.812C315.108 90.54 314.82 84.908 314.244 79.916V79.532C314.244 78.508 314.66 77.996 315.492 77.996C315.876 77.996 316.196 78.06 316.452 78.188L321.732 80.492C322.436 80.812 323.236 80.972 324.132 80.972H356.196ZM330.18 85.772C330.18 85.132 329.988 84.652 329.604 84.332C329.284 83.948 328.804 83.756 328.164 83.756H323.844C323.204 83.756 322.692 83.948 322.308 84.332C321.988 84.652 321.828 85.132 321.828 85.772V110.924C321.828 111.564 321.988 112.044 322.308 112.364C322.692 112.748 323.204 112.94 323.844 112.94H328.164C328.804 112.94 329.284 112.748 329.604 112.364C329.988 112.044 330.18 111.564 330.18 110.924V85.772ZM336.228 110.924C336.228 111.564 336.388 112.044 336.708 112.364C337.092 112.748 337.604 112.94 338.244 112.94H342.372C343.012 112.94 343.492 112.748 343.812 112.364C344.196 112.044 344.388 111.564 344.388 110.924V85.772C344.388 85.132 344.196 84.652 343.812 84.332C343.492 83.948 343.012 83.756 342.372 83.756H338.244C337.604 83.756 337.092 83.948 336.708 84.332C336.388 84.652 336.228 85.132 336.228 85.772V110.924ZM356.772 112.94C357.412 112.94 357.892 112.748 358.212 112.364C358.596 112.044 358.788 111.564 358.788 110.924V85.772C358.788 85.132 358.596 84.652 358.212 84.332C357.892 83.948 357.412 83.756 356.772 83.756H352.356C351.716 83.756 351.204 83.948 350.82 84.332C350.5 84.652 350.34 85.132 350.34 85.772V110.924C350.34 111.564 350.5 112.044 350.82 112.364C351.204 112.748 351.716 112.94 352.356 112.94H356.772ZM489.732 42.092C490.756 42.092 491.556 41.676 492.132 40.844L492.996 39.596C493.188 39.404 493.444 39.052 493.764 38.54C494.148 38.028 494.468 37.676 494.724 37.484C494.98 37.228 495.236 37.1 495.492 37.1C495.94 37.1 497.028 37.804 498.756 39.212C500.484 40.62 501.828 41.9 502.788 43.052C503.044 43.372 503.172 43.724 503.172 44.108C503.172 44.556 502.916 44.972 502.404 45.356L501.444 45.836C500.868 46.092 500.42 46.38 500.1 46.7C499.844 47.02 499.716 47.468 499.716 48.044V55.724C499.908 63.34 500.1 68.908 500.292 72.428V72.908C500.292 73.804 499.972 74.444 499.332 74.828C498.564 75.404 497.604 75.884 496.452 76.268C495.364 76.652 494.34 76.844 493.38 76.844C493.06 76.844 492.772 76.684 492.516 76.364C492.324 76.044 492.228 75.564 492.228 74.924C492.228 73.644 491.556 73.004 490.212 73.004H476.772C476.132 73.004 475.62 73.068 475.236 73.196C474.916 73.324 474.756 73.484 474.756 73.676C474.756 74.188 474.884 74.828 475.14 75.596C477.316 81.356 480.708 86.668 485.316 91.532C485.764 91.98 486.244 92.204 486.756 92.204C487.204 92.204 487.652 92.012 488.1 91.628L490.692 89.324C492.804 87.34 494.852 85.164 496.836 82.796C498.884 80.428 500.516 78.188 501.732 76.076C502.116 75.308 502.628 74.924 503.268 74.924C503.652 74.924 504.1 75.116 504.612 75.5C509.156 78.7 511.428 80.684 511.428 81.452C511.428 81.644 511.14 81.804 510.564 81.932H510.18C509.22 82.06 508.42 82.38 507.78 82.892C503.236 86.284 497.572 89.74 490.788 93.26C490.02 93.644 489.636 94.124 489.636 94.7C489.636 95.084 489.924 95.532 490.5 96.044C496.196 100.524 503.46 104.204 512.292 107.084C513.572 107.468 514.148 107.82 514.02 108.14C513.956 108.396 513.732 108.62 513.348 108.812C512.964 109.004 512.644 109.164 512.388 109.292C510.852 110.188 509.636 111.66 508.74 113.708C508.356 114.604 507.812 115.052 507.108 115.052C506.788 115.052 506.436 114.956 506.052 114.764C499.332 111.308 493.54 107.116 488.676 102.188C483.876 97.26 479.94 91.052 476.868 83.564C476.484 82.668 476.068 82.22 475.62 82.22C475.364 82.22 475.14 82.38 474.948 82.7C474.82 82.956 474.756 83.34 474.756 83.852V108.908C474.756 111.852 474.148 114.092 472.932 115.628C471.716 117.228 469.252 118.284 465.54 118.796L464.964 118.892C464.132 118.892 463.556 118.316 463.236 117.164C462.788 115.628 462.18 114.54 461.412 113.9C460.132 112.876 457.924 112.076 454.788 111.5C453.508 111.308 452.868 110.956 452.868 110.444C452.868 110.06 453.572 109.868 454.98 109.868C461.124 110.252 464.548 110.444 465.252 110.444C466.084 110.444 466.628 110.316 466.884 110.06C467.204 109.804 467.364 109.324 467.364 108.62V75.02C467.364 74.38 467.172 73.9 466.788 73.58C466.468 73.196 465.988 73.004 465.348 73.004H452.1C451.46 73.004 450.948 73.196 450.564 73.58C450.244 73.9 450.084 74.38 450.084 75.02V75.116C450.084 75.5 449.412 76.012 448.068 76.652C446.724 77.228 445.348 77.516 443.94 77.516C443.364 77.516 442.916 77.324 442.596 76.94C442.276 76.556 442.116 76.108 442.116 75.596C442.372 72.716 442.564 69.004 442.692 64.46V57.836C442.692 51.564 442.404 45.932 441.828 40.94V40.556C441.828 39.596 442.244 39.116 443.076 39.116C443.46 39.116 443.78 39.18 444.036 39.308L449.508 41.612C450.212 41.932 451.012 42.092 451.908 42.092H462.948C464.164 42.092 464.9 41.484 465.156 40.268C465.86 36.236 466.276 33.452 466.404 31.916C466.404 31.276 466.596 30.796 466.98 30.476C467.364 30.156 467.908 30.06 468.612 30.188L476.676 32.012C477.188 32.14 477.572 32.364 477.828 32.684C478.148 32.94 478.308 33.196 478.308 33.452C478.308 33.836 478.116 34.156 477.732 34.412L476.964 34.7C476.516 34.828 476.068 34.988 475.62 35.18C475.236 35.372 474.884 35.628 474.564 35.948C474.564 35.948 473.348 37.164 470.916 39.596C470.468 40.044 470.244 40.492 470.244 40.94C470.244 41.26 470.404 41.548 470.724 41.804C471.044 41.996 471.46 42.092 471.972 42.092H489.732ZM490.212 56.108C490.852 56.108 491.332 55.948 491.652 55.628C492.036 55.244 492.228 54.732 492.228 54.092V46.988C492.228 46.348 492.036 45.868 491.652 45.548C491.332 45.164 490.852 44.972 490.212 44.972H452.1C451.46 44.972 450.948 45.164 450.564 45.548C450.244 45.868 450.084 46.348 450.084 46.988V54.092C450.084 54.732 450.244 55.244 450.564 55.628C450.948 55.948 451.46 56.108 452.1 56.108H490.212ZM492.228 60.908C492.228 60.268 492.036 59.788 491.652 59.468C491.332 59.084 490.852 58.892 490.212 58.892H452.1C451.46 58.892 450.948 59.084 450.564 59.468C450.244 59.788 450.084 60.268 450.084 60.908V68.204C450.084 68.844 450.244 69.356 450.564 69.74C450.948 70.06 451.46 70.22 452.1 70.22H490.212C490.852 70.22 491.332 70.06 491.652 69.74C492.036 69.356 492.228 68.844 492.228 68.204V60.908ZM451.812 88.076C451.812 87.628 451.652 87.276 451.332 87.02C451.012 86.764 450.596 86.636 450.084 86.636H445.188C441.476 86.7 437.572 87.052 433.476 87.692H432.9C432.004 87.692 431.364 87.276 430.98 86.444L430.596 85.676C430.404 85.292 430.308 84.908 430.308 84.524C430.308 84.14 430.468 83.852 430.788 83.66C431.108 83.404 431.556 83.308 432.132 83.372C434.308 83.564 437.604 83.724 442.02 83.852H451.044C452.068 83.852 452.9 83.5 453.54 82.796L454.5 81.74C454.82 81.484 455.268 81.068 455.844 80.492C456.42 79.852 456.9 79.532 457.284 79.532C457.732 79.532 458.692 80.172 460.164 81.452C461.636 82.668 462.788 83.788 463.62 84.812C463.876 85.132 464.004 85.484 464.004 85.868C464.004 86.444 463.684 86.828 463.044 87.02L462.276 87.212C461.188 87.276 460.42 87.788 459.972 88.748C457.22 94.636 453.412 99.884 448.548 104.492C443.684 109.036 437.796 112.684 430.884 115.436C429.668 115.948 428.964 115.98 428.772 115.532V115.34C428.772 114.892 429.284 114.348 430.308 113.708C435.172 110.764 439.396 107.148 442.98 102.86C446.628 98.572 449.508 93.932 451.62 88.94L451.812 88.076Z" fill="white"/>
<path d="M69.2041 138.316L72.3401 144.156L71.6521 144.716L67.8281 138.316H69.2041ZM72.5641 144.348V149.5H71.5241V144.348H72.5641ZM75.4121 138.316H76.3881L72.4521 144.684L71.8761 144.508L75.4121 138.316ZM74.7561 139.452C74.8521 139.303 74.8787 139.153 74.8361 139.004C74.7934 138.844 74.7134 138.716 74.5961 138.62C74.4787 138.513 74.3454 138.46 74.1961 138.46C74.1961 138.46 74.1641 138.46 74.1001 138.46C74.0361 138.46 74.0041 138.46 74.0041 138.46V138.3H77.5561V138.46H77.3321C77.0014 138.46 76.6921 138.556 76.4041 138.748C76.1161 138.94 75.8867 139.159 75.7161 139.404L74.7561 139.452ZM69.8121 139.452L68.4681 139.404C68.3187 139.159 68.1001 138.94 67.8121 138.748C67.5241 138.556 67.2094 138.46 66.8681 138.46H66.6441V138.3H70.5801V138.46C70.5801 138.46 70.5427 138.46 70.4681 138.46C70.4041 138.46 70.3721 138.46 70.3721 138.46C70.1374 138.46 69.9561 138.572 69.8281 138.796C69.7107 139.009 69.7054 139.228 69.8121 139.452ZM71.5561 148.332V149.5H70.2921V149.34C70.2921 149.34 70.3241 149.34 70.3881 149.34C70.4521 149.34 70.4894 149.34 70.5001 149.34C70.7774 149.34 71.0121 149.244 71.2041 149.052C71.4067 148.849 71.5134 148.609 71.5241 148.332H71.5561ZM72.5161 148.332H72.5641C72.5641 148.609 72.6654 148.849 72.8681 149.052C73.0707 149.244 73.3107 149.34 73.5881 149.34C73.5881 149.34 73.6201 149.34 73.6841 149.34C73.7481 149.34 73.7801 149.34 73.7801 149.34V149.5H72.5161V148.332ZM93.9742 139.9V145.948C93.9742 146.983 94.2355 147.799 94.7582 148.396C95.2915 148.993 96.0169 149.292 96.9342 149.292C97.9475 149.292 98.7422 149.009 99.3182 148.444C99.9049 147.879 100.198 147.105 100.198 146.124V139.9H100.934V146.124C100.934 147.233 100.577 148.113 99.8622 148.764C99.1582 149.404 98.1875 149.724 96.9502 149.724C95.7235 149.724 94.7475 149.404 94.0222 148.764C93.3075 148.124 92.9502 147.249 92.9502 146.14V139.9H93.9742ZM92.9822 139.9V140.748H92.9502C92.9395 140.556 92.8595 140.396 92.7102 140.268C92.5715 140.129 92.3955 140.06 92.1822 140.06C92.1822 140.06 92.1395 140.06 92.0542 140.06C91.9795 140.06 91.9422 140.06 91.9422 140.06V139.9H92.9822ZM94.9822 139.9V140.06C94.9822 140.06 94.9395 140.06 94.8542 140.06C94.7795 140.06 94.7422 140.06 94.7422 140.06C94.5395 140.06 94.3582 140.129 94.1982 140.268C94.0489 140.396 93.9742 140.556 93.9742 140.748H93.9422V139.9H94.9822ZM100.23 139.9V140.748H100.198C100.198 140.556 100.124 140.396 99.9742 140.268C99.8249 140.129 99.6435 140.06 99.4302 140.06C99.4302 140.06 99.3875 140.06 99.3022 140.06C99.2275 140.06 99.1902 140.06 99.1902 140.06V139.9H100.23ZM101.942 139.9V140.06C101.942 140.06 101.9 140.06 101.814 140.06C101.74 140.06 101.702 140.06 101.702 140.06C101.5 140.06 101.324 140.129 101.174 140.268C101.025 140.396 100.945 140.556 100.934 140.748H100.902V139.9H101.942ZM127.515 139.676L127.659 140.716L123.915 148.092C123.915 148.092 123.873 148.183 123.787 148.364C123.713 148.545 123.633 148.764 123.547 149.02C123.462 149.265 123.398 149.5 123.355 149.724H123.195L122.971 148.716L127.515 139.676ZM118.139 148.428V149.5H116.475V149.34C116.475 149.34 116.513 149.34 116.587 149.34C116.673 149.34 116.715 149.34 116.715 149.34C116.993 149.34 117.233 149.26 117.435 149.1C117.649 148.94 117.771 148.716 117.803 148.428H118.139ZM118.619 148.668C118.609 148.828 118.646 148.983 118.731 149.132C118.817 149.271 118.977 149.345 119.211 149.356H119.435V149.5H118.523V148.668H118.619ZM119.051 139.676H119.211L119.531 140.62L118.539 149.5H117.659L119.051 139.676ZM119.211 139.676L123.563 148.044L123.195 149.724L118.907 141.436L119.211 139.676ZM127.659 139.676L129.099 149.5H127.883L126.843 141.452L127.515 139.676H127.659ZM128.619 148.428H128.939C128.982 148.716 129.11 148.94 129.323 149.1C129.537 149.26 129.777 149.34 130.043 149.34C130.043 149.34 130.081 149.34 130.155 149.34C130.241 149.34 130.283 149.34 130.283 149.34V149.5H128.619V148.428ZM127.771 148.668H127.883V149.5H126.955V149.356H127.195C127.441 149.345 127.601 149.265 127.675 149.116C127.761 148.967 127.793 148.817 127.771 148.668ZM146.908 139.9V145.948C146.908 146.983 147.169 147.799 147.692 148.396C148.225 148.993 148.951 149.292 149.868 149.292C150.881 149.292 151.676 149.009 152.252 148.444C152.839 147.879 153.132 147.105 153.132 146.124V139.9H153.868V146.124C153.868 147.233 153.511 148.113 152.796 148.764C152.092 149.404 151.121 149.724 149.884 149.724C148.657 149.724 147.681 149.404 146.956 148.764C146.241 148.124 145.884 147.249 145.884 146.14V139.9H146.908ZM145.916 139.9V140.748H145.884C145.873 140.556 145.793 140.396 145.644 140.268C145.505 140.129 145.329 140.06 145.116 140.06C145.116 140.06 145.073 140.06 144.988 140.06C144.913 140.06 144.876 140.06 144.876 140.06V139.9H145.916ZM147.916 139.9V140.06C147.916 140.06 147.873 140.06 147.788 140.06C147.713 140.06 147.676 140.06 147.676 140.06C147.473 140.06 147.292 140.129 147.132 140.268C146.983 140.396 146.908 140.556 146.908 140.748H146.876V139.9H147.916ZM153.164 139.9V140.748H153.132C153.132 140.556 153.057 140.396 152.908 140.268C152.759 140.129 152.577 140.06 152.364 140.06C152.364 140.06 152.321 140.06 152.236 140.06C152.161 140.06 152.124 140.06 152.124 140.06V139.9H153.164ZM154.876 139.9V140.06C154.876 140.06 154.833 140.06 154.748 140.06C154.673 140.06 154.636 140.06 154.636 140.06C154.433 140.06 154.257 140.129 154.108 140.268C153.959 140.396 153.879 140.556 153.868 140.748H153.836V139.9H154.876ZM172.191 139.9H174.255C174.756 139.9 175.204 139.959 175.599 140.076C176.004 140.193 176.346 140.364 176.623 140.588C176.911 140.812 177.13 141.084 177.279 141.404C177.428 141.724 177.503 142.087 177.503 142.492C177.503 142.94 177.396 143.356 177.183 143.74C176.97 144.124 176.671 144.439 176.287 144.684C175.914 144.929 175.487 145.079 175.007 145.132C175.188 145.207 175.396 145.372 175.631 145.628C175.876 145.884 176.084 146.135 176.255 146.38C176.255 146.38 176.324 146.476 176.463 146.668C176.602 146.849 176.778 147.079 176.991 147.356C177.215 147.623 177.434 147.879 177.647 148.124C177.871 148.369 178.074 148.583 178.255 148.764C178.447 148.945 178.65 149.089 178.863 149.196C179.087 149.292 179.343 149.34 179.631 149.34V149.5H179.135C178.548 149.5 178.063 149.425 177.679 149.276C177.306 149.127 177.002 148.945 176.767 148.732C176.532 148.508 176.33 148.295 176.159 148.092C176.116 148.039 176.015 147.905 175.855 147.692C175.706 147.468 175.54 147.228 175.359 146.972C175.178 146.716 175.012 146.487 174.863 146.284C174.714 146.071 174.623 145.943 174.591 145.9C174.378 145.623 174.132 145.377 173.855 145.164C173.578 144.94 173.284 144.828 172.975 144.828V144.668C172.975 144.668 173.06 144.673 173.231 144.684C173.402 144.684 173.62 144.679 173.887 144.668C174.186 144.657 174.484 144.636 174.783 144.604C175.082 144.561 175.359 144.444 175.615 144.252C175.882 144.06 176.09 143.74 176.239 143.292C176.282 143.175 176.314 143.036 176.335 142.876C176.356 142.716 176.362 142.551 176.351 142.38C176.34 142.081 176.282 141.815 176.175 141.58C176.079 141.345 175.935 141.143 175.743 140.972C175.562 140.801 175.343 140.668 175.087 140.572C174.831 140.476 174.543 140.423 174.223 140.412C173.722 140.391 173.284 140.385 172.911 140.396C172.538 140.407 172.351 140.407 172.351 140.396C172.351 140.385 172.335 140.343 172.303 140.268C172.282 140.183 172.255 140.103 172.223 140.028C172.202 139.943 172.191 139.9 172.191 139.9ZM172.383 139.9V149.5H171.359V139.9H172.383ZM171.407 148.476L171.599 149.5H170.239V149.34C170.239 149.34 170.276 149.34 170.351 149.34C170.426 149.34 170.463 149.34 170.463 149.34C170.719 149.34 170.932 149.255 171.103 149.084C171.274 148.913 171.364 148.711 171.375 148.476H171.407ZM171.407 140.908H171.375C171.364 140.663 171.274 140.46 171.103 140.3C170.932 140.14 170.719 140.06 170.463 140.06C170.463 140.06 170.426 140.06 170.351 140.06C170.276 140.06 170.239 140.06 170.239 140.06V139.9H171.599L171.407 140.908ZM172.335 148.476H172.383C172.394 148.711 172.484 148.913 172.655 149.084C172.826 149.255 173.039 149.34 173.295 149.34C173.295 149.34 173.327 149.34 173.391 149.34C173.466 149.34 173.503 149.34 173.503 149.34L173.519 149.5H172.143L172.335 148.476ZM198.686 139.676L203.086 149.404H201.822L198.414 141.1L198.686 139.676ZM195.598 148.332C195.481 148.652 195.497 148.903 195.646 149.084C195.796 149.255 195.966 149.34 196.158 149.34H196.286V149.5H193.23V149.34C193.23 149.34 193.252 149.34 193.294 149.34C193.337 149.34 193.358 149.34 193.358 149.34C193.582 149.34 193.812 149.265 194.046 149.116C194.281 148.956 194.484 148.695 194.654 148.332H195.598ZM198.686 139.676L198.798 140.78L195.134 149.452H194.126L197.918 141.324C197.918 141.324 197.945 141.26 197.998 141.132C198.062 141.004 198.132 140.849 198.206 140.668C198.292 140.476 198.366 140.289 198.43 140.108C198.494 139.927 198.532 139.783 198.542 139.676H198.686ZM200.574 145.772V146.252H196.334V145.772H200.574ZM201.39 148.332H202.606C202.766 148.695 202.964 148.956 203.198 149.116C203.433 149.265 203.657 149.34 203.87 149.34C203.87 149.34 203.892 149.34 203.934 149.34C203.977 149.34 203.998 149.34 203.998 149.34V149.5H200.718V149.34H200.846C201.028 149.34 201.193 149.255 201.342 149.084C201.492 148.903 201.508 148.652 201.39 148.332ZM246.576 138.3V149.5H245.536V138.3H246.576ZM238.992 138.3V149.5H237.952V138.3H238.992ZM245.68 143.724V144.204H238.832V143.724H245.68ZM238 148.332V149.5H236.72V149.34C236.72 149.34 236.752 149.34 236.816 149.34C236.89 149.34 236.928 149.34 236.928 149.34C237.205 149.34 237.44 149.244 237.632 149.052C237.834 148.849 237.941 148.609 237.952 148.332H238ZM238 139.468H237.952C237.941 139.191 237.834 138.956 237.632 138.764C237.44 138.561 237.205 138.46 236.928 138.46C236.928 138.46 236.89 138.46 236.816 138.46C236.752 138.46 236.72 138.46 236.72 138.46V138.3H238V139.468ZM238.944 148.332H238.992C239.002 148.609 239.104 148.849 239.296 149.052C239.498 149.244 239.738 149.34 240.016 149.34C240.016 149.34 240.048 149.34 240.112 149.34C240.176 149.34 240.213 149.34 240.224 149.34V149.5H238.944V148.332ZM238.944 139.468V138.3H240.224V138.46C240.213 138.46 240.176 138.46 240.112 138.46C240.048 138.46 240.016 138.46 240.016 138.46C239.738 138.46 239.498 138.561 239.296 138.764C239.104 138.956 239.002 139.191 238.992 139.468H238.944ZM245.584 148.332V149.5H244.304V149.34C244.314 149.34 244.352 149.34 244.416 149.34C244.48 149.34 244.512 149.34 244.512 149.34C244.789 149.34 245.029 149.244 245.232 149.052C245.434 148.849 245.536 148.609 245.536 148.332H245.584ZM245.584 139.468H245.536C245.536 139.191 245.434 138.956 245.232 138.764C245.029 138.561 244.789 138.46 244.512 138.46C244.512 138.46 244.48 138.46 244.416 138.46C244.352 138.46 244.314 138.46 244.304 138.46V138.3H245.584V139.468ZM246.528 148.332H246.576C246.586 148.609 246.688 148.849 246.88 149.052C247.082 149.244 247.322 149.34 247.6 149.34C247.6 149.34 247.632 149.34 247.696 149.34C247.77 149.34 247.808 149.34 247.808 149.34V149.5H246.528V148.332ZM246.528 139.468V138.3H247.808V138.46C247.808 138.46 247.77 138.46 247.696 138.46C247.632 138.46 247.6 138.46 247.6 138.46C247.322 138.46 247.082 138.561 246.88 138.764C246.688 138.956 246.586 139.191 246.576 139.468H246.528ZM268.575 139.676C269.321 139.676 270.02 139.799 270.671 140.044C271.332 140.279 271.908 140.62 272.399 141.068C272.9 141.516 273.289 142.049 273.567 142.668C273.844 143.276 273.983 143.953 273.983 144.7C273.983 145.447 273.844 146.129 273.567 146.748C273.289 147.356 272.9 147.884 272.399 148.332C271.908 148.78 271.332 149.127 270.671 149.372C270.02 149.607 269.321 149.724 268.575 149.724C267.828 149.724 267.129 149.607 266.479 149.372C265.828 149.127 265.252 148.78 264.751 148.332C264.26 147.884 263.876 147.356 263.599 146.748C263.321 146.129 263.183 145.447 263.183 144.7C263.183 143.953 263.321 143.276 263.599 142.668C263.876 142.049 264.26 141.516 264.751 141.068C265.252 140.62 265.828 140.279 266.479 140.044C267.129 139.799 267.828 139.676 268.575 139.676ZM268.575 149.244C269.364 149.244 270.079 149.052 270.719 148.668C271.359 148.284 271.865 147.751 272.239 147.068C272.612 146.385 272.799 145.596 272.799 144.7C272.799 143.793 272.612 143.004 272.239 142.332C271.865 141.649 271.359 141.116 270.719 140.732C270.079 140.348 269.364 140.156 268.575 140.156C267.796 140.156 267.087 140.348 266.447 140.732C265.807 141.116 265.3 141.649 264.927 142.332C264.553 143.004 264.367 143.793 264.367 144.7C264.367 145.596 264.553 146.385 264.927 147.068C265.3 147.751 265.807 148.284 266.447 148.668C267.087 149.052 267.796 149.244 268.575 149.244ZM293.361 139.948V149.5H292.321V139.948H293.361ZM297.233 139.884V140.364H288.449V139.884H297.233ZM297.233 140.332V141.436H297.057V141.18C297.057 140.956 296.982 140.769 296.833 140.62C296.694 140.46 296.502 140.375 296.257 140.364V140.332H297.233ZM297.233 139.628V140.044L295.441 139.884C295.654 139.884 295.878 139.873 296.113 139.852C296.358 139.82 296.582 139.783 296.785 139.74C296.988 139.697 297.137 139.66 297.233 139.628ZM292.353 148.476V149.5H291.185V149.34C291.196 149.34 291.228 149.34 291.281 149.34C291.345 149.34 291.377 149.34 291.377 149.34C291.633 149.34 291.852 149.255 292.033 149.084C292.214 148.913 292.31 148.711 292.321 148.476H292.353ZM293.313 148.476H293.361C293.372 148.711 293.468 148.913 293.649 149.084C293.83 149.255 294.049 149.34 294.305 149.34C294.305 149.34 294.332 149.34 294.385 149.34C294.449 149.34 294.481 149.34 294.481 149.34V149.5H293.313V148.476ZM289.425 140.332V140.364C289.18 140.375 288.982 140.46 288.833 140.62C288.694 140.769 288.625 140.956 288.625 141.18V141.436H288.449V140.332H289.425ZM288.449 139.628C288.545 139.66 288.689 139.697 288.881 139.74C289.084 139.783 289.308 139.82 289.553 139.852C289.798 139.873 290.028 139.884 290.241 139.884L288.449 140.044V139.628ZM315.123 139.676C315.422 139.676 315.683 139.687 315.907 139.708C316.131 139.729 316.323 139.756 316.483 139.788C316.654 139.809 316.798 139.841 316.915 139.884C317.043 139.916 317.155 139.948 317.251 139.98L317.267 141.564H317.075C317.075 141.127 316.926 140.785 316.627 140.54C316.328 140.284 315.864 140.156 315.235 140.156C314.702 140.156 314.243 140.305 313.859 140.604C313.486 140.892 313.304 141.249 313.315 141.676C313.315 141.815 313.331 141.959 313.363 142.108C313.406 142.247 313.47 142.385 313.555 142.524C313.651 142.663 313.779 142.801 313.939 142.94L317.171 145.436C317.416 145.639 317.598 145.9 317.715 146.22C317.832 146.529 317.896 146.839 317.907 147.148C317.918 147.617 317.795 148.049 317.539 148.444C317.283 148.839 316.936 149.153 316.499 149.388C316.072 149.612 315.598 149.724 315.075 149.724C314.766 149.724 314.43 149.697 314.067 149.644C313.715 149.591 313.384 149.511 313.075 149.404C312.766 149.287 312.51 149.143 312.307 148.972C312.275 148.823 312.259 148.636 312.259 148.412C312.259 148.177 312.275 147.932 312.307 147.676C312.35 147.42 312.403 147.191 312.467 146.988H312.659C312.616 147.468 312.686 147.879 312.867 148.22C313.048 148.561 313.315 148.823 313.667 149.004C314.019 149.175 314.43 149.255 314.899 149.244C315.56 149.223 316.078 149.057 316.451 148.748C316.835 148.428 317.027 148.007 317.027 147.484C317.027 147.228 316.979 146.999 316.883 146.796C316.798 146.583 316.654 146.385 316.451 146.204L313.251 143.74C312.952 143.484 312.75 143.201 312.643 142.892C312.536 142.583 312.483 142.289 312.483 142.012C312.483 141.575 312.6 141.18 312.835 140.828C313.07 140.476 313.384 140.199 313.779 139.996C314.184 139.783 314.632 139.676 315.123 139.676ZM317.235 139.82L317.251 140.108H316.115V139.82H317.235ZM335.538 139.9H337.314C338.06 139.9 338.706 140.012 339.25 140.236C339.794 140.449 340.215 140.764 340.514 141.18C340.812 141.585 340.962 142.071 340.962 142.636C340.962 143.244 340.823 143.767 340.546 144.204C340.279 144.631 339.922 144.961 339.474 145.196C339.026 145.42 338.53 145.532 337.986 145.532C337.442 145.521 336.898 145.383 336.354 145.116V144.956C336.354 144.956 336.439 144.972 336.61 145.004C336.791 145.036 337.02 145.052 337.298 145.052C337.575 145.041 337.868 144.993 338.178 144.908C338.487 144.812 338.775 144.641 339.042 144.396C339.319 144.151 339.538 143.799 339.698 143.34C339.74 143.223 339.767 143.084 339.778 142.924C339.799 142.764 339.81 142.615 339.81 142.476C339.81 141.825 339.586 141.313 339.138 140.94C338.69 140.567 338.071 140.38 337.282 140.38H335.714C335.714 140.38 335.698 140.343 335.666 140.268C335.644 140.183 335.618 140.103 335.586 140.028C335.554 139.943 335.538 139.9 335.538 139.9ZM335.746 139.9V149.5H334.722V139.9H335.746ZM334.754 148.476L334.962 149.5H333.57V149.34C333.57 149.34 333.607 149.34 333.682 149.34C333.756 149.34 333.794 149.34 333.794 149.34C334.05 149.34 334.263 149.255 334.434 149.084C334.615 148.913 334.711 148.711 334.722 148.476H334.754ZM334.754 140.908H334.722C334.711 140.663 334.615 140.46 334.434 140.3C334.263 140.14 334.05 140.06 333.794 140.06C333.794 140.06 333.756 140.06 333.682 140.06C333.607 140.06 333.57 140.06 333.57 140.06V139.9H334.962L334.754 140.908ZM335.698 148.476H335.73C335.74 148.711 335.831 148.913 336.002 149.084C336.183 149.255 336.402 149.34 336.658 149.34C336.668 149.34 336.706 149.34 336.77 149.34C336.844 149.34 336.882 149.34 336.882 149.34V149.5H335.49L335.698 148.476ZM358.285 139.9H360.349C360.851 139.9 361.299 139.959 361.693 140.076C362.099 140.193 362.44 140.364 362.717 140.588C363.005 140.812 363.224 141.084 363.373 141.404C363.523 141.724 363.597 142.087 363.597 142.492C363.597 142.94 363.491 143.356 363.277 143.74C363.064 144.124 362.765 144.439 362.381 144.684C362.008 144.929 361.581 145.079 361.101 145.132C361.283 145.207 361.491 145.372 361.725 145.628C361.971 145.884 362.179 146.135 362.349 146.38C362.349 146.38 362.419 146.476 362.557 146.668C362.696 146.849 362.872 147.079 363.085 147.356C363.309 147.623 363.528 147.879 363.741 148.124C363.965 148.369 364.168 148.583 364.349 148.764C364.541 148.945 364.744 149.089 364.957 149.196C365.181 149.292 365.437 149.34 365.725 149.34V149.5H365.229C364.643 149.5 364.157 149.425 363.773 149.276C363.4 149.127 363.096 148.945 362.861 148.732C362.627 148.508 362.424 148.295 362.253 148.092C362.211 148.039 362.109 147.905 361.949 147.692C361.8 147.468 361.635 147.228 361.453 146.972C361.272 146.716 361.107 146.487 360.957 146.284C360.808 146.071 360.717 145.943 360.685 145.9C360.472 145.623 360.227 145.377 359.949 145.164C359.672 144.94 359.379 144.828 359.069 144.828V144.668C359.069 144.668 359.155 144.673 359.325 144.684C359.496 144.684 359.715 144.679 359.981 144.668C360.28 144.657 360.579 144.636 360.877 144.604C361.176 144.561 361.453 144.444 361.709 144.252C361.976 144.06 362.184 143.74 362.333 143.292C362.376 143.175 362.408 143.036 362.429 142.876C362.451 142.716 362.456 142.551 362.445 142.38C362.435 142.081 362.376 141.815 362.269 141.58C362.173 141.345 362.029 141.143 361.837 140.972C361.656 140.801 361.437 140.668 361.181 140.572C360.925 140.476 360.637 140.423 360.317 140.412C359.816 140.391 359.379 140.385 359.005 140.396C358.632 140.407 358.445 140.407 358.445 140.396C358.445 140.385 358.429 140.343 358.397 140.268C358.376 140.183 358.349 140.103 358.317 140.028C358.296 139.943 358.285 139.9 358.285 139.9ZM358.477 139.9V149.5H357.453V139.9H358.477ZM357.501 148.476L357.693 149.5H356.333V149.34C356.333 149.34 356.371 149.34 356.445 149.34C356.52 149.34 356.557 149.34 356.557 149.34C356.813 149.34 357.027 149.255 357.197 149.084C357.368 148.913 357.459 148.711 357.469 148.476H357.501ZM357.501 140.908H357.469C357.459 140.663 357.368 140.46 357.197 140.3C357.027 140.14 356.813 140.06 356.557 140.06C356.557 140.06 356.52 140.06 356.445 140.06C356.371 140.06 356.333 140.06 356.333 140.06V139.9H357.693L357.501 140.908ZM358.429 148.476H358.477C358.488 148.711 358.579 148.913 358.749 149.084C358.92 149.255 359.133 149.34 359.389 149.34C359.389 149.34 359.421 149.34 359.485 149.34C359.56 149.34 359.597 149.34 359.597 149.34L359.613 149.5H358.237L358.429 148.476ZM382.605 139.9V149.5H381.597V139.9H382.605ZM381.645 148.476V149.5H380.285V149.34C380.285 149.34 380.322 149.34 380.397 149.34C380.471 149.34 380.509 149.34 380.509 149.34C380.807 149.34 381.058 149.255 381.261 149.084C381.474 148.913 381.586 148.711 381.597 148.476H381.645ZM382.557 148.476H382.605C382.615 148.711 382.722 148.913 382.925 149.084C383.138 149.255 383.394 149.34 383.693 149.34C383.693 149.34 383.725 149.34 383.789 149.34C383.863 149.34 383.901 149.34 383.901 149.34L383.917 149.5H382.557V148.476ZM382.557 140.924V139.9H383.917L383.901 140.06C383.901 140.06 383.863 140.06 383.789 140.06C383.725 140.06 383.693 140.06 383.693 140.06C383.394 140.06 383.138 140.145 382.925 140.316C382.722 140.476 382.615 140.679 382.605 140.924H382.557ZM381.645 140.924H381.597C381.586 140.679 381.474 140.476 381.261 140.316C381.058 140.145 380.807 140.06 380.509 140.06C380.498 140.06 380.455 140.06 380.381 140.06C380.317 140.06 380.285 140.06 380.285 140.06V139.9H381.645V140.924ZM400.428 139.66L409.292 148.012L409.452 149.724L400.588 141.324L400.428 139.66ZM400.46 148.508V149.5H399.26V149.34C399.26 149.34 399.302 149.34 399.388 149.34C399.484 149.34 399.532 149.34 399.532 149.34C399.777 149.34 399.985 149.26 400.156 149.1C400.326 148.94 400.412 148.743 400.412 148.508H400.46ZM401.132 148.508C401.132 148.743 401.217 148.94 401.388 149.1C401.569 149.26 401.777 149.34 402.012 149.34C402.012 149.34 402.054 149.34 402.14 149.34C402.236 149.34 402.284 149.34 402.284 149.34V149.5H401.084V148.508H401.132ZM400.428 139.66L401.116 140.556L401.132 149.5H400.412V141.66C400.412 141.116 400.385 140.647 400.332 140.252C400.289 139.857 400.268 139.66 400.268 139.66H400.428ZM409.452 139.9V147.676C409.452 148.017 409.462 148.348 409.484 148.668C409.505 148.977 409.526 149.233 409.548 149.436C409.58 149.628 409.596 149.724 409.596 149.724H409.452L408.748 148.876V139.9H409.452ZM409.404 140.892V139.9H410.604V140.06C410.604 140.06 410.556 140.06 410.46 140.06C410.374 140.06 410.332 140.06 410.332 140.06C410.097 140.06 409.889 140.14 409.708 140.3C409.537 140.46 409.452 140.657 409.452 140.892H409.404ZM408.748 140.892C408.737 140.657 408.646 140.46 408.476 140.3C408.305 140.14 408.097 140.06 407.852 140.06C407.852 140.06 407.804 140.06 407.708 140.06C407.622 140.06 407.58 140.06 407.58 140.06V139.9H408.78V140.892H408.748ZM431.058 139.676C431.549 139.676 432.008 139.713 432.434 139.788C432.872 139.852 433.282 139.959 433.666 140.108C434.061 140.247 434.434 140.428 434.786 140.652L435.138 142.908H434.994C434.845 142.279 434.6 141.761 434.258 141.356C433.928 140.951 433.496 140.652 432.962 140.46C432.429 140.257 431.789 140.156 431.042 140.156C430.232 140.156 429.517 140.343 428.898 140.716C428.29 141.079 427.816 141.601 427.474 142.284C427.133 142.956 426.962 143.761 426.962 144.7C426.962 145.628 427.133 146.433 427.474 147.116C427.816 147.799 428.296 148.327 428.914 148.7C429.533 149.063 430.248 149.244 431.058 149.244C431.506 149.244 431.933 149.196 432.338 149.1C432.744 149.004 433.133 148.855 433.506 148.652C433.89 148.439 434.248 148.172 434.578 147.852L434.594 145.724C434.605 145.521 434.541 145.367 434.402 145.26C434.274 145.153 434.093 145.1 433.858 145.1H433.634V144.94H436.562V145.1H436.338C435.858 145.1 435.618 145.313 435.618 145.74V147.66C435.373 147.969 435.037 148.284 434.61 148.604C434.184 148.924 433.672 149.191 433.074 149.404C432.488 149.617 431.816 149.724 431.058 149.724C430.002 149.713 429.08 149.505 428.29 149.1C427.512 148.695 426.904 148.119 426.466 147.372C426.029 146.625 425.81 145.735 425.81 144.7C425.81 143.655 426.029 142.759 426.466 142.012C426.904 141.265 427.517 140.689 428.306 140.284C429.096 139.879 430.013 139.676 431.058 139.676ZM454.549 139.676C454.848 139.676 455.109 139.687 455.333 139.708C455.557 139.729 455.749 139.756 455.909 139.788C456.08 139.809 456.224 139.841 456.341 139.884C456.469 139.916 456.581 139.948 456.677 139.98L456.693 141.564H456.501C456.501 141.127 456.352 140.785 456.053 140.54C455.755 140.284 455.291 140.156 454.661 140.156C454.128 140.156 453.669 140.305 453.285 140.604C452.912 140.892 452.731 141.249 452.741 141.676C452.741 141.815 452.757 141.959 452.789 142.108C452.832 142.247 452.896 142.385 452.981 142.524C453.077 142.663 453.205 142.801 453.365 142.94L456.597 145.436C456.843 145.639 457.024 145.9 457.141 146.22C457.259 146.529 457.323 146.839 457.333 147.148C457.344 147.617 457.221 148.049 456.965 148.444C456.709 148.839 456.363 149.153 455.925 149.388C455.499 149.612 455.024 149.724 454.501 149.724C454.192 149.724 453.856 149.697 453.493 149.644C453.141 149.591 452.811 149.511 452.501 149.404C452.192 149.287 451.936 149.143 451.733 148.972C451.701 148.823 451.685 148.636 451.685 148.412C451.685 148.177 451.701 147.932 451.733 147.676C451.776 147.42 451.829 147.191 451.893 146.988H452.085C452.043 147.468 452.112 147.879 452.293 148.22C452.475 148.561 452.741 148.823 453.093 149.004C453.445 149.175 453.856 149.255 454.325 149.244C454.987 149.223 455.504 149.057 455.877 148.748C456.261 148.428 456.453 148.007 456.453 147.484C456.453 147.228 456.405 146.999 456.309 146.796C456.224 146.583 456.08 146.385 455.877 146.204L452.677 143.74C452.379 143.484 452.176 143.201 452.069 142.892C451.963 142.583 451.909 142.289 451.909 142.012C451.909 141.575 452.027 141.18 452.261 140.828C452.496 140.476 452.811 140.199 453.205 139.996C453.611 139.783 454.059 139.676 454.549 139.676ZM456.661 139.82L456.677 140.108H455.541V139.82H456.661Z" fill="white"/>
</g>
<defs>
<filter id="filter0_d_93_4" x="-4.5" y="-9.5" width="534" height="175" filterUnits="userSpaceOnUse" color-interpolation-filters="sRGB">
<feFlood flood-opacity="0" result="BackgroundImageFix"/>
<feColorMatrix in="SourceAlpha" type="matrix" values="0 0 0 0 0 0 0 0 0 0 0 0 0 0 0 0 0 0 127 0" result="hardAlpha"/>
<feOffset/>
<feGaussianBlur stdDeviation="5"/>
<feComposite in2="hardAlpha" operator="out"/>
<feColorMatrix type="matrix" values="0 0 0 0 0 0 0 0 0 0 0 0 0 0 0 0 0 0 0.4 0"/>
<feBlend mode="normal" in2="BackgroundImageFix" result="effect1_dropShadow_93_4"/>
<feBlend mode="normal" in="SourceGraphic" in2="effect1_dropShadow_93_4" result="shape"/>
</filter>
</defs>
</svg>
