<svg width="585" height="150" viewBox="0 0 585 150" fill="none" xmlns="http://www.w3.org/2000/svg">
<g filter="url(#filter0_d_93_4)">
<path d="M27.7983 26.3V93.5C27.7983 96.188 27.3503 98.684 26.4543 100.988C25.5583 103.356 24.3103 105.404 22.7103 107.132C21.1103 108.86 19.2543 110.204 17.1423 111.164C15.0303 112.188 12.7583 112.7 10.3263 112.7V111.836C12.4383 111.068 14.3263 109.724 15.9903 107.804C17.7183 105.948 19.0623 103.74 20.0223 101.18C21.0463 98.62 21.5583 95.964 21.5583 93.212V26.3H27.7983ZM21.8463 33.308H21.5583C21.4943 31.644 20.8543 30.236 19.6383 29.084C18.4863 27.868 17.0783 27.26 15.4143 27.26C15.4143 27.26 15.1903 27.26 14.7422 27.26C14.3583 27.26 14.1663 27.26 14.1663 27.26V26.3H21.8463V33.308ZM27.5103 33.308V26.3H35.1903V27.26C35.1903 27.26 34.9663 27.26 34.5183 27.26C34.1343 27.26 33.9423 27.26 33.9423 27.26C32.2783 27.26 30.8383 27.868 29.6223 29.084C28.4703 30.236 27.8623 31.644 27.7983 33.308H27.5103ZM82.9233 26.3V93.5H76.6833V26.3H82.9233ZM76.9713 86.492V93.5H69.2913V92.54C69.2913 92.54 69.4833 92.54 69.8672 92.54C70.3153 92.54 70.5393 92.54 70.5393 92.54C72.2033 92.54 73.6113 91.964 74.7633 90.812C75.9793 89.596 76.6193 88.156 76.6833 86.492H76.9713ZM76.9713 33.308H76.6833C76.6193 31.644 75.9793 30.236 74.7633 29.084C73.6113 27.868 72.2033 27.26 70.5393 27.26C70.5393 27.26 70.3153 27.26 69.8672 27.26C69.4833 27.26 69.2913 27.26 69.2913 27.26V26.3H76.9713V33.308ZM82.6353 86.492H82.9233C82.9873 88.156 83.5953 89.596 84.7473 90.812C85.9633 91.964 87.4033 92.54 89.0673 92.54C89.0673 92.54 89.2593 92.54 89.6433 92.54C90.0273 92.54 90.2513 92.54 90.3153 92.54V93.5H82.6353V86.492ZM82.6353 33.308V26.3H90.3153V27.26C90.2513 27.26 90.0273 27.26 89.6433 27.26C89.2593 27.26 89.0673 27.26 89.0673 27.26C87.4033 27.26 85.9633 27.868 84.7473 29.084C83.5953 30.236 82.9873 31.644 82.9233 33.308H82.6353ZM132.065 24.86L187.841 84.38L188.705 94.844L132.929 35.42L132.065 24.86ZM132.257 86.684V93.5H124.289V92.54C124.289 92.54 124.577 92.54 125.153 92.54C125.729 92.54 126.049 92.54 126.113 92.54C127.713 92.54 129.089 91.964 130.241 90.812C131.393 89.66 131.969 88.284 131.969 86.684H132.257ZM136.385 86.684C136.385 88.284 136.961 89.66 138.113 90.812C139.265 91.964 140.641 92.54 142.241 92.54C142.305 92.54 142.625 92.54 143.201 92.54C143.777 92.54 144.065 92.54 144.065 92.54V93.5H136.097V86.684H136.385ZM132.065 24.86L136.289 30.236L136.385 93.5H131.969V36.86C131.969 33.596 131.809 30.78 131.489 28.412C131.233 26.044 131.105 24.86 131.105 24.86H132.065ZM188.705 26.3V82.556C188.705 84.604 188.769 86.588 188.897 88.508C189.025 90.364 189.153 91.9 189.281 93.116C189.473 94.268 189.569 94.844 189.569 94.844H188.705L184.385 89.756V26.3H188.705ZM196.385 26.3V27.26C196.385 27.26 196.097 27.26 195.521 27.26C194.945 27.26 194.657 27.26 194.657 27.26C193.057 27.26 191.681 27.836 190.529 28.988C189.377 30.076 188.769 31.452 188.705 33.116H188.417V26.3H196.385ZM176.609 26.3H184.577V33.116H184.385C184.321 31.452 183.713 30.076 182.561 28.988C181.473 27.836 180.097 27.26 178.433 27.26C178.433 27.26 178.145 27.26 177.569 27.26C176.993 27.26 176.673 27.26 176.609 27.26V26.3ZM243.142 26.3V93.5H236.902V26.3H243.142ZM269.062 90.524V93.5H242.854V90.524H269.062ZM264.934 58.94V61.82H242.854V58.94H264.934ZM269.062 26.3V29.276H242.854V26.3H269.062ZM274.918 77.948L269.35 93.5H253.414L256.87 90.524C260.262 90.524 263.014 90.012 265.126 88.988C267.302 87.9 269.062 86.396 270.406 84.476C271.75 82.556 272.934 80.38 273.958 77.948H274.918ZM264.934 61.628V67.964H263.974V66.524C263.974 65.244 263.526 64.156 262.63 63.26C261.734 62.3 260.646 61.82 259.366 61.82V61.628H264.934ZM264.934 52.796V59.132H259.366V58.94C260.646 58.876 261.734 58.396 262.63 57.5C263.526 56.54 263.974 55.42 263.974 54.14V52.796H264.934ZM269.062 28.988V36.668H268.102V34.94C268.102 33.404 267.558 32.092 266.47 31.004C265.382 29.852 264.038 29.244 262.438 29.18V28.988H269.062ZM269.062 24.572V27.356L257.35 26.3C258.758 26.3 260.23 26.204 261.766 26.012C263.366 25.82 264.838 25.596 266.182 25.34C267.526 25.084 268.486 24.828 269.062 24.572ZM237.19 86.492V93.5H229.51V92.54C229.51 92.54 229.702 92.54 230.086 92.54C230.534 92.54 230.758 92.54 230.758 92.54C232.422 92.54 233.83 91.964 234.982 90.812C236.198 89.596 236.838 88.156 236.902 86.492H237.19ZM237.19 33.308H236.902C236.902 31.644 236.294 30.236 235.078 29.084C233.862 27.868 232.422 27.26 230.758 27.26C230.758 27.26 230.566 27.26 230.182 27.26C229.798 27.26 229.606 27.26 229.606 27.26L229.51 26.3H237.19V33.308ZM314.315 24.86L370.091 84.38L370.955 94.844L315.179 35.42L314.315 24.86ZM314.507 86.684V93.5H306.539V92.54C306.539 92.54 306.827 92.54 307.403 92.54C307.979 92.54 308.299 92.54 308.363 92.54C309.963 92.54 311.339 91.964 312.491 90.812C313.643 89.66 314.219 88.284 314.219 86.684H314.507ZM318.635 86.684C318.635 88.284 319.211 89.66 320.363 90.812C321.515 91.964 322.891 92.54 324.491 92.54C324.555 92.54 324.875 92.54 325.451 92.54C326.027 92.54 326.315 92.54 326.315 92.54V93.5H318.347V86.684H318.635ZM314.315 24.86L318.539 30.236L318.635 93.5H314.219V36.86C314.219 33.596 314.059 30.78 313.739 28.412C313.483 26.044 313.355 24.86 313.355 24.86H314.315ZM370.955 26.3V82.556C370.955 84.604 371.019 86.588 371.147 88.508C371.275 90.364 371.403 91.9 371.531 93.116C371.723 94.268 371.819 94.844 371.819 94.844H370.955L366.635 89.756V26.3H370.955ZM378.635 26.3V27.26C378.635 27.26 378.347 27.26 377.771 27.26C377.195 27.26 376.907 27.26 376.907 27.26C375.307 27.26 373.931 27.836 372.779 28.988C371.627 30.076 371.019 31.452 370.955 33.116H370.667V26.3H378.635ZM358.859 26.3H366.827V33.116H366.635C366.571 31.452 365.963 30.076 364.811 28.988C363.723 27.836 362.347 27.26 360.683 27.26C360.683 27.26 360.395 27.26 359.819 27.26C359.243 27.26 358.923 27.26 358.859 27.26V26.3ZM439.995 24.956L468.411 92.924H460.251L438.075 34.076L439.995 24.956ZM419.355 86.492C418.907 87.772 418.843 88.86 419.163 89.756C419.483 90.652 419.995 91.356 420.699 91.868C421.467 92.316 422.235 92.54 423.003 92.54H423.867V93.5H404.571V92.54C404.571 92.54 404.731 92.54 405.051 92.54C405.307 92.54 405.435 92.54 405.435 92.54C406.907 92.54 408.411 92.092 409.947 91.196C411.547 90.236 412.859 88.668 413.883 86.492H419.355ZM439.995 24.956L440.859 31.676L416.763 93.212H411.003L435.579 34.844C435.579 34.844 435.739 34.46 436.059 33.692C436.443 32.86 436.859 31.868 437.307 30.716C437.819 29.564 438.235 28.444 438.555 27.356C438.939 26.268 439.131 25.468 439.131 24.956H439.995ZM453.531 67.292V70.172H423.483V67.292H453.531ZM457.851 86.492H465.723C466.683 88.668 467.963 90.236 469.563 91.196C471.163 92.092 472.699 92.54 474.171 92.54C474.171 92.54 474.299 92.54 474.555 92.54C474.811 92.54 474.939 92.54 474.939 92.54V93.5H453.339V92.54H454.203C455.419 92.54 456.507 92.028 457.467 91.004C458.427 89.916 458.555 88.412 457.851 86.492ZM509.971 24.86L565.747 84.38L566.611 94.844L510.835 35.42L509.971 24.86ZM510.163 86.684V93.5H502.195V92.54C502.195 92.54 502.483 92.54 503.059 92.54C503.635 92.54 503.955 92.54 504.019 92.54C505.619 92.54 506.995 91.964 508.147 90.812C509.299 89.66 509.875 88.284 509.875 86.684H510.163ZM514.291 86.684C514.291 88.284 514.867 89.66 516.019 90.812C517.171 91.964 518.547 92.54 520.147 92.54C520.211 92.54 520.531 92.54 521.107 92.54C521.683 92.54 521.971 92.54 521.971 92.54V93.5H514.003V86.684H514.291ZM509.971 24.86L514.195 30.236L514.291 93.5H509.875V36.86C509.875 33.596 509.715 30.78 509.395 28.412C509.139 26.044 509.011 24.86 509.011 24.86H509.971ZM566.611 26.3V82.556C566.611 84.604 566.675 86.588 566.803 88.508C566.931 90.364 567.059 91.9 567.187 93.116C567.379 94.268 567.475 94.844 567.475 94.844H566.611L562.291 89.756V26.3H566.611ZM574.291 26.3V27.26C574.291 27.26 574.003 27.26 573.427 27.26C572.851 27.26 572.563 27.26 572.563 27.26C570.963 27.26 569.587 27.836 568.435 28.988C567.283 30.076 566.675 31.452 566.611 33.116H566.323V26.3H574.291ZM554.515 26.3H562.483V33.116H562.291C562.227 31.452 561.619 30.076 560.467 28.988C559.379 27.836 558.003 27.26 556.339 27.26C556.339 27.26 556.051 27.26 555.475 27.26C554.899 27.26 554.579 27.26 554.515 27.26V26.3Z" fill="white"/>
<path d="M118.893 129.9H120.669C121.416 129.9 122.061 130.012 122.605 130.236C123.149 130.449 123.571 130.764 123.869 131.18C124.168 131.585 124.317 132.071 124.317 132.636C124.317 133.244 124.179 133.767 123.901 134.204C123.635 134.631 123.277 134.961 122.829 135.196C122.381 135.42 121.885 135.532 121.341 135.532C120.797 135.521 120.253 135.383 119.709 135.116V134.956C119.709 134.956 119.795 134.972 119.965 135.004C120.147 135.036 120.376 135.052 120.653 135.052C120.931 135.041 121.224 134.993 121.533 134.908C121.843 134.812 122.131 134.641 122.397 134.396C122.675 134.151 122.893 133.799 123.053 133.34C123.096 133.223 123.123 133.084 123.133 132.924C123.155 132.764 123.165 132.615 123.165 132.476C123.165 131.825 122.941 131.313 122.493 130.94C122.045 130.567 121.427 130.38 120.637 130.38H119.069C119.069 130.38 119.053 130.343 119.021 130.268C119 130.183 118.973 130.103 118.941 130.028C118.909 129.943 118.893 129.9 118.893 129.9ZM119.101 129.9V139.5H118.077V129.9H119.101ZM118.109 138.476L118.317 139.5H116.925V139.34C116.925 139.34 116.963 139.34 117.037 139.34C117.112 139.34 117.149 139.34 117.149 139.34C117.405 139.34 117.619 139.255 117.789 139.084C117.971 138.913 118.067 138.711 118.077 138.476H118.109ZM118.109 130.908H118.077C118.067 130.663 117.971 130.46 117.789 130.3C117.619 130.14 117.405 130.06 117.149 130.06C117.149 130.06 117.112 130.06 117.037 130.06C116.963 130.06 116.925 130.06 116.925 130.06V129.9H118.317L118.109 130.908ZM119.053 138.476H119.085C119.096 138.711 119.187 138.913 119.357 139.084C119.539 139.255 119.757 139.34 120.013 139.34C120.024 139.34 120.061 139.34 120.125 139.34C120.2 139.34 120.237 139.34 120.237 139.34V139.5H118.845L119.053 138.476ZM142.009 129.9V139.5H141.001V129.9H142.009ZM141.049 138.476V139.5H139.689V139.34C139.689 139.34 139.726 139.34 139.801 139.34C139.876 139.34 139.913 139.34 139.913 139.34C140.212 139.34 140.462 139.255 140.665 139.084C140.878 138.913 140.99 138.711 141.001 138.476H141.049ZM141.961 138.476H142.009C142.02 138.711 142.126 138.913 142.329 139.084C142.542 139.255 142.798 139.34 143.097 139.34C143.097 139.34 143.129 139.34 143.193 139.34C143.268 139.34 143.305 139.34 143.305 139.34L143.321 139.5H141.961V138.476ZM141.961 130.924V129.9H143.321L143.305 130.06C143.305 130.06 143.268 130.06 143.193 130.06C143.129 130.06 143.097 130.06 143.097 130.06C142.798 130.06 142.542 130.145 142.329 130.316C142.126 130.476 142.02 130.679 142.009 130.924H141.961ZM141.049 130.924H141.001C140.99 130.679 140.878 130.476 140.665 130.316C140.462 130.145 140.212 130.06 139.913 130.06C139.902 130.06 139.86 130.06 139.785 130.06C139.721 130.06 139.689 130.06 139.689 130.06V129.9H141.049V130.924ZM166.424 129.676C166.424 129.676 166.424 129.703 166.424 129.756C166.424 129.799 166.424 129.82 166.424 129.82L160.024 139.5H158.904V139.356L164.872 130.364H159.144V129.884H164.616C164.84 129.884 165.08 129.873 165.336 129.852C165.592 129.831 165.821 129.804 166.024 129.772C166.227 129.74 166.36 129.708 166.424 129.676ZM166.568 139.02L166.456 139.5H159.944V139.02H166.568ZM167.432 137.212L166.568 139.5H164.168L164.712 139.02C165.235 139.009 165.651 138.929 165.96 138.78C166.28 138.631 166.541 138.423 166.744 138.156C166.947 137.879 167.123 137.564 167.272 137.212H167.432ZM159.144 130.332H160.12V130.364C159.885 130.375 159.693 130.46 159.544 130.62C159.395 130.769 159.32 130.961 159.32 131.196V131.436H159.144V130.332ZM159.144 129.628C159.24 129.66 159.389 129.697 159.592 129.74C159.795 129.772 160.013 129.804 160.248 129.836C160.493 129.857 160.723 129.873 160.936 129.884L159.144 130.044V129.628ZM190.078 129.676C190.078 129.676 190.078 129.703 190.078 129.756C190.078 129.799 190.078 129.82 190.078 129.82L183.678 139.5H182.558V139.356L188.526 130.364H182.798V129.884H188.27C188.494 129.884 188.734 129.873 188.99 129.852C189.246 129.831 189.476 129.804 189.678 129.772C189.881 129.74 190.014 129.708 190.078 129.676ZM190.222 139.02L190.11 139.5H183.598V139.02H190.222ZM191.086 137.212L190.222 139.5H187.822L188.366 139.02C188.889 139.009 189.305 138.929 189.614 138.78C189.934 138.631 190.196 138.423 190.398 138.156C190.601 137.879 190.777 137.564 190.926 137.212H191.086ZM182.798 130.332H183.774V130.364C183.54 130.375 183.348 130.46 183.198 130.62C183.049 130.769 182.974 130.961 182.974 131.196V131.436H182.798V130.332ZM182.798 129.628C182.894 129.66 183.044 129.697 183.246 129.74C183.449 129.772 183.668 129.804 183.902 129.836C184.148 129.857 184.377 129.873 184.59 129.884L182.798 130.044V129.628ZM210.789 129.676L215.189 139.404H213.925L210.517 131.1L210.789 129.676ZM207.701 138.332C207.583 138.652 207.599 138.903 207.749 139.084C207.898 139.255 208.069 139.34 208.261 139.34H208.389V139.5H205.333V139.34C205.333 139.34 205.354 139.34 205.397 139.34C205.439 139.34 205.461 139.34 205.461 139.34C205.685 139.34 205.914 139.265 206.149 139.116C206.383 138.956 206.586 138.695 206.757 138.332H207.701ZM210.789 129.676L210.901 130.78L207.237 139.452H206.229L210.021 131.324C210.021 131.324 210.047 131.26 210.101 131.132C210.165 131.004 210.234 130.849 210.309 130.668C210.394 130.476 210.469 130.289 210.533 130.108C210.597 129.927 210.634 129.783 210.645 129.676H210.789ZM212.677 135.772V136.252H208.437V135.772H212.677ZM213.493 138.332H214.709C214.869 138.695 215.066 138.956 215.301 139.116C215.535 139.265 215.759 139.34 215.973 139.34C215.973 139.34 215.994 139.34 216.037 139.34C216.079 139.34 216.101 139.34 216.101 139.34V139.5H212.821V139.34H212.949C213.13 139.34 213.295 139.255 213.445 139.084C213.594 138.903 213.61 138.652 213.493 138.332ZM250.694 129.9H252.758C253.26 129.9 253.708 129.959 254.102 130.076C254.508 130.193 254.849 130.364 255.126 130.588C255.414 130.812 255.633 131.084 255.782 131.404C255.932 131.724 256.006 132.087 256.006 132.492C256.006 132.94 255.9 133.356 255.686 133.74C255.473 134.124 255.174 134.439 254.79 134.684C254.417 134.929 253.99 135.079 253.51 135.132C253.692 135.207 253.9 135.372 254.134 135.628C254.38 135.884 254.588 136.135 254.758 136.38C254.758 136.38 254.828 136.476 254.966 136.668C255.105 136.849 255.281 137.079 255.494 137.356C255.718 137.623 255.937 137.879 256.15 138.124C256.374 138.369 256.577 138.583 256.758 138.764C256.95 138.945 257.153 139.089 257.366 139.196C257.59 139.292 257.846 139.34 258.134 139.34V139.5H257.638C257.052 139.5 256.566 139.425 256.182 139.276C255.809 139.127 255.505 138.945 255.27 138.732C255.036 138.508 254.833 138.295 254.662 138.092C254.62 138.039 254.518 137.905 254.358 137.692C254.209 137.468 254.044 137.228 253.862 136.972C253.681 136.716 253.516 136.487 253.366 136.284C253.217 136.071 253.126 135.943 253.094 135.9C252.881 135.623 252.636 135.377 252.358 135.164C252.081 134.94 251.788 134.828 251.478 134.828V134.668C251.478 134.668 251.564 134.673 251.734 134.684C251.905 134.684 252.124 134.679 252.39 134.668C252.689 134.657 252.988 134.636 253.286 134.604C253.585 134.561 253.862 134.444 254.118 134.252C254.385 134.06 254.593 133.74 254.742 133.292C254.785 133.175 254.817 133.036 254.838 132.876C254.86 132.716 254.865 132.551 254.854 132.38C254.844 132.081 254.785 131.815 254.678 131.58C254.582 131.345 254.438 131.143 254.246 130.972C254.065 130.801 253.846 130.668 253.59 130.572C253.334 130.476 253.046 130.423 252.726 130.412C252.225 130.391 251.788 130.385 251.414 130.396C251.041 130.407 250.854 130.407 250.854 130.396C250.854 130.385 250.838 130.343 250.806 130.268C250.785 130.183 250.758 130.103 250.726 130.028C250.705 129.943 250.694 129.9 250.694 129.9ZM250.886 129.9V139.5H249.862V129.9H250.886ZM249.91 138.476L250.102 139.5H248.742V139.34C248.742 139.34 248.78 139.34 248.854 139.34C248.929 139.34 248.966 139.34 248.966 139.34C249.222 139.34 249.436 139.255 249.606 139.084C249.777 138.913 249.868 138.711 249.878 138.476H249.91ZM249.91 130.908H249.878C249.868 130.663 249.777 130.46 249.606 130.3C249.436 130.14 249.222 130.06 248.966 130.06C248.966 130.06 248.929 130.06 248.854 130.06C248.78 130.06 248.742 130.06 248.742 130.06V129.9H250.102L249.91 130.908ZM250.838 138.476H250.886C250.897 138.711 250.988 138.913 251.158 139.084C251.329 139.255 251.542 139.34 251.798 139.34C251.798 139.34 251.83 139.34 251.894 139.34C251.969 139.34 252.006 139.34 252.006 139.34L252.022 139.5H250.646L250.838 138.476ZM274.869 129.9V139.5H273.845V129.9H274.869ZM279.173 139.004L279.141 139.5H274.837V139.004H279.173ZM278.421 134.46V134.94H274.837V134.46H278.421ZM279.157 129.9V130.396H274.837V129.9H279.157ZM280.069 137.212L279.189 139.5H276.757L277.301 139.004C277.835 139.004 278.261 138.929 278.581 138.78C278.912 138.62 279.179 138.407 279.381 138.14C279.584 137.863 279.76 137.553 279.909 137.212H280.069ZM278.421 134.908V135.82H278.245V135.612C278.245 135.431 278.192 135.276 278.085 135.148C277.979 135.009 277.813 134.94 277.589 134.94V134.908H278.421ZM278.421 133.58V134.492H277.589V134.46C277.813 134.46 277.979 134.396 278.085 134.268C278.192 134.129 278.245 133.969 278.245 133.788V133.58H278.421ZM279.157 130.348V131.452H278.981V131.212C278.981 130.988 278.907 130.796 278.757 130.636C278.619 130.476 278.427 130.396 278.181 130.396V130.348H279.157ZM279.157 129.644V130.06L277.333 129.9C277.664 129.9 278.016 129.873 278.389 129.82C278.763 129.756 279.019 129.697 279.157 129.644ZM273.877 138.476L274.085 139.5H272.693V139.34C272.693 139.34 272.731 139.34 272.805 139.34C272.88 139.34 272.917 139.34 272.917 139.34C273.184 139.34 273.403 139.255 273.573 139.084C273.744 138.913 273.835 138.711 273.845 138.476H273.877ZM273.877 130.908H273.845C273.835 130.663 273.744 130.46 273.573 130.3C273.403 130.14 273.184 130.06 272.917 130.06C272.917 130.06 272.88 130.06 272.805 130.06C272.731 130.06 272.693 130.06 272.693 130.06V129.9H274.085L273.877 130.908ZM298.212 129.676C298.51 129.676 298.772 129.687 298.996 129.708C299.22 129.729 299.412 129.756 299.572 129.788C299.742 129.809 299.886 129.841 300.004 129.884C300.132 129.916 300.244 129.948 300.34 129.98L300.356 131.564H300.164C300.164 131.127 300.014 130.785 299.716 130.54C299.417 130.284 298.953 130.156 298.324 130.156C297.79 130.156 297.332 130.305 296.948 130.604C296.574 130.892 296.393 131.249 296.404 131.676C296.404 131.815 296.42 131.959 296.452 132.108C296.494 132.247 296.558 132.385 296.644 132.524C296.74 132.663 296.868 132.801 297.028 132.94L300.26 135.436C300.505 135.639 300.686 135.9 300.804 136.22C300.921 136.529 300.985 136.839 300.996 137.148C301.006 137.617 300.884 138.049 300.628 138.444C300.372 138.839 300.025 139.153 299.588 139.388C299.161 139.612 298.686 139.724 298.164 139.724C297.854 139.724 297.518 139.697 297.156 139.644C296.804 139.591 296.473 139.511 296.164 139.404C295.854 139.287 295.598 139.143 295.396 138.972C295.364 138.823 295.348 138.636 295.348 138.412C295.348 138.177 295.364 137.932 295.396 137.676C295.438 137.42 295.492 137.191 295.556 136.988H295.748C295.705 137.468 295.774 137.879 295.956 138.22C296.137 138.561 296.404 138.823 296.756 139.004C297.108 139.175 297.518 139.255 297.988 139.244C298.649 139.223 299.166 139.057 299.54 138.748C299.924 138.428 300.116 138.007 300.116 137.484C300.116 137.228 300.068 136.999 299.972 136.796C299.886 136.583 299.742 136.385 299.54 136.204L296.34 133.74C296.041 133.484 295.838 133.201 295.732 132.892C295.625 132.583 295.572 132.289 295.572 132.012C295.572 131.575 295.689 131.18 295.924 130.828C296.158 130.476 296.473 130.199 296.868 129.996C297.273 129.783 297.721 129.676 298.212 129.676ZM300.324 129.82L300.34 130.108H299.204V129.82H300.324ZM320.93 129.948V139.5H319.89V129.948H320.93ZM324.802 129.884V130.364H316.018V129.884H324.802ZM324.802 130.332V131.436H324.626V131.18C324.626 130.956 324.552 130.769 324.402 130.62C324.264 130.46 324.072 130.375 323.826 130.364V130.332H324.802ZM324.802 129.628V130.044L323.01 129.884C323.224 129.884 323.448 129.873 323.682 129.852C323.928 129.82 324.152 129.783 324.354 129.74C324.557 129.697 324.706 129.66 324.802 129.628ZM319.922 138.476V139.5H318.754V139.34C318.765 139.34 318.797 139.34 318.85 139.34C318.914 139.34 318.946 139.34 318.946 139.34C319.202 139.34 319.421 139.255 319.602 139.084C319.784 138.913 319.88 138.711 319.89 138.476H319.922ZM320.882 138.476H320.93C320.941 138.711 321.037 138.913 321.218 139.084C321.4 139.255 321.618 139.34 321.874 139.34C321.874 139.34 321.901 139.34 321.954 139.34C322.018 139.34 322.05 139.34 322.05 139.34V139.5H320.882V138.476ZM316.994 130.332V130.364C316.749 130.375 316.552 130.46 316.402 130.62C316.264 130.769 316.194 130.956 316.194 131.18V131.436H316.018V130.332H316.994ZM316.018 129.628C316.114 129.66 316.258 129.697 316.45 129.74C316.653 129.783 316.877 129.82 317.122 129.852C317.368 129.873 317.597 129.884 317.81 129.884L316.018 130.044V129.628ZM343.199 129.676L347.599 139.404H346.335L342.927 131.1L343.199 129.676ZM340.111 138.332C339.994 138.652 340.01 138.903 340.159 139.084C340.309 139.255 340.479 139.34 340.671 139.34H340.799V139.5H337.743V139.34C337.743 139.34 337.765 139.34 337.807 139.34C337.85 139.34 337.871 139.34 337.871 139.34C338.095 139.34 338.325 139.265 338.559 139.116C338.794 138.956 338.997 138.695 339.167 138.332H340.111ZM343.199 129.676L343.311 130.78L339.647 139.452H338.639L342.431 131.324C342.431 131.324 342.458 131.26 342.511 131.132C342.575 131.004 342.645 130.849 342.719 130.668C342.805 130.476 342.879 130.289 342.943 130.108C343.007 129.927 343.045 129.783 343.055 129.676H343.199ZM345.087 135.772V136.252H340.847V135.772H345.087ZM345.903 138.332H347.119C347.279 138.695 347.477 138.956 347.711 139.116C347.946 139.265 348.17 139.34 348.383 139.34C348.383 139.34 348.405 139.34 348.447 139.34C348.49 139.34 348.511 139.34 348.511 139.34V139.5H345.231V139.34H345.359C345.541 139.34 345.706 139.255 345.855 139.084C346.005 138.903 346.021 138.652 345.903 138.332ZM364.384 129.9V135.948C364.384 136.983 364.646 137.799 365.168 138.396C365.702 138.993 366.427 139.292 367.344 139.292C368.358 139.292 369.152 139.009 369.728 138.444C370.315 137.879 370.608 137.105 370.608 136.124V129.9H371.344V136.124C371.344 137.233 370.987 138.113 370.272 138.764C369.568 139.404 368.598 139.724 367.36 139.724C366.134 139.724 365.158 139.404 364.432 138.764C363.718 138.124 363.36 137.249 363.36 136.14V129.9H364.384ZM363.392 129.9V130.748H363.36C363.35 130.556 363.27 130.396 363.12 130.268C362.982 130.129 362.806 130.06 362.592 130.06C362.592 130.06 362.55 130.06 362.464 130.06C362.39 130.06 362.352 130.06 362.352 130.06V129.9H363.392ZM365.392 129.9V130.06C365.392 130.06 365.35 130.06 365.264 130.06C365.19 130.06 365.152 130.06 365.152 130.06C364.95 130.06 364.768 130.129 364.608 130.268C364.459 130.396 364.384 130.556 364.384 130.748H364.352V129.9H365.392ZM370.64 129.9V130.748H370.608C370.608 130.556 370.534 130.396 370.384 130.268C370.235 130.129 370.054 130.06 369.84 130.06C369.84 130.06 369.798 130.06 369.712 130.06C369.638 130.06 369.6 130.06 369.6 130.06V129.9H370.64ZM372.352 129.9V130.06C372.352 130.06 372.31 130.06 372.224 130.06C372.15 130.06 372.112 130.06 372.112 130.06C371.91 130.06 371.734 130.129 371.584 130.268C371.435 130.396 371.355 130.556 371.344 130.748H371.312V129.9H372.352ZM389.667 129.9H391.731C392.233 129.9 392.681 129.959 393.075 130.076C393.481 130.193 393.822 130.364 394.099 130.588C394.387 130.812 394.606 131.084 394.755 131.404C394.905 131.724 394.979 132.087 394.979 132.492C394.979 132.94 394.873 133.356 394.659 133.74C394.446 134.124 394.147 134.439 393.763 134.684C393.39 134.929 392.963 135.079 392.483 135.132C392.665 135.207 392.873 135.372 393.107 135.628C393.353 135.884 393.561 136.135 393.731 136.38C393.731 136.38 393.801 136.476 393.939 136.668C394.078 136.849 394.254 137.079 394.467 137.356C394.691 137.623 394.91 137.879 395.123 138.124C395.347 138.369 395.55 138.583 395.731 138.764C395.923 138.945 396.126 139.089 396.339 139.196C396.563 139.292 396.819 139.34 397.107 139.34V139.5H396.611C396.025 139.5 395.539 139.425 395.155 139.276C394.782 139.127 394.478 138.945 394.243 138.732C394.009 138.508 393.806 138.295 393.635 138.092C393.593 138.039 393.491 137.905 393.331 137.692C393.182 137.468 393.017 137.228 392.835 136.972C392.654 136.716 392.489 136.487 392.339 136.284C392.19 136.071 392.099 135.943 392.067 135.9C391.854 135.623 391.609 135.377 391.331 135.164C391.054 134.94 390.761 134.828 390.451 134.828V134.668C390.451 134.668 390.537 134.673 390.707 134.684C390.878 134.684 391.097 134.679 391.363 134.668C391.662 134.657 391.961 134.636 392.259 134.604C392.558 134.561 392.835 134.444 393.091 134.252C393.358 134.06 393.566 133.74 393.715 133.292C393.758 133.175 393.79 133.036 393.811 132.876C393.833 132.716 393.838 132.551 393.827 132.38C393.817 132.081 393.758 131.815 393.651 131.58C393.555 131.345 393.411 131.143 393.219 130.972C393.038 130.801 392.819 130.668 392.563 130.572C392.307 130.476 392.019 130.423 391.699 130.412C391.198 130.391 390.761 130.385 390.387 130.396C390.014 130.407 389.827 130.407 389.827 130.396C389.827 130.385 389.811 130.343 389.779 130.268C389.758 130.183 389.731 130.103 389.699 130.028C389.678 129.943 389.667 129.9 389.667 129.9ZM389.859 129.9V139.5H388.835V129.9H389.859ZM388.883 138.476L389.075 139.5H387.715V139.34C387.715 139.34 387.753 139.34 387.827 139.34C387.902 139.34 387.939 139.34 387.939 139.34C388.195 139.34 388.409 139.255 388.579 139.084C388.75 138.913 388.841 138.711 388.851 138.476H388.883ZM388.883 130.908H388.851C388.841 130.663 388.75 130.46 388.579 130.3C388.409 130.14 388.195 130.06 387.939 130.06C387.939 130.06 387.902 130.06 387.827 130.06C387.753 130.06 387.715 130.06 387.715 130.06V129.9H389.075L388.883 130.908ZM389.811 138.476H389.859C389.87 138.711 389.961 138.913 390.131 139.084C390.302 139.255 390.515 139.34 390.771 139.34C390.771 139.34 390.803 139.34 390.867 139.34C390.942 139.34 390.979 139.34 390.979 139.34L390.995 139.5H389.619L389.811 138.476ZM416.163 129.676L420.563 139.404H419.299L415.891 131.1L416.163 129.676ZM413.075 138.332C412.957 138.652 412.973 138.903 413.123 139.084C413.272 139.255 413.443 139.34 413.635 139.34H413.763V139.5H410.707V139.34C410.707 139.34 410.728 139.34 410.771 139.34C410.813 139.34 410.835 139.34 410.835 139.34C411.059 139.34 411.288 139.265 411.523 139.116C411.757 138.956 411.96 138.695 412.131 138.332H413.075ZM416.163 129.676L416.275 130.78L412.611 139.452H411.603L415.395 131.324C415.395 131.324 415.421 131.26 415.475 131.132C415.539 131.004 415.608 130.849 415.683 130.668C415.768 130.476 415.843 130.289 415.907 130.108C415.971 129.927 416.008 129.783 416.019 129.676H416.163ZM418.051 135.772V136.252H413.811V135.772H418.051ZM418.867 138.332H420.083C420.243 138.695 420.44 138.956 420.675 139.116C420.909 139.265 421.133 139.34 421.347 139.34C421.347 139.34 421.368 139.34 421.411 139.34C421.453 139.34 421.475 139.34 421.475 139.34V139.5H418.195V139.34H418.323C418.504 139.34 418.669 139.255 418.819 139.084C418.968 138.903 418.984 138.652 418.867 138.332ZM437.044 129.66L445.908 138.012L446.068 139.724L437.204 131.324L437.044 129.66ZM437.076 138.508V139.5H435.876V139.34C435.876 139.34 435.919 139.34 436.004 139.34C436.1 139.34 436.148 139.34 436.148 139.34C436.393 139.34 436.601 139.26 436.772 139.1C436.943 138.94 437.028 138.743 437.028 138.508H437.076ZM437.748 138.508C437.748 138.743 437.833 138.94 438.004 139.1C438.185 139.26 438.393 139.34 438.628 139.34C438.628 139.34 438.671 139.34 438.756 139.34C438.852 139.34 438.9 139.34 438.9 139.34V139.5H437.7V138.508H437.748ZM437.044 129.66L437.732 130.556L437.748 139.5H437.028V131.66C437.028 131.116 437.001 130.647 436.948 130.252C436.905 129.857 436.884 129.66 436.884 129.66H437.044ZM446.068 129.9V137.676C446.068 138.017 446.079 138.348 446.1 138.668C446.121 138.977 446.143 139.233 446.164 139.436C446.196 139.628 446.212 139.724 446.212 139.724H446.068L445.364 138.876V129.9H446.068ZM446.02 130.892V129.9H447.22V130.06C447.22 130.06 447.172 130.06 447.076 130.06C446.991 130.06 446.948 130.06 446.948 130.06C446.713 130.06 446.505 130.14 446.324 130.3C446.153 130.46 446.068 130.657 446.068 130.892H446.02ZM445.364 130.892C445.353 130.657 445.263 130.46 445.092 130.3C444.921 130.14 444.713 130.06 444.468 130.06C444.468 130.06 444.42 130.06 444.324 130.06C444.239 130.06 444.196 130.06 444.196 130.06V129.9H445.396V130.892H445.364ZM466.857 129.948V139.5H465.817V129.948H466.857ZM470.729 129.884V130.364H461.945V129.884H470.729ZM470.729 130.332V131.436H470.553V131.18C470.553 130.956 470.478 130.769 470.329 130.62C470.19 130.46 469.998 130.375 469.753 130.364V130.332H470.729ZM470.729 129.628V130.044L468.937 129.884C469.15 129.884 469.374 129.873 469.609 129.852C469.854 129.82 470.078 129.783 470.281 129.74C470.483 129.697 470.633 129.66 470.729 129.628ZM465.849 138.476V139.5H464.681V139.34C464.691 139.34 464.723 139.34 464.777 139.34C464.841 139.34 464.873 139.34 464.873 139.34C465.129 139.34 465.347 139.255 465.529 139.084C465.71 138.913 465.806 138.711 465.817 138.476H465.849ZM466.809 138.476H466.857C466.867 138.711 466.963 138.913 467.145 139.084C467.326 139.255 467.545 139.34 467.801 139.34C467.801 139.34 467.827 139.34 467.881 139.34C467.945 139.34 467.977 139.34 467.977 139.34V139.5H466.809V138.476ZM462.921 130.332V130.364C462.675 130.375 462.478 130.46 462.329 130.62C462.19 130.769 462.121 130.956 462.121 131.18V131.436H461.945V130.332H462.921ZM461.945 129.628C462.041 129.66 462.185 129.697 462.377 129.74C462.579 129.783 462.803 129.82 463.049 129.852C463.294 129.873 463.523 129.884 463.737 129.884L461.945 130.044V129.628Z" fill="white"/>
</g>
<defs>
<filter id="filter0_d_93_4" x="-2" y="-9.5" width="591" height="165" filterUnits="userSpaceOnUse" color-interpolation-filters="sRGB">
<feFlood flood-opacity="0" result="BackgroundImageFix"/>
<feColorMatrix in="SourceAlpha" type="matrix" values="0 0 0 0 0 0 0 0 0 0 0 0 0 0 0 0 0 0 127 0" result="hardAlpha"/>
<feOffset/>
<feGaussianBlur stdDeviation="5"/>
<feComposite in2="hardAlpha" operator="out"/>
<feColorMatrix type="matrix" values="0 0 0 0 0 0 0 0 0 0 0 0 0 0 0 0 0 0 0.4 0"/>
<feBlend mode="normal" in2="BackgroundImageFix" result="effect1_dropShadow_93_4"/>
<feBlend mode="normal" in="SourceGraphic" in2="effect1_dropShadow_93_4" result="shape"/>
</filter>
</defs>
</svg>
