<svg width="558" height="147" viewBox="0 0 558 147" fill="none" xmlns="http://www.w3.org/2000/svg">
<g filter="url(#filter0_d_102_3)">
<path d="M24.9545 26.3V93.5C24.9545 96.188 24.5065 98.684 23.6105 100.988C22.7145 103.356 21.4665 105.404 19.8665 107.132C18.2665 108.86 16.4105 110.204 14.2985 111.164C12.1865 112.188 9.9145 112.7 7.4825 112.7V111.836C9.5945 111.068 11.4825 109.724 13.1465 107.804C14.8745 105.948 16.2185 103.74 17.1785 101.18C18.2025 98.62 18.7145 95.964 18.7145 93.212V26.3H24.9545ZM19.0025 33.308H18.7145C18.6505 31.644 18.0105 30.236 16.7945 29.084C15.6425 27.868 14.2345 27.26 12.5705 27.26C12.5705 27.26 12.3465 27.26 11.8985 27.26C11.5145 27.26 11.3225 27.26 11.3225 27.26V26.3H19.0025V33.308ZM24.6665 33.308V26.3H32.3465V27.26C32.3465 27.26 32.1225 27.26 31.6745 27.26C31.2905 27.26 31.0985 27.26 31.0985 27.26C29.4345 27.26 27.9945 27.868 26.7785 29.084C25.6265 30.236 25.0185 31.644 24.9545 33.308H24.6665ZM79.8875 35.9V93.5H73.8395V35.9H79.8875ZM74.1275 87.356V93.5H65.9675V92.54C65.9675 92.54 66.1915 92.54 66.6395 92.54C67.0875 92.54 67.3115 92.54 67.3115 92.54C69.1035 92.54 70.6075 92.028 71.8235 91.004C73.1035 89.98 73.7755 88.764 73.8395 87.356H74.1275ZM79.5995 87.356H79.8875C79.9515 88.764 80.5915 89.98 81.8075 91.004C83.0875 92.028 84.6235 92.54 86.4155 92.54C86.4155 92.54 86.6075 92.54 86.9915 92.54C87.4395 92.54 87.6635 92.54 87.6635 92.54L87.7595 93.5H79.5995V87.356ZM79.5995 42.044V35.9H87.7595L87.6635 36.86C87.6635 36.86 87.4395 36.86 86.9915 36.86C86.6075 36.86 86.4155 36.86 86.4155 36.86C84.6235 36.86 83.0875 37.372 81.8075 38.396C80.5915 39.356 79.9515 40.572 79.8875 42.044H79.5995ZM74.1275 42.044H73.8395C73.7755 40.572 73.1035 39.356 71.8235 38.396C70.6075 37.372 69.1035 36.86 67.3115 36.86C67.2475 36.86 66.9915 36.86 66.5435 36.86C66.1595 36.86 65.9675 36.86 65.9675 36.86V35.9H74.1275V42.044ZM127.306 34.46L180.49 84.572L181.45 94.844L128.266 44.444L127.306 34.46ZM127.498 87.548V93.5H120.298V92.54C120.298 92.54 120.554 92.54 121.066 92.54C121.642 92.54 121.93 92.54 121.93 92.54C123.402 92.54 124.65 92.06 125.674 91.1C126.698 90.14 127.21 88.956 127.21 87.548H127.498ZM131.53 87.548C131.53 88.956 132.042 90.14 133.066 91.1C134.154 92.06 135.402 92.54 136.81 92.54C136.81 92.54 137.066 92.54 137.578 92.54C138.154 92.54 138.442 92.54 138.442 92.54V93.5H131.242V87.548H131.53ZM127.306 34.46L131.434 39.836L131.53 93.5H127.21V46.46C127.21 43.196 127.05 40.38 126.73 38.012C126.474 35.644 126.346 34.46 126.346 34.46H127.306ZM181.45 35.9V82.556C181.45 84.604 181.514 86.588 181.642 88.508C181.77 90.364 181.898 91.9 182.026 93.116C182.218 94.268 182.314 94.844 182.314 94.844H181.45L177.226 89.756V35.9H181.45ZM181.162 41.852V35.9H188.362V36.86C188.362 36.86 188.074 36.86 187.498 36.86C186.986 36.86 186.73 36.86 186.73 36.86C185.322 36.86 184.074 37.34 182.986 38.3C181.962 39.26 181.45 40.444 181.45 41.852H181.162ZM177.226 41.852C177.162 40.444 176.618 39.26 175.594 38.3C174.57 37.34 173.322 36.86 171.85 36.86C171.85 36.86 171.562 36.86 170.986 36.86C170.474 36.86 170.218 36.86 170.218 36.86V35.9H177.418V41.852H177.226ZM234.086 35.9V93.5H227.942V35.9H234.086ZM259.91 90.524L259.718 93.5H233.894V90.524H259.91ZM255.398 63.26V66.14H233.894V63.26H255.398ZM259.814 35.9V38.876H233.894V35.9H259.814ZM265.286 79.772L260.006 93.5H245.414L248.678 90.524C251.878 90.524 254.438 90.076 256.358 89.18C258.342 88.22 259.942 86.94 261.158 85.34C262.374 83.676 263.43 81.82 264.326 79.772H265.286ZM255.398 65.948V71.42H254.342V70.172C254.342 69.084 254.022 68.156 253.382 67.388C252.742 66.556 251.75 66.14 250.406 66.14V65.948H255.398ZM255.398 57.98V63.452H250.406V63.26C251.75 63.26 252.742 62.876 253.382 62.108C254.022 61.276 254.342 60.316 254.342 59.228V57.98H255.398ZM259.814 38.588V45.212H258.758V43.772C258.758 42.428 258.31 41.276 257.414 40.316C256.582 39.356 255.43 38.876 253.958 38.876V38.588H259.814ZM259.814 34.364V36.86L248.87 35.9C250.854 35.9 252.966 35.74 255.206 35.42C257.446 35.036 258.982 34.684 259.814 34.364ZM228.134 87.356L229.382 93.5H221.03V92.54C221.03 92.54 221.254 92.54 221.702 92.54C222.15 92.54 222.374 92.54 222.374 92.54C223.974 92.54 225.286 92.028 226.31 91.004C227.334 89.98 227.878 88.764 227.942 87.356H228.134ZM228.134 41.948H227.942C227.878 40.476 227.334 39.26 226.31 38.3C225.286 37.34 223.974 36.86 222.374 36.86C222.374 36.86 222.15 36.86 221.702 36.86C221.254 36.86 221.03 36.86 221.03 36.86V35.9H229.382L228.134 41.948ZM302.524 34.46L355.708 84.572L356.668 94.844L303.484 44.444L302.524 34.46ZM302.716 87.548V93.5H295.516V92.54C295.516 92.54 295.772 92.54 296.284 92.54C296.86 92.54 297.148 92.54 297.148 92.54C298.62 92.54 299.868 92.06 300.892 91.1C301.916 90.14 302.428 88.956 302.428 87.548H302.716ZM306.748 87.548C306.748 88.956 307.26 90.14 308.284 91.1C309.372 92.06 310.62 92.54 312.028 92.54C312.028 92.54 312.284 92.54 312.796 92.54C313.372 92.54 313.66 92.54 313.66 92.54V93.5H306.46V87.548H306.748ZM302.524 34.46L306.652 39.836L306.748 93.5H302.428V46.46C302.428 43.196 302.268 40.38 301.948 38.012C301.692 35.644 301.564 34.46 301.564 34.46H302.524ZM356.668 35.9V82.556C356.668 84.604 356.732 86.588 356.86 88.508C356.988 90.364 357.116 91.9 357.244 93.116C357.436 94.268 357.532 94.844 357.532 94.844H356.668L352.444 89.756V35.9H356.668ZM356.38 41.852V35.9H363.58V36.86C363.58 36.86 363.292 36.86 362.716 36.86C362.204 36.86 361.948 36.86 361.948 36.86C360.54 36.86 359.292 37.34 358.204 38.3C357.18 39.26 356.668 40.444 356.668 41.852H356.38ZM352.444 41.852C352.38 40.444 351.836 39.26 350.812 38.3C349.788 37.34 348.54 36.86 347.068 36.86C347.068 36.86 346.78 36.86 346.204 36.86C345.692 36.86 345.436 36.86 345.436 36.86V35.9H352.636V41.852H352.444ZM423.225 34.556L449.625 92.924H442.041L421.593 43.1L423.225 34.556ZM404.697 86.492C403.993 88.412 404.089 89.916 404.985 91.004C405.881 92.028 406.905 92.54 408.057 92.54H408.825V93.5H390.489V92.54C390.489 92.54 390.617 92.54 390.873 92.54C391.129 92.54 391.257 92.54 391.257 92.54C392.601 92.54 393.977 92.092 395.385 91.196C396.793 90.236 398.009 88.668 399.033 86.492H404.697ZM423.225 34.556L423.897 41.18L401.913 93.212H395.865L418.617 44.444C418.617 44.444 418.777 44.06 419.097 43.292C419.481 42.524 419.897 41.596 420.345 40.508C420.857 39.356 421.305 38.236 421.689 37.148C422.073 36.06 422.297 35.196 422.361 34.556H423.225ZM434.553 71.132V74.012H409.113V71.132H434.553ZM439.449 86.492H446.745C447.705 88.668 448.889 90.236 450.297 91.196C451.705 92.092 453.049 92.54 454.329 92.54C454.329 92.54 454.457 92.54 454.713 92.54C454.969 92.54 455.097 92.54 455.097 92.54V93.5H435.417V92.54H436.185C437.273 92.54 438.265 92.028 439.161 91.004C440.057 89.916 440.153 88.412 439.449 86.492ZM488.993 34.46L542.177 84.572L543.137 94.844L489.953 44.444L488.993 34.46ZM489.185 87.548V93.5H481.985V92.54C481.985 92.54 482.241 92.54 482.753 92.54C483.329 92.54 483.617 92.54 483.617 92.54C485.089 92.54 486.337 92.06 487.361 91.1C488.385 90.14 488.897 88.956 488.897 87.548H489.185ZM493.217 87.548C493.217 88.956 493.729 90.14 494.753 91.1C495.841 92.06 497.089 92.54 498.497 92.54C498.497 92.54 498.753 92.54 499.265 92.54C499.841 92.54 500.129 92.54 500.129 92.54V93.5H492.929V87.548H493.217ZM488.993 34.46L493.121 39.836L493.217 93.5H488.897V46.46C488.897 43.196 488.737 40.38 488.417 38.012C488.161 35.644 488.033 34.46 488.033 34.46H488.993ZM543.137 35.9V82.556C543.137 84.604 543.201 86.588 543.329 88.508C543.457 90.364 543.585 91.9 543.713 93.116C543.905 94.268 544.001 94.844 544.001 94.844H543.137L538.913 89.756V35.9H543.137ZM542.849 41.852V35.9H550.049V36.86C550.049 36.86 549.761 36.86 549.185 36.86C548.673 36.86 548.417 36.86 548.417 36.86C547.009 36.86 545.761 37.34 544.673 38.3C543.649 39.26 543.137 40.444 543.137 41.852H542.849ZM538.913 41.852C538.849 40.444 538.305 39.26 537.281 38.3C536.257 37.34 535.009 36.86 533.537 36.86C533.537 36.86 533.249 36.86 532.673 36.86C532.161 36.86 531.905 36.86 531.905 36.86V35.9H539.105V41.852H538.913Z" fill="white"/>
<path d="M100.624 128.3H102.736C103.419 128.3 104.005 128.423 104.496 128.668C104.987 128.913 105.365 129.271 105.632 129.74C105.899 130.199 106.032 130.748 106.032 131.388C106.032 131.879 105.936 132.321 105.744 132.716C105.552 133.1 105.296 133.425 104.976 133.692C104.656 133.959 104.293 134.161 103.888 134.3C103.483 134.428 103.061 134.476 102.624 134.444C102.197 134.412 101.781 134.289 101.376 134.076V133.916C101.376 133.916 101.467 133.932 101.648 133.964C101.829 133.985 102.059 133.991 102.336 133.98C102.624 133.959 102.923 133.9 103.232 133.804C103.552 133.697 103.845 133.516 104.112 133.26C104.389 133.004 104.597 132.647 104.736 132.188C104.768 132.071 104.795 131.927 104.816 131.756C104.837 131.575 104.843 131.399 104.832 131.228C104.821 130.492 104.629 129.9 104.256 129.452C103.883 129.004 103.355 128.78 102.672 128.78H100.784C100.784 128.78 100.768 128.743 100.736 128.668C100.715 128.583 100.688 128.503 100.656 128.428C100.635 128.343 100.624 128.3 100.624 128.3ZM100.832 128.3V139.5H99.792V128.3H100.832ZM99.84 138.332V139.5H98.56V139.34C98.56 139.34 98.592 139.34 98.656 139.34C98.7307 139.34 98.768 139.34 98.768 139.34C99.0453 139.34 99.28 139.244 99.472 139.052C99.6747 138.849 99.7813 138.609 99.792 138.332H99.84ZM99.84 129.468H99.792C99.792 129.191 99.6907 128.956 99.488 128.764C99.2853 128.561 99.0453 128.46 98.768 128.46C98.768 128.46 98.736 128.46 98.672 128.46C98.608 128.46 98.576 128.46 98.576 128.46L98.56 128.3H99.84V129.468ZM100.784 138.332H100.832C100.843 138.609 100.944 138.849 101.136 139.052C101.339 139.244 101.579 139.34 101.856 139.34C101.856 139.34 101.888 139.34 101.952 139.34C102.027 139.34 102.064 139.34 102.064 139.34V139.5H100.784V138.332ZM123.908 128.3V139.5H122.868V128.3H123.908ZM122.916 138.332V139.5H121.636V139.34C121.636 139.34 121.668 139.34 121.732 139.34C121.807 139.34 121.844 139.34 121.844 139.34C122.122 139.34 122.356 139.244 122.548 139.052C122.751 138.849 122.858 138.609 122.868 138.332H122.916ZM122.916 129.468H122.868C122.858 129.191 122.751 128.956 122.548 128.764C122.356 128.561 122.122 128.46 121.844 128.46C121.844 128.46 121.807 128.46 121.732 128.46C121.668 128.46 121.636 128.46 121.636 128.46V128.3H122.916V129.468ZM123.86 138.332H123.908C123.919 138.609 124.02 138.849 124.212 139.052C124.415 139.244 124.655 139.34 124.932 139.34C124.932 139.34 124.964 139.34 125.028 139.34C125.092 139.34 125.13 139.34 125.14 139.34V139.5H123.86V138.332ZM123.86 129.468V128.3H125.14V128.46C125.13 128.46 125.092 128.46 125.028 128.46C124.964 128.46 124.932 128.46 124.932 128.46C124.655 128.46 124.415 128.561 124.212 128.764C124.02 128.956 123.919 129.191 123.908 129.468H123.86ZM149.283 128.076C149.283 128.076 149.283 128.103 149.283 128.156C149.283 128.199 149.283 128.22 149.283 128.22L142.147 139.5H140.963V139.356L147.683 128.764H141.187V128.284H147.587C147.8 128.284 148.024 128.273 148.259 128.252C148.504 128.231 148.717 128.204 148.899 128.172C149.091 128.14 149.219 128.108 149.283 128.076ZM149.395 139.02L149.299 139.5H141.987V139.02H149.395ZM149.875 137.036L149.347 139.5H147.235L147.347 139.1L147.523 139.02C148.12 139.02 148.595 138.828 148.947 138.444C149.309 138.06 149.565 137.591 149.715 137.036H149.875ZM142.291 128.764C142.024 128.775 141.8 128.871 141.619 129.052C141.437 129.233 141.347 129.457 141.347 129.724V130.012H141.187V128.716H142.291V128.764ZM141.187 127.996C141.293 128.039 141.453 128.081 141.667 128.124C141.891 128.167 142.136 128.204 142.403 128.236C142.669 128.268 142.915 128.284 143.139 128.284L141.187 128.46V127.996ZM173.624 128.076C173.624 128.076 173.624 128.103 173.624 128.156C173.624 128.199 173.624 128.22 173.624 128.22L166.488 139.5H165.304V139.356L172.024 128.764H165.528V128.284H171.928C172.142 128.284 172.366 128.273 172.6 128.252C172.846 128.231 173.059 128.204 173.24 128.172C173.432 128.14 173.56 128.108 173.624 128.076ZM173.736 139.02L173.64 139.5H166.328V139.02H173.736ZM174.216 137.036L173.688 139.5H171.576L171.688 139.1L171.864 139.02C172.462 139.02 172.936 138.828 173.288 138.444C173.651 138.06 173.907 137.591 174.056 137.036H174.216ZM166.632 128.764C166.366 128.775 166.142 128.871 165.96 129.052C165.779 129.233 165.688 129.457 165.688 129.724V130.012H165.528V128.716H166.632V128.764ZM165.528 127.996C165.635 128.039 165.795 128.081 166.008 128.124C166.232 128.167 166.478 128.204 166.744 128.236C167.011 128.268 167.256 128.284 167.48 128.284L165.528 128.46V127.996ZM194.43 128.076L199.166 139.404H197.806L194.11 129.596L194.43 128.076ZM190.99 138.332C190.916 138.545 190.905 138.727 190.958 138.876C191.012 139.025 191.097 139.143 191.214 139.228C191.342 139.303 191.47 139.34 191.598 139.34H191.742V139.5H188.526V139.34C188.526 139.34 188.553 139.34 188.606 139.34C188.649 139.34 188.67 139.34 188.67 139.34C188.916 139.34 189.166 139.265 189.422 139.116C189.689 138.956 189.908 138.695 190.078 138.332H190.99ZM194.43 128.076L194.574 129.196L190.558 139.452H189.598L193.694 129.724C193.694 129.724 193.721 129.66 193.774 129.532C193.838 129.393 193.908 129.228 193.982 129.036C194.068 128.844 194.137 128.657 194.19 128.476C194.254 128.295 194.286 128.161 194.286 128.076H194.43ZM196.686 135.132V135.612H191.678V135.132H196.686ZM197.406 138.332H198.718C198.878 138.695 199.092 138.956 199.358 139.116C199.625 139.265 199.881 139.34 200.126 139.34C200.126 139.34 200.148 139.34 200.19 139.34C200.233 139.34 200.254 139.34 200.254 139.34V139.5H196.654V139.34H196.798C197.001 139.34 197.182 139.255 197.342 139.084C197.502 138.903 197.524 138.652 197.406 138.332ZM234.941 128.3H237.197C237.677 128.3 238.109 128.369 238.493 128.508C238.888 128.647 239.218 128.849 239.485 129.116C239.752 129.372 239.954 129.687 240.093 130.06C240.242 130.423 240.317 130.839 240.317 131.308C240.317 131.82 240.194 132.311 239.949 132.78C239.714 133.249 239.389 133.633 238.973 133.932C238.568 134.22 238.109 134.364 237.597 134.364C237.778 134.439 237.976 134.593 238.189 134.828C238.402 135.052 238.589 135.271 238.749 135.484C238.749 135.484 238.818 135.591 238.957 135.804C239.106 136.007 239.288 136.257 239.501 136.556C239.725 136.855 239.949 137.148 240.173 137.436C240.397 137.724 240.589 137.953 240.749 138.124C240.962 138.359 241.176 138.567 241.389 138.748C241.602 138.929 241.832 139.073 242.077 139.18C242.333 139.287 242.616 139.34 242.925 139.34V139.5H242.045C241.554 139.5 241.128 139.425 240.765 139.276C240.413 139.127 240.114 138.945 239.869 138.732C239.624 138.508 239.416 138.295 239.245 138.092C239.213 138.049 239.122 137.927 238.973 137.724C238.834 137.521 238.664 137.281 238.461 137.004C238.269 136.716 238.077 136.433 237.885 136.156C237.693 135.879 237.528 135.644 237.389 135.452C237.25 135.249 237.17 135.132 237.149 135.1C236.946 134.833 236.722 134.588 236.477 134.364C236.232 134.14 235.965 134.028 235.677 134.028V133.868C235.677 133.868 235.757 133.873 235.917 133.884C236.088 133.884 236.29 133.879 236.525 133.868C236.802 133.857 237.106 133.815 237.437 133.74C237.768 133.665 238.077 133.511 238.365 133.276C238.653 133.041 238.872 132.684 239.021 132.204C239.053 132.087 239.08 131.943 239.101 131.772C239.122 131.591 239.128 131.415 239.117 131.244C239.106 130.519 238.92 129.943 238.557 129.516C238.205 129.079 237.73 128.844 237.133 128.812C236.834 128.791 236.525 128.785 236.205 128.796C235.896 128.796 235.634 128.796 235.421 128.796C235.208 128.796 235.101 128.796 235.101 128.796C235.101 128.785 235.085 128.743 235.053 128.668C235.032 128.583 235.005 128.503 234.973 128.428C234.952 128.343 234.941 128.3 234.941 128.3ZM235.149 128.3V139.5H234.109V128.3H235.149ZM234.157 138.332V139.5H232.877V139.34C232.877 139.34 232.909 139.34 232.973 139.34C233.048 139.34 233.085 139.34 233.085 139.34C233.362 139.34 233.597 139.244 233.789 139.052C233.992 138.849 234.098 138.609 234.109 138.332H234.157ZM234.157 129.468H234.109C234.098 129.191 233.992 128.956 233.789 128.764C233.597 128.561 233.362 128.46 233.085 128.46C233.085 128.46 233.048 128.46 232.973 128.46C232.909 128.46 232.877 128.46 232.877 128.46V128.3H234.157V129.468ZM235.101 138.332H235.149C235.149 138.609 235.25 138.849 235.453 139.052C235.656 139.244 235.896 139.34 236.173 139.34C236.173 139.34 236.205 139.34 236.269 139.34C236.333 139.34 236.365 139.34 236.365 139.34V139.5H235.101V138.332ZM259.413 128.3V139.5H258.373V128.3H259.413ZM263.733 139.004V139.5H259.365V139.004H263.733ZM263.045 133.74V134.22H259.365V133.74H263.045ZM263.733 128.3V128.796H259.365V128.3H263.733ZM264.709 136.908L263.781 139.5H261.125L261.701 139.004C262.266 139.004 262.725 138.919 263.077 138.748C263.439 138.567 263.733 138.316 263.957 137.996C264.181 137.676 264.378 137.313 264.549 136.908H264.709ZM263.045 134.188V135.244H262.885V135.004C262.885 134.791 262.81 134.609 262.661 134.46C262.511 134.3 262.33 134.22 262.117 134.22V134.188H263.045ZM263.045 132.716V133.772H262.117V133.74C262.33 133.729 262.511 133.649 262.661 133.5C262.81 133.34 262.885 133.153 262.885 132.94V132.716H263.045ZM263.733 128.748V130.028H263.573V129.74C263.573 129.484 263.482 129.265 263.301 129.084C263.119 128.892 262.895 128.791 262.629 128.78V128.748H263.733ZM263.733 128.012V128.476L261.781 128.3C262.015 128.3 262.261 128.284 262.517 128.252C262.783 128.22 263.029 128.183 263.253 128.14C263.477 128.097 263.637 128.055 263.733 128.012ZM258.421 138.332V139.5H257.141V139.34C257.141 139.34 257.173 139.34 257.237 139.34C257.311 139.34 257.349 139.34 257.349 139.34C257.626 139.34 257.861 139.244 258.053 139.052C258.255 138.849 258.362 138.609 258.373 138.332H258.421ZM258.421 129.468H258.373C258.373 129.191 258.271 128.956 258.069 128.764C257.866 128.561 257.626 128.46 257.349 128.46C257.349 128.46 257.317 128.46 257.253 128.46C257.189 128.46 257.157 128.46 257.157 128.46L257.141 128.3H258.421V129.468ZM283.351 128.076C283.522 128.076 283.703 128.087 283.895 128.108C284.098 128.129 284.29 128.161 284.471 128.204C284.663 128.236 284.834 128.273 284.983 128.316C285.143 128.348 285.266 128.385 285.351 128.428V130.204H285.207C285.207 129.692 285.031 129.292 284.679 129.004C284.327 128.705 283.9 128.556 283.399 128.556C282.812 128.556 282.338 128.743 281.975 129.116C281.612 129.479 281.431 129.905 281.431 130.396C281.431 130.599 281.474 130.839 281.559 131.116C281.655 131.383 281.826 131.633 282.071 131.868L285.223 134.78C285.543 135.079 285.756 135.399 285.863 135.74C285.97 136.081 286.023 136.412 286.023 136.732C286.023 137.617 285.751 138.337 285.207 138.892C284.674 139.447 283.948 139.724 283.031 139.724C282.775 139.724 282.471 139.697 282.119 139.644C281.778 139.591 281.442 139.5 281.111 139.372C280.791 139.233 280.524 139.057 280.311 138.844C280.279 138.673 280.263 138.46 280.263 138.204C280.263 137.948 280.284 137.681 280.327 137.404C280.37 137.116 280.428 136.855 280.503 136.62H280.647C280.594 137.164 280.663 137.639 280.855 138.044C281.047 138.449 281.324 138.759 281.687 138.972C282.06 139.175 282.482 139.265 282.951 139.244C283.538 139.212 284.039 139.009 284.455 138.636C284.882 138.252 285.095 137.74 285.095 137.1C285.095 136.791 285.042 136.513 284.935 136.268C284.828 136.012 284.674 135.793 284.471 135.612L281.399 132.764C281.079 132.465 280.855 132.14 280.727 131.788C280.599 131.425 280.535 131.089 280.535 130.78C280.535 130.332 280.642 129.9 280.855 129.484C281.068 129.068 281.383 128.732 281.799 128.476C282.226 128.209 282.743 128.076 283.351 128.076ZM285.351 128.236V128.572H284.135V128.236H285.351ZM306.321 128.348V139.5H305.281V128.348H306.321ZM310.433 128.284V128.764H301.169V128.284H310.433ZM310.433 128.716V130.012L310.273 129.996V129.724C310.273 129.457 310.177 129.233 309.985 129.052C309.803 128.871 309.585 128.775 309.329 128.764V128.716H310.433ZM310.433 127.996V128.46L308.481 128.284C308.715 128.284 308.961 128.268 309.217 128.236C309.483 128.204 309.729 128.167 309.953 128.124C310.177 128.081 310.337 128.039 310.433 127.996ZM305.329 138.332V139.5H304.049V139.34C304.049 139.34 304.081 139.34 304.145 139.34C304.219 139.34 304.257 139.34 304.257 139.34C304.534 139.34 304.769 139.244 304.961 139.052C305.163 138.849 305.27 138.609 305.281 138.332H305.329ZM306.273 138.332H306.321C306.331 138.609 306.433 138.849 306.625 139.052C306.827 139.244 307.067 139.34 307.345 139.34C307.345 139.34 307.377 139.34 307.441 139.34C307.515 139.34 307.553 139.34 307.553 139.34V139.5H306.273V138.332ZM302.273 128.716V128.764C302.006 128.775 301.782 128.871 301.601 129.052C301.419 129.233 301.329 129.457 301.329 129.724V129.996L301.169 130.012V128.716H302.273ZM301.169 127.996C301.275 128.039 301.435 128.081 301.649 128.124C301.873 128.167 302.118 128.204 302.385 128.236C302.651 128.268 302.897 128.284 303.121 128.284L301.169 128.46V127.996ZM329.278 128.076L334.014 139.404H332.654L328.958 129.596L329.278 128.076ZM325.838 138.332C325.764 138.545 325.753 138.727 325.806 138.876C325.86 139.025 325.945 139.143 326.062 139.228C326.19 139.303 326.318 139.34 326.446 139.34H326.59V139.5H323.374V139.34C323.374 139.34 323.401 139.34 323.454 139.34C323.497 139.34 323.518 139.34 323.518 139.34C323.764 139.34 324.014 139.265 324.27 139.116C324.537 138.956 324.756 138.695 324.926 138.332H325.838ZM329.278 128.076L329.422 129.196L325.406 139.452H324.446L328.542 129.724C328.542 129.724 328.569 129.66 328.622 129.532C328.686 129.393 328.756 129.228 328.83 129.036C328.916 128.844 328.985 128.657 329.038 128.476C329.102 128.295 329.134 128.161 329.134 128.076H329.278ZM331.534 135.132V135.612H326.526V135.132H331.534ZM332.254 138.332H333.566C333.726 138.695 333.94 138.956 334.206 139.116C334.473 139.265 334.729 139.34 334.974 139.34C334.974 139.34 334.996 139.34 335.038 139.34C335.081 139.34 335.102 139.34 335.102 139.34V139.5H331.502V139.34H331.646C331.849 139.34 332.03 139.255 332.19 139.084C332.35 138.903 332.372 138.652 332.254 138.332ZM351.227 128.3V135.34C351.227 136.108 351.365 136.785 351.643 137.372C351.931 137.959 352.331 138.417 352.843 138.748C353.355 139.068 353.947 139.228 354.619 139.228C355.333 139.228 355.957 139.073 356.491 138.764C357.024 138.455 357.44 138.028 357.739 137.484C358.037 136.929 358.187 136.284 358.187 135.548V128.3H358.939V135.548C358.939 136.38 358.757 137.111 358.395 137.74C358.043 138.359 357.541 138.844 356.891 139.196C356.24 139.548 355.483 139.724 354.619 139.724C353.733 139.724 352.955 139.553 352.283 139.212C351.621 138.86 351.104 138.375 350.731 137.756C350.368 137.127 350.187 136.396 350.187 135.564V128.3H351.227ZM350.235 128.3V129.26H350.187C350.187 129.025 350.101 128.833 349.931 128.684C349.771 128.535 349.573 128.46 349.339 128.46C349.339 128.46 349.296 128.46 349.211 128.46C349.125 128.46 349.083 128.46 349.083 128.46V128.3H350.235ZM352.331 128.3V128.46C352.331 128.46 352.288 128.46 352.203 128.46C352.117 128.46 352.075 128.46 352.075 128.46C351.84 128.46 351.637 128.535 351.467 128.684C351.307 128.833 351.227 129.025 351.227 129.26H351.195V128.3H352.331ZM358.235 128.3V129.26H358.187C358.187 129.025 358.101 128.833 357.931 128.684C357.771 128.535 357.573 128.46 357.339 128.46C357.339 128.46 357.296 128.46 357.211 128.46C357.125 128.46 357.083 128.46 357.083 128.46V128.3H358.235ZM360.043 128.3V128.46C360.043 128.46 360 128.46 359.915 128.46C359.829 128.46 359.787 128.46 359.787 128.46C359.552 128.46 359.349 128.535 359.179 128.684C359.019 128.833 358.939 129.025 358.939 129.26H358.907V128.3H360.043ZM377.586 128.3H379.842C380.322 128.3 380.754 128.369 381.138 128.508C381.533 128.647 381.863 128.849 382.13 129.116C382.397 129.372 382.599 129.687 382.738 130.06C382.887 130.423 382.962 130.839 382.962 131.308C382.962 131.82 382.839 132.311 382.594 132.78C382.359 133.249 382.034 133.633 381.618 133.932C381.213 134.22 380.754 134.364 380.242 134.364C380.423 134.439 380.621 134.593 380.834 134.828C381.047 135.052 381.234 135.271 381.394 135.484C381.394 135.484 381.463 135.591 381.602 135.804C381.751 136.007 381.933 136.257 382.146 136.556C382.37 136.855 382.594 137.148 382.818 137.436C383.042 137.724 383.234 137.953 383.394 138.124C383.607 138.359 383.821 138.567 384.034 138.748C384.247 138.929 384.477 139.073 384.722 139.18C384.978 139.287 385.261 139.34 385.57 139.34V139.5H384.69C384.199 139.5 383.773 139.425 383.41 139.276C383.058 139.127 382.759 138.945 382.514 138.732C382.269 138.508 382.061 138.295 381.89 138.092C381.858 138.049 381.767 137.927 381.618 137.724C381.479 137.521 381.309 137.281 381.106 137.004C380.914 136.716 380.722 136.433 380.53 136.156C380.338 135.879 380.173 135.644 380.034 135.452C379.895 135.249 379.815 135.132 379.794 135.1C379.591 134.833 379.367 134.588 379.122 134.364C378.877 134.14 378.61 134.028 378.322 134.028V133.868C378.322 133.868 378.402 133.873 378.562 133.884C378.733 133.884 378.935 133.879 379.17 133.868C379.447 133.857 379.751 133.815 380.082 133.74C380.413 133.665 380.722 133.511 381.01 133.276C381.298 133.041 381.517 132.684 381.666 132.204C381.698 132.087 381.725 131.943 381.746 131.772C381.767 131.591 381.773 131.415 381.762 131.244C381.751 130.519 381.565 129.943 381.202 129.516C380.85 129.079 380.375 128.844 379.778 128.812C379.479 128.791 379.17 128.785 378.85 128.796C378.541 128.796 378.279 128.796 378.066 128.796C377.853 128.796 377.746 128.796 377.746 128.796C377.746 128.785 377.73 128.743 377.698 128.668C377.677 128.583 377.65 128.503 377.618 128.428C377.597 128.343 377.586 128.3 377.586 128.3ZM377.794 128.3V139.5H376.754V128.3H377.794ZM376.802 138.332V139.5H375.522V139.34C375.522 139.34 375.554 139.34 375.618 139.34C375.693 139.34 375.73 139.34 375.73 139.34C376.007 139.34 376.242 139.244 376.434 139.052C376.637 138.849 376.743 138.609 376.754 138.332H376.802ZM376.802 129.468H376.754C376.743 129.191 376.637 128.956 376.434 128.764C376.242 128.561 376.007 128.46 375.73 128.46C375.73 128.46 375.693 128.46 375.618 128.46C375.554 128.46 375.522 128.46 375.522 128.46V128.3H376.802V129.468ZM377.746 138.332H377.794C377.794 138.609 377.895 138.849 378.098 139.052C378.301 139.244 378.541 139.34 378.818 139.34C378.818 139.34 378.85 139.34 378.914 139.34C378.978 139.34 379.01 139.34 379.01 139.34V139.5H377.746V138.332ZM404.57 128.076L409.306 139.404H407.946L404.25 129.596L404.57 128.076ZM401.13 138.332C401.055 138.545 401.044 138.727 401.098 138.876C401.151 139.025 401.236 139.143 401.354 139.228C401.482 139.303 401.61 139.34 401.738 139.34H401.882V139.5H398.666V139.34C398.666 139.34 398.692 139.34 398.746 139.34C398.788 139.34 398.81 139.34 398.81 139.34C399.055 139.34 399.306 139.265 399.562 139.116C399.828 138.956 400.047 138.695 400.218 138.332H401.13ZM404.57 128.076L404.714 129.196L400.698 139.452H399.738L403.834 129.724C403.834 129.724 403.86 129.66 403.914 129.532C403.978 129.393 404.047 129.228 404.122 129.036C404.207 128.844 404.276 128.657 404.33 128.476C404.394 128.295 404.426 128.161 404.426 128.076H404.57ZM406.826 135.132V135.612H401.818V135.132H406.826ZM407.546 138.332H408.858C409.018 138.695 409.231 138.956 409.498 139.116C409.764 139.265 410.02 139.34 410.266 139.34C410.266 139.34 410.287 139.34 410.33 139.34C410.372 139.34 410.394 139.34 410.394 139.34V139.5H406.794V139.34H406.938C407.14 139.34 407.322 139.255 407.482 139.084C407.642 138.903 407.663 138.652 407.546 138.332ZM426.152 128.06L435.448 137.98L435.592 139.724L426.296 129.82L426.152 128.06ZM426.184 138.364V139.5H424.856V139.34C424.856 139.34 424.904 139.34 425 139.34C425.096 139.34 425.15 139.34 425.16 139.34C425.427 139.34 425.656 139.244 425.848 139.052C426.04 138.86 426.136 138.631 426.136 138.364H426.184ZM426.872 138.364C426.872 138.631 426.968 138.86 427.16 139.052C427.352 139.244 427.582 139.34 427.848 139.34C427.859 139.34 427.912 139.34 428.008 139.34C428.104 139.34 428.152 139.34 428.152 139.34V139.5H426.824V138.364H426.872ZM426.152 128.06L426.856 128.956L426.872 139.5H426.136V130.06C426.136 129.516 426.11 129.047 426.056 128.652C426.014 128.257 425.992 128.06 425.992 128.06H426.152ZM435.592 128.3V137.676C435.592 138.017 435.603 138.348 435.624 138.668C435.646 138.977 435.667 139.233 435.688 139.436C435.72 139.628 435.736 139.724 435.736 139.724H435.592L434.872 138.876V128.3H435.592ZM436.872 128.3V128.46C436.872 128.46 436.824 128.46 436.728 128.46C436.632 128.46 436.584 128.46 436.584 128.46C436.318 128.46 436.088 128.556 435.896 128.748C435.704 128.929 435.603 129.159 435.592 129.436H435.544V128.3H436.872ZM433.576 128.3H434.904V129.436H434.872C434.862 129.159 434.76 128.929 434.568 128.748C434.387 128.556 434.158 128.46 433.88 128.46C433.88 128.46 433.832 128.46 433.736 128.46C433.64 128.46 433.587 128.46 433.576 128.46V128.3ZM456.981 128.348V139.5H455.941V128.348H456.981ZM461.093 128.284V128.764H451.829V128.284H461.093ZM461.093 128.716V130.012L460.933 129.996V129.724C460.933 129.457 460.837 129.233 460.645 129.052C460.464 128.871 460.245 128.775 459.989 128.764V128.716H461.093ZM461.093 127.996V128.46L459.141 128.284C459.376 128.284 459.621 128.268 459.877 128.236C460.144 128.204 460.389 128.167 460.613 128.124C460.837 128.081 460.997 128.039 461.093 127.996ZM455.989 138.332V139.5H454.709V139.34C454.709 139.34 454.741 139.34 454.805 139.34C454.88 139.34 454.917 139.34 454.917 139.34C455.195 139.34 455.429 139.244 455.621 139.052C455.824 138.849 455.931 138.609 455.941 138.332H455.989ZM456.933 138.332H456.981C456.992 138.609 457.093 138.849 457.285 139.052C457.488 139.244 457.728 139.34 458.005 139.34C458.005 139.34 458.037 139.34 458.101 139.34C458.176 139.34 458.213 139.34 458.213 139.34V139.5H456.933V138.332ZM452.933 128.716V128.764C452.667 128.775 452.443 128.871 452.261 129.052C452.08 129.233 451.989 129.457 451.989 129.724V129.996L451.829 130.012V128.716H452.933ZM451.829 127.996C451.936 128.039 452.096 128.081 452.309 128.124C452.533 128.167 452.779 128.204 453.045 128.236C453.312 128.268 453.557 128.284 453.781 128.284L451.829 128.46V127.996Z" fill="white"/>
</g>
<defs>
<filter id="filter0_d_102_3" x="-1.5" y="-6.5" width="562" height="159" filterUnits="userSpaceOnUse" color-interpolation-filters="sRGB">
<feFlood flood-opacity="0" result="BackgroundImageFix"/>
<feColorMatrix in="SourceAlpha" type="matrix" values="0 0 0 0 0 0 0 0 0 0 0 0 0 0 0 0 0 0 127 0" result="hardAlpha"/>
<feOffset/>
<feGaussianBlur stdDeviation="3.5"/>
<feComposite in2="hardAlpha" operator="out"/>
<feColorMatrix type="matrix" values="0 0 0 0 0 0 0 0 0 0 0 0 0 0 0 0 0 0 0.25 0"/>
<feBlend mode="normal" in2="BackgroundImageFix" result="effect1_dropShadow_102_3"/>
<feBlend mode="normal" in="SourceGraphic" in2="effect1_dropShadow_102_3" result="shape"/>
</filter>
</defs>
</svg>
