<svg width="812" height="253" viewBox="0 0 812 253" fill="none" xmlns="http://www.w3.org/2000/svg">
<path d="M32.128 95L2.816 5.39999H24.32L49.792 84.76H39.04L65.664 5.39999H84.864L110.464 84.76H100.096L126.208 5.39999H146.048L116.736 95H94.464L71.808 25.368H77.696L54.4 95H32.128ZM185.267 96.024C177.416 96.024 170.504 94.488 164.531 91.416C158.643 88.344 154.078 84.1627 150.835 78.872C147.592 73.496 145.971 67.3947 145.971 60.568C145.971 53.656 147.55 47.5547 150.707 42.264C153.95 36.888 158.344 32.7067 163.891 29.72C169.438 26.648 175.71 25.112 182.707 25.112C189.448 25.112 195.507 26.5627 200.883 29.464C206.344 32.28 210.654 36.376 213.811 41.752C216.968 47.0427 218.547 53.4 218.547 60.824C218.547 61.592 218.504 62.488 218.419 63.512C218.334 64.4507 218.248 65.3467 218.163 66.2H162.227V54.552H207.667L199.987 58.008C199.987 54.424 199.262 51.3093 197.811 48.664C196.36 46.0187 194.355 43.9707 191.795 42.52C189.235 40.984 186.248 40.216 182.835 40.216C179.422 40.216 176.392 40.984 173.747 42.52C171.187 43.9707 169.182 46.0613 167.731 48.792C166.28 51.4373 165.555 54.5947 165.555 58.264V61.336C165.555 65.0907 166.366 68.4187 167.987 71.32C169.694 74.136 172.04 76.312 175.027 77.848C178.099 79.2987 181.683 80.024 185.779 80.024C189.448 80.024 192.648 79.4693 195.379 78.36C198.195 77.2507 200.755 75.5867 203.059 73.368L213.683 84.888C210.526 88.472 206.558 91.2453 201.779 93.208C197 95.0853 191.496 96.024 185.267 96.024ZM231.841 95V0.0239944H251.809V95H231.841ZM303.621 96.024C296.197 96.024 289.584 94.5307 283.781 91.544C277.978 88.472 273.413 84.248 270.085 78.872C266.842 73.496 265.221 67.3947 265.221 60.568C265.221 53.656 266.842 47.5547 270.085 42.264C273.413 36.888 277.978 32.7067 283.781 29.72C289.584 26.648 296.197 25.112 303.621 25.112C310.874 25.112 317.189 26.648 322.565 29.72C327.941 32.7067 331.909 37.016 334.469 42.648L318.981 50.968C317.189 47.7253 314.928 45.336 312.197 43.8C309.552 42.264 306.65 41.496 303.493 41.496C300.08 41.496 297.008 42.264 294.277 43.8C291.546 45.336 289.37 47.512 287.749 50.328C286.213 53.144 285.445 56.5573 285.445 60.568C285.445 64.5787 286.213 67.992 287.749 70.808C289.37 73.624 291.546 75.8 294.277 77.336C297.008 78.872 300.08 79.64 303.493 79.64C306.65 79.64 309.552 78.9147 312.197 77.464C314.928 75.928 317.189 73.496 318.981 70.168L334.469 78.616C331.909 84.1627 327.941 88.472 322.565 91.544C317.189 94.5307 310.874 96.024 303.621 96.024ZM381.699 96.024C374.36 96.024 367.832 94.488 362.115 91.416C356.483 88.344 352.003 84.1627 348.675 78.872C345.432 73.496 343.811 67.3947 343.811 60.568C343.811 53.656 345.432 47.5547 348.675 42.264C352.003 36.888 356.483 32.7067 362.115 29.72C367.832 26.648 374.36 25.112 381.699 25.112C388.952 25.112 395.438 26.648 401.155 29.72C406.872 32.7067 411.352 36.8453 414.595 42.136C417.838 47.4267 419.459 53.5707 419.459 60.568C419.459 67.3947 417.838 73.496 414.595 78.872C411.352 84.1627 406.872 88.344 401.155 91.416C395.438 94.488 388.952 96.024 381.699 96.024ZM381.699 79.64C385.027 79.64 388.014 78.872 390.659 77.336C393.304 75.8 395.395 73.624 396.931 70.808C398.467 67.9067 399.235 64.4933 399.235 60.568C399.235 56.5573 398.467 53.144 396.931 50.328C395.395 47.512 393.304 45.336 390.659 43.8C388.014 42.264 385.027 41.496 381.699 41.496C378.371 41.496 375.384 42.264 372.739 43.8C370.094 45.336 367.96 47.512 366.339 50.328C364.803 53.144 364.035 56.5573 364.035 60.568C364.035 64.4933 364.803 67.9067 366.339 70.808C367.96 73.624 370.094 75.8 372.739 77.336C375.384 78.872 378.371 79.64 381.699 79.64ZM520.998 25.112C526.459 25.112 531.281 26.2213 535.462 28.44C539.729 30.5733 543.057 33.9013 545.446 38.424C547.921 42.8613 549.158 48.5787 549.158 55.576V95H529.19V58.648C529.19 53.1013 528.038 49.0053 525.734 46.36C523.43 43.7147 520.187 42.392 516.006 42.392C513.105 42.392 510.502 43.0747 508.198 44.44C505.894 45.72 504.102 47.6827 502.822 50.328C501.542 52.9733 500.902 56.344 500.902 60.44V95H480.934V58.648C480.934 53.1013 479.782 49.0053 477.478 46.36C475.259 43.7147 472.059 42.392 467.878 42.392C464.977 42.392 462.374 43.0747 460.07 44.44C457.766 45.72 455.974 47.6827 454.694 50.328C453.414 52.9733 452.774 56.344 452.774 60.44V95H432.806V26.136H451.878V44.952L448.294 39.448C450.683 34.7547 454.054 31.2133 458.406 28.824C462.843 26.3493 467.878 25.112 473.51 25.112C479.825 25.112 485.329 26.7333 490.022 29.976C494.801 33.1333 497.958 37.9973 499.494 44.568L492.454 42.648C494.758 37.272 498.427 33.0053 503.462 29.848C508.582 26.6907 514.427 25.112 520.998 25.112ZM601.732 96.024C593.881 96.024 586.969 94.488 580.996 91.416C575.108 88.344 570.543 84.1627 567.3 78.872C564.057 73.496 562.436 67.3947 562.436 60.568C562.436 53.656 564.015 47.5547 567.172 42.264C570.415 36.888 574.809 32.7067 580.356 29.72C585.903 26.648 592.175 25.112 599.172 25.112C605.913 25.112 611.972 26.5627 617.348 29.464C622.809 32.28 627.119 36.376 630.276 41.752C633.433 47.0427 635.012 53.4 635.012 60.824C635.012 61.592 634.969 62.488 634.884 63.512C634.799 64.4507 634.713 65.3467 634.628 66.2H578.692V54.552H624.132L616.452 58.008C616.452 54.424 615.727 51.3093 614.276 48.664C612.825 46.0187 610.82 43.9707 608.26 42.52C605.7 40.984 602.713 40.216 599.3 40.216C595.887 40.216 592.857 40.984 590.212 42.52C587.652 43.9707 585.647 46.0613 584.196 48.792C582.745 51.4373 582.02 54.5947 582.02 58.264V61.336C582.02 65.0907 582.831 68.4187 584.452 71.32C586.159 74.136 588.505 76.312 591.492 77.848C594.564 79.2987 598.148 80.024 602.244 80.024C605.913 80.024 609.113 79.4693 611.844 78.36C614.66 77.2507 617.22 75.5867 619.524 73.368L630.148 84.888C626.991 88.472 623.023 91.2453 618.244 93.208C613.465 95.0853 607.961 96.024 601.732 96.024ZM712.716 96.024C704.609 96.024 698.295 93.976 693.772 89.88C689.249 85.6987 686.988 79.512 686.988 71.32V10.904H706.956V71.064C706.956 73.9653 707.724 76.2267 709.26 77.848C710.796 79.384 712.887 80.152 715.532 80.152C718.689 80.152 721.377 79.2987 723.596 77.592L728.972 91.672C726.924 93.1227 724.449 94.232 721.548 95C718.732 95.6827 715.788 96.024 712.716 96.024ZM676.364 43.032V27.672H724.108V43.032H676.364ZM773.384 96.024C766.045 96.024 759.517 94.488 753.8 91.416C748.168 88.344 743.688 84.1627 740.36 78.872C737.117 73.496 735.496 67.3947 735.496 60.568C735.496 53.656 737.117 47.5547 740.36 42.264C743.688 36.888 748.168 32.7067 753.8 29.72C759.517 26.648 766.045 25.112 773.384 25.112C780.637 25.112 787.123 26.648 792.84 29.72C798.557 32.7067 803.037 36.8453 806.28 42.136C809.523 47.4267 811.144 53.5707 811.144 60.568C811.144 67.3947 809.523 73.496 806.28 78.872C803.037 84.1627 798.557 88.344 792.84 91.416C787.123 94.488 780.637 96.024 773.384 96.024ZM773.384 79.64C776.712 79.64 779.699 78.872 782.344 77.336C784.989 75.8 787.08 73.624 788.616 70.808C790.152 67.9067 790.92 64.4933 790.92 60.568C790.92 56.5573 790.152 53.144 788.616 50.328C787.08 47.512 784.989 45.336 782.344 43.8C779.699 42.264 776.712 41.496 773.384 41.496C770.056 41.496 767.069 42.264 764.424 43.8C761.779 45.336 759.645 47.512 758.024 50.328C756.488 53.144 755.72 56.5573 755.72 60.568C755.72 64.4933 756.488 67.9067 758.024 70.808C759.645 73.624 761.779 75.8 764.424 77.336C767.069 78.872 770.056 79.64 773.384 79.64ZM29.184 251V178.296H0.512V161.4H78.592V178.296H49.92V251H29.184ZM76.033 251L115.969 161.4H136.449L176.513 251H154.753L121.985 171.896H130.177L97.281 251H76.033ZM96.001 231.8L101.505 216.056H147.585L153.217 231.8H96.001ZM222.116 252.536C216.057 252.536 210.468 251.427 205.348 249.208C200.313 246.904 196.175 243.661 192.932 239.48L204.452 225.656C206.927 228.899 209.529 231.373 212.26 233.08C214.991 234.701 217.935 235.512 221.092 235.512C229.54 235.512 233.764 230.563 233.764 220.664V178.04H202.276V161.4H254.372V219.512C254.372 230.605 251.641 238.883 246.18 244.344C240.719 249.805 232.697 252.536 222.116 252.536ZM274.854 251V161.4H295.59V251H274.854ZM316.854 251V161.4H334.006L372.15 224.632H363.062L400.566 161.4H417.59L417.846 251H398.39L398.262 191.224H401.846L371.894 241.528H362.55L331.958 191.224H336.31V251H316.854ZM435.008 251L474.944 161.4H495.424L535.488 251H513.728L480.96 171.896H489.152L456.256 251H435.008ZM454.976 231.8L460.48 216.056H506.56L512.192 231.8H454.976ZM557.613 252.024C554.2 252.024 551.256 250.872 548.781 248.568C546.392 246.179 545.197 243.149 545.197 239.48C545.197 235.811 546.392 232.867 548.781 230.648C551.256 228.344 554.2 227.192 557.613 227.192C561.112 227.192 564.056 228.344 566.445 230.648C568.834 232.867 570.029 235.811 570.029 239.48C570.029 243.149 568.834 246.179 566.445 248.568C564.056 250.872 561.112 252.024 557.613 252.024Z" fill="white"/>
</svg>
